<?xml version="1.0" encoding="UTF-8"?>
<svg id="Capa_2" xmlns="http://www.w3.org/2000/svg" viewBox="0 0 823.72 887.16">
  <g id="Capa_1-2" data-name="Capa_1">
    <g>
      <path d="M665.06,553.15c88.2.34,159.19,72.18,158.65,160.54-.54,88.21-72.3,158.76-160.95,158.25-88.33-.51-159.82-72.74-158.91-160.55.91-88.32,72.5-158.59,161.22-158.25ZM681.11,696.8c0-20.83-.17-38.6.06-56.36.15-11.69-2.22-22.43-16.15-22.17-13.95.26-15.66,11.34-15.51,22.83.24,18.18.07,36.37.07,55.71-21.07,0-39.63-1.48-57.74.71-7.54.91-14.13,9.67-21.15,14.86,6.9,5.31,13.36,14.33,20.79,15.21,18.64,2.21,37.72.73,58.1.73,0,20.66-1.46,39.17.69,57.25.91,7.67,8.51,19.57,14.57,20.59,13.39,2.25,16.46-9.35,16.32-21.14-.22-18.28-.06-36.57-.06-56.69,20.25,0,38.55-.16,56.84.06,11.84.14,23.35-3.11,20.99-16.46-1.07-6.07-13.03-13.53-20.74-14.43-18.07-2.13-36.57-.68-57.09-.68Z"/>
      <path d="M308.11,886.8c-52.11,0-104.21.04-156.32,0-98.14-.09-162.18-72.79-150.39-170.67,18.19-151.06,136.99-256.64,289.29-256.93,72.55-.14,145.13-1,217.65.51,26.06.54,52.06,6.67,77.95,11.03,11.16,1.88,19.55,9.84,13.91,20.81-2.86,5.56-14.71,9.68-22.12,9.17-31.39-2.17-62.59-8.6-93.96-9.27-68.56-1.48-137.19-1.26-205.77-.2-133.63,2.06-244.69,114.31-246.21,247.68-.76,66.64,46.9,115.82,113.35,116.01,109.49.31,218.98.09,328.47.09,4.62,0,10.19-1.63,13.65.38,7,4.07,12.86,10.11,19.19,15.33-6.21,5.35-12.05,14.7-18.69,15.3-21.59,1.98-43.46.77-65.23.78-38.26,0-76.51,0-114.77,0Z"/>
      <path d="M395.69,0c113.96-.17,206.38,92.05,206.36,205.9-.02,113.85-92.48,206.07-206.41,205.87-112.94-.2-205.01-92.09-205.35-204.94C189.94,92.8,281.94.16,395.69,0ZM570.26,205.55c-.12-95.59-77.89-173.51-173.42-173.76-96.56-.25-174.87,77.9-174.75,174.4.11,95.57,77.9,173.52,173.41,173.78,96.52.26,174.88-77.95,174.76-174.42Z"/>
    </g>
  </g>
</svg>