<?xml version="1.0" encoding="UTF-8"?>
<svg id="Capa_2" xmlns="http://www.w3.org/2000/svg" viewBox="0 0 878.75 880.5">
  <g id="Capa_1-2" data-name="Capa_1">
    <g>
      <path d="M83.81,880.5v-311.12c-4.93-1.5-9.8-2.04-13.65-4.3-17.12-10.04-36.28-18.13-50.37-31.48-24.64-23.34-24.46-33.08-9.35-63.26,24.09-48.13,48.52-96.1,72-144.53,4.9-10.11,10.63-13.29,21.55-13.16,47.85.6,95.71.26,145.91.26-27.11-57.73-32.26-115.1-10.51-173.71,15.51-41.79,41.86-75.28,78.24-100.82,72.24-50.72,169.15-51.27,241.84-.94,44.02,30.48,73,71.79,86.47,123.88,13.46,52.05,5.8,101.86-17.32,151.59,49.63,0,96.94.47,144.22-.32,12.44-.21,18.69,3.79,24.09,14.91,25.31,52.14,51.19,104.02,77.79,155.51,5.99,11.59,5.08,20.28-1.12,31.06-17.39,30.29-43.82,47.2-78.43,54.52v311.91H83.81ZM112.7,851.87h652.37v-278.02c-25.97-15.31-48.95-28.85-73.04-43.04-32.23,35.79-74.02,47.39-125.36,30v92.47h-255.56v-92.35c-51.32,17.73-93.41,5.03-124.71-29.72-25.46,14.76-48.59,28.17-73.71,42.74v277.93ZM580.42,330.37c64.91-72.26,55.27-189.34-18.55-255.01C485.4,7.33,367.96,14.52,300.49,91.57c-73.52,83.95-47.55,194.78-2.11,237.17,11.98-50.36,46.55-76.13,94.73-85.03-8.01-14.04-14.87-25.56-21.21-37.36-3.82-7.1-5.17-16.29-10.52-21.67-22.25-22.35-27.44-47.9-16.11-76.55,11.93-30.19,35-47.46,67.17-50.59,17.6-1.71,35.63-1.66,53.25-.03,32.21,2.97,55.28,20.17,67.35,50.31,11.45,28.6,6.74,54.51-15.94,76.42-2.89,2.79-5.54,6.2-7.21,9.83-7.31,15.81-14.21,31.8-22.31,50.08,46.07,8.03,80.36,34.12,92.84,86.21ZM439.24,352.78c-16.11-24.1-30.88-45.34-44.65-67.2-5.58-8.87-11.61-10.27-20.63-6.58-27.58,11.28-43.55,31.5-48.13,60.93-2.02,12.96,1.49,21.89,13.71,29.15,60.9,36.15,122.84,39.31,186.06,7.38,30.48-15.39,36.67-32.91,18.28-62.11-8.89-14.11-24.71-24.27-38.54-34.7-8.21-6.2-15.86-3.16-21.84,6.42-13.46,21.55-28.02,42.4-44.26,66.73ZM35.86,483.5c45,0,86.89.34,128.75-.52,4.16-.09,10.19-6.73,11.92-11.56,11.13-31.17,21.36-62.66,31.77-94.09,3.78-11.4,7.25-22.89,11.35-35.86-36.36,0-70.09-.4-103.78.45-4.8.12-11.3,5.32-13.83,9.92-10.53,19.16-19.81,39.01-29.59,58.58-11.79,23.59-23.61,47.17-36.59,73.08ZM658.24,341.46c15.39,46.37,29.75,90.08,44.65,133.61,1.19,3.46,6.15,7.99,9.4,8.03,42.42.54,84.84.36,130.3.36-23.64-47.2-45.91-92.01-68.77-136.53-1.54-2.99-7.51-5.19-11.44-5.24-33.71-.41-67.43-.23-104.14-.23ZM340.62,482.88c2.05-23.89,4.31-47.31,5.78-70.78.2-3.15-2.84-7.39-5.58-9.69-22.49-18.84-45.46-37.09-67.85-56.04-10.83-9.17-21.57-6.83-26.3,7.14-11.91,35.22-23.59,70.51-35.34,105.78-2.5,7.5-4.95,15.02-7.77,23.6h137.07ZM537.79,482.62h136.14c-.85-3.86-1.22-6.73-2.12-9.43-14.5-43.63-29.06-87.24-44.87-134.66-8.61,3.8-16.96,5.74-23.11,10.51-21.81,16.91-42.99,34.63-64.08,52.44-3.5,2.96-7.76,8.02-7.56,11.89,1.18,22.93,3.57,45.8,5.6,69.25ZM530.01,527.81c-2.15.13-4.3.26-6.46.4-22.7,25.86-50.47,40.82-85.29,40.71-34.69-.1-61.75-16.56-86.03-42.9-23.74,32.58-6.95,66.69-13.05,98.34h29.45v-26.02h27.47c.43,9.58.82,18.13,1.2,26.47h26.74c.67-9.36,1.28-17.92,1.88-26.28h28v26.09h28.59v-26.53h27.06c.58,9.28,1.12,17.86,1.65,26.3h27.47c0-23.14.88-45.04-.39-66.81-.59-10.05-5.4-19.85-8.29-29.77ZM375.03,419.77c-1.66,19.87-3.43,41.12-5.22,62.67h138.95c-1.9-22.08-3.7-42.99-5.41-62.82-22.29,2.51-42.7,6.62-63.11,6.62-21.03,0-42.06-4-65.21-6.47ZM481.82,180.39c.27-23.54-15.66-37.81-42.33-37.94-25.1-.12-42.59,13.7-42.86,33.88-.4,30.52,15.77,50.49,41.44,51.19,25.29.69,43.43-18.86,43.75-47.13ZM508.11,147.45c5.13-33.03-14.29-59.28-44.8-61.52-15.86-1.17-31.94-1.14-47.81-.03-31.5,2.2-52.51,31.36-44.21,60.06,48.22-47.36,97.48-39.04,136.82,1.49ZM155.37,513.19H41.8c28,35.66,80.7,36.01,113.57,0ZM210.71,512.99c34.8,36.39,88.04,35.66,113.67,0h-113.67ZM383.36,513.1c23.43,37.14,92.46,34.39,111.14,0h-111.14ZM552.07,513.05c34.38,36.33,87.3,35.71,113.67,0h-113.67ZM723.24,512.6c31.25,36.98,91.74,36.14,112.23,0h-112.23ZM439.22,301.28c8.66-12.96,15.87-22.94,22.18-33.46,5.29-8.83,1.37-13.2-8.29-13.18-8.76.02-17.55-.09-26.28.52-3.56.25-8.63,1.29-10.05,3.71-1.46,2.48-.31,7.7,1.47,10.66,5.99,9.98,12.76,19.48,20.97,31.76Z"/>
      <path d="M695.68,824.16h-28.55v-70.42c-9.88,0-17.96.42-25.99-.09-14.67-.93-20.5-9.44-14.32-22.46,12.89-27.19,26.21-54.2,40.28-80.79,7.4-14,20.61-13.42,28.2,1.09,13.68,26.14,26.83,52.56,39.51,79.2,6.39,13.42,1.05,21.69-13.54,22.98-4.11.36-8.27.1-12.4.11-4,0-8,0-13.19,0v70.39ZM680.98,686.32c-7.36,14.79-12.89,25.91-18.96,38.13h37.95c-6.18-12.41-11.56-23.21-18.98-38.13Z"/>
      <path d="M282.11,683.79v26.4h-140.75v-26.4h140.75Z"/>
      <path d="M281.84,767.11h-139.86v-26.5h139.86v26.5Z"/>
      <path d="M168.81,797.75v25.75h-27.02v-25.75h27.02Z"/>
      <path d="M224.92,824.55h-26.06v-27h26.06v27Z"/>
      <path d="M282.02,824.15h-26.5v-26.82h26.5v26.82Z"/>
    </g>
  </g>
</svg>