<?xml version="1.0" encoding="UTF-8"?>
<svg id="Capa_2" xmlns="http://www.w3.org/2000/svg" viewBox="0 0 885.75 916.29">
  <g id="Capa_1-2" data-name="Capa_1">
    <path d="M74.3,914.84v-144.38c-51.25-11.24-77.28-39.63-72.73-82.09,1.56-14.53,8.02-29.77,16.16-42.11,15.93-24.15,16.58-46.09-.3-69.69-22.97-32.11-23.18-65.3-.22-97.46,16.82-23.56,16.99-45.6.43-69.5-23.8-34.35-23.41-63.79.53-98.91,14.3-20.98,18.06-42.35,2.18-63.05C-2.11,218.36-3.56,186.3,5.97,153.18c18.38-63.89,60.33-103.94,125.63-118.39,9.33-2.07,17.57-3.21,19.65-14.99.75-4.25,4.89-8.58,8.57-11.51,22.53-17.92,68.06-5.21,78.64,23.01,33.09,0,66.76-.29,100.42.07,51.47.54,91.77,33.77,102.39,83.78,5.02,23.63,1.31,43.98-20.8,57.87-2.41,1.52-6.19,4.1-6.05,5.95,1.64,22.13-7.45,45.46,7.17,66.18,4.6,6.52,9.15,13.1,13.26,19.93,14.55,24.14,9.9,47.15-11.89,65.35-4.39,3.66-7.81,10.12-8.85,15.8-2.08,11.36-.86,23.41-3.52,34.57-2.63,11.03-8.35,21.32-13.56,33.97,11.45,0,22.24-.5,32.96.1,24.5,1.36,42.81,20.69,42.67,44.38-.14,22.95-17.89,43.32-41.38,43.57-44.62.47-89.27-.98-134.82-1.65-1.6,21.13-1.6,44.03,13.97,67.35,33.58,50.32,45.75,107.81,44.47,170.58,28.83,0,56.83,0,84.83,0,15.36,0,31.18-2.29,45.93.71,12.9,2.62,26.93,8.8,36.11,17.84,7.75,7.63,13.69,11.78,24.32,11.08,40.4-2.67,70.63,11.76,85.76,51.67,1.24,3.27,6.97,6.78,10.69,6.85,27.59.58,55.2.31,84.17.31,13.64-48.84,27.18-97.13,40.62-145.45,9.21-33.08,19.51-65.93,26.92-99.41,3.92-17.73,12.42-24.23,28.81-20.33,15.07,3.58,31.93,5.81,44,14.32,17.83,12.57,22.06,32.92,16.26,54.62-17.09,63.99-34.21,127.97-50.86,192.07-3.05,11.74-4.82,23.97-5.73,36.09-2.36,31.37-25.77,56.17-57.23,56.42-88.45.68-176.91.44-265.37.14-19.57-.06-30.55-11.56-31.41-30.98-.38-8.5-.06-17.03-.06-26.68h-117.45v56.49H74.3ZM192.61,592.34c0,26-.43,49.92.1,73.82.8,35.94,24.93,66.32,60.17,71.13,23.27,3.17,47.33.6,70.9.6,10.54-101.27-58.47-218.82-151.45-257.81-5.94-2.49-16.01-1.17-21.55,2.41-29.88,19.33-45.66,47.59-46.46,83.2-.76,33.78-.53,67.59-.13,101.37,1.06,88.78,72.26,159.77,161.4,160.38,74.34.52,148.69.13,223.03.07,4.1,0,8.2-.67,13.51-1.14,0-11.4.05-21.74-.01-32.07-.13-22.83-2.74-25.56-25.42-25.58-70.04-.07-140.09.31-210.13-.16-50.52-.34-92.92-33.24-100.49-82.86-4.63-30.33-.86-61.94-.86-93.37h27.4ZM74.48,737.92c0-54.68.21-109.28-.06-163.87-.26-51.43,20.63-91.03,63.91-119.23,4.9-3.19,9.23-11.1,9.44-16.98,1-26.99.91-54.06.04-81.06-.18-5.41-4.17-12.55-8.65-15.69-66.81-46.81-67.08-130.78-.38-176.78,3.97-2.73,8.88-7.76,8.99-11.83.76-29.82.41-59.67.41-89.71-56.57,6.46-101.95,47.19-114.24,100.2-5.8,25.03-4.32,47.5,11.74,69.75,20.77,28.77,20.3,60.59-.3,89.4-19.23,26.89-18.73,50.65.33,77.43,20.55,28.88,20.38,60.66-.23,89.47-19.2,26.86-18.99,50.65.07,77.45,20.55,28.88,19.42,59.73.43,89.73-3.61,5.7-7.91,11.06-10.86,17.08-14.79,30.25,4.17,62.21,39.35,64.64ZM267.81,179.44c44.62,68.33,37.37,111.77-25.4,163.45-2.49,2.05-5.32,5.7-5.25,8.53.37,14.04.96,28.15,3.06,42,.58,3.85,6.17,9.2,10.15,9.9,24.75,4.34,49.62,8.38,74.61,10.92,26.41,2.68,49.19-12.61,56.1-37.76,3.01-10.97,3.06-23.02,2.85-34.55-.26-14.89,4.38-26.36,17.76-33.67,14.11-7.71,15.74-18.85,5.94-30.32-20.53-24.02-26.83-51.54-23.61-82.18.55-5.19-.58-10.57-.97-16.33h-115.24ZM237.65,149.23c53.56,0,104.98-.11,156.4.07,15.41.05,20.57-7.86,19.31-22.15-2.67-30.4-25.54-60.23-57.29-63.36-39.07-3.84-78.82-.92-118.42-.92v86.36ZM193.01,326.13c40.57-.26,73.6-33.96,73.11-74.59-.48-39.82-33.35-72.44-73.2-72.64-40.63-.21-74.03,33.03-74.02,73.66.01,40.59,33.49,73.83,74.11,73.57ZM324.28,856.07c-86.94,8.55-164.63-7.22-219.11-86.81v116.03h219.11v-29.22ZM800.51,827c18.41-68.8,36.8-136.18,54.31-203.79,5.25-20.27-7.9-32.08-32.21-29.77-21.39,77.19-42.9,154.78-64.73,233.57h42.63ZM502.63,886.4c90.09,0,178.39.34,266.69-.31,15.87-.12,25.08-10.72,27.38-27.43h-294.08v27.74ZM265.34,504.59c4.23-14.39-2.47-24.44-13.62-36.48-15.36-16.58-28.12-36.8-37.22-57.55-7.06-16.11-6.81-35.42-9.9-53.83h-26.75c0,29.09-.27,57.13.32,85.16.08,3.73,3.72,8.59,7.1,10.84,26.32,17.46,52.98,34.41,80.06,51.86ZM206.46,32.8h-27.18v115.62h27.18V32.8ZM354.47,473.22c.65-11.26,1.23-21.25,1.65-28.57-30.71-2.31-60.92-4.59-94.18-7.09,26.42,28.4,56.34,38.31,92.53,35.67ZM600.41,826.65c-11.64-26.23-32.59-33.97-67.84-25.92v25.92h67.84ZM412.1,473.55v.09c4.25,0,9.32,1.48,12.58-.31,6.58-3.61,12.18-9.01,18.18-13.67-6.15-5.12-11.58-12.41-18.65-14.77-7.63-2.55-17.31-2.21-25.14.12-5.66,1.68-9.75,8.66-14.54,13.27,4.94,5.09,9.31,11.01,15.04,14.92,2.9,1.98,8.26.35,12.52.35Z"/>
  </g>
</svg>