<?xml version="1.0" encoding="UTF-8"?>
<svg id="Capa_2" xmlns="http://www.w3.org/2000/svg" viewBox="0 0 894.49 889.15">
  <g id="Capa_1-2" data-name="Capa_1">
    <g>
      <g>
        <path d="M432.22,0C194.09-.18.04,193.62,0,431.67c-.05,266.78,247.36,424.77,430.8,431.89,58.48,2.27,107.47-10.91,141.26-23.45,1.53-.74,3.15-1.6,4.82-2.58,1.09-.65,2.12-1.3,3.09-1.95.04-.99.07-2.01.07-3.06,0-2.25-.11-4.37-.29-6.35h-3c-1-2,1-4,0-6h-3v-1.62c-13,.39-26,.68-39-1.38-10.44-1.39-16.52-8.6-22.29-16.57-17.32,3.74-35.19,6.38-53.67,7.86,0-15.04.26-29.11-.08-43.16-.27-11.05-5.31-19.41-15.52-24.46-9.41-4.65-19.58-4.5-26.29,2.51-5.91,6.18-10.29,15.52-11.56,24.04-1.9,12.74-.49,25.97-.49,38.91-56.21,3.84-163.32-34.3-220.91-91.4,9.67-8.72,19.71-17.07,28.94-26.25,13.16-13.09,13.77-28.53,2.37-40.08-11.4-11.54-27.07-11.04-40.09,1.88-9.24,9.17-17.87,18.95-27.84,29.6-55.01-64.8-85.41-136.89-92.24-221.29,13.47,0,25.92.05,38.37-.01,19.82-.1,32.27-10.83,31.98-27.47-.28-16.06-12.59-26.37-31.74-26.48-12.21-.07-24.42-.01-38.4-.01,6.11-83.78,36.88-155.99,92.54-222.1,8.38,9.55,15.54,18.45,23.46,26.61,15.95,16.4,31.01,18.27,43.59,6.04,12.84-12.49,10.96-27.87-5.92-44.46-7.84-7.7-16.26-14.81-25.71-23.35,65.29-55.36,137.52-85.88,221.6-92.31,0,14.11-.08,26.69.02,39.28.15,18.79,11.1,31.11,27.29,30.91,15.75-.19,26.43-12.26,26.63-30.35.14-12.61.03-25.23.03-39.77,83.96,6.08,156.07,36.95,222.07,92.45-10.45,9.34-20.19,17.39-29.17,26.22-13.96,13.72-14.96,29.11-3.38,40.95,11.6,11.87,27.3,11.09,40.97-2.58,8.92-8.92,17.25-18.43,26.97-28.88,55.09,64.8,85.43,136.9,92.29,221.38-15.03,0-29.09-.24-43.14.08-11.04.25-19.44,5.17-24.48,15.45-4.61,9.42-4.57,19.56,2.48,26.28,6.2,5.92,15.51,10.36,24.02,11.65,12.73,1.92,25.97.5,40.92.5-.75,10.18-1.89,20.18-3.38,30.02,12.48,14.32,22.72,31.03,38.76,42.39,2.33,2.04,4.58,4,6.9,5.84,8.43-33.48,12.95-68.5,12.99-104.54C863.93,194.34,670.25.18,432.22,0Z"/>
        <path d="M458.81,404.79c43.5,0,85.52,0,127.54,0,7.77,0,15.55-.28,23.29.1,15.7.76,26.38,11.55,26.61,26.43.24,15.36-10.68,27.19-26.93,27.28-58.85.33-117.71.3-176.56.03-16.82-.08-27.75-11.01-27.81-27.82-.24-73.15-.22-146.31-.03-219.46.04-16.93,11.79-28.82,27.13-28.65,15.23.17,26.64,12.19,26.69,29.17.18,59.26.07,118.52.07,177.78,0,4.46,0,8.91,0,15.14Z"/>
      </g>
      <g>
        <path d="M848.84,808.87c-3.15-.9-8.48-2.07-13.55-3.94-7.48-2.76-10.21-1.75-16.26,3.16-9.67,7.85-12.21,15.82-6.85,28,6.05,13.75-.76,30.98-14.26,38.54-9.79,5.48-20.37,10.09-31.15,13.14-17.66,5.01-33.66-3.93-41.14-21.32-4-9.3-5.66-10.4-15.46-10.32-2.3.02-4.6-.01-6.9-.02-7.57-.03-10.43,1.87-13.31,8.85-8.89,21.51-27.18,29.23-48.73,20.54-5.9-2.38-11.78-4.78-17.64-7.26-19.1-8.06-27.14-27.02-19.66-46.31,4.16-10.74,3.9-11.91-4.31-19.91-1.27-1.23-2.47-2.53-3.71-3.8-5.5-5.61-8.81-6.37-16.12-3.18-11.24,4.9-22.52,5.48-32.99-1.21-4.9-3.13-9.74-7.56-12.48-12.57-4.96-9.1-9.09-18.83-12.19-28.73-5.49-17.56,3.47-34.58,21.16-42.18,9.38-4.03,10.4-5.62,10.32-15.99-.02-2.12.02-4.25.03-6.37.03-7.58-1.85-10.41-8.85-13.31-21.48-8.89-29.21-27.15-20.53-48.73,2.77-6.88,5.5-13.79,8.69-20.48,7.7-16.15,25.5-23.46,42.35-17.64,2,.69,3.94,1.55,5.92,2.32,5.12,2.01,9.76,1.43,13.57-2.77,10-11.04,15.71-10.16,7.85-29.46-5.58-13.72,1.16-30.63,14.51-38.05,9.81-5.46,20.37-10.08,31.15-13.15,17.68-5.03,33.65,3.88,41.13,21.31,4.03,9.38,5.62,10.41,15.99,10.31,1.06-.01,2.14-.14,3.18,0,9.12,1.31,14.13-2.62,17.71-11.2,7.98-19.13,26.69-26.35,46.03-18.71,6.57,2.59,13.13,5.23,19.61,8.03,18.8,8.13,26.98,27.11,19,45.99-3.55,8.4-2.69,14.56,4.48,20,1.39,1.06,2.48,2.52,3.71,3.79,5.46,5.6,8.82,6.35,16.12,3.19,9.13-3.96,18.3-4.99,27.82-1.43,6.86,2.57,13.13,6.42,16.27,12.91,5.36,11.07,10.72,22.38,14.01,34.17,4.21,15.12-4.15,30.52-18.27,37.43-1.74.85-3.57,1.53-5.32,2.37-1.43.68-2.95,1.29-4.19,2.24-8.35,6.41-5.56,28.59,4.19,32.42,9.8,3.86,17.52,9.76,21.76,19.69,3.49,8.18,4,16.54.91,24.81-3.21,8.6-6.6,17.17-10.63,25.4-6.15,12.57-16.8,18.59-32.98,19.41ZM630.76,580.67c-.61,12.66-7.61,21.07-15.61,29.61-13.43,14.33-28.31,18.25-46.36,10.06-6.35-2.88-12.17-.6-15.02,5.68-3.28,7.23-6.29,14.6-9.05,22.05-2.03,5.47.3,10.77,5.41,13.43,1.87.98,3.9,1.65,5.84,2.51,9.55,4.26,17.24,11.05,19.15,21.28,1.81,9.73,2.07,20.09.98,29.94-1.4,12.55-9.64,20.83-21.24,25.68-11.39,4.77-13.05,9.04-8.19,20.61,2.05,4.88,3.96,9.83,6.01,14.71,3.65,8.72,9.04,11.03,17.76,7.28,13.49-5.8,26.18-5.05,37.85,4.31,2.74,2.2,5.07,4.92,7.59,7.4,15.06,14.79,17.46,25.87,9.81,45.33-2.76,7.03-.68,12.57,6.22,15.7,5.3,2.41,10.76,4.46,16.14,6.72,11.96,5.02,16.03,3.44,20.92-8.35,4.09-9.87,10.85-17.83,21.24-19.87,9.87-1.93,20.43-2.19,30.44-1.05,13.01,1.48,21.19,10.26,26.03,22.29,3.95,9.81,9.05,11.77,18.81,7.7,5.05-2.11,10.11-4.21,15.17-6.28,9.78-4,11.92-8.91,7.85-18.71-5.64-13.59-4.54-26.26,5-37.76,2.25-2.71,4.99-5.01,7.46-7.54,14.08-14.44,25.87-16.95,44.5-9.46,7.35,2.96,12.95.94,16.12-6.21,3.08-6.94,5.99-13.96,8.62-21.08,2.14-5.79-.15-11.02-5.57-13.79-1.72-.88-3.57-1.53-5.35-2.3-9.59-4.18-17.38-10.92-19.3-21.12-1.86-9.89-2.15-20.44-.98-30.44,1.52-13.01,10.35-21.14,22.39-25.94,9.55-3.81,11.58-8.97,7.71-18.4-2.21-5.39-4.42-10.78-6.65-16.16-3.76-9.04-8.97-11.16-18.11-7.43-16.73,6.82-29.78,4.07-42.4-8.95-.86-.89-1.67-1.84-2.6-2.65-14.72-12.79-17.97-27.97-9.97-45.79,2.98-6.63.63-12.24-6-15.31-5.44-2.52-11.08-4.62-16.61-6.95-11.53-4.87-15.86-3.19-20.57,8.22-3.29,7.98-8.31,14.65-16.22,18.16-13.86,6.16-28.35,5.78-42.4,1.1-9.72-3.24-15.55-11.12-19.31-20.64-3.75-9.5-8.99-11.47-18.44-7.54-5.71,2.37-11.45,4.66-17.11,7.13-7.78,3.39-9.77,8.83-6.83,16.76,1.94,5.24,3.28,10.71,4.89,16.07Z"/>
        <path d="M798.18,702.47c-.2,50.35-40.65,90.58-90.9,90.42-50.3-.17-90.66-40.71-90.45-90.87.21-50.35,40.66-90.59,90.9-90.41,50.33.18,90.65,40.68,90.44,90.86ZM707.28,634.97c-37.49.17-67.37,30.3-67.07,67.64.3,37.34,30.01,66.89,67.28,66.91,37.44.03,67.42-29.98,67.33-67.39-.08-37.47-30.12-67.34-67.54-67.17Z"/>
      </g>
      <path d="M506.81,801.91c6.06-2.06,12.13-4.13,18.19-6.19,1.99,4.03,6.02,10.68,13.55,15.87,16.48,11.36,35.49,5.9,38.32,5.03.91,1.66,2.82,4.62,6.32,7.1,4.02,2.84,8.01,3.54,9.94,3.74-4.03,2.7-8.42,5.43-13.17,8.12-3.41,1.93-6.74,3.69-9.96,5.29-24.69-12.36-49.38-24.71-74.08-37.07,3.63-.63,7.26-1.26,10.89-1.88Z"/>
      <path d="M805.2,487.31c-1.3,4.78-2.7,9.65-4.2,14.6-.95,3.13-1.91,6.2-2.89,9.22,2.84,1.51,6.92,3.9,11.41,7.42,4.3,3.37,10,8.58,15.48,16.65.69,1.02,3.58,6.04,5.81,13.55,3.63,12.23,1.96,19.52,3.74,20,1.71.46,5.9-5.6,16.77-34.52-15.37-15.64-30.75-31.28-46.12-46.93Z"/>
    </g>
  </g>
</svg>