<?xml version="1.0" encoding="UTF-8"?>
<svg id="Capa_2" xmlns="http://www.w3.org/2000/svg" viewBox="0 0 881.32 879.89">
  <g id="Capa_1-2" data-name="Capa_1">
    <g>
      <path d="M441.4,879.48c0-6.8,0-13,0-19.19,0-246.34-.02-492.69.01-739.03C441.42,45.48,486.8.11,562.54.05c65.47-.05,130.95-.09,196.42.01,77.24.12,122.28,44.82,122.3,121.72.09,246.92.03,493.84.03,740.76v16.94h-439.91ZM625.57,330.64h-74.14v74.04c22.61,0,44.25.32,65.86-.39,2.85-.09,7.82-5.35,7.91-8.34.68-21.58.37-43.19.37-65.32ZM771.16,404.76v-74.04h-74.1c0,22.16-.4,43.24.41,64.27.13,3.36,5.55,9.22,8.7,9.34,21.56.83,43.16.43,65,.43ZM625.65,550.59c0-22.33.4-43.41-.4-64.44-.13-3.4-5.47-9.33-8.58-9.45-21.57-.83-43.2-.44-65.18-.44v74.33h74.15ZM770.96,550.73v-74.51c-22.39,0-43.49-.32-64.55.35-3.13.1-8.68,4.78-8.77,7.49-.72,22.04-.4,44.11-.4,66.67h73.72ZM551.45,257.81c22.15,0,42.12-.25,62.08.12,8.86.16,12.36-3.48,12.24-12.13-.24-17.16.48-34.36-.45-51.48-.23-4.16-5.16-11.4-8.19-11.54-21.53-1.01-43.12-.54-65.68-.54v75.57ZM771.28,257.68v-75.45c-22.53,0-44.12-.47-65.64.53-3.06.14-8.03,7.34-8.26,11.48-.94,17.12-.94,34.34,0,51.46.23,4.13,5.23,11.3,8.3,11.44,21.52,1,43.11.53,65.59.53ZM551.49,698.87c22.59,0,43.15.49,63.63-.46,3.65-.17,9.84-6.15,10.04-9.71,1.03-18.25.93-36.61.11-54.89-.16-3.6-5.1-9.88-8.03-10-21.55-.86-43.15-.46-65.76-.46v75.52ZM771.14,698.87v-75.61c-22.14,0-43.18-.4-64.17.4-3.37.13-9.21,5.48-9.37,8.63-.91,18.84-1.03,37.77-.04,56.6.18,3.5,6.51,9.36,10.21,9.53,20.47.94,41.01.45,63.37.45Z"/>
      <path d="M.21,879.89c0-7.3,0-13.51,0-19.71C.21,673.63.44,487.08,0,300.53c-.08-34.82,11.15-63.59,36.38-87.63,22.02-20.98,42.85-43.2,64.55-64.53,47.64-46.84,109.04-49.83,158.65-5.65,28.24,25.14,53.94,53.17,80.24,80.43,17.91,18.56,26.11,41.43,26.11,67.21.01,192.29.03,384.58-.02,576.87,0,3.89-.9,7.78-1.51,12.66H.21ZM219.68,404.85v-74.14h-74.11c0,22.14-.48,43.23.48,64.24.16,3.45,6.58,9.28,10.31,9.46,20.48.93,41.03.45,63.32.45ZM220.06,550.6v-74.34c-22.3,0-43.91-.24-65.5.29-2.93.07-8.22,3.94-8.28,6.16-.62,22.54-.38,45.11-.38,67.9h74.15ZM219.77,623.34c-22.55,0-44.15-.47-65.68.54-3.04.14-7.97,7.38-8.2,11.54-.93,17.12-.93,34.34.02,51.46.23,4.11,5.27,11.25,8.36,11.39,21.51,1,43.1.53,65.5.53v-75.45Z"/>
    </g>
  </g>
</svg>