<?xml version="1.0" encoding="UTF-8"?>
<svg id="Capa_2" xmlns="http://www.w3.org/2000/svg" viewBox="0 0 926.05 638.44">
  <g id="Capa_1-2" data-name="Capa_1">
    <g>
      <path d="M186.82,368.02c25.71,6.69,48.99,11.98,71.76,19.1,8.15,2.54,12.55,2.08,18.4-4.78,46.19-54.18,106.1-75.08,175.36-80.34-2.66,16.37-4.85,31.19-7.5,45.91-8.14,45.27-16.28,90.55-24.84,135.74-1.87,9.89-.95,17.43,6.71,24.55,12.63,11.73,24.36,24.56,36.22,36.67,13.56-13.91,28.22-27.85,41.36-43.25,3.13-3.67,2.4-12.49,1.35-18.53-9.48-54.38-19.45-108.67-29.21-163-.95-5.3-1.45-10.7-2.4-17.88,68.12,4.51,127.38,25.61,173.7,78.44,7.15,8.15,12.24,8.75,21.89,5.64,21.87-7.05,44.43-11.66,70.23-18.14-6.42,36.28-11.98,67.7-17.54,99.12-.8,4.53-.91,9.34-2.48,13.54-13.58,36.29-3.73,63.92,27.87,83.05,10.32-10.62,22.1-21.74,32.53-34.16,2.62-3.12,1.85-10.58.96-15.71-8.15-46.78-16.67-93.49-25.54-142.78,11.75,1.41,22.16,2.16,32.41,3.99,32.38,5.78,62.21,18.36,88.02,40.2,32.31,27.34,50.81,61.98,49.93,107.24-.75,38.29-.15,76.6-.15,115.82H1.06c-.25-5.14-.7-10.08-.71-15.01-.06-32.28.9-64.61-.25-96.85-1.83-51.7,20.07-89.62,58.62-117.94,32.87-24.14,69.8-35.5,111.57-36.88-6.05,33.71-11.79,65.7-17.53,97.69-.99,5.54-.98,11.55-3.11,16.54-15.83,37.05,4.37,58.88,27.6,77.78,11.03-10.77,22.43-20.99,32.6-32.45,2.77-3.13,3.18-10.25,2.36-15.09-7.18-42.33-14.9-84.55-22.4-126.82-.95-5.37-1.53-10.82-3.01-21.4Z"/>
      <path d="M332.11,138.48C332.65,60.81,391.17-.51,464.26,0c72.7.51,130.15,62.96,129.74,141.02-.4,76.29-59.54,138.39-131.43,138-72.7-.4-131-63.2-130.47-140.54Z"/>
      <path d="M748.74,131.38c58.4.73,103.83,50.43,102.92,112.58-.9,60.91-47.84,109.46-105.28,108.89-57.45-.57-104.37-51.92-103.22-112.95,1.16-61.09,48.01-109.24,105.58-108.53Z"/>
      <path d="M178.41,131.38c58.03-.17,104.79,49.56,104.53,111.18-.25,60.55-47.44,110.45-104.26,110.26-57.63-.19-103.73-48.82-104.25-109.95-.52-61.9,45.57-111.32,103.98-111.49Z"/>
    </g>
  </g>
</svg>