<?xml version="1.0" encoding="UTF-8"?>
<svg id="Capa_2" xmlns="http://www.w3.org/2000/svg" viewBox="0 0 634.03 807.56">
  <defs>
    <style>
      .cls-1 {
        stroke-width: 11.58px;
      }

      .cls-1, .cls-2 {
        fill: none;
        stroke: #000;
        stroke-miterlimit: 10;
      }

      .cls-2 {
        stroke-width: 18.97px;
      }
    </style>
  </defs>
  <g id="Capa_1-2" data-name="Capa_1">
    <g>
      <path d="M500.34,23.64c0,19.23-.19,38.09.11,56.95.1,6,.81,12.17,2.44,17.92,5.01,17.7,20.84,30.09,39.32,30.6,17.11.47,34.25.18,51.37.22,2.42,0,4.84,0,7.59,0v.24c6.87-.03,13.75-.14,20.62-.2,0-1.63.01-3.26.02-4.9.04-6.06-1.89-10.77-6.04-15.11-31.77-33.21-63.47-66.49-95.06-99.87-4.2-4.44-8.8-6.29-14.9-6.27-2.32,0-4.64,0-6.96.01.93,6.71,1.2,13.51,1.2,20.37.1,0,.19.02.3.03ZM520.56,38.45c22.8,24.01,44.35,46.72,66.6,70.16-17.29,0-33.39.82-49.36-.31-9.31-.66-16.91-10.97-17.14-20.78-.36-15.72-.1-31.45-.1-49.06Z"/>
      <g>
        <path d="M109.7,293.87c-6.7-2.74-12.05-6.81-16.06-12.19-4.01-5.38-6.12-11.86-6.34-19.43h29.98c.44,4.28,1.92,7.55,4.45,9.8,2.52,2.25,5.82,3.38,9.88,3.38s7.47-.96,9.88-2.88c2.41-1.92,3.62-4.58,3.62-7.99,0-2.85-.96-5.21-2.88-7.08-1.92-1.87-4.28-3.4-7.08-4.61-2.8-1.21-6.78-2.58-11.94-4.12-7.47-2.31-13.56-4.61-18.28-6.92-4.72-2.31-8.79-5.71-12.19-10.21-3.41-4.5-5.11-10.38-5.11-17.62,0-10.76,3.9-19.19,11.7-25.28,7.8-6.09,17.95-9.14,30.47-9.14s23,3.05,30.8,9.14c7.8,6.09,11.97,14.58,12.52,25.45h-30.47c-.22-3.73-1.59-6.67-4.12-8.81-2.53-2.14-5.76-3.21-9.72-3.21-3.41,0-6.15.91-8.24,2.72-2.09,1.81-3.13,4.42-3.13,7.82,0,3.73,1.76,6.64,5.27,8.73,3.51,2.09,9,4.34,16.47,6.75,7.47,2.53,13.53,4.94,18.2,7.25,4.67,2.31,8.7,5.66,12.11,10.05,3.4,4.39,5.11,10.05,5.11,16.97s-1.67,12.57-5.02,17.95c-3.35,5.38-8.21,9.66-14.58,12.85-6.37,3.19-13.89,4.78-22.56,4.78s-16.03-1.37-22.73-4.12Z"/>
        <path d="M216.68,290.41c-9.06-5.05-16.25-12.11-21.58-21.17-5.33-9.06-7.99-19.24-7.99-30.55s2.66-21.47,7.99-30.47c5.33-9,12.52-16.03,21.58-21.08,9.06-5.05,19.02-7.58,29.89-7.58s20.84,2.53,29.9,7.58c9.06,5.05,16.19,12.08,21.41,21.08,5.21,9.01,7.82,19.16,7.82,30.47s-2.63,21.49-7.91,30.55c-5.27,9.06-12.41,16.12-21.41,21.17-9,5.05-18.94,7.58-29.81,7.58s-20.84-2.53-29.89-7.58ZM268.73,263.07c5.54-6.15,8.32-14.27,8.32-24.38s-2.77-18.36-8.32-24.46c-5.55-6.09-12.93-9.14-22.15-9.14s-16.77,3.02-22.32,9.06c-5.55,6.04-8.32,14.22-8.32,24.54s2.77,18.36,8.32,24.46c5.54,6.09,12.98,9.14,22.32,9.14s16.61-3.07,22.15-9.22Z"/>
        <path d="M393.33,276.41h-43.15l-6.92,20.42h-29.48l41.84-115.63h32.61l41.84,115.63h-29.81l-6.92-20.42ZM386.08,254.66l-14.33-42.33-14.16,42.33h28.49Z"/>
        <path d="M525.92,181.2v22.57h-30.64v93.06h-28.17v-93.06h-30.63v-22.57h89.44Z"/>
      </g>
      <path class="cls-2" d="M562.26,798.08H71.77c-34.4,0-62.28-27.89-62.28-62.28V73.52c0-34.4,27.89-62.28,62.28-62.28,150.56-.58,301.12-1.15,451.68-1.73,16.95,19.69,35.3,39.89,55.14,60.35,13.45,13.87,26.78,27.03,39.92,39.52,2.01,208.81,4.03,417.62,6.04,626.43,0,34.4-27.89,62.28-62.28,62.28Z"/>
      <g>
        <g>
          <path d="M117.39,403.32c6.69-6.37,13.17-12.4,19.51-18.61,5.29-5.18,12.65-3.51,13.99,3.7.45,2.42-.56,5.97-2.14,7.82-7.8,9.14-15.95,17.94-24.1,26.73-3.57,3.86-8.25,3.96-11.89.21-4.77-4.92-9.41-10.02-13.88-15.24-3.23-3.77-2.92-8.6.35-11.91,3.08-3.12,8.04-3.12,11.36.16,2.66,2.63,5.18,5.43,6.81,7.15Z"/>
          <path d="M117.35,502.76c6.56-6.12,13.19-12.14,19.65-18.37,5.22-5.03,12.81-3.14,13.95,4.02.39,2.44-.7,5.93-2.31,7.81-7.72,9.03-15.78,17.73-23.84,26.43-3.89,4.2-8.48,4.11-12.42-.09-4.43-4.71-8.79-9.5-13.05-14.37-3.5-3.99-3.47-8.74-.17-12.24,3.31-3.5,8.16-3.36,11.89.45,2.53,2.58,4.94,5.28,7.4,7.92-.36-.52-.73-1.04-1.09-1.56Z"/>
          <path d="M117.43,612.67c6.69-6.37,13.17-12.4,19.51-18.61,5.29-5.18,12.65-3.51,13.99,3.7.45,2.42-.56,5.97-2.14,7.82-7.8,9.14-15.95,17.94-24.1,26.73-3.57,3.86-8.25,3.96-11.89.21-4.77-4.92-9.41-10.02-13.88-15.24-3.23-3.77-2.92-8.6.35-11.91,3.08-3.12,8.04-3.12,11.36.16,2.66,2.63,5.18,5.43,6.81,7.15Z"/>
          <path d="M117.38,712.11c6.56-6.12,13.19-12.14,19.65-18.37,5.22-5.03,12.81-3.14,13.95,4.02.39,2.44-.7,5.93-2.31,7.81-7.72,9.03-15.78,17.73-23.84,26.43-3.89,4.2-8.48,4.11-12.42-.09-4.43-4.71-8.79-9.5-13.05-14.37-3.5-3.99-3.47-8.74-.17-12.24,3.31-3.5,8.16-3.36,11.89.45,2.53,2.58,4.94,5.28,7.4,7.92-.36-.52-.73-1.04-1.09-1.56Z"/>
        </g>
        <g>
          <path class="cls-1" d="M200.94,403.79h336.49"/>
          <path class="cls-1" d="M200.94,508.77h336.49"/>
          <path class="cls-1" d="M200.94,613.75h336.49"/>
          <path class="cls-1" d="M200.94,718.73h336.49"/>
        </g>
      </g>
    </g>
  </g>
</svg>