<?xml version="1.0" encoding="UTF-8"?>
<svg id="Capa_2" xmlns="http://www.w3.org/2000/svg" viewBox="0 0 777.42 800.11">
  <defs>
    <style>
      .cls-1 {
        stroke-width: 24px;
      }

      .cls-1, .cls-2 {
        fill: none;
        stroke: #000;
        stroke-miterlimit: 10;
      }

      .cls-2 {
        stroke-width: 19px;
      }
    </style>
  </defs>
  <g id="Capa_1-2" data-name="Capa_1">
    <g>
      <g>
        <path d="M454.48,599.65c-40.29,0-80.58.03-120.87-.02-13.43-.01-20.83-5.98-20.6-16.36.22-9.98,7.59-16.07,20.24-16.08,80.58-.07,161.16-.07,241.74,0,12.63.01,19.85,6.13,19.98,16.27.13,10.26-6.85,16.14-19.62,16.16-40.29.06-80.58.02-120.87.02Z"/>
        <path d="M454.07,681.27c-39.2,0-78.4.02-117.59-.03-3.58,0-7.27.07-10.71-.74-8.41-1.99-13.07-7.57-12.62-16.3.45-8.67,5.47-13.77,14.1-15.01,2.47-.35,5.02-.24,7.54-.24,79.47-.01,158.95-.01,238.42,0,2.87,0,5.81-.15,8.61.37,8.09,1.52,12.69,6.56,13.04,14.81.35,8.15-3.41,13.96-11.47,16.05-3.75.98-7.82,1.04-11.74,1.04-39.2.07-78.4.04-117.59.04Z"/>
        <path d="M237.11,599.63c-6.46,0-12.93.19-19.38-.05-9.84-.37-15.89-6.04-16.34-14.91-.45-8.94,4.97-16.51,14.33-17.05,14.66-.85,29.44-.82,44.12-.07,9.3.47,15.15,8.08,14.87,16.73-.3,9.13-6.74,15.03-17.12,15.33-6.81.2-13.64.04-20.46.03Z"/>
        <path d="M239.19,649.06c6.81.01,13.65-.4,20.43.11,9.11.69,14.59,5.94,14.97,15.18.39,9.27-4.74,15.74-13.69,16.28-15.34.92-30.83.91-46.16-.07-9.03-.58-13.81-7.24-13.29-16.52.51-9.33,6.04-14.38,15.17-14.91,7.5-.44,15.05-.09,22.58-.08Z"/>
      </g>
      <path class="cls-2" d="M90.03,17.73h597.37v686.88c0,47.46-38.54,86-86,86H176.03c-47.46,0-86-38.54-86-86V17.73h0Z"/>
      <line class="cls-1" x1=".09" y1="12" x2="777.33" y2="17.73"/>
      <g>
        <path d="M194.08,273.53c-6.7-2.74-12.05-6.81-16.06-12.19-4.01-5.38-6.12-11.86-6.34-19.43h29.98c.44,4.28,1.92,7.55,4.45,9.8,2.52,2.25,5.82,3.38,9.88,3.38s7.47-.96,9.88-2.88c2.41-1.92,3.62-4.58,3.62-7.99,0-2.85-.96-5.21-2.88-7.08-1.92-1.87-4.28-3.4-7.08-4.61-2.8-1.21-6.78-2.58-11.94-4.12-7.47-2.31-13.56-4.61-18.28-6.92-4.72-2.31-8.79-5.71-12.19-10.21-3.41-4.5-5.11-10.38-5.11-17.62,0-10.76,3.9-19.19,11.7-25.28,7.8-6.09,17.95-9.14,30.47-9.14s23,3.05,30.8,9.14c7.8,6.09,11.97,14.58,12.52,25.45h-30.47c-.22-3.73-1.59-6.67-4.12-8.81-2.53-2.14-5.76-3.21-9.72-3.21-3.41,0-6.15.91-8.24,2.72-2.09,1.81-3.13,4.42-3.13,7.82,0,3.73,1.76,6.64,5.27,8.73,3.51,2.09,9,4.34,16.47,6.75,7.47,2.53,13.53,4.94,18.2,7.25,4.67,2.31,8.7,5.66,12.11,10.05,3.4,4.39,5.11,10.05,5.11,16.97s-1.67,12.57-5.02,17.95c-3.35,5.38-8.21,9.66-14.58,12.85-6.37,3.19-13.89,4.78-22.56,4.78s-16.03-1.37-22.73-4.12Z"/>
        <path d="M301.06,270.07c-9.06-5.05-16.25-12.11-21.58-21.17-5.33-9.06-7.99-19.24-7.99-30.55s2.66-21.47,7.99-30.47c5.33-9,12.52-16.03,21.58-21.08,9.06-5.05,19.02-7.58,29.89-7.58s20.84,2.53,29.9,7.58c9.06,5.05,16.19,12.08,21.41,21.08,5.21,9.01,7.82,19.16,7.82,30.47s-2.63,21.49-7.91,30.55c-5.27,9.06-12.41,16.12-21.41,21.17-9,5.05-18.94,7.58-29.81,7.58s-20.84-2.53-29.89-7.58ZM353.11,242.73c5.54-6.15,8.32-14.27,8.32-24.38s-2.77-18.36-8.32-24.46c-5.55-6.09-12.93-9.14-22.15-9.14s-16.77,3.02-22.32,9.06c-5.55,6.04-8.32,14.22-8.32,24.54s2.77,18.36,8.32,24.46c5.54,6.09,12.98,9.14,22.32,9.14s16.61-3.07,22.15-9.22Z"/>
        <path d="M477.71,256.07h-43.15l-6.92,20.42h-29.48l41.84-115.63h32.61l41.84,115.63h-29.81l-6.92-20.42ZM470.46,234.33l-14.33-42.33-14.16,42.33h28.49Z"/>
        <path d="M610.3,160.87v22.57h-30.64v93.06h-28.17v-93.06h-30.63v-22.57h89.44Z"/>
      </g>
      <g>
        <path d="M454.48,424.04c-40.29,0-80.58.03-120.87-.02-13.43-.01-20.83-5.98-20.6-16.36.22-9.98,7.59-16.07,20.24-16.08,80.58-.07,161.16-.07,241.74,0,12.63.01,19.85,6.13,19.98,16.27.13,10.26-6.85,16.14-19.62,16.16-40.29.06-80.58.02-120.87.02Z"/>
        <path d="M454.07,505.67c-39.2,0-78.4.02-117.59-.03-3.58,0-7.27.07-10.71-.74-8.41-1.99-13.07-7.57-12.62-16.3.45-8.67,5.47-13.77,14.1-15.01,2.47-.35,5.02-.24,7.54-.24,79.47-.01,158.95-.01,238.42,0,2.87,0,5.81-.15,8.61.37,8.09,1.52,12.69,6.56,13.04,14.81.35,8.15-3.41,13.96-11.47,16.05-3.75.98-7.82,1.04-11.74,1.04-39.2.07-78.4.04-117.59.04Z"/>
        <path d="M237.11,424.02c-6.46,0-12.93.19-19.38-.05-9.84-.37-15.89-6.04-16.34-14.91-.45-8.94,4.97-16.51,14.33-17.05,14.66-.85,29.44-.82,44.12-.07,9.3.47,15.15,8.08,14.87,16.73-.3,9.13-6.74,15.03-17.12,15.33-6.81.2-13.64.04-20.46.03Z"/>
        <path d="M239.19,473.45c6.81.01,13.65-.4,20.43.11,9.11.69,14.59,5.94,14.97,15.18.39,9.27-4.74,15.74-13.69,16.28-15.34.92-30.83.91-46.16-.07-9.03-.58-13.81-7.24-13.29-16.52.51-9.33,6.04-14.38,15.17-14.91,7.5-.44,15.05-.09,22.58-.08Z"/>
      </g>
    </g>
  </g>
</svg>