<?xml version="1.0" encoding="UTF-8"?>
<svg id="Capa_2" xmlns="http://www.w3.org/2000/svg" viewBox="0 0 707.18 865.16">
  <defs>
    <style>
      .cls-1 {
        fill: #fff;
      }

      .cls-2 {
        fill: none;
        stroke: #000;
        stroke-miterlimit: 10;
        stroke-width: 14.97px;
      }
    </style>
  </defs>
  <g id="Capa_1-2" data-name="Capa_1">
    <g>
      <g>
        <g>
          <path d="M406.32,466.1c-31.75,0-63.5.02-95.26-.01-10.59-.01-16.42-4.71-16.24-12.89.17-7.86,5.98-12.66,15.95-12.67,63.5-.06,127.01-.06,190.51,0,9.96,0,15.64,4.83,15.75,12.82.11,8.08-5.4,12.72-15.47,12.73-31.75.05-63.5.02-95.26.02Z"/>
          <path d="M405.99,530.42c-30.89,0-61.78.01-92.67-.02-2.82,0-5.73.05-8.44-.59-6.63-1.57-10.3-5.96-9.94-12.84.35-6.83,4.31-10.85,11.11-11.83,1.95-.28,3.96-.19,5.94-.19,62.63,0,125.27,0,187.9,0,2.26,0,4.58-.12,6.78.29,6.38,1.19,10,5.17,10.28,11.67.28,6.42-2.69,11-9.04,12.65-2.96.77-6.16.82-9.25.82-30.89.06-61.78.03-92.67.03Z"/>
          <path d="M235.01,466.08c-5.09,0-10.19.15-15.28-.04-7.75-.29-12.52-4.76-12.88-11.75-.36-7.04,3.92-13.01,11.29-13.44,11.56-.67,23.2-.64,34.77-.05,7.33.37,11.94,6.37,11.72,13.18-.24,7.2-5.31,11.84-13.49,12.08-5.37.16-10.75.03-16.13.02Z"/>
          <path d="M236.65,505.03c5.37,0,10.76-.32,16.1.09,7.18.54,11.5,4.68,11.8,11.96.3,7.3-3.73,12.41-10.79,12.83-12.09.72-24.29.72-36.38-.05-7.12-.45-10.88-5.71-10.48-13.02.41-7.36,4.76-11.33,11.95-11.75,5.91-.34,11.86-.07,17.79-.06Z"/>
        </g>
        <path class="cls-2" d="M119.1,7.49h470.78v523.1c0,47.46-38.54,86-86,86H205.1c-47.46,0-86-38.54-86-86V7.49h0Z"/>
        <g>
          <path d="M201.1,209.08c-5.28-2.16-9.5-5.36-12.66-9.61-3.16-4.24-4.82-9.35-5-15.32h23.62c.34,3.37,1.51,5.95,3.5,7.72,1.99,1.77,4.59,2.66,7.79,2.66s5.88-.76,7.79-2.27c1.9-1.51,2.86-3.61,2.86-6.3,0-2.25-.76-4.11-2.27-5.58-1.51-1.47-3.37-2.68-5.58-3.63-2.21-.95-5.34-2.03-9.41-3.25-5.89-1.82-10.69-3.63-14.41-5.45-3.72-1.82-6.92-4.5-9.61-8.05-2.68-3.55-4.02-8.18-4.02-13.89,0-8.48,3.07-15.12,9.22-19.93,6.14-4.8,14.15-7.2,24.01-7.2s18.13,2.4,24.27,7.2c6.14,4.8,9.43,11.49,9.87,20.06h-24.01c-.17-2.94-1.26-5.26-3.25-6.95-1.99-1.69-4.54-2.53-7.66-2.53-2.68,0-4.85.71-6.49,2.14-1.65,1.43-2.47,3.48-2.47,6.17,0,2.94,1.38,5.24,4.15,6.88,2.77,1.65,7.09,3.42,12.98,5.32,5.88,1.99,10.66,3.89,14.34,5.71,3.68,1.82,6.86,4.46,9.54,7.92,2.68,3.46,4.02,7.92,4.02,13.37s-1.32,9.91-3.96,14.15c-2.64,4.24-6.47,7.62-11.49,10.12-5.02,2.51-10.95,3.76-17.78,3.76s-12.64-1.08-17.91-3.25Z"/>
          <path d="M285.41,206.36c-7.14-3.98-12.81-9.54-17-16.68-4.2-7.14-6.3-15.16-6.3-24.08s2.1-16.92,6.3-24.01c4.2-7.09,9.87-12.63,17-16.62,7.14-3.98,14.99-5.97,23.56-5.97s16.42,1.99,23.56,5.97c7.14,3.98,12.76,9.52,16.87,16.62,4.11,7.1,6.17,15.1,6.17,24.01s-2.08,16.94-6.23,24.08c-4.15,7.14-9.78,12.7-16.87,16.68-7.1,3.98-14.93,5.97-23.49,5.97s-16.42-1.99-23.56-5.97ZM326.43,184.81c4.37-4.85,6.56-11.25,6.56-19.21s-2.19-14.47-6.56-19.28c-4.37-4.8-10.19-7.2-17.46-7.2s-13.22,2.38-17.59,7.14c-4.37,4.76-6.56,11.21-6.56,19.34s2.18,14.47,6.56,19.28c4.37,4.8,10.23,7.2,17.59,7.2s13.09-2.42,17.46-7.27Z"/>
          <path d="M424.63,195.32h-34.01l-5.45,16.1h-23.24l32.97-91.12h25.7l32.97,91.12h-23.49l-5.45-16.1ZM418.92,178.19l-11.29-33.36-11.16,33.36h22.46Z"/>
          <path d="M529.12,120.3v17.78h-24.14v73.34h-22.2v-73.34h-24.14v-17.78h70.48Z"/>
        </g>
        <g>
          <path d="M406.32,327.7c-31.75,0-63.5.02-95.26-.01-10.59-.01-16.42-4.71-16.24-12.89.17-7.86,5.98-12.66,15.95-12.67,63.5-.06,127.01-.06,190.51,0,9.96,0,15.64,4.83,15.75,12.82.11,8.08-5.4,12.72-15.47,12.73-31.75.05-63.5.02-95.26.02Z"/>
          <path d="M405.99,392.03c-30.89,0-61.78.01-92.67-.02-2.82,0-5.73.05-8.44-.59-6.63-1.57-10.3-5.96-9.94-12.84.35-6.83,4.31-10.85,11.11-11.83,1.95-.28,3.96-.19,5.94-.19,62.63,0,125.27,0,187.9,0,2.26,0,4.58-.12,6.78.29,6.38,1.19,10,5.17,10.28,11.67.28,6.42-2.69,11-9.04,12.65-2.96.77-6.16.82-9.25.82-30.89.06-61.78.03-92.67.03Z"/>
          <path d="M235.01,327.69c-5.09,0-10.19.15-15.28-.04-7.75-.29-12.52-4.76-12.88-11.75-.36-7.04,3.92-13.01,11.29-13.44,11.56-.67,23.2-.64,34.77-.05,7.33.37,11.94,6.37,11.72,13.18-.24,7.2-5.31,11.84-13.49,12.08-5.37.16-10.75.03-16.13.02Z"/>
          <path d="M236.65,366.64c5.37,0,10.76-.32,16.1.09,7.18.54,11.5,4.68,11.8,11.96.3,7.3-3.73,12.41-10.79,12.83-12.09.72-24.29.72-36.38-.05-7.12-.45-10.88-5.71-10.48-13.02.41-7.36,4.76-11.33,11.95-11.75,5.91-.34,11.86-.07,17.79-.06Z"/>
        </g>
      </g>
      <path class="cls-1" d="M28.73,459.3l382.52-1.9,59.82-94.59,207.97,15.68s17.48,457.07,0,457.07-650.31-.09-650.31-.09v-376.16Z"/>
      <rect class="cls-1" x="65.98" y="404.1" width="402.55" height="98.11"/>
      <g>
        <path d="M679.04,835.56v-457.07c-4.8,0-9.21,0-13.63,0-53.84-.02-107.69.17-161.53-.28-8.8-.07-13.07,2.94-16.47,10.75-6.95,16-15.61,31.28-22.3,47.38-6.97,16.77-18.67,23.22-36.53,23.14-90.2-.41-180.4-.18-270.59-.18-42.77,0-85.53,0-129.26,0v376.16c17.41,0,34.75.09,52.09-.03,9.99-.07,19.48,1.25,19.29,13.94-.18,12.47-9.7,13.95-19.63,13.92-16.57-.05-33.14.26-49.7-.09-19.91-.43-30.68-11.24-30.69-31.11-.11-123.33-.12-246.66,0-369.99.02-20.33,8.15-27.38,37.19-32.28,0-6.77-.1-13.94.02-21.11.4-23.44,10.4-33.41,34-33.42,124.25-.06,248.5-.1,372.76.09,11.28.02,20.17-.09,27.01-12.56,3.59-6.55,15.96-11.48,24.46-11.62,60.27-.98,120.56-.69,180.85-.42,19.89.09,30.72,11.21,30.73,31.04.1,150.02.11,300.05,0,450.07-.01,21.44-11.15,31.38-34.62,31.39-131.16.05-262.31.03-393.47.03-20.25,0-40.5-.05-60.74.01-10.32.03-19.26-2.83-18.86-14.84.38-11.39,9.35-12.97,18.97-12.96,147.72.09,295.44.06,443.17.06,5.41,0,10.83,0,17.48,0ZM65.98,431.33c7.73,0,13.67,0,19.61,0,109.94,0,219.88,0,329.83,0,24.02,0,26.11-1.77,32.06-27.23H65.98v27.23Z"/>
        <path d="M147.38,865.16c-3.85-5.22-10.56-10.38-10.67-15.69-.1-4.48,6.71-11.62,11.78-13.13,7.96-2.37,15.05,3.3,14.19,11.82-.59,5.82-6,11.16-9.25,16.72-2.02.09-4.03.18-6.05.28Z"/>
      </g>
      <g>
        <path d="M632.41,671.95c-.89,12-.77,24.22-2.9,35.96-4.32,23.84-16.9,41.88-35.95,54.33-8.22,5.38-16.74,10.23-25.11,15.33-4.35,2.65-8.68,2.68-13.05.02-8.18-4.99-16.51-9.69-24.52-14.98-24.98-16.5-37.91-40.84-38.61-72.75-.29-13.17-.07-26.36-.04-39.54.02-8.4,3.92-13.7,11.56-14.72,18.54-2.48,35.78-8.89,51.74-19.51,4.28-2.85,8.76-2.69,13.01.13,15.67,10.4,32.57,16.8,50.78,19.21,8.45,1.12,12.26,6.22,12.27,15.56,0,6.96,0,13.91,0,20.87l.81.07ZM621.66,672.73c-.27-.02-.53-.05-.8-.07,0-7.2-.11-14.4.05-21.6.06-2.89-1.04-3.83-3.46-4.13-18.89-2.33-36.48-8.94-52.75-19.64-2.16-1.42-3.7-1.19-5.76.15-16.21,10.56-33.69,17.15-52.46,19.49-2.6.32-3.61,1.35-3.58,4.38.14,12.81-.15,25.63.1,38.44.54,27.25,11.51,48.17,32.77,62.39,7.79,5.21,15.91,9.85,23.97,14.55,1.13.66,3.11.72,4.22.07,8.36-4.88,16.73-9.76,24.83-15.12,15.73-10.42,26.3-25.44,29.98-45.15,2.06-11,1.98-22.49,2.86-33.75Z"/>
        <path d="M558.01,700.19c7.62-8.89,14.87-17.52,22.34-25.91,1.34-1.5,3.61-2.9,5.37-2.79,1.55.09,3.8,2.09,4.25,3.74.49,1.81-.17,4.67-1.31,6.2-3.45,4.62-7.38,8.82-11.12,13.18-4.81,5.61-9.6,11.24-14.44,16.82-3.25,3.75-5.67,3.86-9.22.46-4.87-4.67-9.71-9.36-14.52-14.1-2.73-2.69-3.15-6.13-1.18-8.71,2.08-2.73,5.41-2.82,8.28-.09,3.78,3.59,7.5,7.26,11.55,11.21Z"/>
      </g>
    </g>
  </g>
</svg>