<?xml version="1.0" encoding="UTF-8"?>
<svg id="Capa_2" xmlns="http://www.w3.org/2000/svg" viewBox="0 0 802.48 802.02">
  <g id="Capa_1-2" data-name="Capa_1">
    <g>
      <path d="M143.3,56.92c0-14.2.1-26.72-.03-39.24C143.16,7.62,146.93-.07,157.72,0c10.8.07,14.38,7.9,14.26,17.9-.15,12.5-.04,25.01-.04,38.26h214.97c0-13.21.12-25.71-.04-38.21-.13-9.98,3.28-17.82,14.17-17.92,10.86-.1,14.58,7.55,14.49,17.61-.12,12.55-.03,25.1-.03,38.47h214.97c0-12.92.14-25.4-.05-37.87-.15-9.93,3.11-17.99,13.94-18.19,11.66-.21,14.96,8.19,14.8,18.63-.19,12.11-.04,24.23-.04,38.26,22.51,0,44.48-.6,66.38.25,11.09.43,22.96,1.45,32.95,5.75,29.13,12.54,43.73,35.96,43.88,67.66.27,59.9.08,119.79.08,179.69,0,137.16.01,274.31,0,411.47,0,51.85-28.59,80.26-80.72,80.27-213.98.01-427.96.01-641.95,0C28.73,802,.02,773.21.01,722.06,0,526.74,0,331.42.02,136.1c0-50.23,28.95-79.12,79.18-79.18,20.78-.02,41.56,0,64.11,0ZM28.66,229.12v13.84c0,160.21-.01,320.42.01,480.63,0,33.26,16.4,49.75,49.49,49.75,215.35.03,430.7.03,646.04,0,33.11,0,49.53-16.48,49.54-49.71.03-160.21.01-320.42.01-480.63v-13.89H28.66ZM412.68,86.17c3.86,9.21,5.7,17.34,10.2,23.54,9.53,13.12,9.15,29.34-2.52,39.95-11.1,10.08-28.02,9.83-38.91-.6-11.32-10.83-12.41-28-.95-39.62,7.29-7.39,7.41-14.52,4.97-23.24h-216.66c3.99,9.2,5.95,17.23,10.46,23.39,9.43,12.87,9.07,29.5-2.36,39.98-11.02,10.1-28.03,9.95-38.93-.37-11.22-10.61-11.25-27.23-1.73-40.04,4.49-6.04,6.17-14.16,9.97-23.4-29.06,0-53.76-.76-78.38.25-18.81.77-35.48,13.88-37.1,32.51-2.34,26.86-.6,54.08-.6,80.66h743.58c0-24.45.42-47.87-.12-71.28-.5-21.61-14.92-39.71-35.98-41.28-25.77-1.92-51.79-.46-81.94-.46,4.27,9.47,6.46,17.43,10.98,23.69,8.98,12.43,8.81,28.56-1.88,39.04-11.04,10.83-28.71,10.87-39.86.07-10.72-10.38-12.34-27.9-1.6-38.62,7.63-7.62,7.93-15.04,6.31-24.17h-216.94Z"/>
      <path d="M400.11,687.38c-59.45,0-118.89.05-178.34-.03-20.32-.03-25.83-9.31-16.12-27.24,59.85-110.49,119.68-220.99,179.94-331.25,3.12-5.71,10.12-12.78,15.41-12.85,5.24-.07,12.54,6.84,15.63,12.49,60.49,110.63,120.53,221.51,180.55,332.4,9.25,17.09,3.49,26.43-16.13,26.46-60.31.09-120.63.03-180.94.03ZM563.12,658.14c-54.07-99.79-107.47-198.33-161.93-298.85-54.81,101.22-108.09,199.61-161.82,298.85h323.75Z"/>
      <path d="M415.49,486.82c0,13.4-.03,26.8,0,40.21.03,9.57-4.04,16.5-14.02,16.67-9.94.17-14.52-6.43-14.53-16.12-.03-27.24-.04-54.47,0-81.71.02-9.7,4.67-16.25,14.61-16.01,9.99.24,13.98,7.21,13.94,16.76-.05,13.4-.01,26.8-.01,40.21Z"/>
      <path d="M415.21,600.44c0,5.6,1.8,12.11-.47,16.55-2.68,5.24-8.87,11.99-13.54,11.99-4.67,0-12.29-6.88-13.38-11.89-2.15-9.87-2.14-20.83-.1-30.74,1.06-5.14,7.75-11.62,12.97-12.82,7.91-1.82,13.65,4.08,14.51,12.71.47,4.69.08,9.47.08,14.2-.03,0-.06,0-.08,0Z"/>
    </g>
  </g>
</svg>