<?xml version="1.0" encoding="UTF-8"?>
<svg id="Capa_2" xmlns="http://www.w3.org/2000/svg" viewBox="0 0 775.83 863.54">
  <defs>
    <style>
      .cls-1 {
        stroke-width: 11.95px;
      }

      .cls-1, .cls-2, .cls-3 {
        fill: none;
        stroke: #000;
        stroke-miterlimit: 10;
      }

      .cls-2 {
        stroke-width: 18.29px;
      }

      .cls-3 {
        stroke-width: 16px;
      }
    </style>
  </defs>
  <g id="Capa_1-2" data-name="Capa_1">
    <g>
      <g>
        <path class="cls-2" d="M485.98,805.63c-139.62-1.6-279.24-3.21-418.87-4.81-32.01,0-57.96-25.95-57.96-57.96V67.11c0-32.01,25.95-57.96,57.96-57.96,144.46,1.22,288.92,2.45,433.39,3.67,31.14,32.72,62.29,65.44,93.43,98.16l2.9,418.2c-20.32,2.5-52.47,9.68-82.98,32.88-2.73,2.08-9.17,7.11-16.44,14.39-2.36,2.36-34.87,35.63-45.95,83.13-17.42,74.66,28.84,138.46,34.52,146.05Z"/>
        <g>
          <path d="M441.05,215.16c-1.61,21.62-1.39,43.64-5.22,64.78-7.78,42.96-30.45,75.46-64.78,97.9-14.82,9.69-30.15,18.42-45.24,27.62-7.85,4.78-15.65,4.83-23.51.03-14.73-8.99-29.75-17.45-44.18-26.99-45.01-29.73-68.31-73.59-69.57-131.08-.52-23.73-.12-47.49-.08-71.24.03-15.13,7.07-24.68,20.84-26.52,33.41-4.46,64.47-16.01,93.22-35.15,7.71-5.13,15.78-4.85,23.45.24,28.24,18.74,58.68,30.28,91.5,34.62,15.22,2.01,22.08,11.22,22.11,28.04.02,12.53,0,25.07,0,37.6l1.46.13ZM421.67,216.57c-.48-.04-.96-.09-1.44-.13,0-12.97-.19-25.95.09-38.92.11-5.2-1.87-6.9-6.23-7.44-34.03-4.2-65.72-16.1-95.05-35.38-3.89-2.55-6.67-2.14-10.37.27-29.21,19.03-60.71,30.9-94.53,35.11-4.69.58-6.51,2.44-6.44,7.89.26,23.09-.27,46.19.19,69.27.97,49.1,20.73,86.79,59.05,112.41,14.04,9.39,28.66,17.75,43.2,26.22,2.03,1.18,5.61,1.29,7.61.13,15.06-8.8,30.15-17.58,44.74-27.25,28.34-18.77,47.38-45.84,54.02-81.36,3.71-19.83,3.56-40.51,5.15-60.81Z"/>
          <path d="M306.99,266.06c13.73-16.02,26.79-31.56,40.25-46.68,2.41-2.71,6.5-5.22,9.68-5.03,2.78.17,6.85,3.77,7.65,6.73.88,3.26-.31,8.42-2.36,11.17-6.22,8.33-13.3,15.88-20.04,23.74-8.67,10.11-17.29,20.26-26.01,30.31-5.86,6.75-10.22,6.96-16.61.83-8.77-8.41-17.5-16.87-26.17-25.4-4.92-4.84-5.68-11.04-2.12-15.7,3.76-4.92,9.76-5.07,14.93-.16,6.81,6.47,13.51,13.09,20.82,20.19Z"/>
        </g>
        <path d="M490.14,26.06c0,18.28-.18,36.23.11,54.16.09,5.7.77,11.57,2.32,17.04,4.76,16.83,19.82,28.62,37.39,29.1,16.27.45,32.57.17,48.85.2,2.3,0,4.6,0,7.22,0v.23c6.54-.03,13.07-.13,19.61-.19,0-1.55.01-3.1.02-4.66.04-5.76-1.8-10.24-5.75-14.37-30.21-31.58-60.36-63.23-90.4-94.97-3.99-4.22-8.37-5.98-14.17-5.96-2.21,0-4.41,0-6.62.01.88,6.38,1.14,12.85,1.14,19.37.09,0,.18.02.28.03ZM509.37,40.14c21.68,22.84,42.17,44.43,63.33,66.72-16.44,0-31.76.78-46.94-.3-8.85-.63-16.08-10.43-16.3-19.76-.35-14.95-.09-29.91-.09-46.66Z"/>
        <g>
          <path class="cls-1" d="M91.59,468.35h421.24"/>
          <path class="cls-1" d="M91.59,534.88h421.24"/>
          <path class="cls-1" d="M91.59,601.4c126.9-.43,253.81-.86,380.71-1.29"/>
        </g>
        <circle class="cls-3" cx="606.47" cy="694.18" r="161.36"/>
      </g>
      <path d="M618.39,641.71c0-5.1-.08-11.09.02-17.09.13-8.15,3.65-14.46,11.21-17.72,7.41-3.2,14.43-2.03,20.75,3.33,22.23,18.87,44.64,37.53,66.76,56.53,10.62,9.13,10.63,22.36.08,31.43-22.12,19-44.53,37.68-66.76,56.55-6.28,5.33-13.33,6.67-20.72,3.42-7.82-3.44-11.34-10.05-11.33-18.54,0-5.74,0-11.48,0-17.79-26.6-2.78-47.89,6-64.65,25.91-4.06,4.82-7.27,10.35-11.16,15.33-4.72,6.04-11.23,8.12-18.42,5.98-7.15-2.13-11.3-7.19-12.16-15-5.23-47.56,21.5-90.52,66.89-105.33,12.07-3.94,25.22-4.59,39.51-7.03ZM637.67,624.87c0,10.01.09,18.25-.02,26.49-.11,8.16-3.32,11.55-11.49,11.87-6.6.26-13.23-.13-19.83.15-29.73,1.27-51.79,15.26-66.17,41.06-6.43,11.53-9.77,24.04-8.78,35.48,7.31-6.34,14.86-13.53,23.07-19.86,20.76-15.99,44.92-19.62,70.3-18.45,9.61.44,12.82,3.37,12.95,13,.11,8.04.02,16.08.02,25.91,23.66-20.17,45.6-38.87,68-57.96-22.76-19.29-44.93-38.09-68.05-57.69Z"/>
    </g>
  </g>
</svg>