<?xml version="1.0" encoding="UTF-8"?>
<svg id="Capa_2" xmlns="http://www.w3.org/2000/svg" viewBox="0 0 850.14 898.53">
  <g id="Capa_1-2" data-name="Capa_1">
    <g>
      <path d="M57.4,863.05c0-13.44,0-25.25,0-37.06,0-38.7-.11-77.41.04-116.11.12-32.39,19.04-51.24,51.58-51.47,24.24-.17,48.49-.06,72.73-.03,38.95.05,56.16,17.08,56.2,55.74.05,48.9.01,97.8.01,147.77h97.7c0-5.22,0-10.2,0-15.19,0-93.15-.02-186.29,0-279.44.01-38.84,18-56.74,56.97-56.77,23.39-.02,46.79-.09,70.18.02,34.16.16,53.6,19.63,53.64,54.08.1,94,.04,187.99.04,281.99v15.68h97.13v-15.93c0-177.36,0-354.72,0-532.08,0-39.19,17.58-56.73,56.82-56.77,24.24-.02,48.49-.17,72.73.05,30.61.27,49.15,18.08,50.9,48.56.24,4.24.09,8.5.09,12.76,0,175.23,0,350.47,0,525.7v18.44c11.97,0,23.46-1.2,34.53.45,6.77,1.01,14.93,4.87,18.82,10.15,6.45,8.75.22,21.08-10.75,23.85-4.84,1.23-10.11,1.02-15.19,1.03-264.55.04-529.11.04-793.66.04-2.98,0-5.96.12-8.93-.05-10.59-.61-18.06-5.13-18.94-16.59-.79-10.2,6.5-17.99,18.34-18.64,12.27-.67,24.61-.15,39-.15ZM758.3,862.4c.34-2.93.69-4.57.69-6.21.03-182.38,0-364.75.14-547.13,0-11.38-5-16.3-16.12-16.24-23.81.13-47.61,0-71.42.02-21.15.02-22.58,1.43-22.58,22.35,0,177.7,0,355.4,0,533.1v14.1h109.29ZM479.8,862.38c.56-1.92.98-2.71.98-3.49.07-99.06.09-198.13.2-297.19.01-11.41-5.54-15.82-16.66-15.66-24.23.33-48.47.07-72.7.11-18.87.02-20.61,1.7-20.61,20.22-.02,94.39-.02,188.78.01,283.17,0,4.11.4,8.23.64,12.86h108.14ZM202.73,862.37c0-52.95.1-104.76-.09-156.57-.04-9.98-7.09-12.57-15.7-12.56-25.1,0-50.19-.11-75.29.01-16.52.08-18.91,2.62-18.94,19.69-.06,37-.02,74.01-.02,111.01,0,12.62,0,25.25,0,38.42h110.03Z"/>
      <path d="M558.69,207.59c58.06-57.96,114.48-114.3,172.26-171.98-17.47,0-34.19.09-50.91-.05-5.06-.04-10.3,0-15.13-1.26-8.79-2.29-13.66-8.23-13.16-17.75.51-9.67,6.48-14.57,15.28-15.99,5.4-.87,11.02-.45,16.55-.46,28.49-.03,56.98-.08,85.47.01,18.94.06,24.87,5.5,25.03,23.9.27,30.61.3,61.24-.06,91.85-.16,13.21-7.25,20.87-17.58,20.77-10.25-.09-17.02-8.2-17.35-20.96-.14-5.1-.03-10.21-.03-15.31,0-12.16,0-24.31,0-36.47-1.94-1.5-3.88-3-5.82-4.49-2.06,4.2-3.19,9.33-6.31,12.48-55.72,56.06-111.67,111.9-167.61,167.75-15.14,15.12-21.88,15.08-37.16-.07-19.02-18.85-37.98-37.75-57-56.59-.55-.54-1.52-.65-4.49-1.83-15.27,15.77-30.97,32.4-47.12,48.59-82.28,82.43-164.67,164.74-247.03,247.08-2.7,2.7-5.34,7.12-8.39,7.47-7.37.83-16.56,2.28-22.08-1.2-7.91-4.97-7.42-14.63-1.98-22.66,2.12-3.13,5.01-5.77,7.7-8.47,100.67-100.73,201.36-201.44,302.07-302.13,15.88-15.88,22.22-15.95,38.03-.04,19.14,19.26,38.08,38.71,56.84,57.8Z"/>
      <path d="M108.38,515.14c9.27,0,17,7.58,17.17,16.85.18,9.44-7.06,16.84-16.71,17.07-10.15.24-18.25-7.53-17.96-17.21.27-8.84,8.5-16.71,17.49-16.71Z"/>
    </g>
  </g>
</svg>