<?xml version="1.0" encoding="UTF-8"?>
<svg id="Capa_2" xmlns="http://www.w3.org/2000/svg" viewBox="0 0 636.01 826.17">
  <g id="Capa_1-2" data-name="Capa_1">
    <g>
      <path d="M426.19,747.38c0,17.87.35,32.89-.09,47.88-.6,20.53-10.66,30.46-31.19,30.67-27.95.29-55.91.32-83.85-.01-20.22-.24-30.36-10.56-30.89-31.1-.38-14.95-.07-29.93-.07-46.56-6.91-.33-12.6-.84-18.28-.85-45.15-.07-90.31-.39-135.46.1-24.98.27-43.82-7.65-53.91-32.27-1.49-3.63-8.83-6.65-13.6-6.86C14.74,706.48.02,691.77.02,648.2,0,452.01,0,255.81,0,59.61c0-2.69-.04-5.38.03-8.06C.87,18.25,19.25.07,52.71.06c160.18-.08,320.37-.07,480.55,0,34.38.02,52.53,18.32,52.8,52.7.02,3.22.29,6.48-.04,9.67-3.88,37.52.8,71.08,31.99,98.47,10.12,8.88,12.63,27.45,16.42,42.16,2.48,9.64,1.28,20.3,1.28,30.51.06,151.58.06,303.17.03,454.75,0,43.56-15.61,59.05-59.35,59.07-43.54.02-87.08,0-130.62,0-5.77,0-11.55,0-19.59,0ZM427.14,722.68h16.61c45.16,0,90.31.02,135.47,0,26.11-.01,32.09-5.99,32.09-32.23.02-148.37.02-296.73-.02-445.1,0-5.67-.47-11.33-.78-18.34-27.81,0-54.08.44-80.32-.13-25.04-.55-42.2-15.56-45.59-39.26-1.13-7.92-.91-16.07-.95-24.12-.11-25.04-.04-50.09-.04-76.51-6.86,0-11.61,0-16.35,0-113.96,0-227.93-.02-341.89.02-23.94,0-30.03,6.29-30.04,30.79-.03,109.66-.01,219.33-.02,328.99,0,4.3,1.4,9.46-.47,12.7-2.78,4.81-7.44,10.49-12.2,11.49-3.04.64-8.97-5.88-11.26-10.38-1.98-3.89-.79-9.47-.79-14.3-.02-108.59-.04-217.18,0-325.76.01-42.3,16.23-58.52,58.52-58.53,118.26-.02,236.53.37,354.79-.28,28.87-.16,54.59,4.13,72.82,29.09.61.84,2.56.71,5.32,1.39,0-11.15.01-21.25,0-31.35-.05-30.57-5.4-36.11-35.28-36.12-155.89-.02-311.79-.02-467.68,0-28.95,0-34.59,5.76-34.59,35,0,196.21,0,392.42,0,588.63,0,31.69,13.01,41.21,46.09,32.7,0-50.19-.14-100.68.12-151.16.05-10.12-3.62-25.13,11.88-25.35,17.14-.24,12.53,15.55,12.59,25.96.31,55.37.24,110.74.09,166.11-.04,14.37,5.46,25.43,20.49,25.64,54.18.77,108.38.3,163.22.3.45-3.76,1.05-6.31.98-8.85-.08-3.04-.72-6.07-1.19-9.64-4.66-.27-8.35-.4-12.02-.72-45.07-3.9-66.31-42-41.11-79.18,25.56-37.71,54.07-73.73,84.2-107.92,25.4-28.82,66.38-26.47,90.52,2.87,26.62,32.36,51.83,65.88,77.36,99.13,3.85,5.02,6.72,11.04,8.96,17.01,11.7,31.12-1.94,57.48-34.1,65.72-8.15,2.09-16.67,2.72-25.41,4.09v17.61ZM401.67,800.38c0-35.02.49-68.22-.22-101.4-.32-14.91,5.86-20.42,20.08-19.81,7.45.32,15.08-.15,22.43-1.43,19.97-3.46,27.04-16.45,19.04-35.23-2.69-6.31-6.75-12.18-10.97-17.66-21.28-27.64-42.76-55.12-64.27-82.58-22.01-28.1-46.53-28.33-68.72-.35-21.67,27.33-43,54.93-64.36,82.52-9.29,12-19.69,24.79-11.92,40.72,7.64,15.66,24.13,13.65,38.46,14.05,22.05.61,23.66,1.99,23.68,24.13.03,32.04,0,64.09,0,97.03h96.75ZM508.43,88.23c0,31.76-.46,63.28.24,94.78.26,11.73,8.61,19.14,19.95,19.49,26.75.82,53.55.26,80.37.26-1.18-24.32-76.17-109.88-100.56-114.54Z"/>
      <path d="M334.82,306.22c-47.28,0-94.56.02-141.84-.01-9.7,0-21.5,1.25-21.32-12.82.17-12.76,11.18-12.13,20.49-12.13,95.63,0,191.27,0,286.9.02,3.75,0,8.46-1.08,11.04.74,4.32,3.03,10.15,8.09,10.01,12.12-.13,4.04-6.26,10.33-10.68,11.27-8.75,1.86-18.15.8-27.28.8-42.44.03-84.89.01-127.33.01Z"/>
      <path d="M279.5,228.94c-30.06,0-60.15.63-90.17-.52-6.15-.24-16.35-6.4-17.2-11.17-2-11.19,7.83-13.2,17.21-13.2,60.66.03,121.33,0,181.99.03,9.22,0,19.34,1.66,17.1,13.15-.94,4.84-11.02,10.96-17.15,11.19-30.56,1.14-61.18.52-91.78.53Z"/>
      <path d="M416.39,383.55c-20.92,0-41.84-.05-62.76.02-9.07.03-18.66-.68-19.02-12.14-.36-11.5,8.87-12.96,18.17-12.94,43.45.05,86.9-.44,130.33.56,6.02.14,16.25,6.9,16.92,11.66,1.55,11.02-8.33,12.9-17.67,12.86-21.99-.08-43.98-.03-65.97-.02Z"/>
      <path d="M238.67,358.52c15.01,0,30.03.02,45.04,0,9.14-.01,19.36,1.18,17.54,12.69-.77,4.86-10.64,11.57-16.58,11.79-32.13,1.16-64.33.54-96.5.56-8.93,0-18.04-2.68-16.03-12.68,1.01-5.03,10.54-11.18,16.71-11.79,16.46-1.64,33.19-.56,49.81-.56Z"/>
    </g>
  </g>
</svg>