<?xml version="1.0" encoding="UTF-8"?>
<svg id="Capa_2" xmlns="http://www.w3.org/2000/svg" viewBox="0 0 894.59 896.44">
  <g id="Capa_1-2" data-name="Capa_1">
    <g>
      <g>
        <path d="M587.6,226.6c13.85-11.76,26.11-23.08,39.41-33,5.09-3.8,14.83-7.9,18.42-5.59,5.08,3.26,7.82,12.1,9,18.99,1.48,8.63.35,17.71.35,29.2,7.35,0,13.64,0,19.94,0,46.99,0,93.98.41,140.96-.22,15.77-.21,23.02,4.87,22.51,21.49-.79,25.55-.68,51.16-.03,76.71.39,15.49-6.1,21.03-21.3,20.85-46.32-.55-92.64-.2-139.02-.2,6.26,27.67,15.5,53.87,17.63,80.63,7.14,89.74,10.83,179.33-31,263.79-67.64,136.61-218.45,217.04-363.97,192.95C142.05,865.96,23.18,746.28,5.38,589.47c-9.2-81.05-9.63-162.61,23.22-240.5C118.81,135.08,386.82,66.46,568.42,211.05c6.01,4.78,11.93,9.67,19.17,15.55ZM565.03,245.87c-98.71-94.68-274.72-120.29-408.95-17.94C24.34,328.36-9.69,510.95,76.58,651.22c86.59,140.8,265.46,193.45,413.19,121.69,155.06-75.32,212.29-248.72,167.35-383.12-10.9,18.87-16.04,19.99-32.43,6.14-33.14-28-66.19-56.12-99.14-84.35-15.06-12.9-14.86-19.28.52-32.55,12.58-10.86,25.31-21.55,38.96-33.16ZM60.83,680.76c33.5,108.38,181.7,197.09,312.2,186.87,116.76-9.14,254.06-105.41,266.11-186.59-146.47,206.75-446.48,197.63-578.31-.28ZM810.95,327.3c0-17.45-.82-32.26.24-46.93.98-13.52-4.04-17.32-17.22-17.12-45.18.7-90.38.28-135.57.26q-29.78-.01-32.24-28.53c-.06-.65-1.62-1.17-3.24-2.27-24.05,20.5-48.27,41.14-73.64,62.76,25.8,21.94,50,42.53,75.12,63.89q5.68-32.05,37.44-32.06c48.68,0,97.35,0,149.12,0Z"/>
        <path d="M754.62,168.12c-50.67,0-98.7.02-146.72,0-26.72-.02-28.02-1.36-28.04-28.31-.02-23.16.67-46.34-.22-69.46-.64-16.65,6.95-22.03,22.39-21.9,43.34.37,86.69.12,130.03.12,6.48,0,12.96,0,22.5,0,0-11.58-.93-22.06.37-32.26.72-5.63,3.94-12.84,8.35-15.49,3.44-2.07,11.83.14,15.65,3.31,36.54,30.33,72.62,61.22,108.73,92.06,9.1,7.77,9.31,16.23.14,24.08-36.53,31.27-72.92,62.71-109.97,93.36-11.26,9.32-22.07,3.7-23.08-11.04-.72-10.53-.14-21.15-.14-34.47ZM783.64,173c26.05-22.15,50.51-42.93,76-64.6-26.08-22.16-50.23-42.69-75.28-63.98q-6.29,31.84-37.61,31.84c-40.43,0-80.85,0-121.28,0-5.62,0-11.25,0-16.79,0v64.06c5.88,0,10.55,0,15.21,0,43.99,0,87.99-.03,131.98.01,23.18.02,24.09.93,25.92,23.45.18,2.22.86,4.4,1.85,9.22Z"/>
      </g>
      <g>
        <path d="M166.12,589.2c15.66,9.64,38.56,17.67,62.66,17.67,35.75,0,56.63-18.88,56.63-46.19,0-25.3-14.46-39.76-51.01-53.82-44.18-15.66-71.5-38.56-71.5-76.72,0-42.17,34.94-73.5,87.56-73.5,27.71,0,47.8,6.43,59.85,13.25l-9.64,28.52c-8.84-4.82-26.91-12.85-51.41-12.85-36.95,0-51.01,22.09-51.01,40.57,0,25.3,16.47,37.76,53.82,52.22,45.79,17.67,69.09,39.76,69.09,79.53,0,41.77-30.93,77.92-94.79,77.92-26.11,0-54.63-7.63-69.09-17.27l8.84-29.32Z"/>
        <path d="M326.54,649.4l126.59-328.96h30.85l-127.05,328.96h-30.4Z"/>
        <path d="M448.47,607.66c0-16.79,11.34-28.59,27.22-28.59s26.77,11.8,26.77,28.59-10.44,28.59-27.22,28.59c-15.88,0-26.77-12.25-26.77-28.59Z"/>
      </g>
    </g>
  </g>
</svg>