<?xml version="1.0" encoding="UTF-8"?>
<svg xmlns="http://www.w3.org/2000/svg" version="1.1" viewBox="0 0 495.87 133.97">
  <defs>
    <style>
      .cls-1 {
        fill: #0855c3;
      }

      .cls-2 {
        fill: #fefefe;
      }

      .cls-3 {
        fill: #00aced;
      }
    </style>
  </defs>
  <!-- Generator: Adobe Illustrator 28.6.0, SVG Export Plug-In . SVG Version: 1.2.0 Build 709)  -->
  <g>
    <g id="Capa_1">
      <g>
        <path class="cls-1" d="M94.23,26.7c0,4.97-.02,9.94-.03,14.92-.02,16.4-.04,32.81-.06,49.21,0,5.26-4.16,9.54-9.42,9.73-.26,0-.51.02-.77.02-20.55,0-41.09,0-61.64,0-.23,0-.46-.02-.69-.02,0-21.9,0-43.8,0-65.7.64-3.85,2.89-6.38,6.46-7.82.55-.22,1.15-.19,1.71-.34h64.44Z"/>
        <path class="cls-3" d="M402.83,61.76c0,4.05.15,8.11-.03,12.15-.26,5.81-2.58,10.61-7.64,13.8-2.69,1.7-5.69,2.4-8.84,2.58-3.67.22-7.17-.39-10.37-2.26-4.55-2.65-6.93-6.76-7.78-11.85-.25-1.52-.31-3.05-.31-4.59,0-7.31.01-14.62-.01-21.92,0-.64.1-.88.82-.86,2.54.05,5.09.04,7.63,0,.66-.01.86.13.86.83-.03,7.18-.03,14.36-.01,21.54,0,1.67.13,3.32.58,4.94,1.25,4.45,4.53,6.12,8.58,5.85,3.72-.24,6.24-2.78,6.98-6.76.2-1.09.3-2.18.3-3.29,0-7.44,0-14.87-.01-22.31,0-.62.13-.83.79-.82,2.59.04,5.19.03,7.78,0,.57,0,.73.13.73.71-.03,4.08-.01,8.15-.01,12.23,0,0-.02,0-.02,0Z"/>
        <path class="cls-3" d="M159.77,76.47c0,4.1-.01,8.2.01,12.31,0,.56-.13.74-.72.73-2.59-.03-5.19-.04-7.78,0-.64,0-.8-.16-.8-.8.02-7.18.02-14.36.01-21.54,0-1.67-.12-3.33-.59-4.94-1.06-3.68-3.72-5.72-7.56-5.82-4.23-.1-7.21,2.4-8.02,6.74-.2,1.06-.3,2.13-.3,3.21,0,7.44,0,14.87.02,22.31,0,.68-.17.85-.85.84-2.62-.04-5.24-.03-7.86,0-.45,0-.62-.1-.62-.59.02-8.2-.15-16.41.09-24.61.24-8.15,5.6-14.73,14.47-15.94,3.74-.51,7.38-.28,10.86,1.27,5.31,2.36,8.23,6.58,9.31,12.17.25,1.31.34,2.64.34,3.98-.01,3.56,0,7.13,0,10.69Z"/>
        <path class="cls-3" d="M255.76,80.47c0-.83,0-1.52,0-2.21,0-.22-.12-.5.12-.63.26-.14.39.14.57.27,4.27,3.06,9.01,4.09,14.15,3.09,2.22-.43,3.32-1.87,3.37-3.89.04-1.42-.57-2.4-1.84-3.01-1.67-.79-3.46-1.1-5.26-1.38-2.31-.37-4.6-.81-6.72-1.85-3.93-1.91-5.73-5.15-5.52-9.52.28-6.06,4.61-11.43,11.54-12.93,3.84-.83,7.67-.77,11.28,1.03,3.19,1.59,4.93,4.15,4.84,7.81-.02.9,0,1.79,0,2.69,0,.14.06.32-.13.4-.16.06-.29-.03-.41-.13-3.86-3.28-8.4-3.89-13.23-3.36-.79.09-1.56.3-2.29.64-1.76.81-2.58,2.35-2.27,4.27.14.87.74,1.38,1.48,1.74,1.31.63,2.71.93,4.12,1.2,2.47.48,4.94.9,7.26,1.96,4.49,2.06,6.71,5.81,6.34,10.73-.13,1.7-.38,3.36-1.04,4.94-1.19,2.85-3.21,4.96-6.06,6.13-4.96,2.04-10.01,2.34-15.04.24-2.13-.89-3.87-2.3-4.86-4.48-.57-1.25-.33-2.57-.39-3.73Z"/>
        <path class="cls-3" d="M189.8,80.61c0,1.96.03,3.85-.02,5.74-.02.61-.49,1.06-.88,1.49-1.16,1.27-2.67,1.88-4.33,2.14-3.55.55-7.03.25-10.32-1.23-4.17-1.87-6.17-5.36-6.94-9.7-.25-1.44-.32-2.9-.32-4.36,0-12.03,0-24.05-.04-36.08,0-.71.2-.89.89-.87,2.54.04,5.09.04,7.63,0,.66-.01.79.19.79.81-.03,2.95,0,5.9-.03,8.85,0,.56.12.73.71.73,4.08-.03,8.17,0,12.26-.03.58,0,.83.1.78.75-.06.76-.07,1.54,0,2.31.27,3.35-2.42,5.18-5.08,5.23-2.64.06-5.29.04-7.94.02-.57,0-.73.13-.73.72.02,5.77.01,11.54.02,17.31,0,.98.15,1.94.42,2.88.76,2.63,2.68,4.18,5.43,4.32,2.6.13,5.17-.03,7.71-1.02Z"/>
        <path class="cls-3" d="M108.1,63.62c0-8.36,0-16.72-.01-25.07,0-.62.12-.83.78-.82,2.62.04,5.24.03,7.86,0,.55,0,.79.08.79.73-.02,16.77-.02,33.54,0,50.3,0,.55-.1.75-.7.74-2.67-.04-5.34-.04-8.01,0-.6,0-.71-.18-.71-.73.02-8.38.01-16.77.01-25.15Z"/>
        <path class="cls-3" d="M409.2,75.87c0-4.18-.04-8.36.01-12.54.03-2.79.57-5.5,1.85-8.01,2.18-4.29,5.78-6.52,10.49-7.08,2.05-.24,4.09-.23,6.09.43.69.23,1.01.54.98,1.34-.07,2-.04,4-.01,6,0,.51-.03.7-.65.6-1.16-.2-2.35-.22-3.53-.02-3.06.52-4.91,2.43-5.53,5.7-.2,1.06-.3,2.13-.3,3.21,0,7.72,0,15.44.02,23.15,0,.65-.11.87-.83.86-2.57-.05-5.14-.04-7.71,0-.68,0-.91-.13-.9-.87.04-4.26.02-8.51.02-12.77Z"/>
        <path class="cls-3" d="M231.28,75.46c0-4.36-.11-8.72.03-13.07.13-3.94,1.34-7.55,4.18-10.45,2.2-2.24,4.94-3.33,8.01-3.7,2.1-.25,4.19-.24,6.24.45.64.22.92.52.89,1.26-.07,2.02-.03,4.05-.02,6.07,0,.47-.04.66-.63.58-1.61-.22-3.23-.25-4.79.28-2.78.95-3.88,3.16-4.35,5.83-.15.86-.19,1.73-.19,2.6,0,7.79,0,15.58.02,23.37,0,.63-.15.82-.8.81-2.59-.04-5.19-.04-7.78,0-.65,0-.87-.12-.86-.83.04-4.41.02-8.82.02-13.22,0,0,.02,0,.02,0Z"/>
        <path class="cls-2" d="M38.57,67.25c0-6.36,0-12.71-.01-19.07,0-.6.13-.81.76-.92,11.42-2.08,22.84-4.18,34.26-6.28,1.01-.19,2.02-.38,3.02-.58.42-.08.61,0,.59.48-.03.72,0,1.43,0,2.15,0,11.97,0,23.94.02,35.91,0,.77-.14,1.08-.98,1.24-11.35,2.05-22.69,4.15-34.04,6.23-.98.18-1.97.35-2.94.57-.55.12-.68-.03-.68-.58.02-6.38.01-12.76.01-19.15Z"/>
        <path class="cls-3" d="M360.46,58.94c-1.43-4.56-4.11-8.05-8.65-9.88-2.63-1.06-5.39-1.18-8.18-.84-4.86.59-8.94,2.67-11.91,6.59-3.83,5.05-4.93,10.83-4.08,17.01,1.08,7.87,7.6,13.33,15.54,13.05,3.98-.14,7.21-1.64,9.18-5.55.04,2.07.17,3.95.08,5.84-.2,4.13-2.5,6.9-6.53,7.72-3.59.73-7.1.29-10.5-1.03-1.55-.6-2.93-1.47-4.1-2.66-.16-.16-.31-.36-.59-.27-.16.05-.15.19-.14.32.06,1.89-.24,3.81.19,5.67.66,2.85,2.67,4.59,5.2,5.79,3.46,1.64,7.11,1.85,10.84,1.31,3.58-.52,6.74-1.96,9.32-4.51,3.86-3.82,5.52-8.6,5.52-13.9,0-6.1-.33-12.19-.26-18.29.03-2.16-.29-4.29-.94-6.36ZM351.04,72.12c-1.44,2.92-3.78,4.51-7.07,4.38-3.2-.13-5.34-1.96-6.35-4.88-1.52-4.43-1.08-8.66,2.1-12.3,1.63-1.86,3.81-2.69,6.29-2.38,3.05.38,5,2.33,5.8,5.63.3,1.23.41,2.47.38,3.62.02,2.13-.26,4.1-1.17,5.93Z"/>
        <path class="cls-3" d="M466.88,62.95c-.83-4.17-2.73-7.83-5.92-10.71-3.81-3.44-8.34-4.64-13.39-4.18-6.35.58-11.04,3.68-14.05,9.27-2.07,3.83-2.81,7.98-2.83,12.29-.02,1.83.14,3.63.53,5.42.87,3.96,2.55,7.51,5.51,10.36,3.89,3.75,8.62,5.07,13.92,4.58,5.99-.55,10.62-3.35,13.61-8.57,3.29-5.77,3.91-12.01,2.63-18.44ZM457.07,75.88c-1.25,3.56-3.82,5.58-7.31,5.72-3.79.15-6.72-1.69-8.23-5.17-.92-2.12-1.24-4.38-1.35-6.66-.12-2.76.05-5.48,1.1-8.08,2.23-5.5,8.94-7.1,13.25-3.14,1.8,1.65,2.56,3.85,3.04,6.17.33,1.64.42,3.3.46,4.92-.04,2.16-.26,4.24-.96,6.25Z"/>
        <path class="cls-3" d="M221.58,52.4c-3.66-3.41-8.12-4.64-13.07-4.19-6.15.56-10.99,3.34-14.23,8.63-2.95,4.81-3.76,10.13-3.26,15.67.74,8.12,6.39,14.81,14.26,16.98,3.59.99,7.21.83,10.84.34,1.97-.27,3.86-.8,5.55-1.91.38-.25.54-.53.54-1-.03-1.85-.04-3.69,0-5.54.02-.71-.15-.7-.75-.46-4.22,1.68-8.59,2.28-13.03,1.13-4.12-1.07-6.87-3.65-7.79-7.93-.14-.63-.02-.85.67-.83,1.57.05,3.13.02,5.21.02,1.85.04,4.21,0,6.57-.17,2.87-.21,5.73-.54,8.41-1.69,2.47-1.06,4.24-2.78,4.63-5.5.76-5.25-.63-9.89-4.56-13.56ZM217.5,63.55c-.23,1.28-1.23,1.97-2.41,2.37-1.87.64-3.82.78-5.77.83-1.51.04-3.03,0-4.54,0v.09c-1.26,0-2.52,0-3.78,0-.25,0-.49.07-.48-.36.03-2.51.47-4.88,1.97-6.98,2.9-4.05,9.42-4.94,13.17-1.75,1.79,1.53,2.24,3.57,1.84,5.79Z"/>
        <path class="cls-3" d="M305.44,48.21c-6.5.58-11.49,3.59-14.69,9.3-2.78,4.96-3.5,10.34-2.75,15.91,1.05,7.83,6.71,14.13,14.35,16.14,3.5.92,7.02.76,10.55.29,2-.27,3.92-.79,5.63-1.92.38-.25.55-.53.54-1-.03-1.85-.04-3.69,0-5.54.02-.73-.18-.7-.77-.46-4.02,1.63-8.18,2.14-12.44,1.29-4.51-.9-7.67-4.1-8.4-8.26-.09-.49,0-.67.54-.66,1.59.03,3.18.01,5.05.01,1.6-.02,3.47.02,5.35-.08,3.08-.17,6.15-.41,9.09-1.44,2.78-.98,4.97-2.63,5.46-5.69.85-5.24-.51-9.89-4.41-13.6-3.65-3.47-8.12-4.74-13.1-4.29ZM314.47,62.89c-.1,1.59-1.08,2.54-2.54,3.04-1.44.49-2.95.66-4.46.76-1.94.13-3.89.21-5.49.16-1.59,0-2.82,0-4.05,0-.27,0-.55.07-.55-.4,0-2.71.54-5.24,2.31-7.39,2.22-2.69,5.13-3.5,8.48-3.08,1.15.15,2.26.45,3.28,1.02,2.38,1.32,3.16,3.62,3.02,5.87Z"/>
      </g>
    </g>
  </g>
</svg>