<?xml version="1.0" encoding="UTF-8"?>
<svg xmlns="http://www.w3.org/2000/svg" version="1.1" viewBox="0 0 495.87 100.38">
  <defs>
    <style>
      .cls-1 {
        fill: #d81e05;
      }
    </style>
  </defs>
  <!-- Generator: Adobe Illustrator 28.6.0, SVG Export Plug-In . SVG Version: 1.2.0 Build 709)  -->
  <g>
    <g id="Capa_1">
      <g>
        <path class="cls-1" d="M149.45,27.16c-.64,0-.95.27-1.19.81-.48,1.06-.99,2.1-1.5,3.15-2.82,5.77-5.64,11.55-8.47,17.32-.77,1.57-1.54,3.13-2.38,4.83-.33-.6-.59-1.02-.8-1.45-3.84-7.9-7.69-15.8-11.51-23.71-.34-.7-.77-.97-1.56-.96-5.66.04-11.33.02-16.99.04-.4,0-.83-.13-1.24.16v52.32h19.31v-25.19c.12-.04.24-.07.37-.11,2.98,6.1,5.96,12.2,8.94,18.31.16.2.24.45.36.68h0c.99,2.04,1.98,4.08,2.96,6.11.44-.17.53-.42.64-.65,1.41-2.9,2.8-5.8,4.22-8.7,2.54-5.19,5.08-10.37,7.62-15.56.15,0,.29,0,.44,0v25.1h19.32V27.3c-.3-.06-.52-.13-.74-.13-5.93,0-11.86,0-17.79,0Z"/>
        <path class="cls-1" d="M189.25,27.24c-1.45,5.05-2.89,10.07-4.33,15.09-.16.44-.25.91-.42,1.36-.05.22-.09.44-.15.66-2.37,8.24-4.74,16.49-7.11,24.73-1,3.49-2.02,6.97-3.06,10.56h19.42c.96-2.86,1.51-5.78,2.53-8.45h20.56c.83,2.87,1.65,5.67,2.46,8.47h19.41c-5.03-17.54-10.04-34.98-15.04-52.42h-34.28ZM198.6,62.31c2.58-8.95,5.1-17.73,7.63-26.52.1,0,.2-.01.3-.02,2.53,8.8,5.06,17.6,7.62,26.54h-15.56Z"/>
        <path class="cls-1" d="M407.41,50.88c4.99-3.48,6.77-11.3,3.77-16.59-2.67-4.71-6.69-7.04-12.1-7.04-12.27.01-24.54,0-36.8,0-.36,0-.75-.12-1.1.16v52.21h19.68v-21.63c1.37,0,2.64,0,3.92,0,5.03,0,8.77,3.69,8.81,8.73.03,3.89,0,7.78.02,11.66,0,.4-.12.83.12,1.23h18.91c0-4.47,0-8.84,0-13.21,0-6.25-4.48-11.61-10.66-12.76.08-.15.16-.3.24-.45,1.93-.34,3.61-1.2,5.2-2.31ZM392.84,43.83c-1.63,3.29-4.28,5.02-7.97,5.07-1.27.02-2.55,0-3.96,0v-15.6c3.06.01,6.06-.33,8.9,1.09,3.42,1.71,4.81,5.85,3.04,9.43Z"/>
        <path class="cls-1" d="M439.27,70.99v-13.13h31.98v-8.75h-31.98v-13.24h31.99v-8.64h-51.32v52.4h51.32v-8.64h-31.99Z"/>
        <path class="cls-1" d="M283.02,27.32h-38.23v52.25c.25.24.57.11.85.11,5.92.01,11.85.02,17.77.02.26,0,.52-.07.78-.1-.03-.15-.07-.3-.07-.44,0-6.83,0-13.67.01-20.5,0-.26-.04-.54.22-.72.27-.18.58-.12.88-.12,5.25,0,10.5-.02,15.74,0,3.02.01,5.81-.76,8.32-2.43,8.2-5.44,9.2-16.45,2.78-23.39-2.42-2.62-5.53-4.09-9.05-4.68ZM276.51,43.6c-1.38,3.35-4.02,5.16-7.69,5.28-1.39.05-2.79,0-4.28,0v-15.58c2.72,0,5.35-.27,7.9.66,4.45,1.63,5.66,5.76,4.07,9.63Z"/>
        <path class="cls-1" d="M322.31,35.87h32v-8.58h-51.34v52.36h19.29v-21.8h32.08v-8.75h-32.03v-13.23Z"/>
        <path class="cls-1" d="M56.12,27.32c-14.53-.3-26.83,11.5-26.7,26.24-.03,14.45,11.61,26.06,26.19,26.12,14.3.06,26.06-11.67,26.14-26.02.08-14.68-11.83-26.06-25.62-26.34ZM55.68,77.14c-13.11.06-23.79-10.63-23.74-23.6.05-13.25,10.61-23.72,23.9-23.64,13.04.08,23.53,11,23.33,23.96-.19,12.52-10.36,23.23-23.49,23.28Z"/>
        <path class="cls-1" d="M64.27,44.07c-.89-1.65-1.61-2.34-3.23-2.84-3.43-1.08-6.9-1.08-10.37-.19-1.7.44-3.18,1.19-3.87,3.09-1.66-.06-3.01.45-4.14,1.6-1.94,1.97-3.32,4.25-4.09,6.91-1.1,3.84.95,6.22,4.73,6,2.45-.14,4.91-.05,7.36-.05,1.16,0,2.31,0,3.58,0v7.87c.88.22,1.65.19,2.53.04v-7.74c.49-.23.91-.15,1.32-.15,3.55,0,7.1-.03,10.65,0,2.89.03,4.61-2.49,4.03-4.97-.36-1.52-.76-3.03-1.6-4.32-1.67-2.55-3.17-5.44-6.9-5.27ZM51.27,55.92c-3.09,0-6.17.04-9.26-.03-.82-.02-1.26-.69-1.1-1.53.53-2.78,1.86-5.14,3.95-7.03,1.03-.93,1.73-.76,2.43.44,1.29,2.2,2.56,4.41,3.83,6.62.24.42.51.85.14,1.54ZM56.55,55.02c-.72,1.22-1.24,1.22-1.97-.01-1.66-2.83-3.31-5.67-4.95-8.51-.67-1.16-.37-2.12.89-2.6,1.63-.63,3.34-.89,5.19-.82,1.46-.1,2.97.24,4.47.61,1.67.42,2.07,1.44,1.2,2.97-1.59,2.8-3.21,5.59-4.83,8.38ZM69.12,55.9c-3.09.07-6.18.03-9.24.03-.35-.6-.23-.98-.02-1.36,1.35-2.34,2.69-4.68,4.04-7.02.5-.86,1.37-1.04,2.15-.38,2.18,1.88,3.55,4.24,4.12,7.06.17.84-.08,1.64-1.05,1.66Z"/>
      </g>
    </g>
  </g>
</svg>