<?xml version="1.0" encoding="UTF-8"?>
<svg xmlns="http://www.w3.org/2000/svg" version="1.1" viewBox="0 0 495.87 204.39">
  <defs>
    <style>
      .cls-1 {
        fill: #fe6b37;
      }
    </style>
  </defs>
  <!-- Generator: Adobe Illustrator 28.6.0, SVG Export Plug-In . SVG Version: 1.2.0 Build 709)  -->
  <g>
    <g id="Capa_1">
      <g>
        <path class="cls-1" d="M31.75,100.74c4.19,3.45,8.5,6.53,12.98,9.35,6.83,4.31,13.99,8.02,21.33,11.38,10.66,4.88,21.63,8.93,32.8,12.48,9.9,3.15,19.93,5.82,30.01,8.25,7.39,1.79,14.85,3.28,22.31,4.73,6.45,1.25,12.94,2.34,19.43,3.35,5.1.8,10.24,1.35,15.35,2.07,5.72.81,11.45,1.47,17.2,2.04,4.5.45,8.99.94,13.49,1.33,5.83.51,11.66,1.04,17.51,1.36,3.53.2,7.07.46,10.6.66,4.93.28,9.87.41,14.79.72,3.06.19,6.11.11,9.16.24,16.85.75,33.72.24,50.58.26,4.1,0,8.23-.09,12.34-.3,5.04-.26,10.09-.45,15.13-.68,5.86-.27,11.72-.63,17.58-1.01,4.52-.29,9.04-.63,13.56-.98,5.66-.44,11.3-1.1,16.95-1.64,3.96-.37,7.92-.61,11.87-1.04,4.37-.47,8.72-1.11,13.09-1.63,4.04-.48,8.1-.85,12.14-1.39,4.4-.58,8.78-1.35,13.19-1.91,2.45-.31,4.9-.66,7.33-1.07,1-.17,1.55-.12,1.22,1.32-1.28,5.54-2.36,11.12-3.53,16.68-1.4,6.63-2.85,13.24-4.22,19.88-.48,2.33-.58,2.55-3.3,2.65-4.17.15-8.35.09-12.51.39-4.17.29-8.36.03-12.51.38-3.18.27-6.34.24-9.5.23-9.04-.04-18.07.76-27.1.31-6.97-.35-13.94,0-20.89-.37-3.56-.19-7.12-.04-10.67-.27-5.21-.34-10.42-.5-15.63-.7-3.92-.15-7.85-.43-11.77-.67-4.74-.29-9.48-.66-14.23-.98-5.23-.35-10.45-.82-15.67-1.33-4.82-.48-9.61-1.23-14.43-1.6-3.47-.26-6.91-.69-10.35-1.12-3.86-.48-7.73-.98-11.59-1.52-3.59-.5-7.18-1-10.78-1.46-3.86-.5-7.71-1.1-11.55-1.74-4.21-.7-8.41-1.5-12.61-2.26-5.07-.91-10.16-1.71-15.19-2.76-8.03-1.67-16.04-3.41-24.01-5.31-10.36-2.47-20.68-5.13-30.89-8.17-7.65-2.28-15.28-4.6-22.82-7.21-10.02-3.47-19.95-7.18-29.71-11.36-7.31-3.13-14.57-6.38-21.65-10-8.93-4.57-17.7-9.43-26.1-14.95-6.15-4.04-12.2-8.19-17.9-12.85-.56-.46-.94-.86-.81-1.78Z"/>
        <path class="cls-1" d="M176.57,44.8c5.53,1.09,10.75.87,15.49-2.25,3.58-2.36,5.3-5.92,5.95-10.02.31-1.94-1.97-4.09-4.45-4.16-3.75-.1-7.5-.06-11.26,0-1,.02-1.7.43-2.1,1.62-2.81,8.21-5.8,16.37-8.63,24.58-2.66,7.69-5.19,15.43-7.77,23.15-.29.86-.66,1.29-1.71,1.26-4.02-.08-8.04-.03-12.2-.03,1.22-3.22,2.35-6.38,3.6-9.5,2.33-5.83,4.44-11.75,6.5-17.68,3.26-9.39,6.5-18.79,9.74-28.18.41-1.19.84-2.38,1.09-3.6.18-.89.66-1.03,1.4-1.02,9.39,0,18.78-.08,28.16.06,2.59.04,5.2.5,7.47,2.13,2.29,1.64,3.3,3.87,3.59,6.52.74,6.74-1.94,12.26-6.26,17.15-4.81,5.46-10.93,8.39-18.11,9.36-3.22.44-6.39.31-9.6,0-.94-.09-1.22-.43-1.27-1.33-.13-2.67.59-5.28.34-8.04Z"/>
        <path class="cls-1" d="M114.75,56.44c-5.28,2.38-10.95,2.97-16.16,5.08-2.46.99-4.63,2.35-6.01,4.68-2.16,3.66.14,5.75,3.5,6.02,2.81.23,5.63.08,8.33-.93.24-.09.55-.01,1.03-.01-1.55,2.63-2.95,5.21-4.57,7.64-.55.82-1.87.57-2.79.64-2.43.19-4.86.66-7.31.4-2.61-.28-5.21-.51-7.65-1.72-3.71-1.83-4.59-5.83-4.03-8.93,1.41-7.85,6.78-11.97,13.79-14.47,5.27-1.88,10.82-2.65,16.21-4.07,2.89-.76,5.95-1.32,8.06-3.78.32-.37.63-.77.86-1.19,1.21-2.25.55-3.93-1.87-4.73-2.46-.81-4.95-.7-7.51-.43-5.05.53-9.93,1.66-14.69,3.36-.82.29-1.09-.11-.75-.83,1.14-2.43,2.22-4.9,3.53-7.25.68-1.23,2.26-.88,3.41-1.12,6.96-1.43,14.01-2.15,21.11-1.7,2.53.16,5.12.59,7.34,2.08,3.62,2.42,3.99,4.29,3.14,8.59-1.03,5.2-3.43,10.01-5.27,14.97-2.26,6.1-4.58,12.17-6.51,18.38-.47,1.52-1.15,1.95-2.67,1.88-2.96-.13-5.92-.04-8.88-.04-2.19,0-2.25-.07-1.39-2.03,2.5-5.71,4.43-11.64,6.7-17.43.37-.94.67-1.91,1.06-3.05Z"/>
        <path class="cls-1" d="M438.94,78.61c3.07-7.48,5.78-14.86,8.52-22.38-1.46.54-2.87,1.13-4.32,1.59-3.79,1.22-7.77,1.83-11.47,3.37-3.03,1.26-5.97,2.64-6.97,6.23-.54,1.92.22,3.45,2.08,4.19,3,1.2,5.96.49,8.92-.12.74-.15,1.46-.4,2.45-.68-.76,2.02-2.16,3.46-2.86,5.22-1.1,2.77-3.36,3.53-5.97,3.55-3.44.02-6.91.4-10.32-.36-6.18-1.37-8.58-5.91-6.75-12.11,1.84-6.24,6.36-9.63,12.03-11.96,5.76-2.36,11.94-3.09,17.9-4.68,2.49-.66,4.94-1.33,7.05-2.97,1.13-.88,1.76-1.96,2.02-3.24.43-2.07-1.66-3.72-4.52-3.87-6.77-.34-13.24,1.04-19.6,3.19-.5.17-1,.31-1.86.58.83-1.64,1.5-2.98,2.18-4.33.2-.39.49-.77.56-1.19.53-3.14,2.88-3.86,5.52-4.26,6.06-.92,12.12-1.98,18.27-1.65,3.47.19,6.98.51,10.04,2.6,3.05,2.08,3.28,5.17,2.67,7.72-1.23,5.11-3.37,9.91-5.19,14.83-2.35,6.35-4.89,12.63-6.74,19.15-.29,1.03-.71,1.65-2.04,1.61-3.8-.12-7.6-.04-11.6-.04Z"/>
        <path class="cls-1" d="M66.89,18.63c-3.64,9.94-7.19,19.62-10.73,29.31-2.33,6.36-4.63,12.73-6.96,19.09-.67,1.82-.65,1.87,1.34,1.87,6.43,0,12.86.06,19.28-.03,2.04-.03,4.08-.37,6.14-.32.82.02,1.07.1.69,1.01-1.09,2.62-2.08,5.29-3.04,7.96-.28.78-.64,1.12-1.52,1.12-13.41-.03-26.83-.03-40.24,0-1.07,0-1.34-.17-.88-1.31,4.13-10.23,8.16-20.5,11.84-30.91,3.08-8.71,6.21-17.39,9.01-26.19.37-1.17.91-1.64,2.21-1.62,4.24.09,8.49.03,12.87.03Z"/>
        <path class="cls-1" d="M423.82,34.04c-2.55,3.29-4.88,6.33-7.24,9.36-2.83,3.64-5.71,7.26-8.51,10.92-3.77,4.92-7.49,9.88-11.22,14.83-2.11,2.8-4.23,5.61-6.26,8.47-.52.72-1.04,1.02-1.91,1.01-3.86-.03-7.71-.03-11.57,0-.82,0-1.29-.03-1.34-1.11-.17-4.33-.2-8.67-.35-13-.18-5.21-.44-10.41-.67-15.62-.2-4.54-.6-9.06-.65-13.61-.01-1.21.24-1.64,1.54-1.6,3.35.1,6.71.1,10.06,0,1.32-.04,1.54.41,1.53,1.61-.05,9.83-.03,19.66-.03,29.49v1.57c2.24-3.17,4.26-6.06,6.3-8.92,5.38-7.54,10.77-15.07,16.12-22.63.38-.54.71-.75,1.32-.75,4.19.01,8.37,0,12.87,0Z"/>
        <path class="cls-1" d="M266.47,80.65c-4.69-.33-9-.82-13.24-1.78-.73-.17-1.05-.54-.86-1.39.61-2.77,1.15-5.56,1.69-8.35.16-.85.6-.58,1.08-.35,2.87,1.36,5.83,2.46,8.99,2.98,2.81.46,5.7.31,7.94-1.38,3.49-2.64,3.33-4.94.13-8.65-1.78-2.06-3.86-3.82-5.64-5.91-3.93-4.61-3.49-9.61-.4-14.24,2.97-4.45,7.4-6.52,12.48-7.55,2.01-.41,4.07-.49,6.07-.56,3.06-.09,6.15.42,9.22.73.86.09,1.71.47,2.57.48,1.56.02,2,.56,1.52,2.1-.67,2.19-1.18,4.43-1.71,6.65-.36,1.5-1.29.79-1.98.49-2.81-1.22-5.71-2-8.79-1.81-1.19.07-2.37.3-3.55.6-3.66.97-5.74,4.64-2.09,8.27,2.47,2.46,4.86,4.98,6.88,7.85,2.84,4.02,2.34,9.82-.61,13.69-3.44,4.51-8.37,6.3-13.65,7.46-2.12.47-4.3.12-6.04.69Z"/>
        <path class="cls-1" d="M343.14,68.86c-1.62,3.2-3.1,6.08-4.51,8.99-.34.71-.91.97-1.54,1.07-3.54.59-7.08,1.19-10.69,1.03-1.98-.09-3.94-.39-5.79-1.11-2.52-.98-3.85-4.51-3.03-7.85,1.44-5.91,3.85-11.49,5.93-17.17,1.29-3.53,2.64-7.03,4.04-10.73-1.79,0-3.45-.01-5.1,0-.81.01-1.12-.16-.78-1.06.89-2.35,1.72-4.72,2.48-7.12.25-.79.71-.88,1.36-.87,1.51.01,3.02-.05,4.53.02.88.04,1.27-.32,1.53-1.11.43-1.3,1.17-2.52,1.39-3.84.48-2.89,2.43-3.71,4.93-4.11,2.75-.44,5.48-1.05,8.21-1.59,1.08-.22.94.28.68,1.01-1.12,3.14-2.2,6.29-3.36,9.6h11.31c-1.06,2.95-2.1,5.7-3.01,8.49-.28.87-.85.56-1.31.57-2.91.03-5.81.07-8.72,0-1.13-.03-1.7.34-2.08,1.4-2.2,6.12-4.47,12.21-6.66,18.33-.47,1.33-.83,2.73-1,4.13-.16,1.29.53,2.96,2.54,2.98,1.45.02,2.92.11,4.36-.05,1.33-.15,2.63-.59,4.31-.99Z"/>
        <path class="cls-1" d="M342.9,78.61c1.32-3.43,2.6-6.67,3.83-9.93,2.09-5.57,4.22-11.13,6.22-16.74,2.05-5.76,4.06-11.54,5.76-17.42.2-.71.63-.81,1.24-.81,3.86,0,7.71.01,11.57,0,.81,0,1.14.16.76,1.06-4.06,9.62-7.39,19.51-10.79,29.37-1.54,4.49-2.99,9.02-4.41,13.55-.16.5-.08.94-.82.93-4.4-.02-8.8-.01-13.35-.01Z"/>
        <path class="cls-1" d="M320.23,33.71c-3.49,8.27-6.41,16.49-9.26,24.74-2.16,6.24-4.21,12.53-6.2,18.82-.33,1.05-.75,1.38-1.82,1.37-3.69-.06-7.37-.06-11.06,0-1.18.02-1.45-.21-.97-1.4,2.13-5.32,4.25-10.65,6.21-16.03,2.56-7.03,4.98-14.11,7.43-21.17.63-1.8,1.2-3.63,1.72-5.46.18-.64.41-.88,1.1-.87,4.19.03,8.37.02,12.86.02Z"/>
        <path class="cls-1" d="M364.37,124.37c-3.2,2.77-6.99,3.25-10.82,2.75-3.08-.4-5.21-2.08-3.61-6.39,1.37-3.69,3.02-7.26,4.54-10.89.53-1.26,1.06-2.52,1.55-3.79.27-.69.67-1.02,1.48-.97,1.39.08,2.79.06,4.19.01,1.14-.04,1.15.36.74,1.28-1.62,3.59-3.19,7.21-4.73,10.83-.55,1.3-1.34,2.68-.14,3.99,1.21,1.31,2.73,1.13,4.28.62,3.51-1.16,5.23-3.97,6.58-7.1,1.23-2.86,2.39-5.75,3.55-8.64.29-.72.72-1.02,1.51-.99,1.45.05,2.91.04,4.36,0,.79-.02,1.12.06.69.99-3.01,6.56-5.92,13.17-8.46,19.92-.11.29-.35.76-.53.77-1.84.06-3.68.08-5.51.01-.41-.02-.31-.56-.15-.82.31-.48.12-1.08.5-1.58Z"/>
        <path class="cls-1" d="M272.27,126.08c.42-1.51.95-2.96,1.19-4.46.2-1.22.69-1.19,1.54-.74,2.76,1.46,5.67,1.91,8.67.95,2.69-.86,4.56-3.59,1.69-6.44-1.32-1.32-2.54-2.77-3.62-4.3-1.59-2.24-1.58-5.87-.06-8.08,2.59-3.78,6.22-5.37,10.57-5.61,2.32-.13,4.65-.09,6.98.28,1.06.17,1.39.55,1.09,1.53-.33,1.1-.73,2.18-.97,3.29-.22,1.01-.68.88-1.42.57-2.84-1.19-5.69-1.56-8.46.25-2.29,1.5-2.57,3.28-.82,5.34,1.25,1.47,2.55,2.9,3.75,4.41,2.54,3.2,1.8,6.49-.53,9.3-2.69,3.25-6.33,4.63-10.47,4.83-3.11.15-6.16-.24-9.14-1.12Z"/>
        <path class="cls-1" d="M441.53,105.2c-.51,1.68-.96,3.19-1.44,4.77-1.1-.36-2.19-.77-3.32-1.07-1.44-.38-2.86-.08-4.17.54-1.32.62-1.49,2.21-.46,3.5.65.82,1.49,1.45,2.1,2.34,3.02,4.42,1.61,9.11-3.41,10.9-3.9,1.39-7.86,1.33-11.87.42-.88-.2-.94-.55-.88-1.21,0-.11.03-.22.06-.33.81-3.62.8-3.59,4.33-2.53,1.71.52,3.45.66,5.12-.28,1.59-.9,1.8-1.78.87-3.3-.65-1.06-1.65-1.79-2.41-2.74-3.16-3.93-1.46-9.07,3.54-10.78,3.3-1.13,6.66-1.16,10.05-.47.59.12,1.2.15,1.89.23Z"/>
        <path class="cls-1" d="M389.89,106.67c1.67-.99,3.29-1.77,5.09-2.11.38-.07.77-.14,1.15-.13,1.72.07,1.99.47,1.46,2.06-.12.36-.26.72-.36,1.09-.44,1.56-.78,2.65-3.1,2.31-3.67-.54-5.82,2.1-7.45,5-1.9,3.4-3.28,7.03-4.51,10.72-.32.94-.75,1.44-1.86,1.29-.99-.14-2.01-.03-3.01-.03-2.08,0-2.2-.11-1.34-1.95,1.99-4.26,3.77-8.61,5.5-12.97.73-1.82,1.41-3.67,2.08-5.52.34-.94.82-1.47,1.94-1.36,1.11.11,2.24.1,3.35,0,1.2-.1,1.66.22,1.07,1.6Z"/>
        <path class="cls-1" d="M318.88,18.29c1.84,0,3.69.02,5.53,0,1.01-.02,1.26.17.82,1.24-.84,2.07-1.46,4.23-2.19,6.35-.25.72-.66,1.17-1.57,1.15-3.69-.06-7.38-.03-11.06-.02-.91,0-1.16-.17-.79-1.16.81-2.15,1.45-4.35,2.14-6.54.22-.71.57-1.07,1.42-1.04,1.9.08,3.8.02,5.7.02Z"/>
        <path class="cls-1" d="M361.66,27c.95-2.81,1.85-5.32,2.64-7.87.2-.65.45-.86,1.12-.85,3.8.03,7.59.04,11.39,0,1.14-.01,1.17.5.86,1.34-.83,2.2-1.69,4.38-2.44,6.6-.2.58-.38.79-.99.79-4.13-.02-8.25-.01-12.58-.01Z"/>
        <path class="cls-1" d="M248.49,35.07c-3.24-1.35-6.67-1.86-10.4-1.66-1.79-.29-3.79.02-5.74.36-8.81,1.53-16.14,5.69-21.54,12.87-4.55,6.05-7.37,12.7-6.77,20.54.46,6.03,4.73,10.55,10.3,12.08,4.98,1.37,10,1.29,15.08.39,9.06-1.6,16.16-6.26,21.32-13.72,4.23-6.1,7.05-12.76,6-20.48-.69-5.09-3.61-8.46-8.25-10.39ZM238.05,64.61c-2.77,3.47-6.3,5.68-10.74,6.42-4.96.83-10.34-1.36-10.18-7.76.13-5.25,2.28-9.64,5.21-13.77,2.73-3.85,6.47-6.27,11.14-6.98,3.95-.6,8.83.4,10,4.85.25.96.05,1.87.27,3.1-.33,5.14-2.32,9.91-5.69,14.13Z"/>
        <path class="cls-1" d="M350.09,105.4c-3.59-.46-7.1-1.04-10.8-.73-8.3.7-15.77,6.84-17.4,15.11-.79,3.99,1,6.92,5.71,7.11,3.19.13,6.1-.53,9.09-2.69-.28,1.67-.94,2.63-1.48,3.62-1.2,2.22-2.92,4.01-5.49,4.34-2.12.27-4.32.29-6.44-.35-1.17-.35-2.59-1.25-3.45-.88-1,.43-.67,2.27-1.26,3.39-.05.09-.08.2-.11.31-.21.67-.34,1.11.69,1.33,4.19.91,8.38,1.41,12.63.62,3.95-.73,7.08-2.68,8.81-6.42,3.61-7.79,6.44-15.92,10.18-23.65.41-.84.17-1-.68-1.11ZM342.6,110.69c-1.61,3.46-2.74,7.21-5.83,9.8-1.34,1.12-2.88,1.74-4.34,2.05-2.52-.25-4.63-1.32-3.56-4.61,1.87-5.74,6.24-9.29,12.46-8.83,1.07.08,1.91.24,1.28,1.59Z"/>
        <path class="cls-1" d="M414.53,104.84c-2.27-.55-4.62-.56-6.88-.03-7.34,1.71-12.19,6.23-13.91,13.56-.86,3.67-.03,7.57,5.11,8.56,1.17.23,2.3.19,3.08.25,1.27,0,2.19.15,3.05-.02,7.32-1.52,12.06-5.92,14.27-13.03,1.39-4.47-.55-8.29-4.71-9.29ZM404.08,122.81c-2.54.35-4.43-1.95-3.86-4.5.71-3.17,2.27-5.76,4.83-7.75,1.62-1.25,3.49-1.6,5.45-1.42,1.49.14,2.55,1.64,2.54,3.36-.35,3.98-3.69,9.59-8.97,10.32Z"/>
        <path class="cls-1" d="M306.8,116.51c3.29-.06,6.59-.03,9.89-.03q3.99,0,5.21-3.91s.08-.08.1-.13c1.09-3.72-.61-6.93-4.18-7.63-2.84-.56-5.74-.49-8.44.51-6.5,2.41-10.47,7.1-11.68,13.93-.79,4.48.78,6.61,5.26,7.63,2.68.61,5.37.43,8.07.02,3.13-.48,4.83-2.04,5.37-5.45-.56.64-1.17.41-1.75.59-2.22.69-4.52.93-6.87.83-1.38-.06-2.45-.64-3.23-1.72-.92-1.27-.52-2.62-.04-3.94.45-1.24,1.51-.68,2.29-.7ZM314.87,108.75c1.49.58,1.29,1.78,1.2,2.9-.08,1-.52,1.59-1.79,1.52-2.54-.14-5.1-.04-7.7-.04,1.53-3.47,5.49-5.47,8.29-4.38Z"/>
      </g>
    </g>
  </g>
</svg>