<?xml version="1.0" encoding="UTF-8"?>
<svg xmlns="http://www.w3.org/2000/svg" version="1.1" viewBox="0 0 495.87 260.13">
  <defs>
    <style>
      .cls-1 {
        fill: #f6052d;
      }
    </style>
  </defs>
  <!-- Generator: Adobe Illustrator 28.6.0, SVG Export Plug-In . SVG Version: 1.2.0 Build 709)  -->
  <g>
    <g id="Capa_1">
      <g>
        <path class="cls-1" d="M246.85,43.45c-5.56,2.3-10.8,4.47-16.05,6.63-29.36,12.09-58.55,24.58-87.95,36.55-5.29,2.15-10.56,4.38-16.06,5.98-3.18.93-5.62-.75-5.86-3.99-.09-1.25.24-2.29,1.52-2.96,7.51-3.95,15.21-7.51,22.9-11.07,35.26-16.32,70.66-32.33,106.38-47.62,2.37-1.01,4.78-1.92,7.16-2.92,2.18-.91,4.24-.67,5.98.86,1.81,1.6,2.3,3.78,1.73,6.06-1.29,5.15-3.06,10.15-4.76,15.17-4.75,14.12-10.16,28-14.75,42.17-.63,1.94-1.31,3.87-1.78,6.1,2.14-.86,4.11-1.63,6.06-2.43,25.1-10.38,50.02-21.15,75-31.81,15.39-6.56,30.7-13.31,46.31-19.35,2.79-1.08,5.59-2.1,8.56-2.61,7.37-1.27,12.98,1.58,16.85,7.67,4.59,7.2,5.1,14.88,1.4,22.65-1.81,3.81-4.89,6.4-8.79,7.93-5.82,2.29-11.86,3.88-17.87,5.58-33.84,9.55-67.72,18.97-101.65,28.18-15.11,4.1-30.22,8.2-45.43,11.97-2.33.58-4.48.53-6.62-.6-3.54-1.86-4.7-4.26-3.8-8.13.86-3.69,2.35-7.16,3.87-10.61,6.02-13.72,12.69-27.13,19.03-40.7,2.64-5.65,5.25-11.31,7.87-16.97.22-.47.41-.94.75-1.72Z"/>
        <path class="cls-1" d="M203.27,176.93c-.81,1.04-1.25,2.07-1.74,3.06-6.58,13.28-12.65,26.81-18.9,40.25-.71,1.52-1.42,3.04-2.1,4.58-.24.55-.56.76-1.18.76-5.73-.08-11.46.12-17.18-.16-1.33-.06-1.34-.06-.76-1.28,7.5-15.78,14.99-31.57,22.51-47.35,3.59-7.52,7.14-15.05,11.08-22.39.6-1.12,1.29-2.19,1.9-3.3,1.52-2.77,4.03-4.09,6.96-4.84,1.36-.35,2.59-.08,3.75.64,2.11,1.3,3.58,3.12,4.49,5.43,2.21,5.61,3.71,11.43,5.33,17.21,3.31,11.79,6.47,23.63,10.14,35.32.19.6.41,1.18.69,1.99.8-1.06,1.47-1.94,2.12-2.83,9.24-12.57,18.04-25.45,27.12-38.13,3.85-5.38,7.63-10.83,12.13-15.72,1.14-1.24,2.37-2.39,3.87-3.2,1.31-.71,2.69-.87,4.13-.53.83.2,1.65.5,2.48.71,2.56.65,3.85,2.4,4.33,4.89.78,4.02.86,8.1.93,12.18.32,20.02.08,40.05.18,60.07,0,.99-.19,1.33-1.26,1.31-4.83-.06-9.66-.03-14.49-.03-1.48,0-1.45,0-1.42-1.47.07-2.88.1-5.76.15-8.64.19-11.04.52-22.07.45-33.11-.01-1.71.07-3.42-.25-5.42-1.39,1.86-2.62,3.48-3.83,5.13-10.14,13.86-19.95,27.95-29.83,41.99-.55.78-1.08,1.12-2.07,1.11-4.68-.06-9.36-.06-14.05,0-.9,0-1.26-.22-1.52-1.12-4.03-13.84-7.94-27.71-12.31-41.45-.58-1.84-1.21-3.66-1.86-5.64Z"/>
        <path class="cls-1" d="M424.2,226.32c-7.27.16-14.42-.59-21.27-3.19-6.02-2.29-11.07-5.84-14.67-11.31-2.01-3.05-2.68-6.46-2.96-9.99-.43-5.36-.31-10.71,1.09-15.93,1.37-5.11,4.33-9.33,7.94-13.1,7.25-7.58,16.37-11.61,26.48-13.68,8.07-1.65,16.19-1.72,24.35-.77,2.6.3,5.21.51,7.79,1,1.65.32,1.69.37,1.48,2.05-.46,3.75-1.44,7.4-2.23,11.09-.11.51-.31.58-.77.46-4.31-1.19-8.75-.99-13.15-1.15-3.55-.13-7.11.06-10.66.04-5.09-.03-9.51,1.77-13.6,4.56-3.98,2.71-7.51,5.97-9.43,10.45-2.62,6.09-3.07,12.27.83,18.1,2.66,3.97,6.68,5.98,11.18,7.16,5.27,1.38,10.6,1.12,15.95.59,3.36-.33,6.65-1.02,9.93-1.77.95-.22,1.32,0,1.13,1.02-.77,4.27-1.94,8.44-2.92,12.67-.13.57-.54.51-.93.59-4.02.76-8.09,1-12.17,1.1-1.12.03-2.24,0-3.37,0Z"/>
        <path class="cls-1" d="M132.94,225.16c-2.73.19-5.46.42-8.19.06-1.04-.14-1.39-.47-1.14-1.59,2.87-13.06,5.97-26.06,9-39.08,1.89-8.11,3.79-16.22,5.64-24.34.15-.68.38-.89,1.07-.92,4.67-.22,9.35-.34,14.02.03,1.98.16,2.25.58,1.81,2.54-2.18,9.85-4.33,19.7-6.57,29.53-2.47,10.85-5.04,21.68-7.52,32.52-.23,1-.63,1.31-1.62,1.28-2.17-.07-4.33-.02-6.5-.02Z"/>
        <path class="cls-1" d="M91.89,198.92c1.15-.53,2.33-1,3.53-1.41,9.9-3.39,16.34-11.51,15.74-21.96-.3-5.2-1.98-9.57-6.66-12.5-3.93-2.45-8.19-3.32-12.71-3.45-9.47-.27-18.93-.5-28.4-.43-1.94.01-3.89.09-5.82.34-.76.1-1.09.45-1.26,1.16-.58,2.43-1.23,4.85-1.8,7.29-4.36,18.58-8.7,37.17-13.08,55.75-.24,1.01.08,1.41.97,1.58.33.06.67.11,1,.13,4.6.32,9.21.06,13.81.18,1,.03,1.39-.23,1.61-1.25,1.62-7.52,3.32-15.03,4.97-22.54.17-.78.45-1.1,1.3-1.13,2.09-.06,4.18-.23,6.27-.41.86-.08,1.38.13,1.88.93,4.83,7.87,9.71,15.7,14.59,23.54.24.39.38.85,1.04.85,6.17-.02,12.35-.01,18.71-.01-.22-.37-.32-.56-.44-.74-3.33-5.01-6.69-10.02-10-15.04-2.01-3.06-4-6.13-5.71-9.38-.38-.72-.3-1.14.46-1.49ZM69.49,189.93c-1.48-.1-1.96-.73-1.97-2.19-.01-1.97.55-3.84.97-5.73.87-3.94,1.8-7.86,2.71-11.78.12-.53.17-1.04,1.02-.98,5.14.37,10.3.44,15.45.79,5.23.35,7.17,6.34,6.1,10.77-1.05,4.32-4.22,10.48-24.27,9.13Z"/>
        <path class="cls-1" d="M374.28,223.92c-.94-3.5-1.85-7-2.84-10.49-4.46-15.81-8.96-31.62-13.77-47.33-1.11-3.64-3.45-5.61-7.23-6-3.32-.35-6.37.01-8.65,2.8-.61.75-1.21,1.52-1.78,2.31-12.09,16.78-23.85,33.8-35.53,50.87-2,2.93-3.95,5.89-5.98,8.93.71.35,1.28.34,1.83.37,4.64.31,9.28.12,13.92.2.83.02,1.26-.28,1.68-.96,2.51-4.12,5.09-8.19,7.6-12.31.38-.62.77-.85,1.5-.84,9.48.03,18.95.03,28.43,0,.85,0,1.2.2,1.4,1.09.91,4.04,1.91,8.07,2.89,12.1.11.45.11.93.85.92,4.9-.07,9.81.12,14.71-.23,1.24-.09,1.3-.17.96-1.43ZM350.66,200.94c-.93.18-1.86.2-2.79.2-5.13,0-10.25.18-15.37-.21-.3-.02-.59-.06-1.17-.13,4.94-7.55,10.06-14.78,15.52-22.12.96,3.06,1.58,5.94,2.24,8.82.89,3.93,1.74,7.88,2.67,11.8.24,1.03-.13,1.45-1.09,1.64Z"/>
      </g>
    </g>
  </g>
</svg>