<?xml version="1.0" standalone="no"?>
<!DOCTYPE svg PUBLIC "-//W3C//DTD SVG 20010904//EN"
 "http://www.w3.org/TR/2001/REC-SVG-20010904/DTD/svg10.dtd">
<svg version="1.0" xmlns="http://www.w3.org/2000/svg"
 width="980.000000pt" height="854.000000pt" viewBox="0 0 980.000000 854.000000"
 preserveAspectRatio="xMidYMid meet">

<g transform="translate(0.000000,854.000000) scale(0.100000,-0.100000)"
fill="#000000" stroke="none">
<path d="M4530 8524 c-207 -20 -490 -75 -713 -139 -1114 -320 -2059 -1072
-2632 -2094 -134 -240 -246 -503 -351 -821 -36 -113 -70 -208 -73 -212 -4 -5
-67 101 -141 235 -73 133 -164 297 -202 364 -114 203 -185 283 -252 283 -65 0
-166 -84 -166 -139 0 -82 90 -274 385 -816 242 -446 334 -604 362 -622 32 -21
124 -29 163 -13 54 22 926 921 1017 1048 41 57 46 69 45 117 0 63 -16 100 -55
129 -23 17 -43 21 -101 21 -70 0 -75 -2 -127 -42 -30 -23 -164 -156 -299 -297
-135 -140 -246 -251 -248 -246 -5 13 85 281 138 410 225 546 626 1113 1051
1487 644 565 1402 899 2264 999 279 32 693 23 1005 -22 1120 -162 2156 -829
2784 -1791 206 -316 335 -595 452 -974 85 -278 125 -339 222 -339 57 0 101 20
139 63 50 57 58 94 38 185 -24 108 -97 332 -161 494 -320 811 -898 1524 -1634
2015 -599 399 -1333 663 -1981 713 -120 9 -840 12 -929 4z"/>
<path d="M4705 6809 c-99 -14 -234 -57 -333 -106 -340 -166 -559 -486 -631
-923 -17 -105 -41 -377 -41 -471 l0 -26 -188 -11 c-104 -7 -211 -19 -238 -27
-111 -34 -255 -177 -305 -305 -20 -52 -22 -78 -29 -438 -9 -480 5 -1999 19
-2065 16 -76 59 -145 139 -225 79 -80 126 -106 223 -123 83 -15 2864 -24 3125
-11 167 9 185 12 235 37 74 38 185 152 242 251 l47 81 0 1099 c0 633 -4 1146
-10 1209 -14 153 -32 218 -86 297 -112 165 -211 207 -526 223 l-136 7 -6 97
c-30 472 -96 709 -264 947 -173 244 -460 430 -737 479 -96 17 -395 19 -500 4z
m430 -349 c189 -27 318 -85 431 -192 167 -159 247 -361 290 -731 19 -165 16
-185 -36 -212 -55 -29 -281 -36 -1040 -33 l-735 3 1 131 c2 200 40 439 90 573
73 195 283 385 481 436 33 8 86 19 119 24 83 12 316 12 399 1z m1417 -1558
c20 -7 39 -20 43 -30 18 -43 24 -366 24 -1242 0 -520 -4 -992 -8 -1049 -11
-128 -24 -145 -121 -163 -89 -17 -2900 -17 -3043 0 -70 8 -105 17 -127 32
l-30 21 1 1122 c0 617 4 1157 8 1200 5 50 14 85 25 95 10 10 43 18 93 23 43 3
758 6 1588 5 1159 -2 1518 -5 1547 -14z"/>
<path d="M4817 4406 c-80 -29 -169 -109 -220 -197 -53 -91 -59 -141 -55 -483
l3 -311 32 -66 c19 -37 56 -89 89 -122 155 -156 361 -169 539 -35 81 62 119
125 135 228 13 88 13 631 -1 705 -15 83 -38 123 -108 187 -82 76 -146 100
-276 105 -69 2 -112 -1 -138 -11z m174 -332 c15 -18 27 -219 28 -461 l1 -163
-66 0 -66 0 4 308 c2 169 7 313 11 320 12 17 72 15 88 -4z"/>
<path d="M8900 4018 c-236 -203 -755 -676 -948 -862 -126 -123 -142 -153 -121
-228 21 -80 115 -139 192 -122 60 13 104 48 468 374 107 96 219 195 249 220
l53 45 -7 -43 c-9 -57 -85 -302 -140 -448 -133 -357 -320 -694 -565 -1018
-536 -710 -1329 -1238 -2196 -1462 -367 -94 -577 -119 -1005 -119 -358 1 -452
9 -730 61 -1329 248 -2445 1144 -2973 2385 -43 101 -80 209 -147 429 -37 121
-80 207 -117 234 -28 21 -98 32 -137 22 -36 -9 -96 -64 -112 -103 -37 -88 8
-276 151 -623 57 -141 215 -463 285 -585 433 -749 1083 -1353 1875 -1740 458
-225 999 -378 1457 -414 174 -14 703 -14 873 -1 419 34 868 147 1280 322 710
302 1323 782 1792 1405 311 412 492 770 688 1361 36 111 70 202 74 202 3 0 44
-84 91 -187 46 -104 128 -277 182 -385 106 -211 123 -232 203 -245 46 -7 117
20 149 58 38 45 42 89 16 162 -65 181 -303 718 -469 1062 -136 279 -175 325
-273 325 -39 0 -51 -7 -138 -82z"/>
</g>
</svg>
