<?xml version="1.0" encoding="UTF-8"?>
<svg id="Capa_2" xmlns="http://www.w3.org/2000/svg" viewBox="0 0 1026.88 1023.14">
  <defs>
    <style>
      .cls-1 {
        fill: #0855c4;
      }

      .cls-2 {
        fill: #fff;
      }
    </style>
  </defs>
  <g id="Capa_1-2" data-name="Capa_1">
    <rect class="cls-1" width="1026.88" height="1023.14" rx="86.25" ry="86.25"/>
    <path class="cls-2" d="M172.49,853.88c-.56-11.95-1.34-20.75-1.34-29.56-.07-185.65-.12-371.31-.02-556.96.03-64.1,33.98-98.03,98.06-98.06,185.65-.09,371.31-.05,556.96.02,8.81,0,17.63.74,28.17,1.21.54,10.12,1.41,18.87,1.41,27.61.08,185.65.12,371.31.03,556.96-.03,62.67-36.13,98.74-98.69,98.76-184.75.06-369.51.02-554.26.02-8.97,0-17.94,0-30.32,0ZM698.91,294.44c-5.74-1.52-7.57-2.61-9.14-2.33-113.9,20.31-227.74,40.97-341.71,60.9-17.69,3.1-22.72,11.25-22.59,28.93.82,107.24.38,214.48.46,321.72,0,8.76.72,17.53,1.14,26.88,6.9.35,11.44,1.43,15.66.68,110.37-19.71,220.66-39.85,331.08-59.25,20.5-3.6,27.42-13.06,27.2-34.33-1.09-105.43-.46-210.87-.57-316.31,0-8.83-.98-17.65-1.53-26.89Z"/>
  </g>
</svg>