<?xml version="1.0" encoding="UTF-8"?>
<svg id="Capa_2" xmlns="http://www.w3.org/2000/svg" viewBox="0 0 1026.88 1023.14">
  <defs>
    <style>
      .cls-1 {
        fill: #fff;
      }

      .cls-2 {
        fill: #ff002c;
      }
    </style>
  </defs>
  <g id="Capa_1-2" data-name="Capa_1">
    <g>
      <rect class="cls-2" width="1026.88" height="1023.14" rx="86.25" ry="86.25"/>
      <g>
        <path class="cls-1" d="M467.61,618.01c-19.76-24.6-38.57-44.61-53.43-67.22-32.37-49.25-48.75-102.83-32.39-161.97,17.92-64.79,82.76-103.92,155.13-94.77,62.71,7.93,114,66.04,115.38,130.17,1.06,49.27-15.94,92.86-44.98,130.98-82.8,108.72-191.13,173.26-329.83,173.26-81.78,0-147.1-37.85-187.94-111.41-11.12-20.02-15.21-42.19-11.44-65.12,5.23-31.84,29.92-53.44,62.26-54.85,46.16-2.01,88.53,13.41,129.76,30.96,57.31,24.39,113.56,51.25,170.25,77.09,7.86,3.58,15.61,7.38,27.23,12.88Z"/>
        <path class="cls-1" d="M541.39,659.59c6.8-4.66,12.24-9,18.22-12.39,74.61-42.37,148.73-85.66,224.25-126.36,30.85-16.63,65.25-25.17,101.24-23.89,38.19,1.36,64.39,27.73,65.01,66.06.79,48.08-23.98,83.43-58.85,112.21-62.14,51.28-133.78,68.04-210.86,45.23-44.77-13.25-86.96-35.2-130.23-53.43-2.75-1.16-4.79-3.98-8.78-7.41Z"/>
      </g>
    </g>
  </g>
</svg>