<?xml version="1.0" encoding="UTF-8"?>
<svg id="Capa_2" xmlns="http://www.w3.org/2000/svg" viewBox="0 0 1026.88 1023.14">
  <defs>
    <style>
      .cls-1 {
        fill: #d81f03;
      }

      .cls-2 {
        fill: #fff;
      }

      .cls-3 {
        fill: none;
        stroke: #fff;
        stroke-miterlimit: 200;
        stroke-width: 70px;
      }
    </style>
  </defs>
  <g id="Capa_1-2" data-name="Capa_1">
    <rect class="cls-1" width="1026.88" height="1023.14" rx="86.25" ry="86.25"/>
    <ellipse class="cls-3" cx="513.44" cy="511.57" rx="370.06" ry="374.65"/>
    <g>
      <path class="cls-2" d="M513.92,873.28c-202.96,1.2-364.99-156.25-366.86-356.51-1.9-202.67,161.93-366.91,365.99-366.93,200.43-.02,366.72,165.1,366.79,364.2.07,197.29-163.68,358.04-365.92,359.24ZM177.75,512.64c-.64,182.48,146.69,330.16,330.03,330.81,189.8.68,338.07-142.72,340.39-329.2,2.27-182.3-151.01-334.42-336.76-334.21-184.69.21-333.02,148.07-333.67,332.6Z"/>
      <path class="cls-2" d="M496.99,687.75c0-25.49-.88-51.02.26-76.45,1.03-23.08-8.07-32.21-31.43-31.56-43.54,1.22-87.14.94-130.7.47-51-.54-74.96-29.07-58.99-77.17,17.37-52.31,39.47-102.86,103.04-117.9,13.93-3.3,23.42-22.35,36.86-31.3,52.83-35.17,164.04-23.55,212,18.77,11.47,10.12,31.6,9.99,44.2,19.35,44.83,33.31,76.6,76.36,79.51,134.06,1.68,33.28-17.67,52.54-51.99,53.07-46.12.71-92.28,1.43-138.38.38-24.72-.57-35.38,8.49-33.79,33.52,1.22,19.14,2.08,38.68-.54,57.54-1.29,9.3-10.83,17.44-16.64,26.11-4.47-2.96-8.94-5.93-13.41-8.89ZM512.92,562.46c33.75-58.64,61.89-105.24,86.78-153.52,3.33-6.47-7.09-27.55-15.79-31.44-46.48-20.73-95.04-18.13-141.83-.85-9.04,3.34-20.97,25.02-17.82,31.05,25.62,48.98,54.52,96.25,88.67,154.75ZM466.41,549.34c-28.69-48.5-50.14-86.96-74.53-123.44-3.31-4.95-27.61-4.47-31.57,1.08-20.42,28.61-38.96,58.94-54.24,90.55-3.12,6.45,9.94,29.94,16.51,30.36,43.78,2.79,87.82,1.45,143.83,1.45ZM558.81,548.99c55.46,0,97.36,1.94,138.79-1.66,8.14-.71,23.34-26.71,19.99-34.39-12.99-29.82-30.37-58.31-50.22-84.15-5.09-6.63-33.16-7.1-37.12-1.24-23.91,35.36-43.89,73.38-71.44,121.44Z"/>
    </g>
    <path class="cls-2" d="M490.95,704.82c0-27.58-.95-55.2.28-82.72,1.11-24.97-8.73-34.86-34-34.15-47.11,1.32-94.28,1.01-141.41.51-55.18-.59-81.1-31.45-63.83-83.49,18.79-56.6,42.71-111.29,111.49-127.57,15.07-3.57,25.34-24.19,39.88-33.86,57.16-38.05,177.49-25.48,229.38,20.31,12.41,10.95,34.19,10.81,47.82,20.94,48.51,36.04,82.88,82.62,86.02,145.05,1.81,36-19.11,56.85-56.25,57.42-49.9.76-99.85,1.55-149.73.41-26.74-.61-38.28,9.18-36.56,36.27,1.32,20.71,2.25,41.85-.59,62.26-1.4,10.06-11.72,18.87-18,28.25-4.84-3.21-9.67-6.41-14.51-9.62ZM508.18,569.26c36.52-63.45,66.97-113.87,93.89-166.1,3.61-7-7.67-29.81-17.09-34.01-50.29-22.43-102.83-19.61-153.46-.92-9.78,3.61-22.69,27.07-19.28,33.59,27.72,53,58.99,104.14,95.94,167.44ZM457.86,555.07c-31.04-52.48-54.25-94.09-80.64-133.56-3.58-5.35-29.88-4.83-34.16,1.17-22.1,30.96-42.15,63.77-58.69,97.97-3.37,6.98,10.76,32.4,17.87,32.85,47.37,3.02,95.02,1.57,155.62,1.57ZM557.84,554.69c60,0,105.35,2.1,150.17-1.8,8.81-.77,25.25-28.9,21.63-37.21-14.05-32.26-32.86-63.09-54.33-91.05-5.51-7.18-35.87-7.68-40.16-1.34-25.87,38.26-47.48,79.4-77.3,131.4Z"/>
  </g>
</svg>