<?xml version="1.0" standalone="no"?>
<!DOCTYPE svg PUBLIC "-//W3C//DTD SVG 20010904//EN"
 "http://www.w3.org/TR/2001/REC-SVG-20010904/DTD/svg10.dtd">
<svg version="1.0" xmlns="http://www.w3.org/2000/svg"
 width="256.000000pt" height="256.000000pt" viewBox="0 0 256.000000 256.000000"
 preserveAspectRatio="xMidYMid meet">

<g transform="translate(0.000000,256.000000) scale(0.100000,-0.100000)"
fill="#000000" stroke="none">
<path d="M1082 2452 c-37 -34 -41 -51 -44 -161 l-3 -83 -65 -25 c-36 -13 -69
-28 -74 -33 -6 -6 -37 17 -81 59 -116 110 -149 107 -288 -28 -111 -107 -127
-132 -127 -192 0 -37 6 -47 70 -113 l70 -72 -35 -80 -34 -79 -97 -3 c-160 -5
-174 -24 -174 -240 0 -139 2 -151 23 -183 13 -20 37 -39 57 -45 l35 -12 3 35
c2 26 -2 41 -17 55 -19 17 -21 30 -21 152 0 98 3 136 13 144 7 6 64 13 127 14
l113 3 22 65 c12 36 36 92 53 126 l31 61 -80 79 c-47 47 -79 87 -79 99 0 22
186 215 208 215 7 0 51 -37 97 -81 l85 -82 67 33 c38 19 93 41 123 51 l55 17
3 113 c1 62 8 119 14 126 8 10 47 13 148 13 101 0 140 -3 148 -13 6 -7 13 -64
14 -125 l3 -113 81 -28 c45 -15 97 -38 116 -49 20 -12 42 -22 49 -22 8 0 50
36 94 80 44 44 84 80 90 80 20 0 205 -195 205 -215 0 -12 -33 -53 -79 -99
l-80 -79 31 -61 c17 -34 41 -90 53 -126 l22 -65 113 -3 c63 -1 120 -8 127 -14
10 -8 13 -46 13 -144 0 -122 -2 -135 -21 -152 -15 -14 -19 -29 -17 -55 l3 -35
35 12 c20 6 44 25 57 45 21 32 23 44 23 183 0 216 -14 235 -174 240 l-97 3
-34 79 -35 80 70 72 c64 66 70 76 70 113 0 60 -16 85 -127 192 -139 135 -180
139 -292 25 -45 -45 -68 -62 -76 -56 -6 5 -41 20 -76 34 l-64 24 -5 98 c-8
166 -19 174 -244 174 l-164 0 -30 -28z"/>
<path d="M1136 1945 c-197 -54 -354 -217 -401 -416 -8 -35 -15 -79 -15 -96 0
-31 2 -33 38 -33 l37 0 12 75 c38 238 233 405 473 405 240 0 435 -167 473
-405 l12 -75 37 0 c35 0 38 2 38 28 0 15 -7 57 -14 93 -43 201 -206 373 -402
423 -75 19 -219 20 -288 1z"/>
<path d="M1171 1534 c-156 -78 -174 -293 -34 -400 145 -111 358 -19 379 163
23 189 -173 323 -345 237z m210 -90 c60 -56 73 -119 38 -190 -55 -115 -214
-118 -277 -6 -36 64 -24 141 29 192 36 33 58 40 122 37 47 -3 62 -8 88 -33z"/>
<path d="M491 1374 c-156 -78 -174 -293 -34 -400 145 -111 358 -19 379 163 23
189 -173 323 -345 237z m210 -90 c60 -56 73 -119 38 -190 -55 -115 -214 -118
-277 -6 -36 64 -24 141 29 192 36 33 58 40 122 37 47 -3 62 -8 88 -33z"/>
<path d="M1851 1374 c-156 -78 -174 -293 -34 -400 145 -111 358 -19 379 163
23 189 -173 323 -345 237z m210 -90 c60 -56 73 -119 38 -190 -55 -115 -214
-118 -277 -6 -36 64 -24 141 29 192 36 33 58 40 122 37 47 -3 62 -8 88 -33z"/>
<path d="M989 1017 c-64 -27 -121 -68 -150 -108 l-19 -28 -243 -3 c-233 -3
-244 -4 -287 -27 -69 -37 -115 -76 -150 -131 -46 -71 -60 -136 -60 -277 0 -99
4 -133 20 -177 25 -66 79 -124 146 -157 47 -23 59 -24 282 -27 l232 -4 0 41 0
41 -180 0 -180 0 0 220 0 220 -40 0 -40 0 0 -216 c0 -193 -2 -215 -16 -210 -9
3 -20 6 -24 6 -20 0 -84 67 -101 105 -25 53 -26 247 -3 324 19 66 81 136 149
167 47 23 61 24 254 24 190 0 203 -1 195 -17 -14 -29 -17 -512 -4 -556 28 -94
117 -147 247 -147 l63 0 0 320 0 320 -40 0 -40 0 0 -281 0 -282 -41 7 c-56 9
-76 21 -99 59 -18 29 -20 52 -20 269 0 276 8 312 82 385 79 77 102 83 358 83
215 0 227 -1 275 -24 28 -12 69 -43 92 -69 65 -71 73 -111 73 -381 0 -211 -2
-234 -20 -263 -23 -38 -43 -50 -99 -59 l-41 -7 0 282 0 281 -40 0 -40 0 0
-320 0 -320 63 0 c130 0 219 53 247 147 13 44 10 527 -4 556 -8 16 5 17 195
17 193 0 207 -1 254 -24 68 -31 130 -101 149 -167 23 -77 22 -271 -3 -324 -17
-38 -81 -105 -101 -105 -4 0 -15 -3 -24 -6 -14 -5 -16 17 -16 210 l0 216 -40
0 -40 0 0 -220 0 -220 -180 0 -180 0 0 -41 0 -41 233 4 c222 3 234 4 281 27
67 33 121 91 146 157 16 44 20 78 20 177 0 141 -14 206 -60 277 -35 55 -81 94
-150 131 -43 23 -55 24 -285 27 l-239 3 -47 49 c-25 26 -70 61 -100 77 l-54
28 -250 3 c-242 2 -252 1 -306 -21z"/>
<path d="M1120 120 l0 -40 160 0 160 0 0 40 0 40 -160 0 -160 0 0 -40z"/>
</g>
</svg>
