<?xml version="1.0" encoding="UTF-8"?>
<svg id="Capa_2" xmlns="http://www.w3.org/2000/svg" viewBox="0 0 1026.88 1023.14">
  <defs>
    <style>
      .cls-1 {
        fill: #fff;
        stroke: #fff;
        stroke-miterlimit: 10;
        stroke-width: 16px;
      }

      .cls-2 {
        fill: #ff6900;
      }
    </style>
  </defs>
  <g id="Capa_1-2" data-name="Capa_1">
    <rect class="cls-2" width="1026.88" height="1023.14" rx="86.25" ry="86.25"/>
    <path class="cls-1" d="M960.16,772.15c-83.8,7.72-167.47,17.89-251.44,22.67-99.09,5.64-198.35,2.69-297.19-7.92-86.29-9.26-171.6-23.71-254-51.77-27.73-9.44-54.6-21.41-81.87-32.22,21.24,12.89,42.89,25.24,65.41,35.74,123.06,57.38,253.64,88.41,387.59,104.3,83.9,9.95,168.54,14.74,253,18.5,54.5,2.43,109.28-1.1,163.92-2.33,3.5-.08,9.4-2.78,10-5.26,6.37-26.65,11.89-53.5,17.96-81.76-6.25,0-9.84-.28-13.37.04Z"/>
    <path class="cls-1" d="M377.9,661.53c31.41-104.94,69.24-207.97,105.08-311.56,25.38-73.37,25.91-75.33,101.04-72.64,25.63.92,70.35,12.45,72.17,24.37,4.1,26.78-6.43,62.2-23.71,84.03-16.66,21.04-48.01,33.46-75.31,42.11-22.74,7.21-48.96,3.46-77.41,4.73-1.62,22.08-3.18,43.16-4.67,63.38,142.15,41.69,302.48-68.32,301.61-203.03-.35-53.16-24.65-85.72-77.35-87.85-89.01-3.6-178.27-.99-267.98-.99-59.91,169.97-119.6,339.31-181.22,514.11,17.65.9,30.25.2,42.33,2.39,48.6,8.79,71.17-11.48,85.41-59.04Z"/>
  </g>
</svg>