<?xml version="1.0" encoding="UTF-8"?>
<svg id="Capa_2" xmlns="http://www.w3.org/2000/svg" viewBox="0 0 1026.88 1023.14">
  <defs>
    <style>
      .cls-1 {
        fill: #f7052d;
      }

      .cls-2 {
        fill: #fff;
        stroke: #fff;
        stroke-miterlimit: 10;
        stroke-width: 20px;
      }
    </style>
  </defs>
  <g id="Capa_1-2" data-name="Capa_1">
    <rect class="cls-1" width="1026.88" height="1023.14" rx="86.25" ry="86.25"/>
    <path class="cls-2" d="M469.74,418.61c-4.95,1.97-8.94,3.5-12.88,5.14-86.75,36.12-173.45,72.37-260.28,108.31-31.61,13.08-63.51,25.43-95.31,38.04-3.15,1.25-6.45,2.15-9.74,2.99-7.64,1.96-14.71-2.5-16.07-10.37-1.19-6.87.06-9.62,5.71-12.32,27.8-13.3,55.32-27.23,83.38-39.95,90.51-41.04,181.16-81.74,271.87-122.34,23.31-10.43,47.02-19.97,70.55-29.92,6.87-2.91,13.5-2.44,19.06,2.61,5.59,5.07,7.24,11.91,5.15,19.02-4.62,15.72-9.37,31.42-14.71,46.91-15.24,44.16-30.82,88.21-46.2,132.32-1.85,5.3-3.32,10.73-4.94,16.12-.26.85-.33,1.76-.64,3.44,6.75-2.69,12.94-5.02,19.03-7.61,77.9-33.02,155.74-66.17,233.67-99.09,48.78-20.61,97.65-41.02,146.62-61.18,8.82-3.63,18.17-6.39,27.54-8.2,22.66-4.38,39.89,5.1,51.83,23.72,14.39,22.42,16.05,46.37,4.62,70.68-5.69,12.1-15.26,20.75-27.8,25.03-19.39,6.63-38.95,12.83-58.7,18.29-137.99,38.11-276.04,76.02-414.1,113.87-16.38,4.49-32.87,8.65-49.48,12.16-16.06,3.39-31-11.99-26.88-27.71,2.72-10.37,6.32-20.65,10.78-30.4,18.01-39.42,36.52-78.62,54.83-117.91,10.29-22.09,20.57-44.18,30.84-66.28.67-1.43,1.23-2.91,2.27-5.37Z"/>
  </g>
</svg>