<?xml version="1.0" encoding="UTF-8"?>
<svg xmlns="http://www.w3.org/2000/svg" version="1.1" viewBox="0 0 1507 381">
  <defs>
    <style>
      .cls-1 {
        fill: #e8623d;
      }
    </style>
  </defs>
  <!-- Generator: Adobe Illustrator 28.6.0, SVG Export Plug-In . SVG Version: 1.2.0 Build 709)  -->
  <g>
    <g id="Capa_1">
      <g>
        <path class="cls-1" d="M15,24.47h100.77l58.18,103.88,29.09-17.66-55.06-86.22h242.05l-17.66,35.32h-164.14l60.25,109.08,24.93-47.79-25.45-.52-14.54-33.24h100.77l-85.19,144.4-51.94-79.99-18.7,12.47,54.02,94.53-49.86,94.53L15,24.47ZM202.51,284.7l10.39-24.93L101.74,63.43h-32.2l132.97,221.27Z"/>
        <g>
          <path class="cls-1" d="M610.09,35.67l-92.25,191.48h-58.96l-27.39-191.48h60.97l11.42,104.37c.95,6.17,1.68,12.25,2.19,18.24l56.45-122.6h47.57Z"/>
          <path class="cls-1" d="M684.18,175.94l50.75,3.51c-5.51,14.03-15.37,25.98-29.59,35.84-14.21,9.87-31.95,14.8-53.22,14.8-23.66,0-41.3-6.94-52.94-20.83-11.64-13.89-15.64-31.12-12.01-51.69,3.76-21.32,13.88-39.32,30.37-54.01,16.49-14.68,36.33-22.02,59.53-22.02s39.4,6.92,50.81,20.76c11.41,13.84,15.02,32.68,10.81,56.53-.35,1.96-.87,4.68-1.57,8.14h-94.03c-1.4,8.98-1.01,15.64,1.17,19.99,2.18,4.35,7.41,6.52,15.7,6.52,11.96,0,20.04-5.84,24.22-17.53ZM686.98,138.91c1.61-9.63.84-16.11-2.28-19.43-3.13-3.32-7.45-4.98-12.95-4.98-13.03,0-20.97,8.14-23.84,24.41h39.08Z"/>
          <path class="cls-1" d="M800.94,227.14h-52.75l25.16-142.66h45.84l-5.19,29.46c9.02-21.41,23.11-32.12,42.25-32.12,1.93,0,4.57.19,7.91.56l-8.78,49.8c-3.7-.93-7.07-1.4-10.11-1.4-18.23,0-29.16,10.33-32.8,31l-11.53,65.37Z"/>
          <path class="cls-1" d="M997.56,227.14h-52.47c-.22-6.08.31-12.72,1.58-19.92-12.63,15.24-29.02,22.86-49.18,22.86-16.57,0-28.22-4.3-34.93-12.91-6.72-8.6-9.1-18.47-7.14-29.6,2.66-15.06,11.54-27.24,26.67-36.54,15.12-9.3,40.02-14.89,74.69-16.76l.57-3.23c1.11-6.26.43-10.43-2.01-12.48-2.45-2.06-6.38-3.09-11.81-3.09-12.7,0-20.71,5.19-24.01,15.57l-49.42-4.77c12.44-29.83,39.51-44.75,81.21-44.75,11.32,0,21.52,1.15,30.6,3.44,9.08,2.29,15.95,5.87,20.62,10.73,4.67,4.86,7.46,10.01,8.39,15.43.93,5.42.04,15.85-2.68,31.28l-10.04,56.95c-1.91,10.85-2.12,20.11-.62,27.77ZM952.17,160.37c-23.92,2.52-37,10.15-39.24,22.86-1.52,8.6,2.37,12.91,11.67,12.91,5.89,0,11.22-1.78,15.99-5.33,4.77-3.55,8.22-11.41,10.37-23.57l1.21-6.87Z"/>
          <path class="cls-1" d="M1158.97,227.14h-55.09l15.83-89.78c1.3-7.39,1.01-12.11-.88-14.17-1.89-2.06-4.54-3.09-7.95-3.09-10.04,0-16.3,7.11-18.81,21.32l-15.11,85.71h-55.09l25.16-142.66h51.09l-3.56,20.2c10.27-15.43,25.11-23.15,44.54-23.15,10.22,0,18.5,1.99,24.84,5.96,6.34,3.98,10.47,9.12,12.4,15.43,1.93,6.31,1.51,17.28-1.24,32.89l-16.1,91.32Z"/>
          <path class="cls-1" d="M1182.66,186.74l44.56-6.03c.67,10.29,9.61,15.43,26.83,15.43,14.27,0,21.9-2.81,22.89-8.42.43-2.43-.62-4.32-3.14-5.68-2.52-1.35-8.82-2.74-18.88-4.14-27.83-4.02-44.53-10.31-50.11-18.87-5.58-8.56-7.45-18.07-5.6-28.55,2.57-14.59,10.64-26.39,24.2-35.42,13.56-9.02,30.05-13.54,49.47-13.54,34.06,0,53.58,12.48,58.57,37.45l-43.11,8c-2.38-8.42-9.79-12.63-22.21-12.63-5.89,0-10.43.82-13.62,2.46-3.19,1.64-4.92,3.25-5.2,4.84-.82,4.68,3.09,7.52,11.75,8.54,22.56,2.59,37.7,5.24,45.41,7.95,7.71,2.71,13.83,7.67,18.36,14.88,4.53,7.21,5.89,15.91,4.09,26.11-2.76,15.63-11.36,28.03-25.82,37.2-14.46,9.17-32.96,13.76-55.52,13.76-38.02,0-58.99-14.45-62.91-43.35Z"/>
          <path class="cls-1" d="M1479.3,227.14h-52.47c-.22-6.08.31-12.72,1.58-19.92-12.63,15.24-29.02,22.86-49.18,22.86-16.57,0-28.22-4.3-34.93-12.91-6.72-8.6-9.1-18.47-7.14-29.6,2.65-15.06,11.54-27.24,26.67-36.54,15.12-9.3,40.02-14.89,74.69-16.76l.57-3.23c1.11-6.26.43-10.43-2.01-12.48-2.45-2.06-6.38-3.09-11.81-3.09-12.7,0-20.71,5.19-24.01,15.57l-49.42-4.77c12.44-29.83,39.51-44.75,81.21-44.75,11.32,0,21.52,1.15,30.6,3.44,9.08,2.29,15.95,5.87,20.62,10.73,4.67,4.86,7.46,10.01,8.39,15.43.93,5.42.04,15.85-2.68,31.28l-10.04,56.95c-1.91,10.85-2.12,20.11-.62,27.77ZM1433.91,160.37c-23.92,2.52-37,10.15-39.24,22.86-1.52,8.6,2.37,12.91,11.67,12.91,5.89,0,11.22-1.78,15.99-5.33,4.77-3.55,8.22-11.41,10.37-23.57l1.21-6.87Z"/>
        </g>
        <g>
          <path class="cls-1" d="M479.16,332.04c-.11.61-.22,1.15-.34,1.61-.12.46-.26.86-.41,1.21-.16.34-.33.65-.53.92-.2.27-.52.59-.97.98-.45.38-1.35.97-2.7,1.75-1.35.79-3,1.55-4.93,2.3-1.94.75-4.12,1.38-6.54,1.9-2.43.52-5.03.78-7.8.78-4.78,0-8.96-.8-12.54-2.41-3.57-1.61-6.44-3.98-8.6-7.13-2.16-3.14-3.57-7.02-4.21-11.64-.65-4.62-.44-9.93.62-15.95,1.09-6.17,2.85-11.67,5.27-16.49,2.43-4.83,5.36-8.92,8.8-12.27,3.44-3.35,7.3-5.91,11.58-7.67,4.28-1.76,8.83-2.64,13.65-2.64,2.13,0,4.16.2,6.1.6,1.94.4,3.71.91,5.31,1.52,1.6.61,2.99,1.32,4.18,2.13,1.19.8,1.99,1.46,2.41,1.98.42.52.68.91.79,1.18.1.27.17.58.2.95.03.36.03.8,0,1.29-.03.5-.11,1.09-.23,1.78-.13.77-.29,1.42-.46,1.95-.17.54-.36.99-.58,1.35-.22.37-.44.63-.69.8-.24.17-.51.26-.82.26-.53,0-1.21-.37-2.03-1.12-.82-.75-1.91-1.57-3.26-2.47-1.35-.9-3.04-1.72-5.06-2.47-2.03-.75-4.55-1.12-7.56-1.12-3.29,0-6.39.66-9.31,1.98-2.93,1.32-5.57,3.27-7.93,5.83-2.36,2.57-4.39,5.7-6.1,9.4-1.7,3.7-2.97,7.92-3.81,12.67-.83,4.71-1.06,8.88-.69,12.5.37,3.62,1.29,6.65,2.75,9.08,1.46,2.43,3.46,4.27,5.99,5.52,2.53,1.25,5.53,1.87,9.01,1.87,2.94,0,5.57-.36,7.9-1.09,2.32-.73,4.34-1.54,6.04-2.44,1.7-.9,3.12-1.71,4.24-2.44,1.12-.73,1.97-1.09,2.54-1.09.27,0,.49.06.66.17.17.11.28.34.34.66s.06.78.02,1.35c-.04.57-.14,1.3-.3,2.18Z"/>
          <path class="cls-1" d="M541.81,314.68c-.74,4.21-1.98,8.09-3.7,11.64-1.73,3.54-3.91,6.6-6.54,9.17-2.64,2.57-5.73,4.57-9.26,6.01-3.54,1.44-7.47,2.15-11.8,2.15s-7.78-.63-10.69-1.9c-2.91-1.26-5.2-3.1-6.86-5.52-1.66-2.41-2.7-5.34-3.12-8.79-.42-3.45-.24-7.36.53-11.72.74-4.21,1.97-8.09,3.67-11.64,1.71-3.54,3.88-6.6,6.52-9.17,2.64-2.57,5.71-4.56,9.23-5.98,3.52-1.42,7.46-2.13,11.83-2.13s7.78.63,10.69,1.9c2.91,1.26,5.2,3.1,6.86,5.52,1.66,2.41,2.71,5.34,3.15,8.79.44,3.45.27,7.34-.49,11.67ZM531.96,315.32c.49-2.8.7-5.44.62-7.93-.08-2.49-.55-4.67-1.4-6.55-.86-1.88-2.2-3.36-4.04-4.45-1.84-1.09-4.27-1.64-7.3-1.64-2.8,0-5.29.5-7.48,1.49-2.19,1-4.09,2.4-5.72,4.22-1.62,1.82-2.97,3.98-4.04,6.46-1.07,2.49-1.87,5.21-2.39,8.16-.5,2.84-.71,5.5-.63,7.99.08,2.49.56,4.66,1.44,6.52.88,1.86,2.24,3.33,4.08,4.43,1.84,1.09,4.27,1.64,7.3,1.64,2.76,0,5.24-.5,7.45-1.49,2.21-1,4.12-2.39,5.74-4.2,1.62-1.8,2.96-3.94,4.01-6.44,1.05-2.49,1.84-5.23,2.37-8.22Z"/>
          <path class="cls-1" d="M589.48,292.79c-.15.84-.29,1.55-.43,2.13-.14.57-.29,1.02-.47,1.35-.17.33-.36.57-.56.75-.2.17-.45.26-.76.26s-.66-.09-1.07-.26c-.41-.17-.87-.34-1.39-.52-.52-.17-1.11-.34-1.77-.49-.66-.15-1.38-.23-2.18-.23-.95,0-1.91.19-2.89.57-.98.38-2.05,1.02-3.21,1.9-1.16.88-2.42,2.05-3.78,3.5-1.36,1.46-2.89,3.24-4.59,5.34l-6,34.02c-.05.31-.17.57-.37.78-.19.21-.47.39-.84.55-.37.15-.86.27-1.49.34s-1.41.12-2.36.12-1.67-.04-2.26-.12c-.6-.08-1.06-.19-1.39-.34-.33-.15-.55-.33-.64-.55-.1-.21-.12-.47-.06-.78l9.12-51.72c.05-.31.16-.56.31-.78.15-.21.41-.4.79-.57.37-.17.83-.29,1.37-.34.54-.06,1.25-.09,2.12-.09s1.52.03,2.06.09c.54.06.95.17,1.22.34.27.17.46.37.55.57.1.21.12.47.06.78l-1.33,7.53c1.77-2.07,3.39-3.75,4.85-5.06,1.46-1.3,2.81-2.33,4.04-3.07,1.23-.75,2.42-1.26,3.55-1.55,1.13-.29,2.25-.43,3.35-.43.49,0,1.05.03,1.67.09.62.06,1.25.16,1.91.32.66.15,1.24.33,1.76.52.52.19.87.38,1.07.57.19.19.31.37.36.55.05.17.07.39.08.66.01.27-.02.66-.09,1.18s-.19,1.22-.34,2.1Z"/>
          <path class="cls-1" d="M630.15,292.79c-.15.84-.29,1.55-.43,2.13-.14.57-.29,1.02-.47,1.35-.17.33-.36.57-.56.75-.2.17-.45.26-.76.26s-.66-.09-1.07-.26c-.41-.17-.87-.34-1.39-.52-.52-.17-1.11-.34-1.77-.49-.66-.15-1.38-.23-2.18-.23-.95,0-1.91.19-2.89.57-.98.38-2.05,1.02-3.21,1.9-1.16.88-2.42,2.05-3.78,3.5-1.36,1.46-2.89,3.24-4.59,5.34l-6,34.02c-.05.31-.17.57-.37.78-.19.21-.47.39-.84.55-.37.15-.86.27-1.49.34s-1.41.12-2.36.12-1.67-.04-2.26-.12c-.6-.08-1.06-.19-1.39-.34-.33-.15-.55-.33-.64-.55-.1-.21-.12-.47-.06-.78l9.12-51.72c.05-.31.16-.56.31-.78.15-.21.41-.4.79-.57.37-.17.83-.29,1.37-.34.54-.06,1.25-.09,2.12-.09s1.52.03,2.06.09c.54.06.95.17,1.22.34.27.17.46.37.55.57.1.21.12.47.06.78l-1.33,7.53c1.77-2.07,3.39-3.75,4.85-5.06,1.46-1.3,2.81-2.33,4.04-3.07,1.23-.75,2.42-1.26,3.55-1.55,1.13-.29,2.25-.43,3.35-.43.49,0,1.05.03,1.67.09.62.06,1.25.16,1.91.32.66.15,1.24.33,1.76.52.52.19.87.38,1.07.57.19.19.31.37.36.55.05.17.07.39.08.66.01.27-.02.66-.09,1.18s-.19,1.22-.34,2.1Z"/>
          <path class="cls-1" d="M679.51,313.02c-.26,1.49-.82,2.56-1.68,3.19-.86.63-1.76.95-2.71.95h-33.76c-.51,2.87-.68,5.46-.51,7.76.17,2.3.77,4.27,1.82,5.92,1.04,1.65,2.56,2.91,4.54,3.79,1.98.88,4.52,1.32,7.61,1.32,2.44,0,4.65-.2,6.63-.6,1.98-.4,3.71-.85,5.19-1.35,1.48-.5,2.71-.95,3.67-1.35.97-.4,1.68-.6,2.14-.6.27,0,.49.07.68.2.19.13.31.34.38.6.07.27.09.64.06,1.12-.03.48-.1,1.06-.22,1.75-.09.5-.18.93-.28,1.29-.1.36-.21.69-.31.98-.11.29-.25.55-.42.78-.17.23-.38.45-.63.66-.25.21-.92.56-2.03,1.03-1.11.48-2.52.95-4.24,1.41-1.71.46-3.68.87-5.89,1.24-2.21.36-4.53.55-6.96.55-4.22,0-7.8-.59-10.77-1.78-2.96-1.19-5.32-2.95-7.07-5.29-1.75-2.34-2.87-5.27-3.35-8.79-.48-3.52-.31-7.62.52-12.3.78-4.44,2.06-8.44,3.82-11.98,1.76-3.54,3.94-6.55,6.52-9.02,2.58-2.47,5.51-4.37,8.78-5.69,3.27-1.32,6.79-1.98,10.55-1.98,4.03,0,7.34.65,9.94,1.95,2.6,1.3,4.62,3.06,6.05,5.26,1.43,2.2,2.32,4.79,2.65,7.76.33,2.97.2,6.14-.4,9.51l-.3,1.72ZM670.55,310.2c.99-4.98.58-8.89-1.23-11.72-1.81-2.83-4.99-4.25-9.54-4.25-2.33,0-4.45.44-6.37,1.32-1.91.88-3.59,2.05-5.03,3.51-1.44,1.46-2.66,3.15-3.65,5.09-.99,1.93-1.71,3.96-2.16,6.06h27.97Z"/>
          <path class="cls-1" d="M732.77,341.12c-.05.31-.17.57-.34.8-.17.23-.43.41-.78.55-.35.13-.79.24-1.34.32s-1.2.12-1.96.12c-.8,0-1.46-.04-1.97-.12s-.94-.18-1.25-.32c-.32-.13-.53-.32-.64-.55-.11-.23-.14-.5-.09-.8l1.21-6.84c-3.22,2.95-6.42,5.25-9.62,6.9-3.2,1.65-6.52,2.47-9.98,2.47-3.76,0-6.84-.74-9.24-2.21-2.4-1.47-4.2-3.47-5.41-5.98-1.21-2.51-1.9-5.46-2.06-8.85-.16-3.39.09-6.96.75-10.72.78-4.44,1.97-8.46,3.55-12.04,1.58-3.58,3.53-6.64,5.83-9.17,2.31-2.53,4.96-4.47,7.95-5.83,2.99-1.36,6.29-2.04,9.9-2.04,3,0,5.63.66,7.88,1.98,2.25,1.32,4.37,3.27,6.35,5.83l5.3-30.06c.05-.27.16-.53.34-.78.18-.25.47-.44.87-.57.4-.13.91-.25,1.51-.35.61-.09,1.36-.14,2.27-.14s1.72.05,2.31.14c.59.1,1.05.21,1.36.35.32.13.54.33.67.57.13.25.17.51.12.78l-13.5,76.55ZM729.73,304.74c-1.98-3.18-4.02-5.6-6.1-7.27-2.08-1.67-4.41-2.5-6.99-2.5-2.39,0-4.53.57-6.4,1.72-1.87,1.15-3.5,2.66-4.87,4.54-1.38,1.88-2.51,4-3.4,6.38-.89,2.38-1.56,4.79-1.99,7.24-.46,2.61-.71,5.15-.75,7.64-.04,2.49.26,4.7.91,6.64.65,1.94,1.68,3.49,3.11,4.66,1.43,1.17,3.37,1.75,5.84,1.75,1.25,0,2.49-.17,3.71-.52,1.22-.34,2.51-.92,3.87-1.72,1.36-.8,2.81-1.85,4.37-3.13,1.56-1.28,3.24-2.86,5.05-4.74l3.65-20.69Z"/>
          <path class="cls-1" d="M802.49,314.68c-.74,4.21-1.98,8.09-3.7,11.64-1.73,3.54-3.91,6.6-6.54,9.17-2.64,2.57-5.73,4.57-9.26,6.01-3.54,1.44-7.47,2.15-11.8,2.15s-7.78-.63-10.69-1.9c-2.91-1.26-5.2-3.1-6.86-5.52s-2.7-5.34-3.12-8.79c-.42-3.45-.24-7.36.53-11.72.74-4.21,1.97-8.09,3.67-11.64,1.71-3.54,3.88-6.6,6.52-9.17,2.64-2.57,5.71-4.56,9.23-5.98,3.52-1.42,7.46-2.13,11.83-2.13s7.78.63,10.69,1.9c2.91,1.26,5.2,3.1,6.86,5.52,1.66,2.41,2.71,5.34,3.15,8.79.44,3.45.27,7.34-.49,11.67ZM792.64,315.32c.49-2.8.7-5.44.62-7.93-.08-2.49-.55-4.67-1.4-6.55-.86-1.88-2.2-3.36-4.04-4.45-1.84-1.09-4.27-1.64-7.3-1.64-2.8,0-5.29.5-7.48,1.49-2.19,1-4.09,2.4-5.72,4.22-1.62,1.82-2.97,3.98-4.04,6.46-1.07,2.49-1.87,5.21-2.39,8.16-.5,2.84-.71,5.5-.63,7.99.08,2.49.56,4.66,1.44,6.52.88,1.86,2.24,3.33,4.08,4.43,1.84,1.09,4.27,1.64,7.3,1.64,2.76,0,5.24-.5,7.45-1.49,2.21-1,4.12-2.39,5.74-4.2,1.62-1.8,2.96-3.94,4.01-6.44,1.05-2.49,1.84-5.23,2.37-8.22Z"/>
          <path class="cls-1" d="M850.16,292.79c-.15.84-.29,1.55-.43,2.13-.14.57-.29,1.02-.47,1.35-.17.33-.36.57-.56.75-.2.17-.45.26-.76.26s-.66-.09-1.07-.26c-.41-.17-.87-.34-1.39-.52-.52-.17-1.11-.34-1.77-.49-.66-.15-1.38-.23-2.18-.23-.95,0-1.91.19-2.89.57-.98.38-2.05,1.02-3.21,1.9-1.16.88-2.42,2.05-3.78,3.5-1.36,1.46-2.89,3.24-4.59,5.34l-6,34.02c-.05.31-.17.57-.37.78-.19.21-.47.39-.84.55-.37.15-.86.27-1.49.34s-1.41.12-2.36.12-1.67-.04-2.26-.12c-.6-.08-1.06-.19-1.39-.34-.33-.15-.55-.33-.64-.55-.1-.21-.12-.47-.06-.78l9.12-51.72c.05-.31.16-.56.31-.78.15-.21.41-.4.79-.57.37-.17.83-.29,1.37-.34.54-.06,1.25-.09,2.12-.09s1.52.03,2.06.09c.54.06.95.17,1.22.34.27.17.46.37.55.57.1.21.12.47.06.78l-1.33,7.53c1.77-2.07,3.39-3.75,4.85-5.06,1.46-1.3,2.81-2.33,4.04-3.07,1.23-.75,2.42-1.26,3.55-1.55,1.13-.29,2.25-.43,3.35-.43.49,0,1.05.03,1.67.09.62.06,1.25.16,1.91.32.66.15,1.24.33,1.76.52.52.19.87.38,1.07.57.19.19.31.37.36.55.05.17.07.39.08.66.01.27-.02.66-.09,1.18s-.19,1.22-.34,2.1Z"/>
          <path class="cls-1" d="M899.52,313.02c-.26,1.49-.82,2.56-1.68,3.19-.86.63-1.76.95-2.71.95h-33.76c-.51,2.87-.68,5.46-.51,7.76.17,2.3.77,4.27,1.82,5.92,1.04,1.65,2.56,2.91,4.54,3.79,1.98.88,4.52,1.32,7.61,1.32,2.44,0,4.65-.2,6.63-.6,1.98-.4,3.71-.85,5.19-1.35,1.48-.5,2.71-.95,3.67-1.35.97-.4,1.68-.6,2.14-.6.27,0,.49.07.68.2.19.13.31.34.38.6.07.27.09.64.06,1.12s-.1,1.06-.22,1.75c-.09.5-.18.93-.28,1.29-.1.36-.21.69-.31.98-.11.29-.25.55-.42.78s-.38.45-.63.66c-.25.21-.92.56-2.03,1.03-1.11.48-2.52.95-4.24,1.41-1.71.46-3.68.87-5.88,1.24-2.21.36-4.53.55-6.96.55-4.22,0-7.8-.59-10.77-1.78-2.96-1.19-5.32-2.95-7.07-5.29-1.75-2.34-2.87-5.27-3.35-8.79-.48-3.52-.31-7.62.52-12.3.78-4.44,2.06-8.44,3.82-11.98,1.76-3.54,3.94-6.55,6.52-9.02,2.58-2.47,5.51-4.37,8.78-5.69,3.27-1.32,6.79-1.98,10.55-1.98,4.03,0,7.34.65,9.94,1.95,2.6,1.3,4.62,3.06,6.05,5.26,1.43,2.2,2.32,4.79,2.65,7.76.33,2.97.2,6.14-.4,9.51l-.3,1.72ZM890.56,310.2c.99-4.98.58-8.89-1.23-11.72-1.81-2.83-4.99-4.25-9.54-4.25-2.33,0-4.45.44-6.36,1.32-1.91.88-3.59,2.05-5.03,3.51-1.44,1.46-2.66,3.15-3.65,5.09-.99,1.93-1.71,3.96-2.16,6.06h27.97Z"/>
          <path class="cls-1" d="M943.53,327.04c-.47,2.64-1.37,5-2.7,7.07-1.33,2.07-3.02,3.81-5.05,5.23-2.03,1.42-4.35,2.49-6.95,3.22-2.6.73-5.38,1.09-8.34,1.09-1.82,0-3.54-.14-5.14-.43-1.6-.29-3.02-.65-4.25-1.09-1.23-.44-2.26-.9-3.09-1.38-.83-.48-1.42-.91-1.77-1.29-.35-.38-.56-.92-.63-1.61-.07-.69,0-1.63.21-2.82.13-.73.27-1.34.44-1.84.16-.5.33-.9.5-1.21.17-.31.37-.53.6-.66.23-.13.48-.2.75-.2.42,0,.99.26,1.72.78.72.52,1.63,1.08,2.72,1.7,1.09.61,2.4,1.18,3.95,1.7,1.54.52,3.38.78,5.5.78,1.59,0,3.07-.17,4.42-.52,1.35-.34,2.56-.85,3.63-1.52,1.07-.67,1.95-1.52,2.64-2.56.69-1.03,1.17-2.26,1.42-3.68.26-1.46.1-2.68-.46-3.68-.57-1-1.39-1.88-2.47-2.64-1.08-.77-2.33-1.45-3.74-2.04-1.42-.59-2.87-1.22-4.37-1.87-1.5-.65-2.95-1.39-4.34-2.21-1.39-.82-2.59-1.83-3.6-3.02-1.01-1.19-1.73-2.61-2.18-4.25-.45-1.65-.47-3.62-.07-5.92.36-2.03,1.09-3.97,2.2-5.83,1.11-1.86,2.56-3.49,4.37-4.89,1.8-1.4,3.95-2.52,6.43-3.36,2.48-.84,5.28-1.26,8.4-1.26,1.37,0,2.71.11,4.04.34,1.33.23,2.51.52,3.55.86,1.04.34,1.91.72,2.62,1.12.71.4,1.23.76,1.58,1.06.35.31.56.57.66.8s.14.49.15.78c0,.29,0,.64-.02,1.06-.02.42-.08.94-.19,1.55-.11.65-.24,1.22-.38,1.7-.14.48-.31.87-.49,1.18-.19.31-.39.53-.6.66s-.43.2-.66.2c-.34,0-.8-.21-1.37-.63-.57-.42-1.33-.87-2.27-1.35-.94-.48-2.07-.93-3.38-1.35-1.31-.42-2.86-.63-4.64-.63-1.6,0-3.03.18-4.31.55-1.28.37-2.37.88-3.26,1.55-.9.67-1.63,1.47-2.19,2.39-.56.92-.94,1.92-1.12,2.99-.26,1.49-.11,2.75.47,3.76.58,1.02,1.41,1.91,2.49,2.67,1.08.77,2.34,1.46,3.79,2.07,1.45.61,2.92,1.24,4.42,1.9,1.5.65,2.97,1.38,4.4,2.18,1.43.8,2.66,1.78,3.67,2.93,1.01,1.15,1.75,2.53,2.2,4.14.46,1.61.49,3.53.1,5.75Z"/>
          <path class="cls-1" d="M1024.79,341.12c-.05.31-.17.57-.34.8-.18.23-.43.41-.78.55-.35.13-.79.24-1.34.32s-1.2.12-1.96.12c-.8,0-1.46-.04-1.97-.12s-.94-.18-1.25-.32c-.32-.13-.53-.32-.64-.55-.11-.23-.14-.5-.09-.8l1.2-6.84c-3.22,2.95-6.42,5.25-9.62,6.9-3.2,1.65-6.52,2.47-9.98,2.47-3.76,0-6.84-.74-9.24-2.21-2.4-1.47-4.2-3.47-5.41-5.98-1.21-2.51-1.89-5.46-2.06-8.85-.16-3.39.09-6.96.75-10.72.78-4.44,1.97-8.46,3.55-12.04,1.58-3.58,3.52-6.64,5.83-9.17,2.31-2.53,4.96-4.47,7.95-5.83,2.99-1.36,6.29-2.04,9.9-2.04,3,0,5.63.66,7.88,1.98,2.25,1.32,4.37,3.27,6.35,5.83l5.3-30.06c.05-.27.16-.53.34-.78.18-.25.47-.44.87-.57.4-.13.91-.25,1.51-.35.6-.09,1.36-.14,2.28-.14s1.72.05,2.31.14c.59.1,1.04.21,1.36.35.32.13.54.33.67.57.13.25.17.51.12.78l-13.5,76.55ZM1021.75,304.74c-1.98-3.18-4.02-5.6-6.1-7.27-2.08-1.67-4.41-2.5-6.99-2.5-2.39,0-4.53.57-6.4,1.72-1.87,1.15-3.5,2.66-4.87,4.54-1.38,1.88-2.51,4-3.4,6.38-.89,2.38-1.56,4.79-1.99,7.24-.46,2.61-.71,5.15-.75,7.64-.04,2.49.26,4.7.91,6.64.65,1.94,1.68,3.49,3.11,4.66,1.43,1.17,3.37,1.75,5.84,1.75,1.25,0,2.49-.17,3.71-.52,1.22-.34,2.51-.92,3.86-1.72,1.36-.8,2.81-1.85,4.37-3.13,1.56-1.28,3.24-2.86,5.05-4.74l3.65-20.69Z"/>
          <path class="cls-1" d="M1090.87,313.02c-.26,1.49-.82,2.56-1.68,3.19-.86.63-1.76.95-2.71.95h-33.76c-.51,2.87-.68,5.46-.51,7.76.17,2.3.77,4.27,1.82,5.92,1.04,1.65,2.56,2.91,4.54,3.79,1.98.88,4.52,1.32,7.61,1.32,2.44,0,4.65-.2,6.63-.6,1.98-.4,3.71-.85,5.19-1.35,1.48-.5,2.71-.95,3.67-1.35.97-.4,1.68-.6,2.14-.6.27,0,.49.07.68.2.19.13.31.34.38.6.07.27.09.64.06,1.12-.03.48-.1,1.06-.22,1.75-.09.5-.18.93-.28,1.29-.1.36-.21.69-.31.98-.11.29-.25.55-.42.78-.17.23-.38.45-.63.66-.25.21-.92.56-2.03,1.03-1.11.48-2.52.95-4.24,1.41-1.71.46-3.68.87-5.88,1.24-2.21.36-4.53.55-6.96.55-4.22,0-7.8-.59-10.77-1.78-2.96-1.19-5.32-2.95-7.07-5.29-1.75-2.34-2.87-5.27-3.35-8.79-.48-3.52-.31-7.62.52-12.3.78-4.44,2.06-8.44,3.82-11.98,1.76-3.54,3.94-6.55,6.52-9.02,2.58-2.47,5.51-4.37,8.78-5.69,3.27-1.32,6.79-1.98,10.55-1.98,4.03,0,7.34.65,9.94,1.95,2.6,1.3,4.62,3.06,6.05,5.26,1.43,2.2,2.32,4.79,2.65,7.76.33,2.97.2,6.14-.4,9.51l-.3,1.72ZM1081.91,310.2c.99-4.98.58-8.89-1.23-11.72-1.81-2.83-4.99-4.25-9.54-4.25-2.33,0-4.45.44-6.36,1.32-1.91.88-3.59,2.05-5.03,3.51-1.44,1.46-2.66,3.15-3.65,5.09-.99,1.93-1.71,3.96-2.16,6.06h27.97Z"/>
          <path class="cls-1" d="M1170.69,321.7c-.62,3.49-1.8,6.59-3.55,9.31-1.75,2.72-3.93,5.03-6.52,6.92-2.59,1.9-5.5,3.32-8.73,4.28-3.23.96-6.61,1.44-10.14,1.44-2.47,0-4.72-.21-6.75-.63-2.03-.42-3.82-.94-5.37-1.55-1.54-.61-2.82-1.24-3.82-1.9-1.01-.65-1.69-1.21-2.04-1.67-.36-.46-.58-1.04-.66-1.75-.08-.71-.02-1.66.19-2.84.15-.84.31-1.54.48-2.1.17-.55.37-1.01.58-1.35s.45-.58.7-.72c.25-.13.53-.2.83-.2.53,0,1.22.33,2.08.98.85.65,1.97,1.36,3.36,2.13,1.38.77,3.09,1.48,5.12,2.16,2.03.67,4.45,1.01,7.26,1.01,2.13,0,4.12-.29,5.99-.86,1.87-.57,3.53-1.39,4.99-2.44,1.46-1.05,2.66-2.35,3.62-3.88.95-1.53,1.6-3.28,1.95-5.23.37-2.11.21-3.91-.47-5.4-.69-1.49-1.71-2.81-3.06-3.94-1.36-1.13-2.95-2.16-4.78-3.1-1.83-.94-3.7-1.9-5.62-2.87-1.92-.98-3.76-2.06-5.52-3.25-1.77-1.19-3.29-2.59-4.56-4.2-1.28-1.61-2.2-3.5-2.79-5.66-.59-2.16-.61-4.76-.08-7.79.55-3.1,1.59-5.87,3.15-8.3,1.55-2.43,3.47-4.47,5.75-6.12,2.28-1.65,4.88-2.9,7.78-3.76,2.91-.86,5.95-1.29,9.14-1.29,1.63,0,3.25.14,4.85.43,1.6.29,3.09.67,4.47,1.15,1.38.48,2.58,1.02,3.62,1.61,1.03.59,1.7,1.07,2,1.44.3.36.48.65.56.86.08.21.12.48.14.8.02.33,0,.72-.04,1.18-.04.46-.13,1.05-.26,1.78-.12.69-.26,1.3-.41,1.84-.15.54-.32.99-.5,1.35-.18.37-.39.63-.63.8-.24.17-.49.26-.76.26-.42,0-1.03-.27-1.82-.8-.8-.54-1.78-1.14-2.96-1.81-1.17-.67-2.59-1.28-4.26-1.84-1.67-.55-3.6-.83-5.81-.83-2.05,0-3.88.28-5.5.83-1.62.56-3,1.29-4.15,2.21-1.15.92-2.08,2.01-2.8,3.28s-1.2,2.61-1.45,4.02c-.36,2.07-.21,3.85.48,5.34.69,1.49,1.72,2.82,3.09,3.97,1.37,1.15,2.98,2.2,4.83,3.16,1.84.96,3.72,1.93,5.64,2.9,1.91.98,3.78,2.05,5.58,3.22,1.81,1.17,3.36,2.55,4.65,4.14,1.3,1.59,2.24,3.47,2.82,5.63.59,2.16.62,4.72.1,7.67Z"/>
          <path class="cls-1" d="M1228.9,313.02c-.26,1.49-.82,2.56-1.68,3.19-.86.63-1.76.95-2.71.95h-33.76c-.51,2.87-.68,5.46-.51,7.76.17,2.3.77,4.27,1.82,5.92,1.04,1.65,2.56,2.91,4.54,3.79,1.98.88,4.52,1.32,7.61,1.32,2.44,0,4.65-.2,6.63-.6,1.98-.4,3.71-.85,5.19-1.35,1.48-.5,2.71-.95,3.67-1.35.97-.4,1.68-.6,2.14-.6.27,0,.49.07.68.2.19.13.31.34.38.6.07.27.09.64.06,1.12-.03.48-.1,1.06-.22,1.75-.09.5-.18.93-.28,1.29-.1.36-.21.69-.31.98-.11.29-.25.55-.42.78-.17.23-.38.45-.63.66-.25.21-.92.56-2.03,1.03-1.11.48-2.52.95-4.24,1.41-1.71.46-3.68.87-5.88,1.24-2.21.36-4.53.55-6.96.55-4.22,0-7.8-.59-10.77-1.78-2.96-1.19-5.32-2.95-7.07-5.29-1.75-2.34-2.87-5.27-3.35-8.79-.48-3.52-.31-7.62.52-12.3.78-4.44,2.06-8.44,3.82-11.98,1.76-3.54,3.94-6.55,6.52-9.02,2.58-2.47,5.51-4.37,8.78-5.69,3.27-1.32,6.79-1.98,10.55-1.98,4.03,0,7.34.65,9.94,1.95,2.6,1.3,4.62,3.06,6.05,5.26,1.43,2.2,2.32,4.79,2.65,7.76.33,2.97.2,6.14-.4,9.51l-.3,1.72ZM1219.94,310.2c.99-4.98.58-8.89-1.23-11.72-1.81-2.83-4.99-4.25-9.54-4.25-2.33,0-4.45.44-6.36,1.32-1.91.88-3.59,2.05-5.03,3.51-1.44,1.46-2.66,3.15-3.65,5.09-.99,1.93-1.71,3.96-2.16,6.06h27.97Z"/>
          <path class="cls-1" d="M1289.79,291.75c-.24,1.34-.59,2.31-1.05,2.9-.47.59-.98.89-1.55.89h-7.35c1.08,1.38,1.75,2.9,1.98,4.57.24,1.67.2,3.4-.12,5.2-.53,2.99-1.47,5.63-2.82,7.93-1.36,2.3-3.06,4.24-5.1,5.83-2.05,1.59-4.36,2.81-6.94,3.65-2.58.84-5.35,1.26-8.31,1.26-2.09,0-4.02-.28-5.81-.83-1.78-.55-3.11-1.25-3.99-2.1-.81.69-1.5,1.48-2.1,2.36-.59.88-.99,1.9-1.19,3.05-.24,1.34.18,2.45,1.26,3.33,1.08.88,2.64,1.36,4.67,1.44l13.29.57c2.53.08,4.8.43,6.82,1.06,2.02.63,3.7,1.53,5.05,2.7,1.35,1.17,2.31,2.61,2.89,4.31.57,1.71.66,3.69.26,5.95-.42,2.37-1.31,4.64-2.68,6.78-1.37,2.15-3.21,4.03-5.53,5.66-2.32,1.63-5.14,2.91-8.46,3.85-3.32.94-7.12,1.41-11.41,1.41s-7.6-.35-10.38-1.06c-2.78-.71-4.99-1.68-6.64-2.9-1.65-1.23-2.74-2.69-3.27-4.4-.53-1.71-.62-3.55-.27-5.55.22-1.26.59-2.49,1.1-3.68.51-1.19,1.18-2.32,1.99-3.39.82-1.07,1.77-2.1,2.88-3.07,1.1-.98,2.35-1.94,3.73-2.9-1.69-.96-2.86-2.16-3.49-3.62-.64-1.46-.81-3.03-.51-4.71.41-2.34,1.25-4.43,2.53-6.26,1.28-1.84,2.74-3.49,4.4-4.94-.93-1.42-1.58-3.02-1.95-4.8-.37-1.78-.33-3.94.11-6.47.52-2.95,1.48-5.59,2.88-7.93,1.4-2.34,3.11-4.31,5.15-5.92,2.03-1.61,4.34-2.84,6.95-3.71,2.6-.86,5.34-1.29,8.23-1.29,1.56,0,3,.09,4.31.26,1.32.17,2.54.41,3.66.72h15.49c.64,0,1.07.32,1.29.95.21.63.2,1.6-.03,2.9ZM1270.19,346.35c.39-2.22-.21-3.94-1.8-5.14-1.59-1.21-3.92-1.85-6.98-1.92l-13.19-.46c-1.38.96-2.54,1.87-3.47,2.73-.93.86-1.69,1.69-2.29,2.47-.59.78-1.04,1.56-1.35,2.33-.31.77-.53,1.55-.67,2.36-.44,2.49.48,4.38,2.76,5.66,2.28,1.28,5.66,1.92,10.14,1.92,2.85,0,5.28-.28,7.3-.83,2.02-.56,3.69-1.29,5.03-2.21,1.34-.92,2.37-1.97,3.09-3.16.72-1.19,1.2-2.43,1.43-3.74ZM1272.69,305.37c.62-3.52.15-6.27-1.42-8.25-1.57-1.97-4.12-2.96-7.65-2.96-1.82,0-3.46.31-4.92.92-1.46.61-2.73,1.46-3.81,2.53-1.08,1.07-1.96,2.31-2.65,3.71-.68,1.4-1.16,2.86-1.43,4.4-.6,3.41-.12,6.09,1.46,8.05,1.57,1.95,4.09,2.93,7.54,2.93,1.86,0,3.53-.3,5-.89,1.47-.59,2.75-1.42,3.83-2.47,1.08-1.05,1.96-2.27,2.64-3.65.68-1.38,1.15-2.82,1.42-4.31Z"/>
          <path class="cls-1" d="M1337.08,341.12c-.06.31-.17.57-.34.78-.17.21-.44.39-.81.55-.37.15-.84.27-1.4.34-.56.08-1.25.12-2.04.12-.87,0-1.58-.04-2.12-.12s-.95-.19-1.25-.34c-.3-.15-.48-.33-.56-.55-.08-.21-.09-.47-.03-.78l1.2-6.84c-3.5,3.26-6.8,5.63-9.92,7.13-3.11,1.49-6.13,2.24-9.06,2.24-3.42,0-6.19-.57-8.33-1.72-2.13-1.15-3.75-2.71-4.84-4.68-1.1-1.97-1.72-4.27-1.89-6.9-.17-2.62.08-5.81.75-9.57l5.53-31.38c.05-.31.17-.56.34-.78.17-.21.46-.4.87-.57.41-.17.92-.29,1.54-.34.62-.06,1.38-.09,2.29-.09s1.67.03,2.26.09c.6.06,1.06.17,1.39.34.33.17.55.37.67.57.11.21.14.47.09.78l-5.31,30.11c-.53,3.03-.74,5.45-.63,7.27.11,1.82.51,3.37,1.17,4.66.67,1.28,1.62,2.28,2.86,2.99,1.24.71,2.77,1.06,4.6,1.06,2.35,0,4.85-.84,7.48-2.53,2.63-1.69,5.55-4.16,8.74-7.41l6.37-36.15c.05-.31.17-.56.34-.78.17-.21.46-.4.87-.57.41-.17.91-.29,1.51-.34.6-.06,1.37-.09,2.32-.09s1.67.03,2.26.09c.6.06,1.05.17,1.36.34.31.17.53.37.67.57.13.21.17.47.12.78l-9.12,51.72Z"/>
          <path class="cls-1" d="M1392.95,292.79c-.15.84-.29,1.55-.43,2.13-.14.57-.3,1.02-.47,1.35-.17.33-.36.57-.56.75-.2.17-.45.26-.76.26s-.66-.09-1.07-.26c-.41-.17-.87-.34-1.39-.52-.52-.17-1.11-.34-1.76-.49-.66-.15-1.38-.23-2.18-.23-.95,0-1.91.19-2.89.57-.98.38-2.05,1.02-3.21,1.9s-2.42,2.05-3.78,3.5c-1.36,1.46-2.89,3.24-4.59,5.34l-6,34.02c-.06.31-.18.57-.37.78-.19.21-.47.39-.84.55-.37.15-.86.27-1.49.34s-1.41.12-2.36.12-1.67-.04-2.26-.12c-.6-.08-1.06-.19-1.39-.34-.33-.15-.55-.33-.64-.55-.1-.21-.12-.47-.06-.78l9.12-51.72c.05-.31.16-.56.31-.78.15-.21.41-.4.79-.57.37-.17.83-.29,1.37-.34.54-.06,1.25-.09,2.12-.09s1.52.03,2.06.09c.54.06.95.17,1.22.34.27.17.46.37.55.57.09.21.12.47.06.78l-1.33,7.53c1.77-2.07,3.39-3.75,4.85-5.06,1.46-1.3,2.81-2.33,4.05-3.07,1.23-.75,2.42-1.26,3.55-1.55,1.13-.29,2.25-.43,3.35-.43.49,0,1.05.03,1.67.09.62.06,1.25.16,1.91.32.66.15,1.24.33,1.76.52.52.19.87.38,1.07.57.19.19.31.37.36.55.04.17.07.39.08.66.01.27-.02.66-.09,1.18s-.19,1.22-.34,2.1Z"/>
          <path class="cls-1" d="M1445.6,314.68c-.74,4.21-1.98,8.09-3.7,11.64-1.73,3.54-3.91,6.6-6.54,9.17-2.64,2.57-5.72,4.57-9.26,6.01-3.54,1.44-7.47,2.15-11.8,2.15s-7.78-.63-10.69-1.9c-2.91-1.26-5.2-3.1-6.86-5.52-1.66-2.41-2.7-5.34-3.12-8.79-.42-3.45-.24-7.36.53-11.72.74-4.21,1.97-8.09,3.68-11.64,1.71-3.54,3.88-6.6,6.51-9.17,2.64-2.57,5.71-4.56,9.23-5.98,3.52-1.42,7.46-2.13,11.83-2.13s7.78.63,10.69,1.9c2.91,1.26,5.2,3.1,6.86,5.52,1.66,2.41,2.71,5.34,3.15,8.79.44,3.45.27,7.34-.49,11.67ZM1435.75,315.32c.49-2.8.7-5.44.62-7.93-.08-2.49-.55-4.67-1.4-6.55-.86-1.88-2.2-3.36-4.04-4.45-1.84-1.09-4.27-1.64-7.3-1.64-2.8,0-5.29.5-7.48,1.49-2.19,1-4.09,2.4-5.72,4.22-1.62,1.82-2.97,3.98-4.04,6.46-1.07,2.49-1.87,5.21-2.39,8.16-.5,2.84-.71,5.5-.63,7.99.08,2.49.56,4.66,1.44,6.52.88,1.86,2.24,3.33,4.08,4.43,1.84,1.09,4.27,1.64,7.3,1.64,2.76,0,5.24-.5,7.45-1.49,2.21-1,4.12-2.39,5.74-4.2,1.62-1.8,2.96-3.94,4.01-6.44,1.05-2.49,1.84-5.23,2.37-8.22Z"/>
          <path class="cls-1" d="M1489.45,327.04c-.47,2.64-1.37,5-2.7,7.07-1.33,2.07-3.02,3.81-5.05,5.23-2.04,1.42-4.35,2.49-6.95,3.22-2.6.73-5.38,1.09-8.34,1.09-1.82,0-3.54-.14-5.14-.43-1.6-.29-3.02-.65-4.25-1.09-1.23-.44-2.26-.9-3.09-1.38s-1.42-.91-1.76-1.29c-.35-.38-.56-.92-.63-1.61-.07-.69,0-1.63.21-2.82.13-.73.27-1.34.44-1.84.16-.5.33-.9.5-1.21.17-.31.37-.53.6-.66.23-.13.48-.2.75-.2.42,0,.99.26,1.72.78.72.52,1.63,1.08,2.72,1.7,1.09.61,2.4,1.18,3.95,1.7,1.54.52,3.37.78,5.5.78,1.59,0,3.07-.17,4.42-.52,1.35-.34,2.56-.85,3.63-1.52,1.07-.67,1.95-1.52,2.64-2.56.7-1.03,1.17-2.26,1.42-3.68.26-1.46.1-2.68-.46-3.68-.56-1-1.39-1.88-2.47-2.64-1.08-.77-2.33-1.45-3.74-2.04-1.41-.59-2.87-1.22-4.37-1.87-1.5-.65-2.95-1.39-4.34-2.21-1.39-.82-2.59-1.83-3.6-3.02-1.01-1.19-1.73-2.61-2.18-4.25-.45-1.65-.47-3.62-.07-5.92.36-2.03,1.09-3.97,2.2-5.83,1.11-1.86,2.56-3.49,4.37-4.89,1.8-1.4,3.95-2.52,6.43-3.36,2.48-.84,5.28-1.26,8.4-1.26,1.37,0,2.71.11,4.04.34,1.33.23,2.51.52,3.55.86,1.04.34,1.91.72,2.62,1.12.71.4,1.23.76,1.58,1.06.35.31.56.57.66.8s.14.49.15.78c0,.29,0,.64-.02,1.06-.02.42-.08.94-.19,1.55-.11.65-.24,1.22-.38,1.7-.14.48-.3.87-.49,1.18-.19.31-.39.53-.6.66-.21.13-.43.2-.66.2-.34,0-.8-.21-1.37-.63-.57-.42-1.33-.87-2.27-1.35-.94-.48-2.07-.93-3.38-1.35-1.31-.42-2.86-.63-4.64-.63-1.6,0-3.03.18-4.31.55-1.28.37-2.37.88-3.26,1.55-.9.67-1.63,1.47-2.19,2.39-.56.92-.94,1.92-1.12,2.99-.26,1.49-.11,2.75.47,3.76.58,1.02,1.41,1.91,2.49,2.67,1.08.77,2.34,1.46,3.79,2.07,1.45.61,2.92,1.24,4.42,1.9,1.5.65,2.96,1.38,4.4,2.18,1.43.8,2.66,1.78,3.67,2.93,1.01,1.15,1.75,2.53,2.2,4.14.46,1.61.49,3.53.1,5.75Z"/>
        </g>
      </g>
    </g>
  </g>
</svg>