<?xml version="1.0" encoding="UTF-8"?>
<svg version="1.1" xmlns="http://www.w3.org/2000/svg" width="120" height="58">
<path d="M0 0 C0.92232925 0.00424484 1.84465851 0.00848969 2.79493713 0.01286316 C5.7190666 0.02955511 8.64248774 0.06718937 11.56640625 0.10546875 C13.5579327 0.12052786 15.54947004 0.13421411 17.54101562 0.14648438 C22.40413329 0.1768662 27.26573395 0.23560499 32.12890625 0.29296875 C32.12890625 7.55296875 32.12890625 14.81296875 32.12890625 22.29296875 C34.5433606 22.26940308 34.5433606 22.26940308 37.0065918 22.24536133 C42.97952265 22.191054 48.95243167 22.15661538 54.92553711 22.12817383 C57.51053538 22.11308913 60.09550807 22.09261873 62.68041992 22.06665039 C66.39638585 22.03025433 70.11201332 22.0132389 73.828125 22 C74.98350266 21.98451614 76.13888031 21.96903229 77.32926941 21.95307922 C78.41001236 21.95285263 79.49075531 21.95262604 80.60424805 21.95239258 C81.55244919 21.94573074 82.50065033 21.93906891 83.47758484 21.9322052 C87.60145405 22.49333735 90.22934528 24.39340778 93.12890625 27.29296875 C93.35595703 29.99853516 93.35595703 29.99853516 93.32421875 33.39453125 C93.31777344 34.60625 93.31132813 35.81796875 93.3046875 37.06640625 C93.27955078 38.97292969 93.27955078 38.97292969 93.25390625 40.91796875 C93.24488281 42.19671875 93.23585938 43.47546875 93.2265625 44.79296875 C93.20293007 47.95971454 93.16705811 51.1263646 93.12890625 54.29296875 C89.16890625 54.29296875 85.20890625 54.29296875 81.12890625 54.29296875 C80.73703125 52.72546875 80.34515625 51.15796875 79.94140625 49.54296875 C78.92363904 46.21166588 78.23181116 44.4135145 75.94140625 41.73046875 C72.30762209 39.87320129 69.21500493 39.0926698 65.12890625 39.29296875 C61.5312963 40.51479854 59.70915731 41.54693167 57.37890625 44.54296875 C55.76512893 47.91347433 55.76512893 47.91347433 54.12890625 54.29296875 C39.93890625 54.29296875 25.74890625 54.29296875 11.12890625 54.29296875 C10.13890625 50.99296875 9.14890625 47.69296875 8.12890625 44.29296875 C5.45139894 41.15646019 3.14929381 40.09568436 -0.80859375 39.35546875 C-4.89670918 39.03921831 -7.46438742 39.91619689 -10.87109375 42.29296875 C-13.70883812 45.94149723 -14.73856062 49.84995418 -15.87109375 54.29296875 C-19.50109375 54.29296875 -23.13109375 54.29296875 -26.87109375 54.29296875 C-26.99573609 49.20679422 -27.08591767 44.12153019 -27.14575195 39.03417969 C-27.17072313 37.30778495 -27.20471282 35.58149404 -27.24829102 33.85546875 C-27.71008724 15.07937771 -27.71008724 15.07937771 -21.87109375 7.29296875 C-15.5614391 0.81727056 -8.59218105 -0.15074174 0 0 Z M3.12890625 8.29296875 C3.12890625 10.27296875 3.12890625 12.25296875 3.12890625 14.29296875 C1.14890625 14.29296875 -0.83109375 14.29296875 -2.87109375 14.29296875 C-2.87109375 16.27296875 -2.87109375 18.25296875 -2.87109375 20.29296875 C-0.89109375 20.29296875 1.08890625 20.29296875 3.12890625 20.29296875 C3.12890625 24.25296875 3.12890625 28.21296875 3.12890625 32.29296875 C5.10890625 32.29296875 7.08890625 32.29296875 9.12890625 32.29296875 C9.12890625 28.33296875 9.12890625 24.37296875 9.12890625 20.29296875 C11.10890625 20.29296875 13.08890625 20.29296875 15.12890625 20.29296875 C15.12890625 18.31296875 15.12890625 16.33296875 15.12890625 14.29296875 C13.14890625 14.29296875 11.16890625 14.29296875 9.12890625 14.29296875 C9.12890625 12.31296875 9.12890625 10.33296875 9.12890625 8.29296875 C7.14890625 8.29296875 5.16890625 8.29296875 3.12890625 8.29296875 Z M32.12890625 35.29296875 C32.12890625 37.27296875 32.12890625 39.25296875 32.12890625 41.29296875 C35.09890625 41.29296875 38.06890625 41.29296875 41.12890625 41.29296875 C41.12890625 39.31296875 41.12890625 37.33296875 41.12890625 35.29296875 C38.15890625 35.29296875 35.18890625 35.29296875 32.12890625 35.29296875 Z " fill="#FFFFFF" transform="translate(26.87109375,-0.29296875)"/>
<path d="M0 0 C24.60968673 -2.23423518 24.60968673 -2.23423518 30.20947266 1.45605469 C33.4535619 5.08230856 37 10.97194616 37 16 C24.79 16 12.58 16 0 16 C0 10.72 0 5.44 0 0 Z " fill="#FFFFFF" transform="translate(65,0)"/>
<path d="M0 0 C2.29492223 2.66507098 3.04299299 4.09714716 2.875 7.625 C1.88729401 10.30591626 1.42194927 11.46609879 -1 13 C-4.4093712 13.36528977 -6.88023824 13.6140629 -9.9375 11.9375 C-11.6140629 8.88023824 -11.36528977 6.4093712 -11 3 C-7.89543922 -1.23349197 -4.90176779 -1.40050508 0 0 Z " fill="#FFFFFF" transform="translate(29,45)"/>
<path d="M0 0 C1.8125 1.125 1.8125 1.125 3 3 C3.36528977 6.4093712 3.6140629 8.88023824 1.9375 11.9375 C-1.20334326 13.65989792 -3.49818786 13.49148241 -7 13 C-9.5 10.875 -9.5 10.875 -11 8 C-11.0625 4.875 -11.0625 4.875 -10 2 C-6.56311431 -0.95954045 -4.26887332 -1.5727428 0 0 Z " fill="#FFFFFF" transform="translate(98,45)"/>
</svg>
