<?xml version="1.0" encoding="UTF-8"?>
<svg version="1.1" xmlns="http://www.w3.org/2000/svg" width="114" height="114">
<path d="M0 0 C1.12664062 -0.00515625 2.25328125 -0.0103125 3.4140625 -0.015625 C6.375 0.25 6.375 0.25 9.375 2.25 C8.85723379 6.35447392 6.72872556 8.20699523 3.8125 11 C2.98621094 11.79921875 2.15992187 12.5984375 1.30859375 13.421875 C0.67050781 14.02515625 0.03242187 14.6284375 -0.625 15.25 C1.355 17.56 3.335 19.87 5.375 22.25 C6.426875 21.3425 7.47875 20.435 8.5625 19.5 C9.20058594 18.95730469 9.83867188 18.41460938 10.49609375 17.85546875 C12.05359321 16.52463241 13.59190578 15.17137897 15.125 13.8125 C15.8675 13.296875 16.61 12.78125 17.375 12.25 C20.375 13.25 20.375 13.25 21.375 15.25 C22.35756116 24.90717255 21.1557888 32.23500163 15.05859375 39.90625 C10.98842713 43.8952452 5.83216818 44.71209153 0.375 45.25 C-0.8625 45.146875 -2.1 45.04375 -3.375 44.9375 C-7.20411937 45.30568455 -7.64353565 45.93633284 -10.0625 48.75 C-10.93734976 49.90123833 -11.79866038 51.06346106 -12.625 52.25 C-11.91923828 52.95962891 -11.91923828 52.95962891 -11.19921875 53.68359375 C-3.46950207 61.89341706 -2.300803 68.87955026 -2.2265625 80.015625 C-1.43305727 84.28200375 0.10318104 85.43501747 3.375 88.25 C4.6008355 89.40542021 5.82187413 90.56594267 7.0390625 91.73046875 C8.35848365 92.96709754 9.67881306 94.20275791 11 95.4375 C11.66773437 96.06591797 12.33546875 96.69433594 13.0234375 97.34179688 C13.66796875 97.94443359 14.3125 98.54707031 14.9765625 99.16796875 C15.55744629 99.71219482 16.13833008 100.2564209 16.73681641 100.81713867 C18.52550445 102.44441743 18.52550445 102.44441743 21.375 104.25 C21.045 105.9 20.715 107.55 20.375 109.25 C16.49149732 108.68384016 14.61729686 106.91155353 11.8125 104.25 C8.17208448 100.84688564 4.4482695 97.72666327 0.5 94.6875 C-3.99231421 90.98832036 -7.30629562 88.0355833 -8.625 82.25 C-8.95066295 78.41302247 -9.13018449 74.58042433 -9.31640625 70.734375 C-9.72192304 66.15562844 -10.61141973 63.65699806 -13.625 60.25 C-14.37652344 59.39277344 -15.12804687 58.53554688 -15.90234375 57.65234375 C-21.60986179 51.27285444 -21.60986179 51.27285444 -29.625 49.25 C-34.79353202 51.83426601 -38.0998686 55.79983411 -41.625 60.25 C-35.74716748 60.7202266 -33.40948665 59.47432796 -28.625 56.25 C-25.75 56.5 -25.75 56.5 -23.625 57.25 C-23 59.5625 -23 59.5625 -22.625 62.25 C-23.285 63.24 -23.945 64.23 -24.625 65.25 C-25.10341125 70.41684145 -24.37321805 72.94844131 -21.625 77.25 C-22.12 78.735 -22.12 78.735 -22.625 80.25 C-24.9375 80.0625 -24.9375 80.0625 -27.625 79.25 C-30.625 75.21551724 -30.625 75.21551724 -30.625 72.25 C-35.61176463 76.30799758 -40.10479078 80.7003853 -44.4375 85.4375 C-44.90518799 85.94829102 -45.37287598 86.45908203 -45.85473633 86.98535156 C-48.25911477 89.64366779 -50.53341625 92.33845983 -52.625 95.25 C-47.89179559 99.80086588 -43.90281504 101.37175573 -37.5625 102.8125 C-32.02339968 104.09214522 -27.78721079 105.09595041 -23.625 109.25 C-22.8125 111.5 -22.8125 111.5 -22.625 113.25 C-24.9375 113.9375 -24.9375 113.9375 -27.625 114.25 C-28.02460937 113.80269531 -28.42421875 113.35539062 -28.8359375 112.89453125 C-31.4621424 110.48048701 -34.55064893 110.02677051 -37.9375 109.25 C-45.43682158 107.49941653 -51.3337058 104.59398885 -57.625 100.25 C-58.52863281 101.17683594 -59.43226562 102.10367188 -60.36328125 103.05859375 C-61.55442099 104.2684916 -62.74584191 105.47811268 -63.9375 106.6875 C-64.82985352 107.60499023 -64.82985352 107.60499023 -65.74023438 108.54101562 C-66.31708984 109.12431641 -66.89394531 109.70761719 -67.48828125 110.30859375 C-68.01719971 110.84798584 -68.54611816 111.38737793 -69.09106445 111.94311523 C-72.56017368 114.89873224 -76.79736837 114.5816269 -81.1171875 114.53125 C-85.82129143 114.00368694 -88.42455995 111.57048406 -91.5 108.1875 C-93.29740568 103.49427406 -93.58502271 99.18924725 -92.625 94.25 C-90.76080844 91.05262903 -88.34760337 88.73207263 -85.625 86.25 C-80.07892001 81.09862278 -76.95609854 77.48867441 -74.625 70.25 C-74.10292969 69.74855469 -73.58085938 69.24710937 -73.04296875 68.73046875 C-72.34107422 67.99763672 -72.34107422 67.99763672 -71.625 67.25 C-71.66625 66.13625 -71.7075 65.0225 -71.75 63.875 C-71.58713022 59.15177627 -69.95547147 58.42187759 -66.625 55.25 C-65.90572705 52.93234271 -65.2340107 50.59904126 -64.625 48.25 C-62.95064187 45.93779116 -61.88667363 45.34393412 -59.1875 44.375 C-56.41586915 43.41368813 -56.41586915 43.41368813 -54.75 40.6875 C-52.625 38.25 -52.625 38.25 -49.25 37.1875 C-44.85363131 37.26329946 -43.00108001 38.53266731 -39.625 41.25 C-36.52796672 39.88107063 -34.50738392 38.32882641 -32.1875 35.875 C-30.05922483 33.63230144 -28.42029568 32.12539737 -25.75 30.5 C-22.71452288 27.28596541 -23.13348498 24.42759586 -22.91015625 20.1328125 C-22.29182596 13.88174736 -19.84239 9.01102824 -15.1875 4.8125 C-10.434514 0.94173878 -6.07772716 -0.02794357 0 0 Z M-13.375 11.0625 C-16.93075784 16.09982361 -18.24264703 20.01059709 -17.23046875 26.2265625 C-15.86025957 30.80571318 -13.01161244 34.06147506 -9.4375 37.125 C-4.07772355 39.26891058 1.15440578 39.96226607 6.6875 38.1875 C12.7023698 33.85119851 14.82609154 30.16411495 16.11328125 23.0078125 C16.19964844 22.42773438 16.28601563 21.84765625 16.375 21.25 C15.24911986 22.20729916 14.1243285 23.16587895 13 24.125 C12.06027344 24.92550781 12.06027344 24.92550781 11.1015625 25.7421875 C9.81663349 26.86432007 8.58128025 28.04371975 7.375 29.25 C2.60873195 29.08732874 0.28525458 26.75635205 -3 23.5 C-3.89460938 22.63890625 -4.78921875 21.7778125 -5.7109375 20.890625 C-7.625 18.25 -7.625 18.25 -7.63671875 15.65625 C-6.48826949 12.9248031 -5.2427381 11.49084368 -3.0625 9.5 C-1.90523378 8.42888841 -0.75614663 7.34865939 0.375 6.25 C0.375 5.92 0.375 5.59 0.375 5.25 C-5.60128337 4.72268088 -9.25064625 6.84441094 -13.375 11.0625 Z M-20.625 33.25 C-21.92049899 34.34966775 -23.21126071 35.45491801 -24.5 36.5625 C-25.57894531 37.48482422 -25.57894531 37.48482422 -26.6796875 38.42578125 C-28.81679331 40.2912324 -28.81679331 40.2912324 -30.625 43.25 C-27.08900002 43.17928 -24.5208137 43.05836985 -21.82421875 40.625 C-20.34824972 38.87779084 -18.95233004 37.11215167 -17.625 35.25 C-18.615 34.59 -19.605 33.93 -20.625 33.25 Z M-14.625 40.25 C-16.3393618 42.20927063 -18.00905168 44.20880212 -19.625 46.25 C-18.14 47.24 -18.14 47.24 -16.625 48.25 C-14.975 46.27 -13.325 44.29 -11.625 42.25 C-11.955 41.59 -12.285 40.93 -12.625 40.25 C-13.285 40.25 -13.945 40.25 -14.625 40.25 Z M-50.625 43.25 C-50.955 44.24 -51.285 45.23 -51.625 46.25 C-50.42370633 48.15801574 -50.42370633 48.15801574 -48.6875 49.9375 C-48.12160156 50.56011719 -47.55570313 51.18273438 -46.97265625 51.82421875 C-46.52792969 52.29472656 -46.08320312 52.76523437 -45.625 53.25 C-44.305 52.59 -42.985 51.93 -41.625 51.25 C-41.225 47.31458333 -41.225 47.31458333 -43.3125 45 C-46.01890748 42.95190785 -47.31347126 42.88205236 -50.625 43.25 Z M-58.625 50.25 C-59.285 51.57 -59.945 52.89 -60.625 54.25 C-55.42501998 60.67761157 -55.42501998 60.67761157 -48.625 65.25 C-47.31863006 61.33089018 -47.93673633 59.99354118 -49.625 56.25 C-51.41606809 53.99325421 -53.27902756 51.93336953 -55.625 50.25 C-56.615 50.25 -57.605 50.25 -58.625 50.25 Z M-65.1875 61.75 C-65.661875 62.245 -66.13625 62.74 -66.625 63.25 C-64.46585222 67.2273775 -62.12278933 70.34939422 -58.625 73.25 C-56.34976911 73.20502158 -56.34976911 73.20502158 -54.625 72.25 C-54.29540016 69.91040622 -54.29540016 69.91040622 -54.625 67.25 C-56.30422694 65.14490915 -56.30422694 65.14490915 -58.5625 63.4375 C-59.29339844 62.83292969 -60.02429687 62.22835937 -60.77734375 61.60546875 C-63.11339009 59.76723908 -63.11339009 59.76723908 -65.1875 61.75 Z M-48.625 70.25 C-49.33908334 72.23356483 -50.01117742 74.23315437 -50.625 76.25 C-51.429375 76.559375 -52.23375 76.86875 -53.0625 77.1875 C-53.908125 77.538125 -54.75375 77.88875 -55.625 78.25 C-56.28282231 79.9274469 -56.93644731 81.60692408 -57.55078125 83.30078125 C-59.98846792 87.72407451 -65.10549646 91.48338183 -69.91015625 92.9453125 C-70.75900391 93.09613281 -70.75900391 93.09613281 -71.625 93.25 C-70.635 89.785 -70.635 89.785 -69.625 86.25 C-70.945 84.93 -72.265 83.61 -73.625 82.25 C-75.98716967 84.40799277 -78.30853529 86.60559781 -80.625 88.8125 C-81.29273437 89.42158203 -81.96046875 90.03066406 -82.6484375 90.65820312 C-85.95787084 93.84944242 -87.49538807 95.36553547 -88.1796875 100.03515625 C-87.52241058 103.84458514 -86.33662533 105.53837467 -83.625 108.25 C-80.60721063 109.75889469 -79.00177363 109.75026276 -75.625 109.25 C-72.640973 107.24599029 -70.17027746 104.77669879 -67.625 102.25 C-66.87734375 101.528125 -66.1296875 100.80625 -65.359375 100.0625 C-61.17602241 95.96452195 -57.24689279 91.72554159 -53.4375 87.28125 C-51.4140712 85.01361428 -49.28846653 82.8842305 -47.125 80.75 C-40.07395218 74.12225386 -40.07395218 74.12225386 -34.625 66.25 C-40.73854366 65.75093521 -43.80809282 66.6609319 -48.625 70.25 Z M-68.625 72.25 C-69.285 72.91 -69.945 73.57 -70.625 74.25 C-70.41239686 77.01384076 -69.95331986 78.77393621 -68.375 81.0625 C-66.04488723 82.64364795 -64.37998245 82.47337696 -61.625 82.25 C-61.295 81.26 -60.965 80.27 -60.625 79.25 C-63.82664605 74.71275396 -63.82664605 74.71275396 -68.625 72.25 Z " fill="#FFFFFF" transform="translate(92.625,-0.25)"/>
</svg>
