<?xml version="1.0" encoding="UTF-8"?>
<svg version="1.1" xmlns="http://www.w3.org/2000/svg" width="105" height="79">
<path d="M0 0 C5.05362021 -0.12371396 10.10635702 -0.21439046 15.16113281 -0.2746582 C16.88003901 -0.29978367 18.59883856 -0.33389047 20.31738281 -0.37719727 C22.78998114 -0.43794029 25.26116606 -0.46622762 27.734375 -0.48828125 C28.50118591 -0.51408768 29.26799683 -0.5398941 30.05804443 -0.56648254 C33.90555559 -0.5684994 35.60021514 -0.38304837 38.42602539 2.32446289 C40.22736011 5.38648045 41.48842565 8.40620907 42.6875 11.75 C43.84815787 15.66166486 43.84815787 15.66166486 46 19 C48.16616582 19.04658421 50.33366092 19.03767546 52.5 19 C54.66633908 18.96232454 56.83383418 18.95341579 59 19 C60 20 60 20 60.1328125 21.8125 C60.13023438 22.534375 60.12765625 23.25625 60.125 24 C60.12886719 25.0828125 60.12886719 25.0828125 60.1328125 26.1875 C60 28 60 28 59 29 C56.34536879 29.45459858 53.67810862 29.70243238 51 30 C51.495 30.99 51.495 30.99 52 32 C52.0988012 34.61450354 52.13984941 37.20177586 52.1328125 39.81640625 C52.13376923 40.58806625 52.13472595 41.35972626 52.13571167 42.1547699 C52.13639246 43.78636761 52.1345452 45.41796803 52.13037109 47.04956055 C52.12501413 49.55588821 52.13032319 52.06203725 52.13671875 54.56835938 C52.13605809 56.15104206 52.13477719 57.73372464 52.1328125 59.31640625 C52.13483673 60.07055313 52.13686096 60.82470001 52.13894653 61.60169983 C52.11495624 66.88504376 52.11495624 66.88504376 51 68 C48.3226862 68.09981214 45.67695825 68.13879875 43 68.125 C41.87464844 68.13080078 41.87464844 68.13080078 40.7265625 68.13671875 C35.12661053 68.12661053 35.12661053 68.12661053 34 67 C34 63.04 34 59.08 34 55 C16.51 55 -0.98 55 -19 55 C-19 58.96 -19 62.92 -19 67 C-20.82116003 68.82116003 -23.30671764 68.1323508 -25.7265625 68.13671875 C-26.85191406 68.13091797 -26.85191406 68.13091797 -28 68.125 C-29.12535156 68.13080078 -29.12535156 68.13080078 -30.2734375 68.13671875 C-35.87338947 68.12661053 -35.87338947 68.12661053 -37 67 C-37.10094226 64.42978157 -37.13971237 61.88701968 -37.1328125 59.31640625 C-37.13376923 58.54570297 -37.13472595 57.77499969 -37.13571167 56.98094177 C-37.13639349 55.34756387 -37.13453909 53.71418327 -37.13037109 52.08081055 C-37.12503007 49.57659828 -37.13031224 47.07256597 -37.13671875 44.56835938 C-37.13605783 42.9843746 -37.13477637 41.40038994 -37.1328125 39.81640625 C-37.13584885 38.68822227 -37.13584885 38.68822227 -37.13894653 37.5372467 C-37.11495624 32.22991249 -37.11495624 32.22991249 -36 30 C-37.299375 29.855625 -38.59875 29.71125 -39.9375 29.5625 C-43.875 29.125 -43.875 29.125 -45 28 C-45.1328125 26.1875 -45.1328125 26.1875 -45.125 24 C-45.12757812 23.278125 -45.13015625 22.55625 -45.1328125 21.8125 C-45 20 -45 20 -44 19 C-40.69595263 19.05006132 -37.40216226 19.19812309 -34.1015625 19.35546875 C-30.8988614 19.32425452 -30.8988614 19.32425452 -29.0859375 16.98828125 C-28.72757813 16.33214844 -28.36921875 15.67601562 -28 15 C-25.0280615 16.12451727 -22.66559313 17.22293791 -20 19 C-20.875 24.75 -20.875 24.75 -22 27 C-2.53 27 16.94 27 37 27 C35.02 21.72 33.04 16.44 31 11 C31 10.34 31 9.68 31 9 C20.11 9 9.22 9 -2 9 C-1.34 6.03 -0.68 3.06 0 0 Z M-28 38 C-27.59471099 40.78237655 -27.59471099 40.78237655 -26 43 C-24.04577134 43.15167148 -22.08490271 43.22179996 -20.125 43.25 C-19.05507813 43.27578125 -17.98515625 43.3015625 -16.8828125 43.328125 C-13.97643255 43.25766909 -13.97643255 43.25766909 -12.1171875 41.484375 C-11.56417969 40.74960937 -11.56417969 40.74960937 -11 40 C-11.66 38.68 -12.32 37.36 -13 36 C-15.12472576 35.94613371 -17.24983652 35.90726929 -19.375 35.875 C-20.55835938 35.85179687 -21.74171875 35.82859375 -22.9609375 35.8046875 C-26.11153817 35.67133771 -26.11153817 35.67133771 -28 38 Z M28 36 C27.34 37.32 26.68 38.64 26 40 C27.12357075 41.60691426 27.12357075 41.60691426 29 43 C31.90082617 43.43865089 31.90082617 43.43865089 35.0625 43.3125 C36.12597656 43.30863281 37.18945312 43.30476563 38.28515625 43.30078125 C41.14663266 43.26999512 41.14663266 43.26999512 43 41 C42.59471099 38.21762345 42.59471099 38.21762345 41 36 C38.81360547 35.92741054 36.62499611 35.91626217 34.4375 35.9375 C33.23996094 35.94652344 32.04242188 35.95554688 30.80859375 35.96484375 C29.41833984 35.98224609 29.41833984 35.98224609 28 36 Z " fill="#FFFFFF" transform="translate(45,11)"/>
<path d="M0 0 C4.02274444 3.82160722 5.32530737 6.80276636 5.9375 12.3125 C5.70758245 17.76781639 3.42328162 21.5682809 -0.5625 25.3125 C-6.45576534 27.44410661 -12.32142049 27.38648334 -18 24.75 C-22.02274444 20.92839278 -23.32530737 17.94723364 -23.9375 12.4375 C-23.70758245 6.98218361 -21.42328162 3.1817191 -17.4375 -0.5625 C-11.54423466 -2.69410661 -5.67857951 -2.63648334 0 0 Z M-2.5 5.375 C-3.88631143 6.80463367 -5.21143604 8.29417371 -6.5 9.8125 C-10.29836512 14.27418256 -10.29836512 14.27418256 -12.5 15.375 C-13.16 14.055 -13.82 12.735 -14.5 11.375 C-15.49 11.375 -16.48 11.375 -17.5 11.375 C-16.3141763 14.75003669 -15.22426311 17.02222731 -12.5 19.375 C-8.61602311 17.82497253 -6.47020381 15.37023379 -3.75 12.25 C-2.95078125 11.33992187 -2.1515625 10.42984375 -1.328125 9.4921875 C-0.72484375 8.79351562 -0.1215625 8.09484375 0.5 7.375 C0.17 6.715 -0.16 6.055 -0.5 5.375 C-1.16 5.375 -1.82 5.375 -2.5 5.375 Z " fill="#FFFFFF" transform="translate(37.5,1.625)"/>
</svg>
