<?xml version="1.0" encoding="UTF-8"?>
<svg version="1.1" xmlns="http://www.w3.org/2000/svg" width="75" height="92">
<path d="M0 0 C2.14312991 3.1047102 1.64310075 6.48931367 1.51953125 10.1171875 C1.49922852 11.24157227 1.49922852 11.24157227 1.47851562 12.38867188 C1.44321664 14.23598517 1.38941042 16.08292816 1.33203125 17.9296875 C2.46382812 17.90648438 3.595625 17.88328125 4.76171875 17.859375 C6.243483 17.84061849 7.72525437 17.82241816 9.20703125 17.8046875 C9.95339844 17.78792969 10.69976562 17.77117188 11.46875 17.75390625 C13.42397586 17.7362916 15.37945146 17.82648561 17.33203125 17.9296875 C17.99203125 18.5896875 18.65203125 19.2496875 19.33203125 19.9296875 C18.77647569 24.48524306 18.77647569 24.48524306 17.33203125 25.9296875 C14.63548271 26.00288371 11.96511667 26.02211287 9.26953125 25.9921875 C8.51091797 25.98767578 7.75230469 25.98316406 6.97070312 25.97851562 C5.09111254 25.9666943 3.21156226 25.94875828 1.33203125 25.9296875 C1.33203125 26.9196875 1.33203125 27.9096875 1.33203125 28.9296875 C2.585 28.87167969 3.83796875 28.81367187 5.12890625 28.75390625 C6.77991065 28.70700272 8.43095536 28.66150319 10.08203125 28.6171875 C10.90703125 28.57529297 11.73203125 28.53339844 12.58203125 28.49023438 C18.66548688 28.36758406 18.66548688 28.36758406 21.55078125 30.80078125 C22.4325 32.34958984 22.4325 32.34958984 23.33203125 33.9296875 C23.7693457 34.67790771 24.20666016 35.42612793 24.65722656 36.19702148 C26.18967962 38.87169611 27.64029315 41.58014306 29.08203125 44.3046875 C29.58863281 45.22507813 30.09523437 46.14546875 30.6171875 47.09375 C33.35492952 52.25930097 35.23171577 56.05071455 34.33203125 61.9296875 C32.33203125 63.9296875 32.33203125 63.9296875 29.08203125 64.6796875 C25.33203125 63.9296875 25.33203125 63.9296875 23.75 62.1171875 C22.12733392 59.44556841 20.71262098 56.73435011 19.33203125 53.9296875 C18.76871094 52.82882813 18.20539062 51.72796875 17.625 50.59375 C16.16670505 47.71814264 14.73791526 44.83119281 13.33203125 41.9296875 C12.7272998 41.91510498 12.12256836 41.90052246 11.49951172 41.88549805 C8.7347386 41.81059562 5.97111768 41.71407677 3.20703125 41.6171875 C2.25570312 41.59462891 1.304375 41.57207031 0.32421875 41.54882812 C-4.98456324 41.34606215 -9.17326587 41.06736348 -13.66796875 37.9296875 C-16.98609952 33.00499568 -16.00174936 26.77945311 -15.98364258 21.08520508 C-15.98048398 19.00223387 -16.00395394 16.9206863 -16.02929688 14.83789062 C-16.02994141 13.51853516 -16.03058594 12.19917969 -16.03125 10.83984375 C-16.03423096 9.63465088 -16.03721191 8.42945801 -16.0402832 7.18774414 C-15.63409957 3.6333044 -14.80268866 1.77008932 -12.66796875 -1.0703125 C-8.01990617 -3.9596487 -4.4551146 -2.85878548 0 0 Z " fill="#FFFFFF" transform="translate(40.66796875,24.0703125)"/>
<path d="M0 0 C0.43208822 3.07862857 0.6949069 5.02705243 0 8 C-1.84273475 10.06609654 -3.85045626 11.65502911 -6.01953125 13.37109375 C-9.64809206 16.35553134 -10.77039692 19.155348 -11.34375 23.76171875 C-11.64889832 29.84179897 -11.2188581 34.40892043 -7.55078125 39.37890625 C-4.11631135 42.96909519 -0.48312862 44.58024662 4.3125 45.9375 C10.27772058 46.03860543 15.55445697 45.12713598 20.16015625 41.12109375 C22.8219945 38.15317143 24.73118305 35.80645086 26 32 C28.375 32.3125 28.375 32.3125 31 33 C33 36 33 36 33.125 39.1875 C31.30448808 45.35701261 27.18080874 48.78645474 21.99609375 52.39453125 C15.16206346 56.06441848 7.5354476 56.00110478 0 55 C-8.49311201 52.40406611 -14.66194818 47.79290747 -19 40 C-22.14612413 32.23034886 -22.58902843 22.81326011 -19.3125 15 C-15.34455885 7.49571832 -9.14849576 0 0 0 Z " fill="#FFFFFF" transform="translate(21,37)"/>
<path d="M0 0 C3.69059994 0.87426509 5.13063077 2.36922768 7.16015625 5.51171875 C7.85247998 8.34967388 7.87604622 10.67679446 7.16015625 13.51171875 C4.92592567 16.51197125 3.22503785 18.06334755 -0.21484375 19.51171875 C-4.01339681 19.51171875 -6.53326457 18.32097906 -9.83984375 16.51171875 C-11.68191088 14.18911237 -11.83053607 12.57288349 -12.27734375 9.63671875 C-11.80517727 6.26410101 -10.86242899 4.17339199 -8.53125 1.65625 C-5.75515258 -0.22226396 -3.27865494 -0.24630964 0 0 Z " fill="#FFFFFF" transform="translate(35.83984375,-0.51171875)"/>
</svg>
