<?xml version="1.0" encoding="UTF-8"?>
<svg version="1.1" xmlns="http://www.w3.org/2000/svg" width="78" height="96">
<path d="M0 0 C1.77206192 0.00015919 3.54412846 0.00585754 5.31616211 0.01586914 C6.24698105 0.01728409 7.17779999 0.01869904 8.13682556 0.02015686 C11.12241777 0.02577367 14.10793615 0.03832899 17.09350586 0.05102539 C19.11238499 0.05603823 21.13126529 0.06060151 23.15014648 0.06469727 C28.11046158 0.07574856 33.07072118 0.09302444 38.03100586 0.11352539 C38.22509033 0.7291333 38.4191748 1.34474121 38.61914062 1.97900391 C39.01057251 3.19221313 39.01057251 3.19221313 39.40991211 4.42993164 C39.66587158 5.23116455 39.92183105 6.03239746 40.18554688 6.85791016 C41.57049286 10.55283246 43.54739588 13.14150506 46.84350586 15.30102539 C49.85559264 16.41980048 52.93983856 17.24110535 56.03100586 18.11352539 C56.15811971 25.94212444 56.24548977 33.77045586 56.30566406 41.59985352 C56.32792796 44.26180556 56.36483227 46.92240384 56.40820312 49.58422852 C56.46907619 53.41708325 56.49726864 57.24902427 56.51928711 61.08227539 C56.54509354 62.26591675 56.57089996 63.44955811 56.5974884 64.66906738 C56.59985301 71.68519337 55.91993331 76.82603533 51.03100586 82.11352539 C48.49273961 84.1096353 45.90200623 85.64064899 43.03100586 87.11352539 C42.2646582 87.51780762 41.49831055 87.92208984 40.70874023 88.33862305 C38.25636841 89.59111983 35.7776824 90.76464567 33.28100586 91.92602539 C32.46374023 92.33272461 31.64647461 92.73942383 30.80444336 93.15844727 C23.20042947 96.68211414 16.03573996 97.67297723 7.92749023 95.14648438 C4.76420644 93.86034408 1.71765971 92.4374502 -1.34399414 90.92602539 C-2.38426758 90.44327148 -3.42454102 89.96051758 -4.49633789 89.46313477 C-12.25677635 85.77122758 -18.80845829 82.55688927 -21.96899414 74.11352539 C-22.37891479 69.83217229 -22.31769384 65.57501535 -22.26196289 61.27758789 C-22.25771805 60.04309906 -22.25347321 58.80861023 -22.24909973 57.53671265 C-22.23234145 53.60375933 -22.19469297 49.67132318 -22.15649414 45.73852539 C-22.13975154 43.06795997 -22.12775597 40.3973994 -22.11547852 37.72680664 C-22.08244712 31.18887053 -22.03227526 24.65123492 -21.96899414 18.11352539 C-21.35266113 17.91509033 -20.73632812 17.71665527 -20.10131836 17.51220703 C-19.29194824 17.24786865 -18.48257812 16.98353027 -17.64868164 16.71118164 C-16.84672363 16.45087158 -16.04476563 16.19056152 -15.21850586 15.92236328 C-12.01704864 14.7712424 -10.22222227 13.69811059 -7.96899414 11.11352539 C-6.9830075 8.52013195 -6.22456151 5.94813303 -5.54711914 3.25805664 C-4.53898814 -0.48156444 -4.25470627 0.12169763 0 0 Z M8.03100586 20.11352539 C5.61976219 22.27095394 4.16590907 23.78300941 3.83178711 27.07836914 C3.98157132 29.3764869 4.11382425 30.98752377 5.03100586 33.11352539 C6.27817383 33.89469727 6.27817383 33.89469727 7.55053711 34.69165039 C10.91712949 37.97871697 10.6569534 40.31870937 10.77709961 44.88110352 C10.77838867 45.84467773 10.77967773 46.80825195 10.78100586 47.80102539 C10.81401083 49.72166076 10.8502869 51.64224368 10.89038086 53.56274414 C10.89521484 54.4118335 10.90004883 55.26092285 10.9050293 56.13574219 C10.81243241 58.11519462 10.81243241 58.11519462 12.03100586 59.11352539 C13.75423758 59.11352539 15.47749204 59.11186371 17.20068359 59.10009766 C26.05666345 59.15725983 26.05666345 59.15725983 29.13647461 62.17993164 C30.35772517 64.46843343 31.30252711 66.62664964 32.03100586 69.11352539 C34.01100586 69.11352539 35.99100586 69.11352539 38.03100586 69.11352539 C38.36100586 67.79352539 38.69100586 66.47352539 39.03100586 65.11352539 C37.38100586 64.78352539 35.73100586 64.45352539 34.03100586 64.11352539 C33.78350586 63.20602539 33.53600586 62.29852539 33.28100586 61.36352539 C31.93283945 57.85829272 30.9625296 56.41120616 28.03100586 54.11352539 C24.98660451 53.63157264 24.98660451 53.63157264 21.78100586 53.86352539 C20.16452148 53.91766602 20.16452148 53.91766602 18.51538086 53.97290039 C17.69553711 54.01930664 16.87569336 54.06571289 16.03100586 54.11352539 C16.03100586 51.47352539 16.03100586 48.83352539 16.03100586 46.11352539 C19.99100586 46.11352539 23.95100586 46.11352539 28.03100586 46.11352539 C28.03100586 44.79352539 28.03100586 43.47352539 28.03100586 42.11352539 C25.50625124 40.85114808 23.7190012 41.01496135 20.90600586 41.05102539 C19.99592773 41.06004883 19.08584961 41.06907227 18.14819336 41.07836914 C17.10018555 41.09577148 17.10018555 41.09577148 16.03100586 41.11352539 C17.02070559 38.14442619 17.78733999 36.34242364 20.09350586 34.17602539 C22.62682393 31.47926744 22.95603877 29.78691291 23.03100586 26.11352539 C21.65706856 23.23479962 20.28111149 21.36363102 18.03100586 19.11352539 C14.03930981 17.81892127 11.68546438 18.05203597 8.03100586 20.11352539 Z M3.03100586 45.11352539 C-1.06882055 47.99448449 -3.29546458 50.35717822 -4.96899414 55.11352539 C-5.92900363 61.40106004 -5.27878126 66.22415258 -1.50415039 71.41821289 C1.82084623 75.09009212 4.77742235 76.79861416 9.71459961 77.48852539 C15.82099499 77.7536606 19.40993473 77.14215151 24.03100586 73.11352539 C24.69100586 72.45352539 25.35100586 71.79352539 26.03100586 71.11352539 C26.03100586 70.12352539 26.03100586 69.13352539 26.03100586 68.11352539 C22.96574645 68.56429883 20.92954118 69.17214943 18.21850586 70.73852539 C14.13490053 72.50008063 11.25136439 72.41610518 7.03100586 71.11352539 C4.2699944 69.29243273 2.51000038 68.07151442 1.03100586 65.11352539 C0.34630636 59.76308784 0.29049073 55.46483019 3.53100586 50.98852539 C4.35600586 50.03977539 5.18100586 49.09102539 6.03100586 48.11352539 C5.04100586 47.12352539 4.05100586 46.13352539 3.03100586 45.11352539 Z " fill="#FFFFFF" transform="translate(21.968994140625,-0.113525390625)"/>
<path d="M0 0 C0.763125 0.20625 1.52625 0.4125 2.3125 0.625 C2.9375 3.5 2.9375 3.5 3.3125 6.625 C1.3125 8.625 1.3125 8.625 -1.1875 8.875 C-3.6875 8.625 -3.6875 8.625 -5.6875 6.625 C-6 4.125 -6 4.125 -5.6875 1.625 C-2.6875 -0.375 -2.6875 -0.375 0 0 Z " fill="#FFFFFF" transform="translate(36.6875,23.375)"/>
</svg>
