<?xml version="1.0" encoding="UTF-8"?>
<svg version="1.1" xmlns="http://www.w3.org/2000/svg" width="128" height="111">
<path d="M0 0 C1.62490954 -0.02698189 3.24994633 -0.04638757 4.875 -0.0625 C6.23238281 -0.07990234 6.23238281 -0.07990234 7.6171875 -0.09765625 C10 0 10 0 12 1 C12 3.31 12 5.62 12 8 C13.01320313 8.09087891 13.01320313 8.09087891 14.046875 8.18359375 C14.93890625 8.26738281 15.8309375 8.35117188 16.75 8.4375 C18.07257812 8.55931641 18.07257812 8.55931641 19.421875 8.68359375 C21.69350452 8.96238465 23.79851823 9.38790577 26 10 C25.67 11.65 25.34 13.3 25 15 C20.71 14.34 16.42 13.68 12 13 C11.34 15.31 10.68 17.62 10 20 C11.216875 20.45375 12.43375 20.9075 13.6875 21.375 C16.8080927 22.54452941 19.91230616 23.74562438 23 25 C23 26.32 23 27.64 23 29 C17.76119922 28.44854729 13.02649303 27.57077907 8 26 C7.96132812 26.82564453 7.96132812 26.82564453 7.921875 27.66796875 C7.52895429 33.42782915 6.64930668 38.9769155 5.49707031 44.62524414 C2.59086303 58.90648876 2.42312073 70.34260161 6.125 84.4453125 C7 88 7 88 7 91 C7.66 90.67 8.32 90.34 9 90 C8.67 82.74 8.34 75.48 8 68 C9.32 68.33 10.64 68.66 12 69 C13.33333333 75 14.66666667 81 16 87 C18.31 87.33 20.62 87.66 23 88 C23.18175781 87.29875 23.36351562 86.5975 23.55078125 85.875 C25.07999067 80.10321471 26.80054363 74.55100893 29 69 C27.7934375 68.814375 27.7934375 68.814375 26.5625 68.625 C25.716875 68.41875 24.87125 68.2125 24 68 C22.73762269 65.47524538 22.90143596 63.68799534 22.9375 60.875 C22.94652344 59.96492188 22.95554688 59.05484375 22.96484375 58.1171875 C22.97644531 57.41851562 22.98804688 56.71984375 23 56 C27.79872101 53.76059686 32.82855847 52.9439136 38 52 C38.87840996 48.90279155 38.99435406 47.09354597 38 44 C44.55508059 40.7224597 53.86005418 41.89126986 61 42 C61.33 42.99 61.66 43.98 62 45 C61.195625 45.78375 60.39125 46.5675 59.5625 47.375 C57.01309583 49.71982856 57.01309583 49.71982856 56 52 C56.66386719 51.89300781 57.32773438 51.78601562 58.01171875 51.67578125 C58.89472656 51.55589844 59.77773437 51.43601563 60.6875 51.3125 C61.55761719 51.18488281 62.42773438 51.05726562 63.32421875 50.92578125 C68.7129473 51.07524963 72.17642899 54.84200392 75.875 58.4375 C76.67679687 59.19933594 77.47859375 59.96117187 78.3046875 60.74609375 C80 63 80 63 79.7578125 65.28515625 C79.50773437 65.85105469 79.25765625 66.41695313 79 67 C74.51679267 65.63013109 72.7871989 63.68629532 70 60 C67.39682127 57.31527591 66.18569214 57.00740367 62.375 56.85546875 C60.91544705 56.94869268 59.457007 57.06055067 58 57.1875 C57.22414551 57.24284912 56.44829102 57.29819824 55.64892578 57.35522461 C46.41689671 58.04693783 37.2041126 59.01041378 28 60 C28 61.32 28 62.64 28 64 C28.80630859 63.90912109 29.61261719 63.81824219 30.44335938 63.72460938 C34.12841398 63.31186633 37.81418328 62.90587863 41.5 62.5 C42.7684375 62.35691406 44.036875 62.21382812 45.34375 62.06640625 C48.89338696 61.67816471 52.44522384 61.33712763 56 61 C56.79535156 60.88785156 57.59070313 60.77570312 58.41015625 60.66015625 C61.33571329 60.37962338 63.45855999 60.65096749 65.93945312 62.25024414 C68.0850725 64.06631274 70.03829243 65.98683932 72 68 C72.73347656 68.71655762 73.46695313 69.43311523 74.22265625 70.17138672 C76.50366133 72.4059305 78.75480789 74.66701543 81 76.9375 C81.77472656 77.71673828 82.54945312 78.49597656 83.34765625 79.29882812 C85.23410757 81.1969242 87.11816245 83.09733149 89 85 C89.99 84.67 90.98 84.34 92 84 C90.55218207 80.55571735 88.72305391 78.63869038 85.875 76.25 C85.15054688 75.63640625 84.42609375 75.0228125 83.6796875 74.390625 C83.12539062 73.93171875 82.57109375 73.4728125 82 73 C82.33 71.35 82.66 69.7 83 68 C86.96665592 69.61499562 89.75154371 72.34945854 92.75 75.3125 C93.25660156 75.78623047 93.76320313 76.25996094 94.28515625 76.74804688 C96.53653338 78.96604779 97.90047766 80.51802754 98.546875 83.6484375 C97.85988037 86.6025144 96.88327828 87.48248275 94.5 89.3125 C93.8503125 89.82425781 93.200625 90.33601563 92.53125 90.86328125 C92.0259375 91.23839844 91.520625 91.61351563 91 92 C89.35 91.34 87.7 90.68 86 90 C86.67200089 93.68256488 87.57759362 97.19434131 88.75 100.75 C89.05421875 101.71421875 89.3584375 102.6784375 89.671875 103.671875 C90.80229956 106.26695711 90.80229956 106.26695711 93.640625 106.828125 C94.80851562 106.91320312 94.80851562 106.91320312 96 107 C96 108.32 96 109.64 96 111 C54.42 111 12.84 111 -30 111 C-30 109.68 -30 108.36 -30 107 C-26.535 106.01 -26.535 106.01 -23 105 C-22.34 102.36 -21.68 99.72 -21 97 C-22.98 97 -24.96 97 -27 97 C-27.33 95.68 -27.66 94.36 -28 93 C-25.43060355 91.41883295 -24.0720774 90.99849839 -21 91.0625 C-17.98351052 91.29138642 -17.98351052 91.29138642 -16 89.5 C-13.28817634 87.46613226 -11.31159603 87.89201317 -8 88 C-8.29053375 86.22898044 -8.5825087 84.45819731 -8.875 82.6875 C-9.05289062 81.59308594 -9.23078125 80.49867187 -9.4140625 79.37109375 C-9.78252763 77.25119106 -10.18871145 75.13715671 -10.6484375 73.03515625 C-11.96359566 66.94614476 -12.0121306 62.92460675 -10 57 C-8.68 57.33 -7.36 57.66 -6 58 C-6.05800781 58.56203125 -6.11601562 59.1240625 -6.17578125 59.703125 C-6.5972952 67.55532769 -4.83790354 74.49787753 -2.77856445 82.00488281 C-0.65541097 89.81324334 -0.65541097 89.81324334 -1 94 C0.485 93.01 0.485 93.01 2 92 C1.84853516 91.42145264 1.69707031 90.84290527 1.54101562 90.24682617 C0.8469496 87.5637271 0.17345116 84.87584424 -0.5 82.1875 C-0.73847656 81.27806641 -0.97695313 80.36863281 -1.22265625 79.43164062 C-4.34326094 66.81548167 -2.46930129 55.54495516 -0.0625 43 C0.21895227 41.48583545 0.49955702 39.9715131 0.77929688 38.45703125 C2.81117376 27.56647872 2.81117376 27.56647872 4 24 C2.68 24 1.36 24 0 24 C-0.03738281 24.6084375 -0.07476563 25.216875 -0.11328125 25.84375 C-0.7525246 34.36699471 -2.33055563 42.63177885 -4 51 C-5.98 51.495 -5.98 51.495 -8 52 C-9 47.25 -9 47.25 -9 45 C-9.56589844 44.86722656 -10.13179687 44.73445313 -10.71484375 44.59765625 C-11.44832031 44.42105469 -12.18179687 44.24445312 -12.9375 44.0625 C-13.66839844 43.88847656 -14.39929688 43.71445312 -15.15234375 43.53515625 C-17 43 -17 43 -18 42 C-17.86971703 36.11722295 -17.22280043 30.48290774 -15 25 C-11.01803543 23.94595055 -8.01804691 24.15901344 -4 25 C-4 24.01 -4 23.02 -4 22 C-4.67546875 21.87882812 -5.3509375 21.75765625 -6.046875 21.6328125 C-6.93890625 21.46523438 -7.8309375 21.29765625 -8.75 21.125 C-9.63171875 20.96257813 -10.5134375 20.80015625 -11.421875 20.6328125 C-13.86947744 20.03203736 -15.80599857 19.22002883 -18 18 C-18 17.01 -18 16.02 -18 15 C-14.28233332 13.76077777 -12.56110463 14.42981058 -8.8125 15.4375 C-7.18248047 15.86869141 -7.18248047 15.86869141 -5.51953125 16.30859375 C-4.68808594 16.53675781 -3.85664063 16.76492187 -3 17 C-2.67 14.69 -2.34 12.38 -2 10 C-2.91523438 9.89042969 -3.83046875 9.78085938 -4.7734375 9.66796875 C-5.96195313 9.50941406 -7.15046875 9.35085938 -8.375 9.1875 C-10.15003906 8.96126953 -10.15003906 8.96126953 -11.9609375 8.73046875 C-15 8 -15 8 -17 5 C-16.67 4.34 -16.34 3.68 -16 3 C-5.44191344 3.96355353 -5.44191344 3.96355353 -1 5 C-0.67 3.35 -0.34 1.7 0 0 Z M4 4 C4 4.66 4 5.32 4 6 C4.99 6.33 5.98 6.66 7 7 C7 6.34 7 5.68 7 5 C6.01 4.67 5.02 4.34 4 4 Z M3 11 C2.34 13.31 1.68 15.62 1 18 C2.98 18.99 2.98 18.99 5 20 C5.33 17.03 5.66 14.06 6 11 C5.01 11 4.02 11 3 11 Z M-11 29 C-12.31626692 32.61973402 -13 35.09567131 -13 39 C-10.03 39.495 -10.03 39.495 -7 40 C-6.67 36.7 -6.34 33.4 -6 30 C-7.65 29.67 -9.3 29.34 -11 29 Z M47 47 C44.81624738 49.71124319 44.81624738 49.71124319 44 53 C47.465 52.505 47.465 52.505 51 52 C51.33 50.35 51.66 48.7 52 47 C49.62694422 46.58219121 49.62694422 46.58219121 47 47 Z M49.53857422 66.22338867 C47.28669568 66.43018422 45.05400764 66.70247253 42.8125 67 C42.05130859 67.09539062 41.29011719 67.19078125 40.50585938 67.2890625 C38.66980451 67.5200128 36.83477484 67.7590917 35 68 C31.85830477 75.2271408 29.07042054 82.39162534 27 90 C32.48547696 91.98533115 32.48547696 91.98533115 37.875 90.75 C40.03946616 89.02474997 40.03946616 89.02474997 42 87 C47.04830687 86.65054983 51.52476562 87.37708928 56.4375 88.5 C57.67371094 88.7784375 58.90992188 89.056875 60.18359375 89.34375 C61.11300781 89.5603125 62.04242188 89.776875 63 90 C63.495 91.98 63.495 91.98 64 94 C66.08410658 93.91266027 68.16734669 93.80447722 70.25 93.6875 C71.41015625 93.62949219 72.5703125 93.57148437 73.765625 93.51171875 C77.1844703 92.97081448 78.66060524 92.52320435 81 90 C81.95737646 87.66848451 81.95737646 87.66848451 82 85 C79.6449782 81.26094878 76.36750723 78.30268419 73.25 75.1875 C72.43144531 74.30384766 71.61289063 73.42019531 70.76953125 72.50976562 C66.57049512 68.26814957 63.58467143 65.42886121 57.43359375 65.36328125 C54.79185496 65.60329089 52.17980709 65.98368146 49.53857422 66.22338867 Z M41.3125 93.625 C39.22446677 95.56038328 38.42233958 96.00733923 35.52734375 95.95703125 C31.78846062 95.25763398 28.17070758 94.38773835 24.55859375 93.19140625 C17.33839179 91.08600963 12.77488616 93.50534693 6.27734375 96.57421875 C1.96081988 98.45208671 -0.39639658 98.92072068 -5 98 C-7.75 95.4375 -7.75 95.4375 -10 93 C-12.27523089 93.04497842 -12.27523089 93.04497842 -14 94 C-13.76065999 98.9064702 -12.2796779 101.93148527 -9.07675171 105.50921631 C-4.78066643 108.59313522 0.42558539 107.90593953 5.51171875 107.7890625 C7.3194854 107.78487808 7.3194854 107.78487808 9.16377258 107.78060913 C11.70477708 107.76786969 14.24574572 107.73824813 16.78637695 107.69287109 C20.68444104 107.62505322 24.57991423 107.61087426 28.47851562 107.60546875 C30.94794281 107.58647262 33.41734892 107.56444177 35.88671875 107.5390625 C37.63984627 107.52934921 37.63984627 107.52934921 39.4283905 107.5194397 C40.50993912 107.49707245 41.59148773 107.4747052 42.70581055 107.45166016 C43.65812057 107.43720856 44.6104306 107.42275696 45.59159851 107.40786743 C48.44453227 106.9247176 49.25323392 106.25855597 51 104 C51.61875 102.989375 52.2375 101.97875 52.875 100.9375 C55.12742852 97.82384881 56.36974108 97.00840526 60 96 C57.64883911 92.47325867 56.11958973 92.20396644 52.0859375 91.359375 C46.11292858 90.23825499 46.11292858 90.23825499 41.3125 93.625 Z M70.125 97.625 C68.77728516 97.85509766 68.77728516 97.85509766 67.40234375 98.08984375 C61.72947642 99.18754777 58.52526214 100.3242339 55 105 C55 105.66 55 106.32 55 107 C64.9 107 74.8 107 85 107 C84.34 103.7 83.68 100.4 83 97 C78.50705617 95.50235206 74.69849914 96.73372065 70.125 97.625 Z M-17 102 C-17.33 103.65 -17.66 105.3 -18 107 C-16.68 107 -15.36 107 -14 107 C-14.66 105.35 -15.32 103.7 -16 102 C-16.33 102 -16.66 102 -17 102 Z " fill="#FFFFFF" transform="translate(30,0)"/>
<path d="M0 0 C2.5 2.125 2.5 2.125 4 5 C3.936318 8.18409977 3.51040601 10.14932332 1.875 12.875 C-1.20515368 14.72309221 -3.50442383 14.49060718 -7 14 C-9.5 11.875 -9.5 11.875 -11 9 C-10.936318 5.81590023 -10.51040601 3.85067668 -8.875 1.125 C-5.79484632 -0.72309221 -3.49557617 -0.49060718 0 0 Z M-4 4 C-4.99 4.495 -4.99 4.495 -6 5 C-6 6.32 -6 7.64 -6 9 C-5.01 9.33 -4.02 9.66 -3 10 C-2.34 9.67 -1.68 9.34 -1 9 C-1 7.68 -1 6.36 -1 5 C-1.99 4.67 -2.98 4.34 -4 4 Z " fill="#FFFFFF" transform="translate(91,72)"/>
</svg>
