<?xml version="1.0" encoding="UTF-8"?>
<svg version="1.1" xmlns="http://www.w3.org/2000/svg" width="112" height="112">
<path d="M0 0 C1.3921875 0.185625 1.3921875 0.185625 2.8125 0.375 C9.3408872 1.65507592 13.15535308 5.80453119 17 11 C19.28474251 14.72328408 20.17568222 17.86706154 20.8125 22.125 C21.5113125 26.04774581 21.65474989 26.71479339 24.875 29.375 C25.90625 29.91125 26.9375 30.4475 28 31 C30.375 32.6875 30.375 32.6875 32 35 C32.48025499 38.78116256 32.72888226 42.54223548 31 46 C30.97968099 47.64583976 31.00821506 49.29243023 31.0625 50.9375 C31.09966526 58.00819096 31.04303248 65.02831639 26.9375 71 C21.6423345 74.60521906 16.40329342 76.21419467 10 76 C9.79526252 84.99977714 9.79526252 84.99977714 13.1875 92.9375 C14.115625 93.618125 15.04375 94.29875 16 95 C18.30013418 97.15207956 20.39050897 99.28110979 22 102 C21.875 105.9375 21.875 105.9375 21 109 C17.71303767 109.79953138 16.28976808 110.09658936 13 109 C13 108.34 13 107.68 13 107 C11.515 106.505 11.515 106.505 10 106 C10 105.34 10 104.68 10 104 C8.515 103.505 8.515 103.505 7 103 C6.67 102.01 6.34 101.02 6 100 C4.02043058 98.30911778 2.02054804 96.64169528 0 95 C-1.30475618 92.39048764 -1.11301572 90.47298715 -1.09765625 87.5546875 C-1.09443359 86.47832031 -1.09121094 85.40195313 -1.08789062 84.29296875 C-1.07532227 82.60107422 -1.07532227 82.60107422 -1.0625 80.875 C-1.05798828 79.73933594 -1.05347656 78.60367188 -1.04882812 77.43359375 C-1.03701615 74.62234362 -1.02054507 71.8111977 -1 69 C-0.34 69 0.32 69 1 69 C1.1959375 68.36449219 1.391875 67.72898437 1.59375 67.07421875 C3 65 3 65 5.96875 64.20703125 C7.1340625 64.07683594 8.299375 63.94664063 9.5 63.8125 C13.90053763 63.41646809 13.90053763 63.41646809 18 62 C18.65555119 59.47266765 18.65555119 59.47266765 19 57 C16.69 56.34 14.38 55.68 12 55 C11.505 51.535 11.505 51.535 11 48 C11.99 47.67 12.98 47.34 14 47 C14 46.34 14 45.68 14 45 C15.65 45 17.3 45 19 45 C19 43.02 19 41.04 19 39 C18.34 38.67 17.68 38.34 17 38 C16.67 38.99 16.34 39.98 16 41 C11.3593469 42.81986396 7.81144189 43.45462197 3 42 C0.70986347 38.5647952 0.82157027 37.014669 1 33 C-0.91466367 33.12177688 -0.91466367 33.12177688 -3 34 C-4.56840126 36.26546849 -5.77072645 38.5414529 -7 41 C-7.66 41 -8.32 41 -9 41 C-8.79375 41.9075 -8.5875 42.815 -8.375 43.75 C-7.9864535 47.11740302 -7.94338212 48.35577701 -10 51 C-12.125 51.75 -12.125 51.75 -14 52 C-12.01432292 51.93489583 -10.02864583 51.86979167 -8.04296875 51.8046875 C-6 52 -6 52 -3 54 C-2.33786181 60.06960004 -2.33786181 60.06960004 -4.21484375 62.70703125 C-6.57622047 64.41735005 -8.04728431 64.33692378 -10.9375 64.25 C-11.79214844 64.23453125 -12.64679687 64.2190625 -13.52734375 64.203125 C-15.79809898 64.01658587 -17.81524914 63.62855941 -20 63 C-19.67773438 63.68835938 -19.35546875 64.37671875 -19.0234375 65.0859375 C-15.71968611 74.49280214 -18.03499081 84.22544898 -22 93 C-23.55283154 96.576431 -24.98350015 99.92928637 -25.875 103.75 C-27 107 -27 107 -29.3125 109.0625 C-32 110 -32 110 -34.8125 109.1875 C-35.534375 108.795625 -36.25625 108.40375 -37 108 C-38.31814505 102.10666545 -37.56487362 98.56828886 -35.25 93.0625 C-34.98445313 92.39798828 -34.71890625 91.73347656 -34.4453125 91.04882812 C-33.90999555 89.70923643 -33.37005111 88.37148445 -32.82543945 87.03564453 C-29.65081693 79.77522836 -29.65081693 79.77522836 -29 72 C-32.94747325 71.81060778 -32.94747325 71.81060778 -36.375 73 C-40.73919251 74.20391517 -43.89758659 75.06106793 -48.08203125 72.94921875 C-51.00699122 71.16262158 -53.57152333 69.42847667 -56 67 C-56.26991906 64.31160615 -56.08737357 61.70858064 -56 59 C-55.34 59 -54.68 59 -54 59 C-53.67 58.01 -53.34 57.02 -53 56 C-51.0625 53.8125 -51.0625 53.8125 -49 52 C-48.34 52 -47.68 52 -47 52 C-47.28875 51.46375 -47.5775 50.9275 -47.875 50.375 C-52.43664886 40.74485241 -52.67114009 29.79740984 -49.1875 19.75 C-47.85336428 16.45810955 -46.34558928 13.68419141 -44 11 C-43.34 11 -42.68 11 -42 11 C-41.67 10.01 -41.34 9.02 -41 8 C-31.56824428 -0.38378287 -11.74850246 -7.83233497 0 0 Z M-34.52734375 17.25390625 C-39.63549499 23.31052059 -40.43829791 29.46467763 -40.3359375 37.203125 C-39.9875576 40.10359023 -39.20802979 42.3519987 -38 45 C-37.01 45 -36.02 45 -35 45 C-34.4570643 43.52129867 -33.91579293 42.04198634 -33.375 40.5625 C-32.82972656 39.0775 -32.82972656 39.0775 -32.2734375 37.5625 C-31.33019542 34.92373688 -30.42187529 32.28382441 -29.5390625 29.625 C-29.28463379 28.8714624 -29.03020508 28.1179248 -28.76806641 27.34155273 C-28.26345232 25.84423155 -27.76803092 24.34377483 -27.28271484 22.84008789 C-25.87356448 18.69718582 -24.60135277 15.74251313 -21 13 C-18.78155374 13.19015254 -17.58477845 13.41522155 -16 15 C-15.12992213 21.38057104 -17.48474211 26.20193913 -20.00390625 32.01171875 C-20.99812141 34.99436424 -21.15969062 36.1459111 -20 39 C-19.34 37.35 -18.68 35.7 -18 34 C-17.34 34 -16.68 34 -16 34 C-16 33.34 -16 32.68 -16 32 C-15.34 32 -14.68 32 -14 32 C-14 31.34 -14 30.68 -14 30 C-13.34 30 -12.68 30 -12 30 C-11.67 28.35 -11.34 26.7 -11 25 C-10.34 25 -9.68 25 -9 25 C-7.24799436 22.89172214 -7.24799436 22.89172214 -5.5 20.25 C-4.8915625 19.36828125 -4.283125 18.4865625 -3.65625 17.578125 C-2.27314796 15.42518314 -1.08156387 13.31454668 0 11 C-10.30288297 4.52833984 -26.30836333 9.46239054 -34.52734375 17.25390625 Z M7 30 C7 30.33 7 30.66 7 31 C8.65 31 10.3 31 12 31 C12 30.67 12 30.34 12 30 C10.35 30 8.7 30 7 30 Z " fill="#2F8EC3" transform="translate(68,2)"/>
<path d="M0 0 C3.1638148 2.96133065 4.5139707 4.62573634 5 9 C4.38511719 9.13277344 3.77023438 9.26554687 3.13671875 9.40234375 C1.92435547 9.66724609 1.92435547 9.66724609 0.6875 9.9375 C-0.11300781 10.11152344 -0.91351563 10.28554688 -1.73828125 10.46484375 C-4.145401 10.99886159 -4.145401 10.99886159 -7 12 C-7 13.32 -7 14.64 -7 16 C-5.4221875 15.2575 -5.4221875 15.2575 -3.8125 14.5 C-0.74547391 13.17220212 1.62134936 12.69284994 5 13 C5.495 14.485 5.495 14.485 6 16 C6.99 16 7.98 16 9 16 C8.68954268 14.0830014 8.37655329 12.16641277 8.0625 10.25 C7.88847656 9.18265625 7.71445313 8.1153125 7.53515625 7.015625 C7.11295829 4.63652407 6.62797116 2.33084789 6 0 C6.66 0 7.32 0 8 0 C10.50481615 4.50866907 12.14585864 8.13082006 12.875 13.25 C13.54195775 17.14455688 13.66735183 17.72520368 16.875 20.375 C17.90625 20.91125 18.9375 21.4475 20 22 C22.375 23.6875 22.375 23.6875 24 26 C24.48025499 29.78116256 24.72888226 33.54223548 23 37 C22.97968099 38.64583976 23.00821506 40.29243023 23.0625 41.9375 C23.09966526 49.00819096 23.04303248 56.02831639 18.9375 62 C13.6423345 65.60521906 8.40329342 67.21419467 2 67 C1.79526252 75.99977714 1.79526252 75.99977714 5.1875 83.9375 C6.115625 84.618125 7.04375 85.29875 8 86 C10.30013418 88.15207956 12.39050897 90.28110979 14 93 C13.875 96.9375 13.875 96.9375 13 100 C9.71303767 100.79953138 8.28976808 101.09658936 5 100 C5 99.34 5 98.68 5 98 C4.01 97.67 3.02 97.34 2 97 C2 96.34 2 95.68 2 95 C0.515 94.505 0.515 94.505 -1 94 C-1.33 93.01 -1.66 92.02 -2 91 C-3.97956942 89.30911778 -5.97945196 87.64169528 -8 86 C-9.30475618 83.39048764 -9.11301572 81.47298715 -9.09765625 78.5546875 C-9.09443359 77.47832031 -9.09121094 76.40195313 -9.08789062 75.29296875 C-9.07951172 74.16503906 -9.07113281 73.03710938 -9.0625 71.875 C-9.05798828 70.73933594 -9.05347656 69.60367188 -9.04882812 68.43359375 C-9.03701615 65.62234362 -9.02054507 62.8111977 -9 60 C-8.34 60 -7.68 60 -7 60 C-6.8040625 59.36449219 -6.608125 58.72898438 -6.40625 58.07421875 C-5 56 -5 56 -2.03125 55.20703125 C-0.8659375 55.07683594 0.299375 54.94664063 1.5 54.8125 C5.90053763 54.41646809 5.90053763 54.41646809 10 53 C10.65555119 50.47266765 10.65555119 50.47266765 11 48 C8.69 47.34 6.38 46.68 4 46 C3.505 42.535 3.505 42.535 3 39 C3.99 38.67 4.98 38.34 6 38 C6 37.34 6 36.68 6 36 C7.65 36 9.3 36 11 36 C11 34.02 11 32.04 11 30 C10.34 29.67 9.68 29.34 9 29 C8.505 30.485 8.505 30.485 8 32 C3.3593469 33.81986396 -0.18855811 34.45462197 -5 33 C-7.29013653 29.5647952 -7.17842973 28.014669 -7 24 C-8.91466367 24.12177688 -8.91466367 24.12177688 -11 25 C-12.56840126 27.26546849 -13.77072645 29.5414529 -15 32 C-15.66 32 -16.32 32 -17 32 C-16.79375 32.9075 -16.5875 33.815 -16.375 34.75 C-15.9872755 38.11027897 -16.19588033 39.24075815 -18 42 C-19.258125 42.04125 -20.51625 42.0825 -21.8125 42.125 C-22.52019531 42.14820313 -23.22789063 42.17140625 -23.95703125 42.1953125 C-26 42 -26 42 -29 40 C-27.79618552 37.50638429 -26.54571278 35.31856917 -25 33 C-24.34 33 -23.68 33 -23 33 C-23 33.66 -23 34.32 -23 35 C-21.515 34.505 -21.515 34.505 -20 34 C-20.66 32.35 -21.32 30.7 -22 29 C-21.01 27.9790625 -21.01 27.9790625 -20 26.9375 C-17.56114128 23.35542625 -17.66707415 21.24480464 -18 17 C-15.525 17.99 -15.525 17.99 -13 19 C-12.72365723 18.41573242 -12.44731445 17.83146484 -12.16259766 17.22949219 C-11.04934576 15.09462946 -9.8304474 13.25967324 -8.3984375 11.328125 C-7.90859375 10.66425781 -7.41875 10.00039063 -6.9140625 9.31640625 C-6.40617187 8.63449219 -5.89828125 7.95257812 -5.375 7.25 C-4.859375 6.55261719 -4.34375 5.85523438 -3.8125 5.13671875 C-2.54440881 3.42244733 -1.2725711 1.71094844 0 0 Z M-1 21 C-1 21.33 -1 21.66 -1 22 C0.65 22 2.3 22 4 22 C4 21.67 4 21.34 4 21 C2.35 21 0.7 21 -1 21 Z " fill="#2F93CA" transform="translate(76,11)"/>
<path d="M0 0 C3.1638148 2.96133065 4.5139707 4.62573634 5 9 C4.38511719 9.13277344 3.77023438 9.26554687 3.13671875 9.40234375 C1.92435547 9.66724609 1.92435547 9.66724609 0.6875 9.9375 C-0.11300781 10.11152344 -0.91351563 10.28554688 -1.73828125 10.46484375 C-4.145401 10.99886159 -4.145401 10.99886159 -7 12 C-7 13.32 -7 14.64 -7 16 C-5.4221875 15.2575 -5.4221875 15.2575 -3.8125 14.5 C-0.74547391 13.17220212 1.62134936 12.69284994 5 13 C5.495 14.485 5.495 14.485 6 16 C6.99 16 7.98 16 9 16 C8.68954268 14.0830014 8.37655329 12.16641277 8.0625 10.25 C7.88847656 9.18265625 7.71445313 8.1153125 7.53515625 7.015625 C7.11295829 4.63652407 6.62797116 2.33084789 6 0 C6.66 0 7.32 0 8 0 C11.25711277 5.77874846 12.69343615 10.37822074 13 17 C11.68 17 10.36 17 9 17 C10.50223584 21.20626034 13.28550034 22.73900021 17 25 C16.855625 25.556875 16.71125 26.11375 16.5625 26.6875 C15.40516376 31.29336311 15.40516376 31.29336311 15 36 C13.68 35.67 12.36 35.34 11 35 C11 33.35 11 31.7 11 30 C10.34 29.67 9.68 29.34 9 29 C8.505 30.485 8.505 30.485 8 32 C3.3593469 33.81986396 -0.18855811 34.45462197 -5 33 C-7.29013653 29.5647952 -7.17842973 28.014669 -7 24 C-8.91466367 24.12177688 -8.91466367 24.12177688 -11 25 C-12.56840126 27.26546849 -13.77072645 29.5414529 -15 32 C-15.66 32 -16.32 32 -17 32 C-16.79375 32.9075 -16.5875 33.815 -16.375 34.75 C-15.9872755 38.11027897 -16.19588033 39.24075815 -18 42 C-19.258125 42.04125 -20.51625 42.0825 -21.8125 42.125 C-22.52019531 42.14820313 -23.22789063 42.17140625 -23.95703125 42.1953125 C-26 42 -26 42 -29 40 C-27.79618552 37.50638429 -26.54571278 35.31856917 -25 33 C-24.34 33 -23.68 33 -23 33 C-23 33.66 -23 34.32 -23 35 C-21.515 34.505 -21.515 34.505 -20 34 C-20.66 32.35 -21.32 30.7 -22 29 C-21.01 27.9790625 -21.01 27.9790625 -20 26.9375 C-17.56114128 23.35542625 -17.66707415 21.24480464 -18 17 C-15.525 17.99 -15.525 17.99 -13 19 C-12.72365723 18.41573242 -12.44731445 17.83146484 -12.16259766 17.22949219 C-11.04934576 15.09462946 -9.8304474 13.25967324 -8.3984375 11.328125 C-7.90859375 10.66425781 -7.41875 10.00039063 -6.9140625 9.31640625 C-6.40617187 8.63449219 -5.89828125 7.95257812 -5.375 7.25 C-4.859375 6.55261719 -4.34375 5.85523438 -3.8125 5.13671875 C-2.54440881 3.42244733 -1.2725711 1.71094844 0 0 Z M-1 21 C-1 21.33 -1 21.66 -1 22 C0.65 22 2.3 22 4 22 C4 21.67 4 21.34 4 21 C2.35 21 0.7 21 -1 21 Z " fill="#080A0B" transform="translate(76,11)"/>
<path d="M0 0 C0.20625 0.61875 0.4125 1.2375 0.625 1.875 C2.54775888 4.84653645 4.66594527 5.13024659 8 6 C6.625 8.5 6.625 8.5 5 11 C4.34 11 3.68 11 3 11 C3 11.99 3 12.98 3 14 C2.34 14 1.68 14 1 14 C0.505 12.02 0.505 12.02 0 10 C-11.32025262 9.52722843 -20.76407026 9.35306107 -30.375 16.1875 C-36.33702382 22.57538266 -37.45151326 28.71538724 -37.23828125 37.30078125 C-37.03072478 39.65195376 -36.66018218 41.74035205 -36 44 C-36.66 44 -37.32 44 -38 44 C-42.02617814 37.12194568 -41.85428124 29.77802726 -41 22 C-38.96321765 15.08399237 -35.11999804 9.81304565 -29 6 C-20.93503831 1.64548075 -12.74848867 0.91826793 -3.703125 1.046875 C-1.0829474 1.31452752 -1.0829474 1.31452752 0 0 Z " fill="#111212" transform="translate(66,2)"/>
<path d="M0 0 C0.99 0.66 1.98 1.32 3 2 C3.328125 4.09375 3.328125 4.09375 3.25 6.5 C3.23453125 7.2940625 3.2190625 8.088125 3.203125 8.90625 C3 11 3 11 2 13 C1.97968099 14.64583976 2.00821506 16.29243023 2.0625 17.9375 C2.09966526 25.00819096 2.04303248 32.02831639 -2.0625 38 C-7.51181899 41.71017463 -12.43009349 43 -19 43 C-19 47.29 -19 51.58 -19 56 C-20.32 55.34 -21.64 54.68 -23 54 C-23 48.06 -23 42.12 -23 36 C-15.1875 34.1875 -15.1875 34.1875 -12.73901367 33.63745117 C-7.63085598 32.48351268 -7.63085598 32.48351268 -4 29 C-3.07504146 26.22512439 -2.90161307 24.71927585 -2.97265625 21.875 C-2.98490234 21.08609375 -2.99714844 20.2971875 -3.00976562 19.484375 C-3.04492373 17.82803752 -3.08398688 16.17177833 -3.12695312 14.515625 C-3.13791016 13.72671875 -3.14886719 12.9378125 -3.16015625 12.125 C-3.17699463 11.40570313 -3.19383301 10.68640625 -3.21118164 9.9453125 C-3 8 -3 8 -1 5 C-0.61500109 3.34450469 -0.27206865 1.6777567 0 0 Z " fill="#0A0B0B" transform="translate(97,35)"/>
<path d="M0 0 C2.44311069 2.44311069 2.24872836 3.11475136 2.2734375 6.46484375 C2.2940625 7.34720703 2.3146875 8.22957031 2.3359375 9.13867188 C2.36192336 11.00055894 2.3801861 12.86257024 2.390625 14.72460938 C2.41382812 15.60826172 2.43703125 16.49191406 2.4609375 17.40234375 C2.46915527 18.21179443 2.47737305 19.02124512 2.48583984 19.85522461 C2.83328421 22.17255259 2.83328421 22.17255259 4.90869141 23.78735352 C6.88545345 25.16720712 6.88545345 25.16720712 9 25 C9.33 24.34 9.66 23.68 10 23 C11.694262 24.64443076 13.3501067 26.31183598 15 28 C15.56203125 28.54269531 16.1240625 29.08539063 16.703125 29.64453125 C18.37104967 31.37091122 19.77599194 32.93230067 21 35 C20.875 38.9375 20.875 38.9375 20 42 C16.71303767 42.79953138 15.28976808 43.09658936 12 42 C12 41.34 12 40.68 12 40 C11.01 39.67 10.02 39.34 9 39 C9 38.34 9 37.68 9 37 C8.01 36.67 7.02 36.34 6 36 C5.505 34.515 5.505 34.515 5 33 C3.02043058 31.30911778 1.02054804 29.64169528 -1 28 C-2.30475618 25.39048764 -2.11301572 23.47298715 -2.09765625 20.5546875 C-2.09443359 19.47832031 -2.09121094 18.40195313 -2.08789062 17.29296875 C-2.07951172 16.16503906 -2.07113281 15.03710938 -2.0625 13.875 C-2.05798828 12.73933594 -2.05347656 11.60367188 -2.04882812 10.43359375 C-2.03701615 7.62234362 -2.02054507 4.8111977 -2 2 C-1.34 2 -0.68 2 0 2 C0 1.34 0 0.68 0 0 Z " fill="#0E0F10" transform="translate(69,69)"/>
<path d="M0 0 C5.01392039 0.3498084 8.17296349 1.75533861 12 5 C15.13122366 9.93043471 17.14769479 14.80905975 17.0625 20.6875 C17.05347656 21.49574219 17.04445313 22.30398437 17.03515625 23.13671875 C17.02355469 23.75160156 17.01195313 24.36648437 17 25 C16.01 25 15.02 25 14 25 C13.67 24.34 13.34 23.68 13 23 C6.93735778 23.66264086 6.93735778 23.66264086 1 25 C1 23.68 1 22.36 1 21 C5.22949995 18.58314288 8.12335991 17.65166856 13 18 C11.68 15.36 10.36 12.72 9 10 C8.43667969 10.70769531 7.87335938 11.41539063 7.29296875 12.14453125 C4.20842313 15.98576267 1.06487273 19.77751072 -2.07421875 23.57421875 C-4.00086293 25.83016889 -4.00086293 25.83016889 -5 28 C-5.8971875 27.690625 -5.8971875 27.690625 -6.8125 27.375 C-9.28450846 26.69328085 -9.28450846 26.69328085 -12 29 C-11.67 27.68 -11.34 26.36 -11 25 C-10.34 25 -9.68 25 -9 25 C-8.7525 24.46375 -8.505 23.9275 -8.25 23.375 C-4.05882353 15.41176471 -4.05882353 15.41176471 -0.75 14.125 C-0.1725 14.08375 0.405 14.0425 1 14 C1 13.01 1 12.02 1 11 C3 8.8125 3 8.8125 5 7 C4.195625 6.566875 3.39125 6.13375 2.5625 5.6875 C0 4 0 4 -1 1 C-0.67 0.67 -0.34 0.34 0 0 Z " fill="#308BBE" transform="translate(68,2)"/>
<path d="M0 0 C3 0 3 0 4.9375 1.875 C5.618125 2.57625 6.29875 3.2775 7 4 C10.0832774 6.202341 13.21171674 6.46227889 16.97265625 6.40625 C20.46998201 5.70543713 22.40288376 3.35552403 25 1 C28 2 28 2 29.6875 4 C31.98024893 9.24056899 31.52474818 14.13058461 30 19.5625 C29.67 20.366875 29.34 21.17125 29 22 C28.01 21.67 27.02 21.34 26 21 C26.33 18.36 26.66 15.72 27 13 C23.05252675 12.81060778 23.05252675 12.81060778 19.625 14 C15.26080749 15.20391517 12.10241341 16.06106793 7.91796875 13.94921875 C4.99300878 12.16262158 2.42847667 10.42847667 0 8 C-0.26991906 5.31160615 -0.08737357 2.70858064 0 0 Z " fill="#101111" transform="translate(12,61)"/>
<path d="M0 0 C2 1 2 1 3 3 C3.76452753 12.21193003 2.79463601 19.60248421 -1 28 C-2.55283154 31.576431 -3.98350015 34.92928637 -4.875 38.75 C-6 42 -6 42 -8.3125 44.0625 C-11 45 -11 45 -13.8125 44.1875 C-14.534375 43.795625 -15.25625 43.40375 -16 43 C-16.92470553 38.28400182 -17.22923777 35.32734391 -15 31 C-14.34 31 -13.68 31 -13 31 C-13.33 32.98 -13.66 34.96 -14 37 C-12.68 37 -11.36 37 -10 37 C-9.79375 35.80375 -9.5875 34.6075 -9.375 33.375 C-8.44104889 29.05040029 -6.85406722 25.32361615 -5 21.3125 C-1.82129482 14.20305451 -0.68223953 7.73988982 0 0 Z " fill="#141414" transform="translate(47,67)"/>
<path d="M0 0 C0.99 0.66 1.98 1.32 3 2 C4.10582508 8.22026607 1.54003934 13.15596454 -0.90625 18.81640625 C-2.19064923 21.90894172 -2.19064923 21.90894172 -1.84375 24.97265625 C-2.07014465 29.35905265 -4.25197137 31.59221985 -7 34.875 C-7.47695313 35.46796875 -7.95390625 36.0609375 -8.4453125 36.671875 C-9.6172753 38.12510887 -10.80692461 39.56404855 -12 41 C-12.66 40.67 -13.32 40.34 -14 40 C-11.57334561 31.28793422 -8.45432842 22.84655403 -5.3125 14.375 C-4.79594774 12.97536233 -4.27966971 11.57562342 -3.76367188 10.17578125 C-2.51226966 6.78268275 -1.25717674 3.39096389 0 0 Z " fill="#060708" transform="translate(50,15)"/>
<path d="M0 0 C0.56847656 0.3609375 1.13695312 0.721875 1.72265625 1.09375 C6.61150131 4.03195404 10.12768747 5.92114706 16 5 C18.40083438 3.64114884 18.40083438 3.64114884 20 2 C21 3 21 3 21.25 6.375 C21 10 21 10 19.97265625 11.68359375 C16.9167003 13.72291485 13.74930022 13.65854227 10.1875 13.6875 C9.46498047 13.69458984 8.74246094 13.70167969 7.99804688 13.70898438 C4.55035062 13.59269927 2.39822327 13.29915627 -0.38671875 11.20703125 C-1.86068522 9.19058802 -3.01737811 7.29278441 -4 5 C-2.68 3.35 -1.36 1.7 0 0 Z " fill="#0F1011" transform="translate(44,53)"/>
<path d="M0 0 C0.66 0.33 1.32 0.66 2 1 C3.155 0.95875 4.31 0.9175 5.5 0.875 C7.2325 0.936875 7.2325 0.936875 9 1 C9.66 1.99 10.32 2.98 11 4 C11.66 4 12.32 4 13 4 C13 4.66 13 5.32 13 6 C12.34 6 11.68 6 11 6 C11.33 6.66 11.66 7.32 12 8 C12.99 8.33 13.98 8.66 15 9 C14.34 9 13.68 9 13 9 C12.67 9.99 12.34 10.98 12 12 C7.3593469 13.81986396 3.81144189 14.45462197 -1 13 C-3.32579101 9.51131349 -3.41865457 8.10281481 -3 4 C-1.5 1.625 -1.5 1.625 0 0 Z " fill="#111111" transform="translate(72,31)"/>
<path d="M0 0 C0.66 0.33 1.32 0.66 2 1 C1.566875 1.804375 1.566875 1.804375 1.125 2.625 C-2.89815659 11.11833057 -3.99912406 21.18826078 -0.90625 30.1796875 C0.28028561 32.55965719 1.5450064 34.7769606 3 37 C3.33 37.66 3.66 38.32 4 39 C0.535 39.495 0.535 39.495 -3 40 C-7.89265539 32.13680384 -7.88915197 23.92673365 -7 15 C-5.62567057 9.27474472 -3.6851781 4.60383282 0 0 Z " fill="#1B1B1B" transform="translate(24,13)"/>
<path d="M0 0 C1.86323318 0.25288812 3.71708432 0.57690153 5.5625 0.9375 C6.57441406 1.13214844 7.58632812 1.32679687 8.62890625 1.52734375 C9.80259766 1.76130859 9.80259766 1.76130859 11 2 C11.08153933 3.58246707 11.13943557 5.16616273 11.1875 6.75 C11.22230469 7.63171875 11.25710937 8.5134375 11.29296875 9.421875 C10.94923684 12.44671583 9.99772541 13.75583602 8 16 C7.34 15.67 6.68 15.34 6 15 C6.33 13.35 6.66 11.7 7 10 C4.69 9.34 2.38 8.68 0 8 C-0.38063221 5.6739143 -0.71269945 3.33944736 -1 1 C-0.67 0.67 -0.34 0.34 0 0 Z " fill="#101112" transform="translate(80,49)"/>
<path d="M0 0 C2 1 2 1 3 3 C3.52427997 10.59197727 4.08481635 19.22559263 0 26 C-0.99 26.33 -1.98 26.66 -3 27 C-5 24 -5 24 -4.8125 21.875 C-4.3519652 20.24541533 -3.86432363 18.62145544 -3.29296875 17.02734375 C-1.25571824 11.33709233 -0.36508163 6.03014148 0 0 Z " fill="#141516" transform="translate(47,67)"/>
<path d="M0 0 C0.8353125 0.2165625 0.8353125 0.2165625 1.6875 0.4375 C6.42442992 1.91753526 6.42442992 1.91753526 11 1 C12.125 7.75 12.125 7.75 11 10 C7.71585695 10.95067299 6.30306592 11.10102197 3 10 C3 9.34 3 8.68 3 8 C2.01 7.67 1.02 7.34 0 7 C0 6.34 0 5.68 0 5 C-0.99 4.67 -1.98 4.34 -3 4 C-2.67 3.34 -2.34 2.68 -2 2 C-1.34 2 -0.68 2 0 2 C0 1.34 0 0.68 0 0 Z " fill="#101010" transform="translate(78,101)"/>
<path d="M0 0 C1.9375 1.5625 1.9375 1.5625 3 3 C1.0625 5.0625 1.0625 5.0625 -2 7 C-5.08062179 7.05666696 -7.98465651 6.60438257 -11 6 C-11 2 -11 2 -9.4375 0.1875 C-5.94316667 -1.51486752 -3.70705832 -0.94361485 0 0 Z " fill="#030404" transform="translate(32,57)"/>
<path d="M0 0 C0.33 1.32 0.66 2.64 1 4 C1.66 4 2.32 4 3 4 C2.83757813 4.69996094 2.67515625 5.39992188 2.5078125 6.12109375 C1.97177925 9.15998993 1.86720233 11.97852282 1.875 15.0625 C1.87242188 16.08472656 1.86984375 17.10695313 1.8671875 18.16015625 C1.98206462 20.61649932 2.29224959 22.65768316 3 25 C2.34 25 1.68 25 1 25 C-2.98009626 18.2006689 -2.69370978 10.67585366 -2 3 C-1.34 2.01 -0.68 1.02 0 0 Z " fill="#060606" transform="translate(27,21)"/>
<path d="M0 0 C0.66 0.33 1.32 0.66 2 1 C1.72285156 1.57105469 1.44570313 2.14210938 1.16015625 2.73046875 C-1.99736794 9.79837876 -2.75871045 16.30286333 -3 24 C-4.32 23.67 -5.64 23.34 -7 23 C-7.63891598 14.53436333 -5.41794222 6.6443532 0 0 Z " fill="#232527" transform="translate(24,13)"/>
<path d="M0 0 C0.66 1.32 1.32 2.64 2 4 C4.03317007 5.73425773 4.03317007 5.73425773 6 7 C5.34 7 4.68 7 4 7 C4 11.29 4 15.58 4 20 C2.68 19.34 1.36 18.68 0 18 C0 12.06 0 6.12 0 0 Z " fill="#192C38" transform="translate(74,71)"/>
<path d="M0 0 C0.309375 0.928125 0.309375 0.928125 0.625 1.875 C2.54775888 4.84653645 4.66594527 5.13024659 8 6 C6.625 8.5 6.625 8.5 5 11 C4.34 11 3.68 11 3 11 C3 11.99 3 12.98 3 14 C2.34 14 1.68 14 1 14 C0.896875 13.113125 0.79375 12.22625 0.6875 11.3125 C-0.01190702 7.9426298 -1.08742511 5.82728462 -3 3 C-2.01 2.01 -1.02 1.02 0 0 Z " fill="#0B0F11" transform="translate(66,2)"/>
<path d="M0 0 C2 2 2 2 2.22705078 3.97119141 C2.21657715 4.75671387 2.20610352 5.54223633 2.1953125 6.3515625 C2.18886719 7.20234375 2.18242188 8.053125 2.17578125 8.9296875 C2.15902344 9.81914063 2.14226562 10.70859375 2.125 11.625 C2.11597656 12.5221875 2.10695313 13.419375 2.09765625 14.34375 C2.0740497 16.56276586 2.0411231 18.78125077 2 21 C1.67 21 1.34 21 1 21 C1 18.69 1 16.38 1 14 C0.01 13.67 -0.98 13.34 -2 13 C-2 9.37 -2 5.74 -2 2 C-1.34 2 -0.68 2 0 2 C0 1.34 0 0.68 0 0 Z " fill="#16232B" transform="translate(69,69)"/>
<path d="M0 0 C1.32 0.66 2.64 1.32 4 2 C3.01 4.97 2.02 7.94 1 11 C-0.32 11 -1.64 11 -3 11 C-3.66 11.66 -4.32 12.32 -5 13 C-3.25740319 3.40546697 -3.25740319 3.40546697 0 0 Z " fill="#040505" transform="translate(42,91)"/>
<path d="M0 0 C3.93673644 1.31224548 6.22719294 2.91910327 9 6 C8.67 6.99 8.34 7.98 8 9 C4.44579276 8.70381606 3.19662957 8.19662957 0.625 5.625 C0.08875 4.75875 -0.4475 3.8925 -1 3 C-0.67 2.01 -0.34 1.02 0 0 Z " fill="#2F85B5" transform="translate(79,95)"/>
<path d="M0 0 C0.99 0.66 1.98 1.32 3 2 C3.4375 8.125 3.4375 8.125 2 11 C1.34 11 0.68 11 0 11 C-0.33 11.99 -0.66 12.98 -1 14 C-1.66 13.67 -2.32 13.34 -3 13 C-3 9.41936487 -2.65592475 7.52512014 -1.5 4.25 C-1.2215625 3.45078125 -0.943125 2.6515625 -0.65625 1.828125 C-0.4396875 1.22484375 -0.223125 0.6215625 0 0 Z " fill="#131414" transform="translate(50,15)"/>
<path d="M0 0 C2.05078125 0.03255208 4.1015625 0.06510417 6.15234375 0.09765625 C6.71484375 2.03515625 6.71484375 2.03515625 7.15234375 4.09765625 C6.15234375 5.09765625 6.15234375 5.09765625 4.3046875 5.1953125 C2.25390625 5.16276042 0.203125 5.13020833 -1.84765625 5.09765625 C-2.41015625 3.16015625 -2.41015625 3.16015625 -2.84765625 1.09765625 C-1.84765625 0.09765625 -1.84765625 0.09765625 0 0 Z " fill="#3096CE" transform="translate(74.84765625,31.90234375)"/>
<path d="M0 0 C0.66 0.33 1.32 0.66 2 1 C1.37935063 2.60585493 0.7533082 4.20962617 0.125 5.8125 C-0.22304688 6.70582031 -0.57109375 7.59914063 -0.9296875 8.51953125 C-2 11 -2 11 -4 14 C-4.66 14 -5.32 14 -6 14 C-5.41162314 9.29298514 -3.44104424 3.44104424 0 0 Z " fill="#373839" transform="translate(24,13)"/>
<path d="M0 0 C0.66 0.33 1.32 0.66 2 1 C2.37890625 2.92578125 2.37890625 2.92578125 2.5625 5.3125 C2.80590173 8.31776628 3.1945856 11.0911893 4 14 C3.34 14 2.68 14 2 14 C-0.66464729 8.77729131 -1.32854177 5.9180497 0 0 Z " fill="#131414" transform="translate(26,32)"/>
<path d="M0 0 C0.99 0.33 1.98 0.66 3 1 C3 3.97 3 6.94 3 10 C2.01 10 1.02 10 0 10 C0 6.7 0 3.4 0 0 Z " fill="#151515" transform="translate(67,82)"/>
<path d="M0 0 C0.66 0 1.32 0 2 0 C2.25 6.625 2.25 6.625 0 10 C-0.66 10 -1.32 10 -2 10 C-1.85950482 8.52031676 -1.71245174 7.04125484 -1.5625 5.5625 C-1.48128906 4.73878906 -1.40007813 3.91507812 -1.31640625 3.06640625 C-1 1 -1 1 0 0 Z " fill="#191A1B" transform="translate(32,98)"/>
<path d="M0 0 C1.485 0.99 1.485 0.99 3 2 C3.3125 5 3.3125 5 3 8 C2.34 8.66 1.68 9.32 1 10 C0.34 9.34 -0.32 8.68 -1 8 C-0.96712417 5.27130593 -0.43602229 2.7033382 0 0 Z " fill="#191919" transform="translate(97,35)"/>
<path d="M0 0 C1.26026798 2.52053595 0.91874445 3.8542098 0.5625 6.625 C0.40974609 7.85089844 0.40974609 7.85089844 0.25390625 9.1015625 C0.17011719 9.72804688 0.08632812 10.35453125 0 11 C-0.99 10.67 -1.98 10.34 -3 10 C-3.36923077 4.58461538 -3.36923077 4.58461538 -1.5 1.625 C-1.005 1.08875 -0.51 0.5525 0 0 Z " fill="#202020" transform="translate(72,31)"/>
<path d="M0 0 C0.99 0 1.98 0 3 0 C2.54738642 1.43931117 2.08767021 2.87638999 1.625 4.3125 C1.36976562 5.11300781 1.11453125 5.91351563 0.8515625 6.73828125 C0 9 0 9 -2 12 C-3.15957207 8.52128379 -2.77456651 7.65780355 -1.5625 4.3125 C-1.13130859 3.10013672 -1.13130859 3.10013672 -0.69140625 1.86328125 C-0.46324219 1.24839844 -0.23507813 0.63351563 0 0 Z " fill="#2A2F31" transform="translate(37,32)"/>
<path d="M0 0 C0.66 0 1.32 0 2 0 C0.7874262 3.72433382 -0.50859979 7.37802806 -2 11 C-2.66 11 -3.32 11 -4 11 C-3.39301257 6.87248551 -1.96189209 3.6678852 0 0 Z " fill="#121212" transform="translate(37,86)"/>
<path d="M0 0 C2 1 2 1 3 3 C3.039992 4.99960012 3.04346799 7.00047242 3 9 C2.01 9.495 2.01 9.495 1 10 C-0.60725635 6.78548731 -0.05748185 3.56387464 0 0 Z " fill="#1D1D1D" transform="translate(47,67)"/>
<path d="M0 0 C0.66 0 1.32 0 2 0 C2.69699552 1.45381897 3.38233866 2.91322953 4.0625 4.375 C4.63677734 5.59316406 4.63677734 5.59316406 5.22265625 6.8359375 C5.47917969 7.55007812 5.73570313 8.26421875 6 9 C5.67 9.66 5.34 10.32 5 11 C4.34 11 3.68 11 3 11 C2.01 7.37 1.02 3.74 0 0 Z " fill="#141414" transform="translate(82,11)"/>
<path d="M0 0 C0.6875 1.625 0.6875 1.625 1 4 C-0.4375 7.25 -0.4375 7.25 -2 10 C-2.66 10 -3.32 10 -4 10 C-3.5205537 5.78087253 -2.83374881 3.20336822 0 0 Z " fill="#2E373C" transform="translate(45,15)"/>
<path d="M0 0 C1.42944945 2.35438733 2.08661261 3.48032433 1.625 6.25 C1.41875 6.8275 1.2125 7.405 1 8 C-2 6 -2 6 -2.6875 3.875 C-2.790625 3.25625 -2.89375 2.6375 -3 2 C-2.01 1.34 -1.02 0.68 0 0 Z " fill="#040607" transform="translate(66,2)"/>
<path d="M0 0 C0.33 0 0.66 0 1 0 C1.33 2.64 1.66 5.28 2 8 C0.68 8 -0.64 8 -2 8 C-2 6.02 -2 4.04 -2 2 C-1.34 2 -0.68 2 0 2 C0 1.34 0 0.68 0 0 Z " fill="#040404" transform="translate(87,20)"/>
<path d="M0 0 C1.485 0.99 1.485 0.99 3 2 C3.1875 5.125 3.1875 5.125 3 8 C2.01 7.67 1.02 7.34 0 7 C0 4.69 0 2.38 0 0 Z " fill="#070D11" transform="translate(75,83)"/>
<path d="M0 0 C0 3 0 3 -2.375 5.6875 C-5 8 -5 8 -7 8 C-5.61918777 3.8575633 -3.40174442 2.67796901 0 0 Z " fill="#5CA1C4" transform="translate(21,53)"/>
<path d="M0 0 C0.66 0 1.32 0 2 0 C2.33 2.31 2.66 4.62 3 7 C1.68 6.67 0.36 6.34 -1 6 C-0.67 4.02 -0.34 2.04 0 0 Z " fill="#1F2122" transform="translate(88,40)"/>
<path d="M0 0 C0.33 0.99 0.66 1.98 1 3 C-1 6 -1 6 -3 7 C-3 5.02 -3 3.04 -3 1 C-2.01 0.67 -1.02 0.34 0 0 Z " fill="#000000" transform="translate(28,27)"/>
<path d="M0 0 C0.66 0.33 1.32 0.66 2 1 C-0.31 3.31 -2.62 5.62 -5 8 C-5.33 7.01 -5.66 6.02 -6 5 C-4.02 3.35 -2.04 1.7 0 0 Z " fill="#3480A8" transform="translate(32,6)"/>
</svg>
