<?xml version="1.0" encoding="UTF-8"?>
<svg version="1.1" xmlns="http://www.w3.org/2000/svg" width="81" height="96">
<path d="M0 0 C1.921875 1.19140625 1.921875 1.19140625 3.75 2.5625 C4.67039062 3.24505859 4.67039062 3.24505859 5.609375 3.94140625 C6.29773437 4.46541016 6.29773437 4.46541016 7 5 C6.42655063 7.86724686 6.1385485 8.8614515 4 11 C5.32 12.32 6.64 13.64 8 15 C7.690625 15.7425 7.38125 16.485 7.0625 17.25 C5.15967852 21.58151687 5.15967852 21.58151687 5.77734375 26.03515625 C6.35162109 27.03869141 6.35162109 27.03869141 6.9375 28.0625 C8.4808296 30.78817702 9 31.777072 9 35 C-3.21 35 -15.42 35 -28 35 C-28 15.16571429 -28 15.16571429 -22.6328125 8.234375 C-17.66950499 3.34514671 -6.9079773 -2.96265693 0 0 Z " fill="#FFFFFF" transform="translate(28,61)"/>
<path d="M0 0 C0.81339844 0.29648437 1.62679687 0.59296875 2.46484375 0.8984375 C9.17174355 3.50977619 12.43039233 7.02315788 15.8125 13.4375 C17 18 17 18 17 33 C4.79 33 -7.42 33 -20 33 C-19 28 -19 28 -17.375 24.9375 C-15.80472929 22.22572894 -15.80472929 22.22572894 -16.1875 19.9375 C-16.5896875 18.9784375 -16.5896875 18.9784375 -17 18 C-17.350625 17.0925 -17.70125 16.185 -18.0625 15.25 C-18.371875 14.5075 -18.68125 13.765 -19 13 C-18.01 12.01 -17.02 11.02 -16 10 C-16.350625 9.4225 -16.70125 8.845 -17.0625 8.25 C-18.18843538 5.54775509 -17.98299746 4.70582984 -17 2 C-11.82145314 -4.44546964 -6.85247284 -2.90837778 0 0 Z " fill="#FFFFFF" transform="translate(64,63)"/>
<path d="M0 0 C3.3125 1.0625 3.3125 1.0625 5.609375 3.0546875 C8.79506918 5.42094011 10.97676191 5.7215019 14.875 6.25 C20.80992907 7.45710422 20.80992907 7.45710422 23.01171875 10.109375 C24.03125394 12.42891231 24.74803676 14.59511146 25.3125 17.0625 C25.50328125 17.81660156 25.6940625 18.57070313 25.890625 19.34765625 C26.02984375 19.91355469 26.1690625 20.47945312 26.3125 21.0625 C24.28125 23.171875 24.28125 23.171875 21.3125 25.0625 C18.54303398 24.68261749 16.41962417 24.18154139 13.8125 23.3125 C2.50754081 20.06631755 -7.05879249 20.2695975 -18.22070312 23.99023438 C-20.15625 24.578125 -20.15625 24.578125 -23.6875 25.0625 C-26.65625 23.171875 -26.65625 23.171875 -28.6875 21.0625 C-28.36204495 19.72722179 -28.02672261 18.39434718 -27.6875 17.0625 C-27.50574219 16.31871094 -27.32398438 15.57492187 -27.13671875 14.80859375 C-26.26200372 12.15753434 -25.43011089 10.25860963 -23.6875 8.0625 C-20.70961935 6.85643641 -17.88451637 6.30322947 -14.72265625 5.75 C-11.64454943 5.05277117 -9.90927358 4.13757373 -7.375 2.3125 C-4.43686771 0.29481994 -3.79655933 0.06434846 0 0 Z " fill="#FFFFFF" transform="translate(41.6875,-0.0625)"/>
<path d="M0 0 C0.495 0.268125 0.99 0.53625 1.5 0.8125 C2.325 1.204375 3.15 1.59625 4 2 C5.051875 2.53625 6.10375 3.0725 7.1875 3.625 C15.50443328 6.66778047 26.68350694 6.36318985 34.875 3.0625 C36.25762157 2.3904592 37.63418724 1.70557547 39 1 C39.99 0.67 40.98 0.34 42 0 C42.45364929 6.35109004 41.72731868 10.74045993 38 16 C34.00946589 20.18496848 29.90854008 23.63450885 24.046875 24.37109375 C15.49226958 24.54340215 10.70820675 23.3943263 4.4765625 17.578125 C0.53827481 13.34389661 -0.81755021 8.79756345 -1.1875 3.125 C-1 1 -1 1 0 0 Z " fill="#FFFFFF" transform="translate(20,34)"/>
<path d="M0 0 C-1.4595886 3.8480063 -3.33899114 5.21206544 -7 7 C-15.48677538 9.17033938 -26.11158933 9.21699985 -34.32421875 6 C-36.83148226 4.50382411 -37.92107823 2.66134036 -39 0 C-26.61509809 -5.58534792 -12.38568109 -6.19284055 0 0 Z " fill="#FFFFFF" transform="translate(60,31)"/>
<path d="M0 0 C2.31 1.98 4.62 3.96 7 6 C6.34 7.32 5.68 8.64 5 10 C4.67 10.99 4.34 11.98 4 13 C4.495 13.598125 4.99 14.19625 5.5 14.8125 C7 17 7 17 6.9375 19.75 C5.77163119 23.79167856 4.00926437 27.31790622 2 31 C-0.55570992 29.9992378 -1.79700949 29.31576301 -3.30078125 26.9765625 C-3.63464844 26.20054688 -3.96851563 25.42453125 -4.3125 24.625 C-4.65925781 23.85414062 -5.00601563 23.08328125 -5.36328125 22.2890625 C-6.51537126 18.14719289 -4.59963593 14.83912623 -3 11 C-3.99 10.01 -4.98 9.02 -6 8 C-4.55746343 4.63408134 -2.66735273 2.48952921 0 0 Z " fill="#FFFFFF" transform="translate(40,65)"/>
<path d="M0 0 C0 1.32 0 2.64 0 4 C-6.6021164 3.09382716 -6.6021164 3.09382716 -9.203125 2.48046875 C-20.09327695 0.60967449 -31.55527849 1.55938586 -42 5 C-42.33 3.68 -42.66 2.36 -43 1 C-29.42876309 -7.06938411 -14.22923081 -4.3014139 0 0 Z " fill="#FFFFFF" transform="translate(62,25)"/>
</svg>
