<svg width="97" height="100" version="1.1" xmlns="http://www.w3.org/2000/svg" desc="Created with imagetracer.js version 1.2.6" ><path fill="rgb(0,0,0)" stroke="rgb(0,0,0)" stroke-width="1" opacity="0" d="M 0 0 L 64 0.5 Q 55.6 2.6 51 8.5 Q 44 15.5 45 30.5 Q 47 39.5 53 44.5 L 53 47.5 L 52 52.5 L 54.5 55 L 63.5 56 L 78.5 53 Q 87.5 49.5 93 42.5 L 96.5 34 L 97 100 L 0 100 L 0 0 Z M 23 23 L 21 24 L 19 28 L 26 32 L 36 45 L 40 47 L 43 43 L 43 39 L 39 32 L 31 24 L 23 23 Z M 16 30 L 10 42 Q 10 66 23 78 Q 34 90 53 96 Q 70 98 77 91 L 73 83 Q 67 75 58 70 L 53 71 L 45 68 L 37 60 L 36 49 L 31 41 L 22 32 Q 20 29 16 30 Z M 63 64 Q 59 65 60 69 L 67 73 Q 74 77 77 86 L 81 88 L 84 84 Q 85 76 81 74 L 72 65 L 63 64 Z " /><path fill="rgb(0,0,0)" stroke="rgb(0,0,0)" stroke-width="1" opacity="0" d="M 78.5 0 L 97 0 L 97 18.5 L 96 18.5 L 95 13.5 L 86.5 4 L 78.5 1 L 78.5 0 Z " /><path fill="rgb(0,0,0)" stroke="rgb(0,0,0)" stroke-width="1" opacity="0" d="M 70.5 14 L 76 16.5 L 77 22 Q 82.5 20.8 84 24.5 Q 85.5 30.5 82.5 32 L 77 33 Q 77.8 38 74.5 40 L 70.5 41 L 67 40 L 66 33 Q 60.5 34.3 59 30.5 L 58 25.5 Q 60.1 21.1 66 22 Q 64.8 16.5 68.5 15 L 70.5 14 Z M 70 17 Q 67 18 68 24 Q 66 26 61 25 Q 58 33 67 30 L 70 38 Q 77 40 74 33 L 80 30 L 82 30 L 82 25 Q 77 26 74 23 Q 77 15 70 17 Z " /><path fill="rgb(255,255,255)" stroke="rgb(255,255,255)" stroke-width="1" opacity="0.8470588235294118" d="M 73.5 0 L 76 0.5 L 73.5 1 L 73.5 0 Z " /><path fill="rgb(255,255,255)" stroke="rgb(255,255,255)" stroke-width="1" opacity="0.8470588235294118" d="M 85.5 4 L 86.5 6 L 85.5 4 Z " /><path fill="rgb(255,255,255)" stroke="rgb(255,255,255)" stroke-width="1" opacity="0.8470588235294118" d="M 54.5 6 L 51.5 10 L 54.5 6 Z " /><path fill="rgb(255,255,255)" stroke="rgb(255,255,255)" stroke-width="1" opacity="0.8470588235294118" d="M 67.5 14 L 66.5 16 L 67.5 14 Z " /><path fill="rgb(255,255,255)" stroke="rgb(255,255,255)" stroke-width="1" opacity="0.8470588235294118" d="M 70.5 17 L 73 17.5 L 70.5 18 L 70.5 17 Z " /><path fill="rgb(255,255,255)" stroke="rgb(255,255,255)" stroke-width="1" opacity="0.8470588235294118" d="M 73.5 19 L 74 21.5 L 73 21.5 L 73.5 19 Z " /><path fill="rgb(255,255,255)" stroke="rgb(255,255,255)" stroke-width="1" opacity="0.8470588235294118" d="M 77.5 20 L 81 21.5 L 78.5 22 L 77.5 20 Z " /><path fill="rgb(255,255,255)" stroke="rgb(255,255,255)" stroke-width="1" opacity="0.8470588235294118" d="M 62.5 21 L 65 21.5 L 62.5 22 L 62.5 21 Z " /><path fill="rgb(255,255,255)" stroke="rgb(255,255,255)" stroke-width="1" opacity="0.8470588235294118" d="M 96.5 21 L 97 23.5 L 96 23.5 L 96.5 21 Z " /><path fill="rgb(255,255,255)" stroke="rgb(255,255,255)" stroke-width="1" opacity="0.8470588235294118" d="M 59.5 22 L 58.5 24 L 59.5 22 Z " /><path fill="rgb(255,255,255)" stroke="rgb(255,255,255)" stroke-width="1" opacity="0.8470588235294118" d="M 23.5 23 L 27 23.5 L 23.5 24 L 23.5 23 Z " /><path fill="rgb(255,255,255)" stroke="rgb(255,255,255)" stroke-width="1" opacity="0.8470588235294118" d="M 57.5 25 L 58 28.5 L 57 28.5 L 57.5 25 Z " /><path fill="rgb(255,255,255)" stroke="rgb(255,255,255)" stroke-width="1" opacity="0.8470588235294118" d="M 33.5 27 L 38.5 33 L 33.5 27 Z " /><path fill="rgb(255,255,255)" stroke="rgb(255,255,255)" stroke-width="1" opacity="0.8470588235294118" d="M 24.5 30 L 25.5 32 L 24.5 30 Z " /><path fill="rgb(255,255,255)" stroke="rgb(255,255,255)" stroke-width="1" opacity="0.8470588235294118" d="M 58.5 31 L 59.5 33 L 58.5 31 Z " /><path fill="rgb(255,255,255)" stroke="rgb(255,255,255)" stroke-width="1" opacity="0.8470588235294118" d="M 20.5 32 L 21.5 34 L 20.5 32 Z " /><path fill="rgb(255,255,255)" stroke="rgb(255,255,255)" stroke-width="1" opacity="0.8470588235294118" d="M 61.5 33 L 65 33.5 L 61.5 34 L 61.5 33 Z " /><path fill="rgb(255,255,255)" stroke="rgb(255,255,255)" stroke-width="1" opacity="0.8470588235294118" d="M 73.5 33 L 74 36.5 L 73 36.5 L 73.5 33 Z " /><path fill="rgb(255,255,255)" stroke="rgb(255,255,255)" stroke-width="1" opacity="0.8470588235294118" d="M 78.5 33 L 80 33.5 L 78 34 L 77.5 36 L 77 34.5 L 78.5 33 Z " /><path fill="rgb(255,255,255)" stroke="rgb(255,255,255)" stroke-width="1" opacity="0.8470588235294118" d="M 24.5 35 L 30.5 42 L 24.5 35 Z " /><path fill="rgb(255,255,255)" stroke="rgb(255,255,255)" stroke-width="1" opacity="0.8470588235294118" d="M 33.5 39 L 34.5 41 L 33.5 39 Z " /><path fill="rgb(255,255,255)" stroke="rgb(255,255,255)" stroke-width="1" opacity="0.8470588235294118" d="M 66.5 39 L 67.5 41 L 66.5 39 Z " /><path fill="rgb(255,255,255)" stroke="rgb(255,255,255)" stroke-width="1" opacity="0.8470588235294118" d="M 50.5 40 L 51.5 42 L 50.5 40 Z " /><path fill="rgb(255,255,255)" stroke="rgb(255,255,255)" stroke-width="1" opacity="0.8470588235294118" d="M 91.5 42 L 90.5 44 L 91.5 42 Z " /><path fill="rgb(255,255,255)" stroke="rgb(255,255,255)" stroke-width="1" opacity="0.8470588235294118" d="M 41.5 43 L 40.5 45 L 41.5 43 Z " /><path fill="rgb(255,255,255)" stroke="rgb(255,255,255)" stroke-width="1" opacity="0.8470588235294118" d="M 87.5 46 L 86.5 48 L 87.5 46 Z " /><path fill="rgb(255,255,255)" stroke="rgb(255,255,255)" stroke-width="1" opacity="0.8470588235294118" d="M 35.5 49 L 36 56.5 L 35 56.5 L 35.5 49 Z " /><path fill="rgb(255,255,255)" stroke="rgb(255,255,255)" stroke-width="1" opacity="0.8470588235294118" d="M 56.5 54 L 59 54.5 L 56.5 55 L 56.5 54 Z " /><path fill="rgb(255,255,255)" stroke="rgb(255,255,255)" stroke-width="1" opacity="0.8470588235294118" d="M 64.5 64 L 69 64.5 L 64.5 65 L 64.5 64 Z " /><path fill="rgb(255,255,255)" stroke="rgb(255,255,255)" stroke-width="1" opacity="0.8470588235294118" d="M 40.5 65 L 41.5 67 L 40.5 65 Z " /><path fill="rgb(255,255,255)" stroke="rgb(255,255,255)" stroke-width="1" opacity="0.8470588235294118" d="M 73.5 67 L 74.5 69 L 73.5 67 Z " /><path fill="rgb(255,255,255)" stroke="rgb(255,255,255)" stroke-width="1" opacity="0.8470588235294118" d="M 19.5 71 L 20.5 73 L 19.5 71 Z " /><path fill="rgb(255,255,255)" stroke="rgb(255,255,255)" stroke-width="1" opacity="0.8470588235294118" d="M 65.5 71 L 66.5 73 L 65.5 71 Z " /><path fill="rgb(255,255,255)" stroke="rgb(255,255,255)" stroke-width="1" opacity="0.8470588235294118" d="M 64.5 75 L 66.5 78 L 64.5 75 Z " /><path fill="rgb(255,255,255)" stroke="rgb(255,255,255)" stroke-width="1" opacity="0.8470588235294118" d="M 23.5 76 L 28.5 82 L 23.5 76 Z " /><path fill="rgb(255,255,255)" stroke="rgb(255,255,255)" stroke-width="1" opacity="0.8470588235294118" d="M 69.5 80 L 71.5 83 L 69.5 80 Z " /><path fill="rgb(255,255,255)" stroke="rgb(255,255,255)" stroke-width="1" opacity="0.8470588235294118" d="M 75.5 81 L 76.5 83 L 75.5 81 Z " /><path fill="rgb(255,255,255)" stroke="rgb(255,255,255)" stroke-width="1" opacity="0.8470588235294118" d="M 36.5 87 L 37.5 89 L 36.5 87 Z " /><path fill="rgb(255,255,255)" stroke="rgb(255,255,255)" stroke-width="1" opacity="0.8470588235294118" d="M 55.5 95 L 64 95.5 L 55.5 96 L 55.5 95 Z " /><path fill="rgb(255,255,255)" stroke="rgb(255,255,255)" stroke-width="1" opacity="0.32941176470588235" d="M 64.5 0 L 67 0.5 L 64.5 1 L 64.5 0 Z " /><path fill="rgb(255,255,255)" stroke="rgb(255,255,255)" stroke-width="1" opacity="0.32941176470588235" d="M 59.5 2 L 58.5 4 L 55.5 6 L 57.5 3 L 59.5 2 Z " /><path fill="rgb(255,255,255)" stroke="rgb(255,255,255)" stroke-width="1" opacity="0.32941176470588235" d="M 86.5 4 L 92.5 11 L 86.5 4 Z " /><path fill="rgb(255,255,255)" stroke="rgb(255,255,255)" stroke-width="1" opacity="0.32941176470588235" d="M 53.5 6 L 51.5 9 L 53.5 6 Z " /><path fill="rgb(255,255,255)" stroke="rgb(255,255,255)" stroke-width="1" opacity="0.32941176470588235" d="M 50.5 10 L 49.5 12 L 50.5 10 Z " /><path fill="rgb(255,255,255)" stroke="rgb(255,255,255)" stroke-width="1" opacity="0.32941176470588235" d="M 93.5 12 L 95 14.5 L 94 14.5 L 93.5 12 Z " /><path fill="rgb(255,255,255)" stroke="rgb(255,255,255)" stroke-width="1" opacity="0.32941176470588235" d="M 68.5 14 L 70 14.5 L 66.5 17 L 68.5 14 Z " /><path fill="rgb(255,255,255)" stroke="rgb(255,255,255)" stroke-width="1" opacity="0.32941176470588235" d="M 69.5 17 L 69 18.5 Q 70.3 23.8 67.5 25 L 68 23.5 Q 66.8 18.3 69.5 17 Z " /><path fill="rgb(255,255,255)" stroke="rgb(255,255,255)" stroke-width="1" opacity="0.32941176470588235" d="M 65.5 19 L 66 21.5 L 65 21.5 L 65.5 19 Z " /><path fill="rgb(255,255,255)" stroke="rgb(255,255,255)" stroke-width="1" opacity="0.32941176470588235" d="M 45.5 21 L 46 30.5 L 45 30.5 L 45.5 21 Z " /><path fill="rgb(255,255,255)" stroke="rgb(255,255,255)" stroke-width="1" opacity="0.32941176470588235" d="M 60.5 22 L 62 22.5 L 58.5 25 L 60.5 22 Z " /><path fill="rgb(255,255,255)" stroke="rgb(255,255,255)" stroke-width="1" opacity="0.32941176470588235" d="M 82.5 22 L 83.5 24 L 82.5 22 Z " /><path fill="rgb(255,255,255)" stroke="rgb(255,255,255)" stroke-width="1" opacity="0.32941176470588235" d="M 27.5 23 L 33 26.5 L 30.5 25 Q 26.8 24.8 27.5 23 Z " /><path fill="rgb(255,255,255)" stroke="rgb(255,255,255)" stroke-width="1" opacity="0.32941176470588235" d="M 74.5 23 L 78 24.5 L 75.5 25 L 74.5 23 Z " /><path fill="rgb(255,255,255)" stroke="rgb(255,255,255)" stroke-width="1" opacity="0.32941176470588235" d="M 20.5 24 L 19.5 26 L 20.5 24 Z " /><path fill="rgb(255,255,255)" stroke="rgb(255,255,255)" stroke-width="1" opacity="0.32941176470588235" d="M 81.5 25 L 82 29.5 L 81 29.5 L 81.5 25 Z " /><path fill="rgb(255,255,255)" stroke="rgb(255,255,255)" stroke-width="1" opacity="0.32941176470588235" d="M 84.5 25 L 85 29.5 L 84 29.5 L 84.5 25 Z " /><path fill="rgb(255,255,255)" stroke="rgb(255,255,255)" stroke-width="1" opacity="0.32941176470588235" d="M 19.5 27 L 25 31.5 L 22.5 30 L 19.5 27 Z " /><path fill="rgb(255,255,255)" stroke="rgb(255,255,255)" stroke-width="1" opacity="0.32941176470588235" d="M 34.5 27 L 38.5 32 L 34.5 27 Z " /><path fill="rgb(255,255,255)" stroke="rgb(255,255,255)" stroke-width="1" opacity="0.32941176470588235" d="M 58.5 29 L 61 32.5 L 58 30.5 L 58.5 29 Z " /><path fill="rgb(255,255,255)" stroke="rgb(255,255,255)" stroke-width="1" opacity="0.32941176470588235" d="M 15.5 30 L 14.5 32 L 15.5 30 Z " /><path fill="rgb(255,255,255)" stroke="rgb(255,255,255)" stroke-width="1" opacity="0.32941176470588235" d="M 18.5 30 L 19.5 32 L 18.5 30 Z " /><path fill="rgb(255,255,255)" stroke="rgb(255,255,255)" stroke-width="1" opacity="0.32941176470588235" d="M 67.5 30 L 69 31.5 Q 67.8 36.2 70 37.5 L 68 36.5 L 67.5 30 Z " /><path fill="rgb(255,255,255)" stroke="rgb(255,255,255)" stroke-width="1" opacity="0.32941176470588235" d="M 75.5 30 L 79 30.5 L 74.5 32 L 75.5 30 Z " /><path fill="rgb(255,255,255)" stroke="rgb(255,255,255)" stroke-width="1" opacity="0.32941176470588235" d="M 96.5 31 L 97 33.5 L 96 33.5 L 96.5 31 Z " /><path fill="rgb(255,255,255)" stroke="rgb(255,255,255)" stroke-width="1" opacity="0.32941176470588235" d="M 21.5 32 L 23.5 35 L 21.5 32 Z " /><path fill="rgb(255,255,255)" stroke="rgb(255,255,255)" stroke-width="1" opacity="0.32941176470588235" d="M 26.5 32 L 32.5 39 L 26.5 32 Z " /><path fill="rgb(255,255,255)" stroke="rgb(255,255,255)" stroke-width="1" opacity="0.32941176470588235" d="M 39.5 33 L 40.5 35 L 39.5 33 Z " /><path fill="rgb(255,255,255)" stroke="rgb(255,255,255)" stroke-width="1" opacity="0.32941176470588235" d="M 65.5 33 L 66 36.5 L 65 36.5 L 65.5 33 Z " /><path fill="rgb(255,255,255)" stroke="rgb(255,255,255)" stroke-width="1" opacity="0.32941176470588235" d="M 25.5 35 L 30.5 41 L 25.5 35 Z " /><path fill="rgb(255,255,255)" stroke="rgb(255,255,255)" stroke-width="1" opacity="0.32941176470588235" d="M 47.5 35 L 50 39.5 L 48 38.5 L 47.5 35 Z " /><path fill="rgb(255,255,255)" stroke="rgb(255,255,255)" stroke-width="1" opacity="0.32941176470588235" d="M 76.5 37 L 77 38.5 L 75 39.5 L 76.5 37 Z " /><path fill="rgb(255,255,255)" stroke="rgb(255,255,255)" stroke-width="1" opacity="0.32941176470588235" d="M 33.5 40 L 35.5 43 L 33.5 40 Z " /><path fill="rgb(255,255,255)" stroke="rgb(255,255,255)" stroke-width="1" opacity="0.32941176470588235" d="M 71.5 40 L 74 40.5 L 71.5 41 L 71.5 40 Z " /><path fill="rgb(255,255,255)" stroke="rgb(255,255,255)" stroke-width="1" opacity="0.32941176470588235" d="M 93.5 40 L 93 41.5 L 87.5 48 L 92 42.5 L 93.5 40 Z " /><path fill="rgb(255,255,255)" stroke="rgb(255,255,255)" stroke-width="1" opacity="0.32941176470588235" d="M 10.5 41 L 11 51.5 L 10 51.5 L 10.5 41 Z " /><path fill="rgb(255,255,255)" stroke="rgb(255,255,255)" stroke-width="1" opacity="0.32941176470588235" d="M 50.5 41 L 52.5 44 L 50.5 41 Z " /><path fill="rgb(255,255,255)" stroke="rgb(255,255,255)" stroke-width="1" opacity="0.32941176470588235" d="M 31.5 42 L 35 46.5 L 33 45.5 L 31.5 42 Z " /><path fill="rgb(255,255,255)" stroke="rgb(255,255,255)" stroke-width="1" opacity="0.32941176470588235" d="M 36.5 44 L 39.5 46 L 42 44.5 L 38.5 47 L 36.5 44 Z " /><path fill="rgb(255,255,255)" stroke="rgb(255,255,255)" stroke-width="1" opacity="0.32941176470588235" d="M 85.5 48 L 84.5 50 L 85.5 48 Z " /><path fill="rgb(255,255,255)" stroke="rgb(255,255,255)" stroke-width="1" opacity="0.32941176470588235" d="M 52.5 51 L 54.5 54 L 56 54.5 L 54.5 55 Q 50.9 53.9 52.5 51 Z " /><path fill="rgb(255,255,255)" stroke="rgb(255,255,255)" stroke-width="1" opacity="0.32941176470588235" d="M 73.5 53 L 76 53.5 L 73.5 54 L 73.5 53 Z " /><path fill="rgb(255,255,255)" stroke="rgb(255,255,255)" stroke-width="1" opacity="0.32941176470588235" d="M 67.5 54 L 71 54.5 L 67.5 55 L 67.5 54 Z " /><path fill="rgb(255,255,255)" stroke="rgb(255,255,255)" stroke-width="1" opacity="0.32941176470588235" d="M 61.5 55 L 64 55.5 L 61.5 56 L 61.5 55 Z " /><path fill="rgb(255,255,255)" stroke="rgb(255,255,255)" stroke-width="1" opacity="0.32941176470588235" d="M 37.5 60 L 44 67.5 L 38 62.5 L 37.5 60 Z " /><path fill="rgb(255,255,255)" stroke="rgb(255,255,255)" stroke-width="1" opacity="0.32941176470588235" d="M 62.5 64 L 64 64.5 L 60.5 67 L 62.5 64 Z " /><path fill="rgb(255,255,255)" stroke="rgb(255,255,255)" stroke-width="1" opacity="0.32941176470588235" d="M 71.5 65 L 72.5 67 L 71.5 65 Z " /><path fill="rgb(255,255,255)" stroke="rgb(255,255,255)" stroke-width="1" opacity="0.32941176470588235" d="M 16.5 67 L 19 70.5 L 17 69.5 L 16.5 67 Z " /><path fill="rgb(255,255,255)" stroke="rgb(255,255,255)" stroke-width="1" opacity="0.32941176470588235" d="M 74.5 67 Q 81.6 71.4 84 80.5 L 83 80.5 L 82 76.5 L 74.5 67 Z " /><path fill="rgb(255,255,255)" stroke="rgb(255,255,255)" stroke-width="1" opacity="0.32941176470588235" d="M 60.5 68 L 61.5 70 L 60.5 68 Z " /><path fill="rgb(255,255,255)" stroke="rgb(255,255,255)" stroke-width="1" opacity="0.32941176470588235" d="M 49.5 70 L 52 70.5 L 49.5 71 L 49.5 70 Z " /><path fill="rgb(255,255,255)" stroke="rgb(255,255,255)" stroke-width="1" opacity="0.32941176470588235" d="M 53.5 70 L 58 70.5 L 53.5 71 L 53.5 70 Z " /><path fill="rgb(255,255,255)" stroke="rgb(255,255,255)" stroke-width="1" opacity="0.32941176470588235" d="M 63.5 70 L 65.5 73 L 63.5 70 Z " /><path fill="rgb(255,255,255)" stroke="rgb(255,255,255)" stroke-width="1" opacity="0.32941176470588235" d="M 59.5 71 L 60.5 73 L 59.5 71 Z " /><path fill="rgb(255,255,255)" stroke="rgb(255,255,255)" stroke-width="1" opacity="0.32941176470588235" d="M 19.5 72 L 22.5 76 L 19.5 72 Z " /><path fill="rgb(255,255,255)" stroke="rgb(255,255,255)" stroke-width="1" opacity="0.32941176470588235" d="M 62.5 73 L 63.5 75 L 62.5 73 Z " /><path fill="rgb(255,255,255)" stroke="rgb(255,255,255)" stroke-width="1" opacity="0.32941176470588235" d="M 67.5 73 L 74.5 81 L 67.5 73 Z " /><path fill="rgb(255,255,255)" stroke="rgb(255,255,255)" stroke-width="1" opacity="0.32941176470588235" d="M 65.5 75 L 75 85.5 L 72 83.5 L 65.5 75 Z " /><path fill="rgb(255,255,255)" stroke="rgb(255,255,255)" stroke-width="1" opacity="0.32941176470588235" d="M 23.5 77 L 27.5 82 L 23.5 77 Z " /><path fill="rgb(255,255,255)" stroke="rgb(255,255,255)" stroke-width="1" opacity="0.32941176470588235" d="M 29.5 82 L 37 88.5 L 34.5 87 L 29.5 82 Z " /><path fill="rgb(255,255,255)" stroke="rgb(255,255,255)" stroke-width="1" opacity="0.32941176470588235" d="M 75.5 82 L 79.5 87 L 82.5 85 L 80.5 88 L 77 85.5 L 75.5 82 Z " /><path fill="rgb(255,255,255)" stroke="rgb(255,255,255)" stroke-width="1" opacity="0.32941176470588235" d="M 75.5 87 L 77 90.5 L 74 92.5 L 76 88.5 L 75.5 87 Z " /><path fill="rgb(255,255,255)" stroke="rgb(255,255,255)" stroke-width="1" opacity="0.32941176470588235" d="M 40.5 90 L 45 92.5 L 43.5 93 L 40.5 90 Z " /><path fill="rgb(255,255,255)" stroke="rgb(255,255,255)" stroke-width="1" opacity="0.32941176470588235" d="M 71.5 93 L 73 93.5 L 69.5 95 L 69.5 94 L 71.5 93 Z " /><path fill="rgb(255,255,255)" stroke="rgb(255,255,255)" stroke-width="1" opacity="0.32941176470588235" d="M 52.5 95 L 55 95.5 L 52.5 96 L 52.5 95 Z " /><path fill="rgb(255,255,255)" stroke="rgb(255,255,255)" stroke-width="1" opacity="0.32941176470588235" d="M 64.5 95 L 67 95.5 L 64.5 96 L 64.5 95 Z " /><path fill="rgb(255,255,255)" stroke="rgb(255,255,255)" stroke-width="1" opacity="1" d="M 69.5 0 L 78.5 1 Q 86.9 4.1 92 10.5 L 96 18.5 L 97 28.5 L 95 36.5 L 88.5 46 Q 78.5 55 59.5 55 L 53 52.5 L 54 44.5 Q 44.5 38 46 20.5 Q 49.1 9.6 57.5 4 L 69.5 0 Z M 68 14 L 65 21 L 60 22 L 57 26 L 58 32 Q 60 35 65 34 L 66 40 Q 68 43 75 41 Q 78 39 78 34 L 83 33 Q 86 32 85 25 Q 83 21 79 21 Q 76 20 77 17 Q 75 12 68 14 Z " /><path fill="rgb(255,255,255)" stroke="rgb(255,255,255)" stroke-width="1" opacity="1" d="M 69 18 Q 74.6 15.8 73 21.5 L 74 25 Q 79.4 23.5 81 26.5 L 79.5 30 L 74 30 L 74 32.5 L 73 37 L 69 37 L 69 30 L 63.5 30 L 61 29 L 62 25 L 69 25 L 69 18 Z " /><path fill="rgb(255,255,255)" stroke="rgb(255,255,255)" stroke-width="1" opacity="1" d="M 22.5 24 L 28.5 24 L 40 34.5 Q 42.7 36.8 42 42.5 L 40 46 L 37 44.5 Q 33 35 24.5 30 L 19 26.5 L 22.5 24 Z " /><path fill="rgb(255,255,255)" stroke="rgb(255,255,255)" stroke-width="1" opacity="1" d="M 15 31 L 18.5 31 L 32 43.5 L 35 48.5 L 36 59.5 L 41.5 67 L 48.5 71 L 57.5 71 L 69 79.5 L 76 88.5 L 76 90.5 Q 68.8 97.3 52.5 95 Q 32.3 88.7 21 73.5 L 13 59.5 L 11 51.5 L 11 41.5 L 15 31 Z " /><path fill="rgb(255,255,255)" stroke="rgb(255,255,255)" stroke-width="1" opacity="1" d="M 62.5 65 L 69.5 65 L 79 72.5 L 83 78.5 L 83 83.5 L 80.5 87 Q 78.3 87.8 79 85.5 L 65.5 71 L 61 69 L 62.5 65 Z " /></svg>