<svg width="72" height="89" version="1.1" xmlns="http://www.w3.org/2000/svg" desc="Created with imagetracer.js version 1.2.6" ><path fill="rgb(255,255,255)" stroke="rgb(255,255,255)" stroke-width="1" opacity="0.8941176470588236" d="M 18.5 68 L 19.5 70 L 18.5 68 Z " /><path fill="rgb(255,255,255)" stroke="rgb(255,255,255)" stroke-width="1" opacity="0.8941176470588236" d="M 60.5 69 L 61 70.5 L 58.5 72 L 58.5 71 Q 61 71.7 60.5 69 Z " /><path fill="rgb(255,255,255)" stroke="rgb(255,255,255)" stroke-width="1" opacity="0.8941176470588236" d="M 2.5 70 L 19.5 88 L 2.5 70 Z " /><path fill="rgb(255,255,255)" stroke="rgb(255,255,255)" stroke-width="1" opacity="0.8941176470588236" d="M 62.5 72 L 61.5 74 L 62.5 72 Z " /><path fill="rgb(255,255,255)" stroke="rgb(255,255,255)" stroke-width="1" opacity="0.8941176470588236" d="M 54.5 76 L 53.5 78 L 52 77.5 L 54.5 76 Z " /><path fill="rgb(0,0,0)" stroke="rgb(0,0,0)" stroke-width="1" opacity="0" d="M 0 0 L 2 0.5 L 0 1.5 L 0 0 Z " /><path fill="rgb(0,0,0)" stroke="rgb(0,0,0)" stroke-width="1" opacity="0" d="M 70.5 0 Q 72.8 -0.8 72 1.5 L 70.5 0 Z " /><path fill="rgb(0,0,0)" stroke="rgb(0,0,0)" stroke-width="1" opacity="0" d="M 5.5 3 L 66.5 3 L 69 5.5 L 69 83.5 L 66.5 86 L 23 86 L 23 68.5 L 17.5 65 L 3 65 L 3 5.5 L 5.5 3 Z M 20 14 L 18 16 L 19 18 L 53 18 L 54 16 L 53 14 L 20 14 Z M 18 27 L 20 31 L 52 31 L 54 30 L 54 27 L 18 27 Z M 20 39 L 18 43 L 54 43 L 54 41 L 53 39 L 20 39 Z M 51 60 Q 48 61 49 65 Q 48 67 45 66 Q 42 67 43 73 L 49 75 Q 48 80 52 81 L 57 80 L 58 78 Q 57 73 62 75 L 64 72 L 63 68 Q 64 64 60 66 L 57 62 Q 58 58 51 60 Z " /><path fill="rgb(0,0,0)" stroke="rgb(0,0,0)" stroke-width="1" opacity="0" d="M 53.5 64 L 55.5 69 L 60 70.5 Q 55.4 69.9 54 72.5 L 53.5 77 Q 53.7 72.3 50.5 71 L 47 70.5 L 52 69 L 53.5 64 Z " /><path fill="rgb(0,0,0)" stroke="rgb(0,0,0)" stroke-width="1" opacity="0" d="M 0.5 69 L 18.5 88 L 20 88.5 L 0 89 L 0.5 69 Z " /><path fill="rgb(0,0,0)" stroke="rgb(0,0,0)" stroke-width="1" opacity="0" d="M 6.5 69 L 17.5 69 L 19 70.5 L 18.5 82 L 6.5 69 Z " /><path fill="rgb(0,0,0)" stroke="rgb(0,0,0)" stroke-width="1" opacity="0" d="M 71.5 87 L 72 89 L 70 88.5 L 71.5 87 Z " /><path fill="rgb(255,255,255)" stroke="rgb(255,255,255)" stroke-width="1" opacity="1" d="M 5.5 0 L 66.5 0 L 71 2.5 L 72 5.5 L 72 83.5 L 69.5 88 L 65.5 89 L 23.5 89 L 20.5 88 L 1 68.5 L 0 65.5 L 0 5.5 L 2.5 1 L 5.5 0 Z M 3 3 L 3 66 L 19 66 L 21 67 L 22 70 L 22 86 L 69 86 L 69 3 L 3 3 Z M 5 68 L 5 70 L 20 84 L 20 70 L 19 68 L 5 68 Z " /><path fill="rgb(255,255,255)" stroke="rgb(255,255,255)" stroke-width="1" opacity="1" d="M 19 15 L 52.5 15 L 53 17 L 19.5 17 L 19 15 Z " /><path fill="rgb(255,255,255)" stroke="rgb(255,255,255)" stroke-width="1" opacity="1" d="M 19 28 L 53 28.5 L 51.5 30 L 19 30 L 19 28 Z " /><path fill="rgb(255,255,255)" stroke="rgb(255,255,255)" stroke-width="1" opacity="1" d="M 19 40 L 52.5 40 L 53 42 L 19.5 42 L 19 40 Z " /><path fill="rgb(255,255,255)" stroke="rgb(255,255,255)" stroke-width="1" opacity="1" d="M 50 61 Q 55.4 59.5 57 62.5 Q 55.5 66.9 58.5 66 L 63 68.5 Q 63.8 73.3 60.5 74 Q 55.3 72.3 57 77.5 Q 56.3 80.8 51.5 80 Q 48.8 78.6 50 74 L 44 73 L 44 67 L 46.5 67 L 50 66 L 50 61 Z M 52 63 L 52 67 L 49 69 Q 45 68 46 71 Q 47 73 51 72 L 52 75 Q 50 79 54 78 Q 56 77 55 74 Q 56 71 60 72 L 61 69 L 57 68 L 55 68 L 55 63 L 52 63 Z " /><path fill="rgb(255,255,255)" stroke="rgb(255,255,255)" stroke-width="1" opacity="0.6901960784313725" d="M 18.5 16 L 19.5 17 L 52 17.5 L 19.5 18 L 18.5 16 Z " /><path fill="rgb(255,255,255)" stroke="rgb(255,255,255)" stroke-width="1" opacity="0.6901960784313725" d="M 19.5 27 L 52.5 27 L 54 28.5 L 52 29.5 L 52.5 28 L 19.5 28 L 18.5 29 L 19.5 27 Z " /><path fill="rgb(255,255,255)" stroke="rgb(255,255,255)" stroke-width="1" opacity="0.6901960784313725" d="M 18.5 41 L 19.5 42 L 52.5 42 L 54 41.5 L 52.5 43 L 19.5 43 L 18.5 41 Z " /><path fill="rgb(255,255,255)" stroke="rgb(255,255,255)" stroke-width="1" opacity="0.6901960784313725" d="M 51.5 60 L 56 60.5 L 51.5 61 L 51.5 60 Z " /><path fill="rgb(255,255,255)" stroke="rgb(255,255,255)" stroke-width="1" opacity="0.6901960784313725" d="M 61.5 66 L 62.5 68 L 61.5 66 Z " /><path fill="rgb(255,255,255)" stroke="rgb(255,255,255)" stroke-width="1" opacity="0.6901960784313725" d="M 51.5 67 L 50.5 69 L 51.5 67 Z " /><path fill="rgb(255,255,255)" stroke="rgb(255,255,255)" stroke-width="1" opacity="0.6901960784313725" d="M 5 68 L 18 68.5 L 6 69.5 L 18.5 83 L 5 69.5 L 5 68 Z " /><path fill="rgb(255,255,255)" stroke="rgb(255,255,255)" stroke-width="1" opacity="0.6901960784313725" d="M 43.5 68 L 44 71.5 L 43 71.5 L 43.5 68 Z " /><path fill="rgb(255,255,255)" stroke="rgb(255,255,255)" stroke-width="1" opacity="0.6901960784313725" d="M 22.5 70 L 23 85.5 L 22 85.5 L 22.5 70 Z " /><path fill="rgb(255,255,255)" stroke="rgb(255,255,255)" stroke-width="1" opacity="0.24705882352941178" d="M 4.5 3 L 3.5 5 L 4.5 3 Z " /><path fill="rgb(255,255,255)" stroke="rgb(255,255,255)" stroke-width="1" opacity="0.24705882352941178" d="M 67.5 3 L 68.5 5 L 67.5 3 Z " /><path fill="rgb(255,255,255)" stroke="rgb(255,255,255)" stroke-width="1" opacity="0.24705882352941178" d="M 19.5 14 L 52.5 14 L 54 15.5 L 52.5 18 L 53 16.5 L 52.5 15 L 19.5 15 L 18 15.5 L 19.5 14 Z " /><path fill="rgb(255,255,255)" stroke="rgb(255,255,255)" stroke-width="1" opacity="0.24705882352941178" d="M 18.5 29 L 19.5 30 L 52 30.5 L 19.5 31 L 18.5 29 Z " /><path fill="rgb(255,255,255)" stroke="rgb(255,255,255)" stroke-width="1" opacity="0.24705882352941178" d="M 19.5 39 L 52.5 39 L 54 40.5 L 52.5 40 L 19.5 40 L 18.5 41 L 19.5 39 Z " /><path fill="rgb(255,255,255)" stroke="rgb(255,255,255)" stroke-width="1" opacity="0.24705882352941178" d="M 50.5 60 L 49.5 62 L 50.5 60 Z " /><path fill="rgb(255,255,255)" stroke="rgb(255,255,255)" stroke-width="1" opacity="0.24705882352941178" d="M 53.5 63 L 53 64.5 L 52.5 67 L 52 64.5 L 53.5 63 Z " /><path fill="rgb(255,255,255)" stroke="rgb(255,255,255)" stroke-width="1" opacity="0.24705882352941178" d="M 3.5 65 L 18 65.5 L 3.5 66 L 3.5 65 Z " /><path fill="rgb(255,255,255)" stroke="rgb(255,255,255)" stroke-width="1" opacity="0.24705882352941178" d="M 20.5 66 L 23 69.5 L 22 69.5 L 20.5 66 Z " /><path fill="rgb(255,255,255)" stroke="rgb(255,255,255)" stroke-width="1" opacity="0.24705882352941178" d="M 44.5 66 L 43.5 68 L 44.5 66 Z " /><path fill="rgb(255,255,255)" stroke="rgb(255,255,255)" stroke-width="1" opacity="0.24705882352941178" d="M 54.5 66 L 56 68.5 L 54 67.5 L 54.5 66 Z " /><path fill="rgb(255,255,255)" stroke="rgb(255,255,255)" stroke-width="1" opacity="0.24705882352941178" d="M 63.5 68 L 64 71.5 L 63 71.5 L 63.5 68 Z " /><path fill="rgb(255,255,255)" stroke="rgb(255,255,255)" stroke-width="1" opacity="0.24705882352941178" d="M 18.5 69 L 20 70.5 L 20 82.5 L 19 82.5 L 19 70.5 L 18.5 69 Z " /><path fill="rgb(255,255,255)" stroke="rgb(255,255,255)" stroke-width="1" opacity="0.24705882352941178" d="M 47.5 69 L 49 69.5 L 46.5 71 L 47.5 69 Z " /><path fill="rgb(255,255,255)" stroke="rgb(255,255,255)" stroke-width="1" opacity="0.24705882352941178" d="M 57.5 69 L 60 69.5 L 57.5 70 L 57.5 69 Z " /><path fill="rgb(255,255,255)" stroke="rgb(255,255,255)" stroke-width="1" opacity="0.24705882352941178" d="M 1.5 70 L 18.5 88 L 1.5 70 Z " /><path fill="rgb(255,255,255)" stroke="rgb(255,255,255)" stroke-width="1" opacity="0.24705882352941178" d="M 55.5 71 L 57 71.5 L 55 72 L 54.5 74 L 54 72.5 L 55.5 71 Z " /><path fill="rgb(255,255,255)" stroke="rgb(255,255,255)" stroke-width="1" opacity="0.24705882352941178" d="M 52.5 73 L 53 76.5 L 52 76.5 L 52.5 73 Z " /><path fill="rgb(255,255,255)" stroke="rgb(255,255,255)" stroke-width="1" opacity="0.24705882352941178" d="M 62.5 73 L 61.5 75 L 58 74.5 L 62.5 73 Z " /><path fill="rgb(255,255,255)" stroke="rgb(255,255,255)" stroke-width="1" opacity="0.24705882352941178" d="M 46.5 74 L 49 74.5 L 46.5 75 L 46.5 74 Z " /><path fill="rgb(255,255,255)" stroke="rgb(255,255,255)" stroke-width="1" opacity="0.24705882352941178" d="M 51.5 80 L 55 80.5 L 51.5 81 L 51.5 80 Z " /><path fill="rgb(255,255,255)" stroke="rgb(255,255,255)" stroke-width="1" opacity="0.24705882352941178" d="M 68.5 84 L 67.5 86 L 68.5 84 Z " /></svg>