<svg width="87" height="101" version="1.1" xmlns="http://www.w3.org/2000/svg" desc="Created with imagetracer.js version 1.2.6" ><path fill="rgb(232,99,62)" stroke="rgb(232,99,62)" stroke-width="1" opacity="1" d="M 25.5 23 L 26.5 25 L 25.5 23 Z " /><path fill="rgb(232,99,62)" stroke="rgb(232,99,62)" stroke-width="1" opacity="1" d="M 61.5 30 L 62 49.5 L 61 49.5 L 61.5 30 Z " /><path fill="rgb(232,99,62)" stroke="rgb(232,99,62)" stroke-width="1" opacity="1" d="M 56.5 39 L 40.5 56 L 56.5 39 Z " /><path fill="rgb(232,99,62)" stroke="rgb(232,99,62)" stroke-width="1" opacity="1" d="M 22.5 61 L 25.5 65 L 22.5 61 Z " /><path fill="rgb(232,99,62)" stroke="rgb(232,99,62)" stroke-width="1" opacity="1" d="M 17.5 65 L 20 65.5 L 17.5 66 L 17.5 65 Z " /><path fill="rgb(232,99,62)" stroke="rgb(232,99,62)" stroke-width="1" opacity="1" d="M 29.5 65 L 28.5 67 L 29.5 65 Z " /><path fill="rgb(232,99,62)" stroke="rgb(232,99,62)" stroke-width="1" opacity="1" d="M 46.5 65 L 45.5 67 L 46.5 65 Z " /><path fill="rgb(232,99,62)" stroke="rgb(232,99,62)" stroke-width="1" opacity="1" d="M 32.5 67 L 31.5 69 L 32.5 67 Z " /><path fill="rgb(232,99,62)" stroke="rgb(232,99,62)" stroke-width="1" opacity="1" d="M 14.5 68 L 13.5 70 L 14.5 68 Z " /><path fill="rgb(232,99,62)" stroke="rgb(232,99,62)" stroke-width="1" opacity="1" d="M 23.5 68 L 25.5 71 L 23.5 68 Z " /><path fill="rgb(232,99,62)" stroke="rgb(232,99,62)" stroke-width="1" opacity="1" d="M 35.5 69 L 34.5 71 L 35.5 69 Z " /><path fill="rgb(232,99,62)" stroke="rgb(232,99,62)" stroke-width="1" opacity="1" d="M 69.5 70 L 67 73.5 L 67.5 77 L 66 73.5 L 69.5 70 Z " /><path fill="rgb(232,99,62)" stroke="rgb(232,99,62)" stroke-width="1" opacity="1" d="M 51.5 71 L 54 75.5 L 52.5 77 L 51.5 71 Z " /><path fill="rgb(232,99,62)" stroke="rgb(232,99,62)" stroke-width="1" opacity="1" d="M 26.5 80 L 25.5 82 L 26.5 80 Z " /><path fill="rgb(232,99,62)" stroke="rgb(232,99,62)" stroke-width="1" opacity="1" d="M 74.5 81 L 75.5 83 L 74.5 81 Z " /><path fill="rgb(232,99,62)" stroke="rgb(232,99,62)" stroke-width="1" opacity="1" d="M 41.5 85 L 40.5 87 L 41.5 85 Z " /><path fill="rgb(232,99,62)" stroke="rgb(232,99,62)" stroke-width="1" opacity="1" d="M 7.5 86 L 8 88.5 L 6.5 90 L 4 89.5 L 7.5 86 Z " /><path fill="rgb(232,99,62)" stroke="rgb(232,99,62)" stroke-width="1" opacity="1" d="M 82.5 87 L 83.5 89 L 82.5 87 Z " /><path fill="rgb(232,99,62)" stroke="rgb(232,99,62)" stroke-width="1" opacity="1" d="M 30.5 88 L 31.5 90 L 30.5 88 Z " /><path fill="rgb(232,99,62)" stroke="rgb(232,99,62)" stroke-width="1" opacity="1" d="M 36.5 89 L 35.5 91 L 36.5 89 Z " /><path fill="rgb(232,98,61)" stroke="rgb(232,98,61)" stroke-width="1" opacity="1" d="M 0 0 L 87 0 L 87 101 L 0 101 L 0 0 Z M 41 4 L 6 15 L 3 16 L 3 90 L 10 85 L 14 84 L 10 78 L 11 70 L 16 66 L 25 67 L 28 72 L 28 79 Q 24 80 25 84 Q 32 86 36 91 L 39 86 Q 45 79 54 76 L 50 72 L 45 75 L 42 75 L 28 66 Q 21 62 18 54 L 18 25 Q 33 24 43 15 Q 53 23 68 25 L 68 54 L 73 61 Q 74 68 71 72 L 66 76 L 76 80 L 84 89 L 84 15 L 47 4 L 41 4 Z M 43 17 L 35 22 L 19 26 L 19 52 L 22 59 Q 30 68 43 74 L 49 71 L 48 68 L 45 69 Q 35 68 31 62 L 23 53 L 23 29 Q 35 27 44 21 Q 51 27 63 29 L 63 51 L 65 52 L 67 52 L 67 26 Q 53 24 43 17 Z M 43 23 L 24 32 L 24 51 L 26 56 Q 33 63 43 68 L 46 67 L 47 66 Q 46 59 49 57 L 57 51 L 61 51 L 62 50 L 62 30 L 56 29 L 43 23 Z M 59 52 L 54 54 L 49 60 Q 47 68 51 72 L 57 75 Q 63 76 67 74 Q 71 71 72 66 L 70 58 L 63 52 L 59 52 Z M 17 67 L 15 68 L 11 74 L 12 79 L 19 83 L 23 82 L 27 77 L 26 71 Q 24 66 17 67 Z M 56 77 L 45 82 Q 37 87 35 99 L 84 99 L 84 94 L 81 88 Q 75 76 56 77 Z M 16 84 L 8 88 L 3 95 Q 2 99 4 99 L 34 99 Q 35 92 32 90 Q 27 83 16 84 Z " /><path fill="rgb(232,98,61)" stroke="rgb(232,98,61)" stroke-width="1" opacity="1" d="M 53.5 34 L 57 36.5 L 57 38.5 L 39.5 56 L 37.5 57 Q 31.1 51.9 29 42.5 Q 30.4 39.8 35 41 L 38.5 47 L 53.5 34 Z M 53 36 L 39 50 L 34 44 Q 35 41 31 42 Q 32 51 38 55 L 55 39 Q 56 35 53 36 Z " /><path fill="rgb(255,255,255)" stroke="rgb(255,255,255)" stroke-width="1" opacity="1" d="M 40.5 5 L 46.5 5 L 83 16 L 82.5 86 Q 77.5 78.5 68 75.5 L 74 67.5 L 74 60.5 L 69 52.5 L 69 24 Q 53.1 22.2 42.5 14 L 31.5 21 L 17 24 L 17 53.5 Q 19.1 60.9 24.5 65 L 39.5 75 L 44.5 76 L 49.5 73 L 51.5 76 Q 41.8 78.8 37 86.5 L 35.5 89 L 26 82.5 Q 30.5 80 29 71.5 L 24.5 66 L 15.5 65 L 10 69.5 L 9 77.5 L 12 82.5 L 4.5 88 L 4 16 L 40.5 5 Z " /><path fill="rgb(255,255,255)" stroke="rgb(255,255,255)" stroke-width="1" opacity="1" d="M 42.5 18 Q 52.3 24.9 66 27 L 66 50.5 L 64 51 L 64 28.5 L 61.5 28 Q 50.5 25.5 42.5 20 L 36.5 24 L 25.5 27 L 22 29.5 L 22 52.5 L 23 55.5 L 31.5 64 L 41.5 70 L 45.5 70 L 47 69.5 Q 47.8 71.8 45.5 71 L 42.5 73 L 24 59.5 L 20 51.5 L 20 27 Q 33.6 25.3 42.5 18 Z " /><path fill="rgb(255,255,255)" stroke="rgb(255,255,255)" stroke-width="1" opacity="1" d="M 42.5 24 L 55.5 30 L 61 31 L 61 49.5 Q 61 50.5 56.5 50 Q 50.4 51.4 48 56.5 L 46 64.5 L 43.5 67 L 28 56.5 L 25 50.5 L 25 31 Q 35.4 29.7 42.5 24 Z M 54 33 L 38 46 L 35 40 Q 29 39 28 43 L 34 56 Q 35 58 41 57 L 58 39 L 57 34 L 54 33 Z " /><path fill="rgb(255,255,255)" stroke="rgb(255,255,255)" stroke-width="1" opacity="1" d="M 52.5 37 Q 54.8 36.3 54 38.5 L 37.5 54 L 32 43.5 L 34 44.5 L 38.5 51 L 49 41.5 L 52.5 37 Z " /><path fill="rgb(255,255,255)" stroke="rgb(255,255,255)" stroke-width="1" opacity="1" d="M 58.5 53 L 62.5 53 L 69 57.5 L 71 65.5 L 65.5 73 L 59.5 75 Q 53.8 73.8 51 69.5 L 49 63.5 L 50 59.5 L 55.5 54 L 58.5 53 Z " /><path fill="rgb(255,255,255)" stroke="rgb(255,255,255)" stroke-width="1" opacity="1" d="M 16.5 68 Q 23.8 66.8 25 71.5 L 26 76.5 L 22.5 81 L 18.5 82 L 13 78.5 L 12 73.5 L 16.5 68 Z " /><path fill="rgb(255,255,255)" stroke="rgb(255,255,255)" stroke-width="1" opacity="1" d="M 55.5 78 Q 72.8 76.7 79 86.5 L 83 93.5 L 83 98 L 36 97.5 Q 38.3 86.8 46.5 82 L 55.5 78 Z " /><path fill="rgb(255,255,255)" stroke="rgb(255,255,255)" stroke-width="1" opacity="1" d="M 15.5 85 L 25.5 86 L 33 92.5 L 34 94.5 L 33 98 L 4.5 98 L 4 94.5 L 9.5 88 L 15.5 85 Z " /><path fill="rgb(243,180,163)" stroke="rgb(243,180,163)" stroke-width="1" opacity="1" d="M 4.5 15 L 4 16.5 L 3.5 89 L 3 16.5 L 4.5 15 Z " /><path fill="rgb(243,180,163)" stroke="rgb(243,180,163)" stroke-width="1" opacity="1" d="M 83.5 16 L 84 87.5 L 83 87.5 L 83.5 16 Z " /><path fill="rgb(243,180,163)" stroke="rgb(243,180,163)" stroke-width="1" opacity="1" d="M 23.5 28 L 22.5 30 L 23.5 28 Z " /><path fill="rgb(243,180,163)" stroke="rgb(243,180,163)" stroke-width="1" opacity="1" d="M 62.5 28 L 63.5 30 L 62.5 28 Z " /><path fill="rgb(243,180,163)" stroke="rgb(243,180,163)" stroke-width="1" opacity="1" d="M 51.5 34 L 50.5 36 L 51.5 34 Z " /><path fill="rgb(243,180,163)" stroke="rgb(243,180,163)" stroke-width="1" opacity="1" d="M 54.5 38 L 38.5 55 L 36 53.5 L 37.5 54 L 54.5 38 Z " /><path fill="rgb(243,180,163)" stroke="rgb(243,180,163)" stroke-width="1" opacity="1" d="M 68.5 49 L 69 52.5 L 68 52.5 L 68.5 49 Z " /><path fill="rgb(243,180,163)" stroke="rgb(243,180,163)" stroke-width="1" opacity="1" d="M 67.5 55 L 68.5 57 L 67.5 55 Z " /><path fill="rgb(243,180,163)" stroke="rgb(243,180,163)" stroke-width="1" opacity="1" d="M 28.5 57 L 29.5 59 L 28.5 57 Z " /><path fill="rgb(243,180,163)" stroke="rgb(243,180,163)" stroke-width="1" opacity="1" d="M 23.5 59 L 27.5 64 L 23.5 59 Z " /><path fill="rgb(243,180,163)" stroke="rgb(243,180,163)" stroke-width="1" opacity="1" d="M 27.5 59 L 29.5 62 L 27.5 59 Z " /><path fill="rgb(243,180,163)" stroke="rgb(243,180,163)" stroke-width="1" opacity="1" d="M 30.5 65 L 31.5 67 L 30.5 65 Z " /><path fill="rgb(243,180,163)" stroke="rgb(243,180,163)" stroke-width="1" opacity="1" d="M 24.5 66 L 26.5 69 L 24.5 66 Z " /><path fill="rgb(243,180,163)" stroke="rgb(243,180,163)" stroke-width="1" opacity="1" d="M 12.5 67 L 11.5 69 L 12.5 67 Z " /><path fill="rgb(243,180,163)" stroke="rgb(243,180,163)" stroke-width="1" opacity="1" d="M 70.5 72 L 68.5 75 L 70.5 72 Z " /><path fill="rgb(243,180,163)" stroke="rgb(243,180,163)" stroke-width="1" opacity="1" d="M 58.5 77 L 63 77.5 L 58.5 78 L 58.5 77 Z " /><path fill="rgb(243,180,163)" stroke="rgb(243,180,163)" stroke-width="1" opacity="1" d="M 13.5 79 L 14.5 81 L 13.5 79 Z " /><path fill="rgb(243,180,163)" stroke="rgb(243,180,163)" stroke-width="1" opacity="1" d="M 24.5 79 L 23.5 81 L 24.5 79 Z " /><path fill="rgb(243,180,163)" stroke="rgb(243,180,163)" stroke-width="1" opacity="1" d="M 76.5 80 L 77.5 82 L 76.5 80 Z " /><path fill="rgb(243,180,163)" stroke="rgb(243,180,163)" stroke-width="1" opacity="1" d="M 42.5 81 L 38.5 86 L 42.5 81 Z " /><path fill="rgb(243,180,163)" stroke="rgb(243,180,163)" stroke-width="1" opacity="1" d="M 9.5 87 L 8.5 89 L 9.5 87 Z " /><path fill="rgb(243,180,163)" stroke="rgb(243,180,163)" stroke-width="1" opacity="1" d="M 32.5 87 L 33.5 89 L 32.5 87 Z " /><path fill="rgb(243,180,163)" stroke="rgb(243,180,163)" stroke-width="1" opacity="1" d="M 83.5 94 L 84 97.5 L 82.5 99 L 36.5 99 L 36.5 98 L 82.5 98 L 83.5 94 Z " /><path fill="rgb(243,180,163)" stroke="rgb(243,180,163)" stroke-width="1" opacity="1" d="M 3.5 95 L 4 98 L 32.5 98 L 33.5 97 L 32.5 99 L 4.5 99 L 3 97.5 L 3.5 95 Z " /><path fill="rgb(238,143,117)" stroke="rgb(238,143,117)" stroke-width="1" opacity="1" d="M 17.5 25 L 18 50.5 L 17 50.5 L 17.5 25 Z " /><path fill="rgb(238,143,117)" stroke="rgb(238,143,117)" stroke-width="1" opacity="1" d="M 68.5 25 L 69 48.5 L 68 48.5 L 68.5 25 Z " /><path fill="rgb(238,143,117)" stroke="rgb(238,143,117)" stroke-width="1" opacity="1" d="M 19.5 27 L 20 50.5 L 19 50.5 L 19.5 27 Z " /><path fill="rgb(238,143,117)" stroke="rgb(238,143,117)" stroke-width="1" opacity="1" d="M 66.5 27 L 67 50.5 L 65 51.5 L 66 50.5 L 66.5 27 Z " /><path fill="rgb(238,143,117)" stroke="rgb(238,143,117)" stroke-width="1" opacity="1" d="M 22.5 30 L 23 49.5 L 22 49.5 L 22.5 30 Z " /><path fill="rgb(238,143,117)" stroke="rgb(238,143,117)" stroke-width="1" opacity="1" d="M 63.5 30 L 64 50.5 L 63 50.5 L 63.5 30 Z " /><path fill="rgb(238,143,117)" stroke="rgb(238,143,117)" stroke-width="1" opacity="1" d="M 24.5 31 L 25 39.5 L 24 39.5 L 24.5 31 Z " /><path fill="rgb(238,143,117)" stroke="rgb(238,143,117)" stroke-width="1" opacity="1" d="M 55.5 34 L 56.5 36 L 55.5 34 Z " /><path fill="rgb(238,143,117)" stroke="rgb(238,143,117)" stroke-width="1" opacity="1" d="M 49.5 36 L 39.5 47 L 49.5 36 Z " /><path fill="rgb(238,143,117)" stroke="rgb(238,143,117)" stroke-width="1" opacity="1" d="M 52.5 36 L 39.5 50 L 52.5 36 Z " /><path fill="rgb(238,143,117)" stroke="rgb(238,143,117)" stroke-width="1" opacity="1" d="M 24.5 41 L 25 49.5 L 24 49.5 L 24.5 41 Z " /><path fill="rgb(238,143,117)" stroke="rgb(238,143,117)" stroke-width="1" opacity="1" d="M 58.5 50 L 61 50.5 L 58.5 51 L 58.5 50 Z " /><path fill="rgb(238,143,117)" stroke="rgb(238,143,117)" stroke-width="1" opacity="1" d="M 59.5 52 L 62 52.5 L 59.5 53 L 59.5 52 Z " /><path fill="rgb(238,143,117)" stroke="rgb(238,143,117)" stroke-width="1" opacity="1" d="M 69.5 54 L 70.5 56 L 69.5 54 Z " /><path fill="rgb(238,143,117)" stroke="rgb(238,143,117)" stroke-width="1" opacity="1" d="M 52.5 55 L 51.5 57 L 52.5 55 Z " /><path fill="rgb(238,143,117)" stroke="rgb(238,143,117)" stroke-width="1" opacity="1" d="M 9.5 73 L 10 75.5 L 9 75.5 L 9.5 73 Z " /><path fill="rgb(238,143,117)" stroke="rgb(238,143,117)" stroke-width="1" opacity="1" d="M 11.5 73 L 12 75.5 L 11 75.5 L 11.5 73 Z " /><path fill="rgb(238,143,117)" stroke="rgb(238,143,117)" stroke-width="1" opacity="1" d="M 26.5 73 L 27 76.5 L 26 76.5 L 26.5 73 Z " /><path fill="rgb(238,143,117)" stroke="rgb(238,143,117)" stroke-width="1" opacity="1" d="M 28.5 73 L 29 76.5 L 28 76.5 L 28.5 73 Z " /><path fill="rgb(238,143,117)" stroke="rgb(238,143,117)" stroke-width="1" opacity="1" d="M 78.5 82 L 80.5 85 L 78.5 82 Z " /><path fill="rgb(238,143,117)" stroke="rgb(238,143,117)" stroke-width="1" opacity="1" d="M 43.5 83 L 42.5 85 L 43.5 83 Z " /><path fill="rgb(238,143,117)" stroke="rgb(238,143,117)" stroke-width="1" opacity="1" d="M 16.5 84 L 22 84.5 L 16.5 85 L 16.5 84 Z " /><path fill="rgb(238,143,117)" stroke="rgb(238,143,117)" stroke-width="1" opacity="1" d="M 78.5 85 L 79.5 87 L 78.5 85 Z " /><path fill="rgb(250,226,219)" stroke="rgb(250,226,219)" stroke-width="1" opacity="1" d="M 53.5 36 L 54.5 38 L 53.5 36 Z " /><path fill="rgb(250,226,219)" stroke="rgb(250,226,219)" stroke-width="1" opacity="1" d="M 56.5 40 L 40.5 57 L 56.5 40 Z " /><path fill="rgb(250,226,219)" stroke="rgb(250,226,219)" stroke-width="1" opacity="1" d="M 34.5 55 L 35.5 57 L 34.5 55 Z " /><path fill="rgb(250,226,219)" stroke="rgb(250,226,219)" stroke-width="1" opacity="1" d="M 21.5 61 L 24.5 65 L 21.5 61 Z " /><path fill="rgb(250,226,219)" stroke="rgb(250,226,219)" stroke-width="1" opacity="1" d="M 46.5 61 L 47 63.5 L 46 63.5 L 46.5 61 Z " /><path fill="rgb(250,226,219)" stroke="rgb(250,226,219)" stroke-width="1" opacity="1" d="M 30.5 62 L 31.5 64 L 30.5 62 Z " /><path fill="rgb(250,226,219)" stroke="rgb(250,226,219)" stroke-width="1" opacity="1" d="M 27.5 66 L 28.5 68 L 27.5 66 Z " /><path fill="rgb(250,226,219)" stroke="rgb(250,226,219)" stroke-width="1" opacity="1" d="M 46.5 68 L 48 70.5 L 47 70.5 L 46.5 68 Z " /><path fill="rgb(250,226,219)" stroke="rgb(250,226,219)" stroke-width="1" opacity="1" d="M 14.5 69 L 13.5 71 L 14.5 69 Z " /><path fill="rgb(250,226,219)" stroke="rgb(250,226,219)" stroke-width="1" opacity="1" d="M 23.5 69 L 24.5 71 L 23.5 69 Z " /><path fill="rgb(250,226,219)" stroke="rgb(250,226,219)" stroke-width="1" opacity="1" d="M 51.5 70 L 53.5 73 L 51.5 70 Z " /><path fill="rgb(250,226,219)" stroke="rgb(250,226,219)" stroke-width="1" opacity="1" d="M 68.5 70 L 66.5 73 L 68.5 70 Z " /><path fill="rgb(250,226,219)" stroke="rgb(250,226,219)" stroke-width="1" opacity="1" d="M 50.5 73 L 52.5 76 L 50.5 73 Z " /><path fill="rgb(250,226,219)" stroke="rgb(250,226,219)" stroke-width="1" opacity="1" d="M 44.5 79 L 43.5 81 L 44.5 79 Z " /><path fill="rgb(250,226,219)" stroke="rgb(250,226,219)" stroke-width="1" opacity="1" d="M 27.5 80 L 26.5 84 Q 23 82 27.5 80 Z " /><path fill="rgb(250,226,219)" stroke="rgb(250,226,219)" stroke-width="1" opacity="1" d="M 12.5 82 L 11.5 84 L 12.5 82 Z " /><path fill="rgb(250,226,219)" stroke="rgb(250,226,219)" stroke-width="1" opacity="1" d="M 45.5 82 L 44.5 84 L 45.5 82 Z " /><path fill="rgb(250,226,219)" stroke="rgb(250,226,219)" stroke-width="1" opacity="1" d="M 6.5 86 L 4.5 89 L 6.5 86 Z " /><path fill="rgb(250,226,219)" stroke="rgb(250,226,219)" stroke-width="1" opacity="1" d="M 41.5 86 L 40.5 88 L 41.5 86 Z " /><path fill="rgb(250,226,219)" stroke="rgb(250,226,219)" stroke-width="1" opacity="1" d="M 79.5 87 L 80.5 89 L 79.5 87 Z " /><path fill="rgb(250,226,219)" stroke="rgb(250,226,219)" stroke-width="1" opacity="1" d="M 29.5 88 L 31.5 91 L 29.5 88 Z " /><path fill="rgb(250,226,219)" stroke="rgb(250,226,219)" stroke-width="1" opacity="1" d="M 7.5 89 L 6.5 91 L 7.5 89 Z " /><path fill="rgb(254,245,243)" stroke="rgb(254,245,243)" stroke-width="1" opacity="1" d="M 48.5 41 L 40.5 50 L 48.5 41 Z " /><path fill="rgb(254,245,243)" stroke="rgb(254,245,243)" stroke-width="1" opacity="1" d="M 53.5 55 L 52.5 57 L 53.5 55 Z " /><path fill="rgb(254,245,243)" stroke="rgb(254,245,243)" stroke-width="1" opacity="1" d="M 43.5 84 L 42.5 86 L 43.5 84 Z " /></svg>