<svg width="81" height="104" version="1.1" xmlns="http://www.w3.org/2000/svg" desc="Created with imagetracer.js version 1.2.6" ><path fill="rgb(0,0,0)" stroke="rgb(0,0,0)" stroke-width="1" opacity="0" d="M 0 0 L 27 0.5 L 21 5.5 Q 18.4 8.4 19 14.5 Q 20.5 21 25.5 24 L 33.5 26 Q 40.1 25.1 43 20.5 Q 46.3 16.8 45 8.5 L 40.5 2 L 37 0.5 L 81 0 L 80.5 56 L 75.5 53 L 55 53 Q 54.4 45.1 47.5 42 L 32.5 29 L 24.5 26 L 17 29 L 13 38.5 L 10 53 Q 3.5 52.1 0.5 56 L 0 0 Z M 59 18 L 59 26 L 51 26 L 50 29 L 50 37 L 52 38 L 59 38 L 59 46 L 62 47 Q 68 49 70 46 L 71 46 L 71 38 L 79 38 L 79 28 L 78 26 Q 68 29 71 20 L 70 18 L 59 18 Z " /><path fill="rgb(0,0,0)" stroke="rgb(0,0,0)" stroke-width="1" opacity="0" d="M 29.5 4 Q 37.8 2.7 40 7.5 L 41 15.5 L 37.5 20 L 32.5 22 L 28.5 21 L 24 16.5 L 23 11.5 L 27.5 5 L 29.5 4 Z " /><path fill="rgb(0,0,0)" stroke="rgb(0,0,0)" stroke-width="1" opacity="0" d="M 63 22 L 67 22 L 67 30 L 75 30 L 75 34 L 67 34 L 67 42 L 63 42 Q 64.8 35.9 61.5 34 L 55 34 L 55 30 L 63 30 L 63 22 Z " /><path fill="rgb(0,0,0)" stroke="rgb(0,0,0)" stroke-width="1" opacity="0" d="M 22.5 31 L 29.5 32 L 50 50.5 L 49.5 53 L 42.5 53 L 33.5 46 L 30 46 L 27.5 53 L 14.5 53 L 14 50.5 L 19 33.5 L 20.5 32 L 22.5 31 Z " /><path fill="rgb(0,0,0)" stroke="rgb(0,0,0)" stroke-width="1" opacity="0" d="M 33.5 51 L 34.5 53 Q 31.7 53.7 33.5 51 Z " /><path fill="rgb(0,0,0)" stroke="rgb(0,0,0)" stroke-width="1" opacity="0" d="M 6.5 57 L 74.5 57 L 77 59.5 L 75.5 62 L 4.5 62 L 4 58 L 6.5 57 Z " /><path fill="rgb(0,0,0)" stroke="rgb(0,0,0)" stroke-width="1" opacity="0" d="M 0.5 63 L 1 65 Q 4.1 67 11 66 L 11 71.5 L 2 99.5 L 2 104 L 0 103.5 L 0.5 63 Z " /><path fill="rgb(0,0,0)" stroke="rgb(0,0,0)" stroke-width="1" opacity="0" d="M 80.5 63 L 81 104 L 73 103.5 L 74 101.5 L 71 93.5 L 71 84.5 L 69 82.5 L 69 72.5 Q 72.3 71 71 66 Q 77.2 66.9 80 65 L 80.5 63 Z " /><path fill="rgb(0,0,0)" stroke="rgb(0,0,0)" stroke-width="1" opacity="0" d="M 16.5 66 L 23.5 66 L 24 68.5 L 15 96.5 L 21 99.5 L 7 100 L 7 96.5 L 13 79.5 L 15 67.5 L 16.5 66 Z " /><path fill="rgb(0,0,0)" stroke="rgb(0,0,0)" stroke-width="1" opacity="0" d="M 29 66 L 55.5 66 Q 56.5 66 56 70.5 Q 59.8 73.7 58 82.5 L 56 84.5 L 56 94.5 L 53 104 L 47 103.5 L 48 101.5 L 43.5 95 L 39 94 L 29 66 Z " /><path fill="rgb(0,0,0)" stroke="rgb(0,0,0)" stroke-width="1" opacity="0" d="M 60.5 67 L 67 67.5 L 60.5 68 L 60.5 67 Z " /><path fill="rgb(0,0,0)" stroke="rgb(0,0,0)" stroke-width="1" opacity="0" d="M 26.5 73 L 35 95.5 L 37.5 98 L 42 99.5 L 32.5 100 L 29 96.5 L 24 80.5 L 26.5 73 Z " /><path fill="rgb(0,0,0)" stroke="rgb(0,0,0)" stroke-width="1" opacity="0" d="M 63 73 L 65 73.5 L 65 83 L 63 82.5 L 63 73 Z " /><path fill="rgb(0,0,0)" stroke="rgb(0,0,0)" stroke-width="1" opacity="0" d="M 60 88 L 67 88 L 67 94 L 60 94 L 60 88 Z " /><path fill="rgb(0,0,0)" stroke="rgb(0,0,0)" stroke-width="1" opacity="0" d="M 21 90 Q 24 88.8 23 92.5 L 25 96.5 L 23.5 96 L 20 93.5 L 21 90 Z " /><path fill="rgb(0,0,0)" stroke="rgb(0,0,0)" stroke-width="1" opacity="0" d="M 58 98 L 68.5 98 L 69 100 L 58.5 100 L 58 98 Z " /><path fill="rgb(0,0,0)" stroke="rgb(0,0,0)" stroke-width="1" opacity="0" d="M 26.5 101 L 28 103.5 L 26 104 L 26.5 101 Z " /><path fill="rgb(255,255,255)" stroke="rgb(255,255,255)" stroke-width="1" opacity="0.10588235294117647" d="M 40.5 2 L 42.5 5 L 40.5 2 Z " /><path fill="rgb(255,255,255)" stroke="rgb(255,255,255)" stroke-width="1" opacity="0.10588235294117647" d="M 25.5 18 L 26.5 20 L 25.5 18 Z " /><path fill="rgb(255,255,255)" stroke="rgb(255,255,255)" stroke-width="1" opacity="0.10588235294117647" d="M 42.5 20 L 39.5 24 L 42.5 20 Z " /><path fill="rgb(255,255,255)" stroke="rgb(255,255,255)" stroke-width="1" opacity="0.10588235294117647" d="M 31.5 25 L 34 25.5 L 31.5 26 L 31.5 25 Z " /><path fill="rgb(255,255,255)" stroke="rgb(255,255,255)" stroke-width="1" opacity="0.10588235294117647" d="M 50.5 28 L 51 36.5 L 52 37.5 L 50 36.5 L 50.5 28 Z " /><path fill="rgb(255,255,255)" stroke="rgb(255,255,255)" stroke-width="1" opacity="0.10588235294117647" d="M 32.5 29 L 33.5 31 L 32.5 29 Z " /><path fill="rgb(255,255,255)" stroke="rgb(255,255,255)" stroke-width="1" opacity="0.10588235294117647" d="M 54.5 30 L 55 33.5 L 54 33.5 L 54.5 30 Z " /><path fill="rgb(255,255,255)" stroke="rgb(255,255,255)" stroke-width="1" opacity="0.10588235294117647" d="M 32.5 34 L 34.5 37 L 32.5 34 Z " /><path fill="rgb(255,255,255)" stroke="rgb(255,255,255)" stroke-width="1" opacity="0.10588235294117647" d="M 38.5 34 L 40.5 37 L 38.5 34 Z " /><path fill="rgb(255,255,255)" stroke="rgb(255,255,255)" stroke-width="1" opacity="0.10588235294117647" d="M 40.5 41 L 42.5 44 L 40.5 41 Z " /><path fill="rgb(255,255,255)" stroke="rgb(255,255,255)" stroke-width="1" opacity="0.10588235294117647" d="M 47.5 42 L 50.5 46 L 47.5 42 Z " /><path fill="rgb(255,255,255)" stroke="rgb(255,255,255)" stroke-width="1" opacity="0.10588235294117647" d="M 63.5 42 L 67 42.5 L 63.5 43 L 63.5 42 Z " /><path fill="rgb(255,255,255)" stroke="rgb(255,255,255)" stroke-width="1" opacity="0.10588235294117647" d="M 61.5 46 L 69 46.5 L 61.5 47 L 61.5 46 Z " /><path fill="rgb(255,255,255)" stroke="rgb(255,255,255)" stroke-width="1" opacity="0.10588235294117647" d="M 24.5 53 L 27 53.5 L 24.5 54 L 24.5 53 Z " /><path fill="rgb(255,255,255)" stroke="rgb(255,255,255)" stroke-width="1" opacity="0.10588235294117647" d="M 46.5 53 L 49 53.5 L 46.5 54 L 46.5 53 Z " /><path fill="rgb(255,255,255)" stroke="rgb(255,255,255)" stroke-width="1" opacity="0.10588235294117647" d="M 75.5 57 L 76.5 59 L 75.5 57 Z " /><path fill="rgb(255,255,255)" stroke="rgb(255,255,255)" stroke-width="1" opacity="0.10588235294117647" d="M 60.5 66 L 67 66.5 L 60.5 67 L 60.5 66 Z " /><path fill="rgb(255,255,255)" stroke="rgb(255,255,255)" stroke-width="1" opacity="0.10588235294117647" d="M 70.5 66 L 71 70.5 L 70 70.5 L 70.5 66 Z " /><path fill="rgb(255,255,255)" stroke="rgb(255,255,255)" stroke-width="1" opacity="0.10588235294117647" d="M 60.5 68 L 67 68.5 L 60.5 69 L 60.5 68 Z " /><path fill="rgb(255,255,255)" stroke="rgb(255,255,255)" stroke-width="1" opacity="0.10588235294117647" d="M 57.5 72 L 59 73.5 L 59 82.5 L 57 83.5 L 58 82.5 L 58 73.5 L 57.5 72 Z " /><path fill="rgb(255,255,255)" stroke="rgb(255,255,255)" stroke-width="1" opacity="0.10588235294117647" d="M 62.5 73 L 63 82.5 L 62 82.5 L 62.5 73 Z " /><path fill="rgb(255,255,255)" stroke="rgb(255,255,255)" stroke-width="1" opacity="0.10588235294117647" d="M 60.5 87 L 67 87.5 L 60.5 88 L 60.5 87 Z " /><path fill="rgb(255,255,255)" stroke="rgb(255,255,255)" stroke-width="1" opacity="0.10588235294117647" d="M 23.5 96 L 26 97.5 L 24.5 98 L 23.5 96 Z " /><path fill="rgb(255,255,255)" stroke="rgb(255,255,255)" stroke-width="1" opacity="0.10588235294117647" d="M 25.5 99 L 26.5 101 L 25.5 99 Z " /><path fill="rgb(255,255,255)" stroke="rgb(255,255,255)" stroke-width="1" opacity="0.10588235294117647" d="M 42.5 99 L 43 101 L 36 100.5 L 42.5 99 Z " /><path fill="rgb(255,255,255)" stroke="rgb(255,255,255)" stroke-width="1" opacity="0.18823529411764706" d="M 51.5 46 L 52.5 48 L 51.5 46 Z " /><path fill="rgb(255,255,255)" stroke="rgb(255,255,255)" stroke-width="1" opacity="0.2823529411764706" d="M 41.5 11 L 42 13.5 L 41 13.5 L 41.5 11 Z " /><path fill="rgb(255,255,255)" stroke="rgb(255,255,255)" stroke-width="1" opacity="0.2823529411764706" d="M 70.5 19 L 71 26 L 78 26.5 L 71.5 27 Q 68.1 25.1 70.5 19 Z " /><path fill="rgb(255,255,255)" stroke="rgb(255,255,255)" stroke-width="1" opacity="0.2823529411764706" d="M 63.5 21 L 67 21.5 L 63.5 22 L 63.5 21 Z " /><path fill="rgb(255,255,255)" stroke="rgb(255,255,255)" stroke-width="1" opacity="0.2823529411764706" d="M 52.5 26 L 59 26.5 L 52.5 27 L 52.5 26 Z " /><path fill="rgb(255,255,255)" stroke="rgb(255,255,255)" stroke-width="1" opacity="0.2823529411764706" d="M 75.5 30 L 76 33.5 L 75 33.5 L 75.5 30 Z " /><path fill="rgb(255,255,255)" stroke="rgb(255,255,255)" stroke-width="1" opacity="0.2823529411764706" d="M 70.5 38 L 71 44.5 L 70 44.5 L 70.5 38 Z " /><path fill="rgb(255,255,255)" stroke="rgb(255,255,255)" stroke-width="1" opacity="0.2823529411764706" d="M 54.5 52 L 55.5 53 L 75 53.5 L 55.5 54 L 54.5 52 Z " /><path fill="rgb(255,255,255)" stroke="rgb(255,255,255)" stroke-width="1" opacity="0.2823529411764706" d="M 6.5 53 L 10 53.5 L 6.5 54 L 6.5 53 Z " /><path fill="rgb(255,255,255)" stroke="rgb(255,255,255)" stroke-width="1" opacity="0.2823529411764706" d="M 14.5 53 L 23 53.5 L 14.5 54 L 14.5 53 Z " /><path fill="rgb(255,255,255)" stroke="rgb(255,255,255)" stroke-width="1" opacity="0.2823529411764706" d="M 32.5 53 L 37 53.5 L 32.5 54 L 32.5 53 Z " /><path fill="rgb(255,255,255)" stroke="rgb(255,255,255)" stroke-width="1" opacity="0.2823529411764706" d="M 6.5 62 L 75 62.5 L 6.5 63 L 6.5 62 Z " /><path fill="rgb(255,255,255)" stroke="rgb(255,255,255)" stroke-width="1" opacity="0.2823529411764706" d="M 56.5 66 L 57 69.5 L 56 69.5 L 56.5 66 Z " /><path fill="rgb(255,255,255)" stroke="rgb(255,255,255)" stroke-width="1" opacity="0.2823529411764706" d="M 68.5 76 L 69 82.5 L 68 82.5 L 68.5 76 Z " /><path fill="rgb(255,255,255)" stroke="rgb(255,255,255)" stroke-width="1" opacity="0.2823529411764706" d="M 70.5 87 L 71 90.5 L 70 90.5 L 70.5 87 Z " /><path fill="rgb(255,255,255)" stroke="rgb(255,255,255)" stroke-width="1" opacity="0.2823529411764706" d="M 6.5 100 L 22 100.5 L 6.5 101 L 6.5 100 Z " /><path fill="rgb(255,255,255)" stroke="rgb(255,255,255)" stroke-width="1" opacity="0.2823529411764706" d="M 58.5 100 L 69 100.5 L 58.5 101 L 58.5 100 Z " /><path fill="rgb(255,255,255)" stroke="rgb(255,255,255)" stroke-width="1" opacity="0.8431372549019608" d="M 39.5 2 L 42.5 6 L 39.5 2 Z " /><path fill="rgb(255,255,255)" stroke="rgb(255,255,255)" stroke-width="1" opacity="0.8431372549019608" d="M 44.5 10 L 45 14.5 L 44 14.5 L 44.5 10 Z " /><path fill="rgb(255,255,255)" stroke="rgb(255,255,255)" stroke-width="1" opacity="0.8431372549019608" d="M 25.5 19 L 26.5 21 L 25.5 19 Z " /><path fill="rgb(255,255,255)" stroke="rgb(255,255,255)" stroke-width="1" opacity="0.8431372549019608" d="M 42.5 19 L 39.5 23 L 42.5 19 Z " /><path fill="rgb(255,255,255)" stroke="rgb(255,255,255)" stroke-width="1" opacity="0.8431372549019608" d="M 67.5 21 L 68 27.5 L 67 27.5 L 67.5 21 Z " /><path fill="rgb(255,255,255)" stroke="rgb(255,255,255)" stroke-width="1" opacity="0.8431372549019608" d="M 18.5 29 L 17.5 31 L 18.5 29 Z " /><path fill="rgb(255,255,255)" stroke="rgb(255,255,255)" stroke-width="1" opacity="0.8431372549019608" d="M 54.5 29 L 61 29.5 L 54.5 30 L 54.5 29 Z " /><path fill="rgb(255,255,255)" stroke="rgb(255,255,255)" stroke-width="1" opacity="0.8431372549019608" d="M 68.5 29 L 75 29.5 L 68.5 30 L 68.5 29 Z " /><path fill="rgb(255,255,255)" stroke="rgb(255,255,255)" stroke-width="1" opacity="0.8431372549019608" d="M 33.5 34 L 35.5 37 L 33.5 34 Z " /><path fill="rgb(255,255,255)" stroke="rgb(255,255,255)" stroke-width="1" opacity="0.8431372549019608" d="M 38.5 35 L 39.5 37 L 38.5 35 Z " /><path fill="rgb(255,255,255)" stroke="rgb(255,255,255)" stroke-width="1" opacity="0.8431372549019608" d="M 67.5 36 L 68 42.5 L 67 42.5 L 67.5 36 Z " /><path fill="rgb(255,255,255)" stroke="rgb(255,255,255)" stroke-width="1" opacity="0.8431372549019608" d="M 41.5 41 L 43.5 44 L 41.5 41 Z " /><path fill="rgb(255,255,255)" stroke="rgb(255,255,255)" stroke-width="1" opacity="0.8431372549019608" d="M 46.5 42 L 49.5 46 L 46.5 42 Z " /><path fill="rgb(255,255,255)" stroke="rgb(255,255,255)" stroke-width="1" opacity="0.8431372549019608" d="M 9.5 56 L 75 56.5 L 9.5 57 L 9.5 56 Z " /><path fill="rgb(255,255,255)" stroke="rgb(255,255,255)" stroke-width="1" opacity="0.8431372549019608" d="M 76.5 57 L 77.5 59 L 76.5 57 Z " /><path fill="rgb(255,255,255)" stroke="rgb(255,255,255)" stroke-width="1" opacity="0.8431372549019608" d="M 79.5 63 L 78.5 65 L 79.5 63 Z " /><path fill="rgb(255,255,255)" stroke="rgb(255,255,255)" stroke-width="1" opacity="0.8431372549019608" d="M 5.5 65 L 12 65.5 L 5.5 66 L 5.5 65 Z " /><path fill="rgb(255,255,255)" stroke="rgb(255,255,255)" stroke-width="1" opacity="0.8431372549019608" d="M 70.5 65 L 76 65.5 L 70.5 66 L 70.5 65 Z " /><path fill="rgb(255,255,255)" stroke="rgb(255,255,255)" stroke-width="1" opacity="0.8431372549019608" d="M 26.5 71 L 27.5 73 L 26.5 71 Z " /><path fill="rgb(255,255,255)" stroke="rgb(255,255,255)" stroke-width="1" opacity="0.8431372549019608" d="M 59.5 87 L 60 94.5 L 59 94.5 L 59.5 87 Z " /><path fill="rgb(255,255,255)" stroke="rgb(255,255,255)" stroke-width="1" opacity="0.8431372549019608" d="M 67.5 87 L 68 94.5 L 67 94.5 L 67.5 87 Z " /><path fill="rgb(255,255,255)" stroke="rgb(255,255,255)" stroke-width="1" opacity="0.8431372549019608" d="M 22.5 96 L 23.5 98 L 22.5 96 Z " /><path fill="rgb(255,255,255)" stroke="rgb(255,255,255)" stroke-width="1" opacity="0.8431372549019608" d="M 58.5 97 L 68.5 97 L 70 98.5 L 68.5 98 L 58.5 98 L 58.5 97 Z " /><path fill="rgb(255,255,255)" stroke="rgb(255,255,255)" stroke-width="1" opacity="1" d="M 31.5 0 Q 39.8 0.8 43 6.5 Q 45.3 9.7 44 16.5 L 37.5 24 L 30.5 25 Q 24.8 23.8 22 19.5 Q 19.4 16.6 20 10.5 Q 21.3 4.8 25.5 2 L 31.5 0 Z M 30 3 L 25 5 L 23 9 Q 21 17 25 20 L 29 22 L 38 21 L 42 16 L 41 8 Q 39 2 30 3 Z " /><path fill="rgb(255,255,255)" stroke="rgb(255,255,255)" stroke-width="1" opacity="1" d="M 61.5 18 L 65.5 19 L 68.5 18 L 70 19.5 L 70 27 L 77.5 27 L 79 28.5 Q 80.8 35.2 77.5 37 L 70 37 L 70 44.5 Q 68.3 47.8 61.5 46 L 60 44.5 L 60 37 L 52.5 37 L 51 35.5 Q 49.3 28.7 52.5 27 L 60 27 L 60 19.5 L 61.5 18 Z M 62 21 L 62 29 L 54 29 L 54 35 L 62 35 L 62 43 L 68 43 L 68 35 L 76 35 Q 77 30 75 29 L 68 29 L 68 21 L 62 21 Z " /><path fill="rgb(255,255,255)" stroke="rgb(255,255,255)" stroke-width="1" opacity="1" d="M 23.5 27 L 29.5 28 L 52 47.5 L 54 54 L 76.5 54 L 80 56.5 L 81 60.5 L 77.5 65 L 70 65 L 70 70.5 L 68 72.5 L 68 84 L 70 84.5 L 70 92.5 L 73 102.5 L 71.5 104 L 55.5 104 L 54 101.5 Q 58.6 95.4 57 84 L 59 83.5 L 59 72.5 Q 55.7 71 57 66 L 28.5 66 L 28 67.5 L 37 91.5 L 39.5 95 Q 44.3 95.3 46 98.5 L 47 102.5 L 45.5 104 L 29.5 104 Q 24.3 96.9 23 87 Q 20 85.8 21 89.5 L 19 94.5 L 25 99.5 Q 25.8 103.3 23.5 104 L 3.5 104 Q 2.5 104 3 99.5 L 10 78.5 L 12 65 L 3.5 65 L 1 62.5 L 0 59.5 L 2 55 Q 4.1 53.4 9.5 54 L 11 52.5 L 15 34.5 L 20.5 28 L 23.5 27 Z M 23 30 L 21 31 L 18 34 L 13 52 L 14 54 L 29 54 L 32 46 L 43 54 L 51 54 L 51 51 L 30 31 L 23 30 Z M 32 50 L 32 54 L 37 54 L 37 52 L 32 50 Z M 10 56 L 5 57 Q 2 58 3 62 L 5 63 L 76 63 Q 79 62 78 59 L 75 56 L 10 56 Z M 15 66 L 6 101 L 22 101 L 22 100 L 16 97 L 25 69 L 25 66 L 15 66 Z M 60 66 L 60 69 L 67 69 L 67 66 L 60 66 Z M 27 71 L 23 82 L 28 97 L 33 101 L 44 101 L 44 99 L 38 97 L 27 71 Z M 62 72 L 62 84 L 65 84 L 65 73 L 62 72 Z M 59 87 L 59 95 L 68 95 L 68 87 L 59 87 Z M 59 97 L 57 101 L 70 101 L 70 99 L 69 97 L 59 97 Z " /><path fill="rgb(255,255,255)" stroke="rgb(255,255,255)" stroke-width="1" opacity="0.5490196078431373" d="M 23.5 3 L 22.5 5 L 23.5 3 Z " /><path fill="rgb(255,255,255)" stroke="rgb(255,255,255)" stroke-width="1" opacity="0.5490196078431373" d="M 37.5 4 L 39.5 7 L 37.5 4 Z " /><path fill="rgb(255,255,255)" stroke="rgb(255,255,255)" stroke-width="1" opacity="0.5490196078431373" d="M 40.5 17 L 39.5 19 L 40.5 17 Z " /><path fill="rgb(255,255,255)" stroke="rgb(255,255,255)" stroke-width="1" opacity="0.5490196078431373" d="M 22.5 20 L 24.5 23 L 22.5 20 Z " /><path fill="rgb(255,255,255)" stroke="rgb(255,255,255)" stroke-width="1" opacity="0.5490196078431373" d="M 59.5 20 L 60 26.5 L 59 26.5 L 59.5 20 Z " /><path fill="rgb(255,255,255)" stroke="rgb(255,255,255)" stroke-width="1" opacity="0.5490196078431373" d="M 62.5 22 L 63 28.5 L 61 29.5 L 62.5 22 Z " /><path fill="rgb(255,255,255)" stroke="rgb(255,255,255)" stroke-width="1" opacity="0.5490196078431373" d="M 30.5 28 L 31.5 30 L 30.5 28 Z " /><path fill="rgb(255,255,255)" stroke="rgb(255,255,255)" stroke-width="1" opacity="0.5490196078431373" d="M 20.5 31 L 19.5 33 L 20.5 31 Z " /><path fill="rgb(255,255,255)" stroke="rgb(255,255,255)" stroke-width="1" opacity="0.5490196078431373" d="M 29.5 31 L 30.5 33 L 29.5 31 Z " /><path fill="rgb(255,255,255)" stroke="rgb(255,255,255)" stroke-width="1" opacity="0.5490196078431373" d="M 35.5 32 L 37.5 35 L 35.5 32 Z " /><path fill="rgb(255,255,255)" stroke="rgb(255,255,255)" stroke-width="1" opacity="0.5490196078431373" d="M 54.5 34 L 61 34.5 L 54.5 35 L 54.5 34 Z " /><path fill="rgb(255,255,255)" stroke="rgb(255,255,255)" stroke-width="1" opacity="0.5490196078431373" d="M 68.5 34 L 76 34.5 L 67.5 36 L 68.5 34 Z " /><path fill="rgb(255,255,255)" stroke="rgb(255,255,255)" stroke-width="1" opacity="0.5490196078431373" d="M 62.5 35 L 63 42.5 L 62 42.5 L 62.5 35 Z " /><path fill="rgb(255,255,255)" stroke="rgb(255,255,255)" stroke-width="1" opacity="0.5490196078431373" d="M 36.5 37 L 38.5 40 L 36.5 37 Z " /><path fill="rgb(255,255,255)" stroke="rgb(255,255,255)" stroke-width="1" opacity="0.5490196078431373" d="M 52.5 37 Q 58.5 35.5 60 38.5 L 59.5 45 L 59 38 L 52.5 38 L 52.5 37 Z " /><path fill="rgb(255,255,255)" stroke="rgb(255,255,255)" stroke-width="1" opacity="0.5490196078431373" d="M 70.5 37 L 78 37.5 L 70.5 38 L 70.5 37 Z " /><path fill="rgb(255,255,255)" stroke="rgb(255,255,255)" stroke-width="1" opacity="0.5490196078431373" d="M 42.5 38 L 45.5 42 L 42.5 38 Z " /><path fill="rgb(255,255,255)" stroke="rgb(255,255,255)" stroke-width="1" opacity="0.5490196078431373" d="M 44.5 44 L 46.5 47 L 44.5 44 Z " /><path fill="rgb(255,255,255)" stroke="rgb(255,255,255)" stroke-width="1" opacity="0.5490196078431373" d="M 38.5 50 L 39.5 52 L 38.5 50 Z " /><path fill="rgb(255,255,255)" stroke="rgb(255,255,255)" stroke-width="1" opacity="0.5490196078431373" d="M 4.5 57 L 3.5 59 L 4.5 57 Z " /><path fill="rgb(255,255,255)" stroke="rgb(255,255,255)" stroke-width="1" opacity="0.5490196078431373" d="M 69.5 71 L 68.5 73 L 69.5 71 Z " /><path fill="rgb(255,255,255)" stroke="rgb(255,255,255)" stroke-width="1" opacity="0.5490196078431373" d="M 56.5 85 L 57 93.5 L 56 93.5 L 56.5 85 Z " /><path fill="rgb(255,255,255)" stroke="rgb(255,255,255)" stroke-width="1" opacity="0.5490196078431373" d="M 21.5 87 L 22.5 89 L 21.5 87 Z " /><path fill="rgb(255,255,255)" stroke="rgb(255,255,255)" stroke-width="1" opacity="0.5490196078431373" d="M 38.5 93 L 39.5 95 L 38.5 93 Z " /><path fill="rgb(255,255,255)" stroke="rgb(255,255,255)" stroke-width="1" opacity="0.5490196078431373" d="M 60.5 94 L 67 94.5 L 60.5 95 L 60.5 94 Z " /><path fill="rgb(255,255,255)" stroke="rgb(255,255,255)" stroke-width="1" opacity="0.5490196078431373" d="M 44.5 96 L 45.5 98 L 44.5 96 Z " /><path fill="rgb(255,255,255)" stroke="rgb(255,255,255)" stroke-width="1" opacity="0.5490196078431373" d="M 20.5 98 L 21.5 100 L 20.5 98 Z " /><path fill="rgb(255,255,255)" stroke="rgb(255,255,255)" stroke-width="1" opacity="0.5490196078431373" d="M 57.5 98 L 58 100.5 L 57 100.5 L 57.5 98 Z " /><path fill="rgb(255,255,255)" stroke="rgb(255,255,255)" stroke-width="1" opacity="0.5490196078431373" d="M 26.5 99 L 26 100.5 L 25.5 103 L 25 100.5 L 26.5 99 Z " /></svg>