<svg width="70" height="95" version="1.1" xmlns="http://www.w3.org/2000/svg" desc="Created with imagetracer.js version 1.2.6" ><path fill="rgb(0,0,0)" stroke="rgb(0,0,0)" stroke-width="1" opacity="0" d="M 0 0 L 28 0.5 Q 18.1 2.1 14 9.5 L 6 26.5 L 6 36.5 L 10 45.5 L 19 56.5 L 0 74.5 L 0 0 Z " /><path fill="rgb(0,0,0)" stroke="rgb(0,0,0)" stroke-width="1" opacity="0" d="M 42.5 0 L 70 0 L 70 74.5 L 51 56.5 L 64 37.5 L 64 27.5 Q 60.6 12.4 50.5 4 L 42.5 1 L 42.5 0 Z " /><path fill="rgb(0,0,0)" stroke="rgb(0,0,0)" stroke-width="1" opacity="0" d="M 33.5 3 Q 45 3 50 9.5 L 50 14.5 L 48 21 L 33.5 18 L 22.5 21 Q 19.3 18.3 19 12.5 L 22.5 7 L 33.5 3 Z " /><path fill="rgb(0,0,0)" stroke="rgb(0,0,0)" stroke-width="1" opacity="0" d="M 54.5 16 Q 60.1 22.9 60 35.5 Q 55.8 45.8 48.5 53 L 38 43.5 L 38 40.5 Q 48.3 30.3 54.5 16 Z " /><path fill="rgb(0,0,0)" stroke="rgb(0,0,0)" stroke-width="1" opacity="0" d="M 14 17 Q 17 15.8 16 19.5 Q 20.9 31.1 29 39.5 L 65 76.5 L 65 78.5 L 55.5 90 L 20 51.5 L 11 38.5 L 10 29.5 L 14 17 Z " /><path fill="rgb(0,0,0)" stroke="rgb(0,0,0)" stroke-width="1" opacity="0" d="M 33.5 22 L 44 24 L 44 26.5 L 34.5 39 L 24 25.5 L 33.5 22 Z " /><path fill="rgb(0,0,0)" stroke="rgb(0,0,0)" stroke-width="1" opacity="0" d="M 21.5 60 L 32 71.5 L 14.5 90 L 5 78.5 L 5 76.5 L 21.5 60 Z " /><path fill="rgb(0,0,0)" stroke="rgb(0,0,0)" stroke-width="1" opacity="0" d="M 34.5 75 L 47 86.5 L 54 94.5 L 16.5 95 L 22 88.5 L 34.5 75 Z " /><path fill="rgb(0,0,0)" stroke="rgb(0,0,0)" stroke-width="1" opacity="0" d="M 0.5 79 L 12 94.5 L 0 95 L 0.5 79 Z " /><path fill="rgb(0,0,0)" stroke="rgb(0,0,0)" stroke-width="1" opacity="0" d="M 69.5 79 L 70 95 L 58 94.5 L 69.5 79 Z " /><path fill="rgb(255,255,255)" stroke="rgb(255,255,255)" stroke-width="1" opacity="0.5137254901960784" d="M 48.5 3 L 49.5 5 L 48.5 3 Z " /><path fill="rgb(255,255,255)" stroke="rgb(255,255,255)" stroke-width="1" opacity="0.5137254901960784" d="M 21.5 7 L 20.5 9 L 21.5 7 Z " /><path fill="rgb(255,255,255)" stroke="rgb(255,255,255)" stroke-width="1" opacity="0.5137254901960784" d="M 48.5 7 L 50.5 10 L 48.5 7 Z " /><path fill="rgb(255,255,255)" stroke="rgb(255,255,255)" stroke-width="1" opacity="0.5137254901960784" d="M 14.5 10 L 13.5 12 L 14.5 10 Z " /><path fill="rgb(255,255,255)" stroke="rgb(255,255,255)" stroke-width="1" opacity="0.5137254901960784" d="M 54.5 14 L 53.5 16 L 54.5 14 Z " /><path fill="rgb(255,255,255)" stroke="rgb(255,255,255)" stroke-width="1" opacity="0.5137254901960784" d="M 15.5 15 L 14.5 17 L 15.5 15 Z " /><path fill="rgb(255,255,255)" stroke="rgb(255,255,255)" stroke-width="1" opacity="0.5137254901960784" d="M 24.5 24 L 23.5 26 L 24.5 24 Z " /><path fill="rgb(255,255,255)" stroke="rgb(255,255,255)" stroke-width="1" opacity="0.5137254901960784" d="M 49.5 24 L 48.5 26 L 49.5 24 Z " /><path fill="rgb(255,255,255)" stroke="rgb(255,255,255)" stroke-width="1" opacity="0.5137254901960784" d="M 44.5 26 L 43.5 28 L 44.5 26 Z " /><path fill="rgb(255,255,255)" stroke="rgb(255,255,255)" stroke-width="1" opacity="0.5137254901960784" d="M 6.5 28 L 7 35.5 L 6 35.5 L 6.5 28 Z " /><path fill="rgb(255,255,255)" stroke="rgb(255,255,255)" stroke-width="1" opacity="0.5137254901960784" d="M 63.5 29 L 64 32.5 L 63 32.5 L 63.5 29 Z " /><path fill="rgb(255,255,255)" stroke="rgb(255,255,255)" stroke-width="1" opacity="0.5137254901960784" d="M 41.5 30 L 40.5 32 L 41.5 30 Z " /><path fill="rgb(255,255,255)" stroke="rgb(255,255,255)" stroke-width="1" opacity="0.5137254901960784" d="M 45.5 30 L 44.5 32 L 45.5 30 Z " /><path fill="rgb(255,255,255)" stroke="rgb(255,255,255)" stroke-width="1" opacity="0.5137254901960784" d="M 24.5 32 L 25.5 34 L 24.5 32 Z " /><path fill="rgb(255,255,255)" stroke="rgb(255,255,255)" stroke-width="1" opacity="0.5137254901960784" d="M 38.5 34 L 37.5 36 L 38.5 34 Z " /><path fill="rgb(255,255,255)" stroke="rgb(255,255,255)" stroke-width="1" opacity="0.5137254901960784" d="M 42.5 34 L 41.5 36 L 42.5 34 Z " /><path fill="rgb(255,255,255)" stroke="rgb(255,255,255)" stroke-width="1" opacity="0.5137254901960784" d="M 27.5 36 L 28.5 38 L 27.5 36 Z " /><path fill="rgb(255,255,255)" stroke="rgb(255,255,255)" stroke-width="1" opacity="0.5137254901960784" d="M 35.5 38 L 34.5 40 L 35.5 38 Z " /><path fill="rgb(255,255,255)" stroke="rgb(255,255,255)" stroke-width="1" opacity="0.5137254901960784" d="M 39.5 38 L 38.5 40 L 39.5 38 Z " /><path fill="rgb(255,255,255)" stroke="rgb(255,255,255)" stroke-width="1" opacity="0.5137254901960784" d="M 62.5 39 L 61.5 41 L 62.5 39 Z " /><path fill="rgb(255,255,255)" stroke="rgb(255,255,255)" stroke-width="1" opacity="0.5137254901960784" d="M 32.5 42 L 34.5 45 L 32.5 42 Z " /><path fill="rgb(255,255,255)" stroke="rgb(255,255,255)" stroke-width="1" opacity="0.5137254901960784" d="M 60.5 42 L 59.5 44 L 60.5 42 Z " /><path fill="rgb(255,255,255)" stroke="rgb(255,255,255)" stroke-width="1" opacity="0.5137254901960784" d="M 37.5 43 L 43.5 50 L 37.5 43 Z " /><path fill="rgb(255,255,255)" stroke="rgb(255,255,255)" stroke-width="1" opacity="0.5137254901960784" d="M 58.5 45 L 57.5 47 L 58.5 45 Z " /><path fill="rgb(255,255,255)" stroke="rgb(255,255,255)" stroke-width="1" opacity="0.5137254901960784" d="M 12.5 47 L 13.5 49 L 12.5 47 Z " /><path fill="rgb(255,255,255)" stroke="rgb(255,255,255)" stroke-width="1" opacity="0.5137254901960784" d="M 16.5 47 L 17.5 49 L 16.5 47 Z " /><path fill="rgb(255,255,255)" stroke="rgb(255,255,255)" stroke-width="1" opacity="0.5137254901960784" d="M 53.5 47 L 52.5 49 L 53.5 47 Z " /><path fill="rgb(255,255,255)" stroke="rgb(255,255,255)" stroke-width="1" opacity="0.5137254901960784" d="M 15.5 51 L 16.5 53 L 15.5 51 Z " /><path fill="rgb(255,255,255)" stroke="rgb(255,255,255)" stroke-width="1" opacity="0.5137254901960784" d="M 19.5 51 L 21.5 54 L 19.5 51 Z " /><path fill="rgb(255,255,255)" stroke="rgb(255,255,255)" stroke-width="1" opacity="0.5137254901960784" d="M 40.5 51 L 65.5 77 L 40.5 51 Z " /><path fill="rgb(255,255,255)" stroke="rgb(255,255,255)" stroke-width="1" opacity="0.5137254901960784" d="M 50.5 51 L 48.5 54 L 50.5 51 Z " /><path fill="rgb(255,255,255)" stroke="rgb(255,255,255)" stroke-width="1" opacity="0.5137254901960784" d="M 53.5 52 L 52.5 54 L 53.5 52 Z " /><path fill="rgb(255,255,255)" stroke="rgb(255,255,255)" stroke-width="1" opacity="0.5137254901960784" d="M 18.5 57 L 3.5 73 L 18.5 57 Z " /><path fill="rgb(255,255,255)" stroke="rgb(255,255,255)" stroke-width="1" opacity="0.5137254901960784" d="M 24.5 57 L 26.5 60 L 24.5 57 Z " /><path fill="rgb(255,255,255)" stroke="rgb(255,255,255)" stroke-width="1" opacity="0.5137254901960784" d="M 25.5 63 L 29.5 68 L 25.5 63 Z " /><path fill="rgb(255,255,255)" stroke="rgb(255,255,255)" stroke-width="1" opacity="0.5137254901960784" d="M 32.5 66 L 38.5 73 L 32.5 66 Z " /><path fill="rgb(255,255,255)" stroke="rgb(255,255,255)" stroke-width="1" opacity="0.5137254901960784" d="M 12.5 68 L 4.5 77 L 12.5 68 Z " /><path fill="rgb(255,255,255)" stroke="rgb(255,255,255)" stroke-width="1" opacity="0.5137254901960784" d="M 32.5 71 L 30.5 74 L 32.5 71 Z " /><path fill="rgb(255,255,255)" stroke="rgb(255,255,255)" stroke-width="1" opacity="0.5137254901960784" d="M 37.5 76 L 46.5 86 L 37.5 76 Z " /><path fill="rgb(255,255,255)" stroke="rgb(255,255,255)" stroke-width="1" opacity="0.5137254901960784" d="M 31.5 77 L 21.5 88 L 31.5 77 Z " /><path fill="rgb(255,255,255)" stroke="rgb(255,255,255)" stroke-width="1" opacity="0.5137254901960784" d="M 0.5 78 L 1.5 80 L 0.5 78 Z " /><path fill="rgb(255,255,255)" stroke="rgb(255,255,255)" stroke-width="1" opacity="0.5137254901960784" d="M 4.5 78 L 5.5 80 L 4.5 78 Z " /><path fill="rgb(255,255,255)" stroke="rgb(255,255,255)" stroke-width="1" opacity="0.5137254901960784" d="M 65.5 78 L 64.5 80 L 65.5 78 Z " /><path fill="rgb(255,255,255)" stroke="rgb(255,255,255)" stroke-width="1" opacity="0.5137254901960784" d="M 69.5 78 L 68.5 80 L 69.5 78 Z " /><path fill="rgb(255,255,255)" stroke="rgb(255,255,255)" stroke-width="1" opacity="0.5137254901960784" d="M 3.5 82 L 4.5 84 L 3.5 82 Z " /><path fill="rgb(255,255,255)" stroke="rgb(255,255,255)" stroke-width="1" opacity="0.5137254901960784" d="M 7.5 82 L 8.5 84 L 7.5 82 Z " /><path fill="rgb(255,255,255)" stroke="rgb(255,255,255)" stroke-width="1" opacity="0.5137254901960784" d="M 62.5 82 L 61.5 84 L 62.5 82 Z " /><path fill="rgb(255,255,255)" stroke="rgb(255,255,255)" stroke-width="1" opacity="0.5137254901960784" d="M 66.5 82 L 65.5 84 L 66.5 82 Z " /><path fill="rgb(255,255,255)" stroke="rgb(255,255,255)" stroke-width="1" opacity="0.5137254901960784" d="M 6.5 86 L 7.5 88 L 6.5 86 Z " /><path fill="rgb(255,255,255)" stroke="rgb(255,255,255)" stroke-width="1" opacity="0.5137254901960784" d="M 10.5 86 L 11.5 88 L 10.5 86 Z " /><path fill="rgb(255,255,255)" stroke="rgb(255,255,255)" stroke-width="1" opacity="0.5137254901960784" d="M 51.5 86 L 57 90.5 L 55.5 91 L 51.5 86 Z " /><path fill="rgb(255,255,255)" stroke="rgb(255,255,255)" stroke-width="1" opacity="0.5137254901960784" d="M 59.5 86 L 58.5 88 L 59.5 86 Z " /><path fill="rgb(255,255,255)" stroke="rgb(255,255,255)" stroke-width="1" opacity="0.5137254901960784" d="M 63.5 86 L 62.5 88 L 63.5 86 Z " /><path fill="rgb(255,255,255)" stroke="rgb(255,255,255)" stroke-width="1" opacity="0.5137254901960784" d="M 17.5 87 L 14.5 91 L 13 90.5 L 17.5 87 Z " /><path fill="rgb(255,255,255)" stroke="rgb(255,255,255)" stroke-width="1" opacity="0.5137254901960784" d="M 9.5 90 L 10.5 92 L 9.5 90 Z " /><path fill="rgb(255,255,255)" stroke="rgb(255,255,255)" stroke-width="1" opacity="0.5137254901960784" d="M 60.5 90 L 59.5 92 L 60.5 90 Z " /><path fill="rgb(255,255,255)" stroke="rgb(255,255,255)" stroke-width="1" opacity="0.06274509803921569" d="M 21.5 20 L 22.5 22 L 21.5 20 Z " /><path fill="rgb(255,255,255)" stroke="rgb(255,255,255)" stroke-width="1" opacity="0.06274509803921569" d="M 51.5 57 L 56.5 63 L 51.5 57 Z " /><path fill="rgb(255,255,255)" stroke="rgb(255,255,255)" stroke-width="1" opacity="0.06274509803921569" d="M 48.5 82 L 51.5 86 L 48.5 82 Z " /><path fill="rgb(255,255,255)" stroke="rgb(255,255,255)" stroke-width="1" opacity="0.06274509803921569" d="M 19.5 84 L 17.5 87 L 19.5 84 Z " /><path fill="rgb(255,255,255)" stroke="rgb(255,255,255)" stroke-width="1" opacity="0.06274509803921569" d="M 47.5 87 L 49.5 90 L 47.5 87 Z " /><path fill="rgb(255,255,255)" stroke="rgb(255,255,255)" stroke-width="1" opacity="0.06274509803921569" d="M 21.5 88 L 19.5 91 L 21.5 88 Z " /><path fill="rgb(255,255,255)" stroke="rgb(255,255,255)" stroke-width="1" opacity="0.9686274509803922" d="M 31.5 0 Q 48.5 -0.5 55 9.5 L 61 19.5 L 64 34.5 L 63 38.5 L 50 56.5 L 70 77.5 L 56.5 95 L 47 86.5 L 35.5 74 L 21 87.5 L 14.5 95 L 11 92.5 L 0 76.5 L 19 57.5 L 19 55.5 L 8 40.5 Q 5.5 35 7 25.5 Q 10.6 12.6 19.5 5 L 31.5 0 Z M 30 3 L 22 7 L 19 11 Q 18 18 21 22 L 32 19 L 40 19 L 48 22 L 51 14 L 51 10 Q 46 1 30 3 Z M 55 14 Q 49 29 38 40 L 37 44 L 49 54 L 60 38 L 60 27 L 55 14 Z M 16 15 L 12 21 L 9 33 Q 12 44 19 52 L 51 87 L 57 91 L 66 79 L 66 77 L 29 39 L 19 25 L 16 15 Z M 30 22 L 23 26 L 35 40 L 45 27 L 45 25 Q 40 20 30 22 Z M 22 59 L 4 77 L 4 79 L 13 90 Q 12 92 15 91 L 33 72 L 22 59 Z " /><path fill="rgb(255,255,255)" stroke="rgb(255,255,255)" stroke-width="1" opacity="0.16470588235294117" d="M 50.5 4 L 54.5 9 L 50.5 4 Z " /><path fill="rgb(255,255,255)" stroke="rgb(255,255,255)" stroke-width="1" opacity="0.16470588235294117" d="M 18.5 5 L 15.5 9 L 18.5 5 Z " /><path fill="rgb(255,255,255)" stroke="rgb(255,255,255)" stroke-width="1" opacity="0.16470588235294117" d="M 33.5 18 L 36 18.5 L 33.5 19 L 33.5 18 Z " /><path fill="rgb(255,255,255)" stroke="rgb(255,255,255)" stroke-width="1" opacity="0.16470588235294117" d="M 24.5 26 L 25.5 28 L 24.5 26 Z " /><path fill="rgb(255,255,255)" stroke="rgb(255,255,255)" stroke-width="1" opacity="0.16470588235294117" d="M 42.5 28 L 41.5 30 L 42.5 28 Z " /><path fill="rgb(255,255,255)" stroke="rgb(255,255,255)" stroke-width="1" opacity="0.16470588235294117" d="M 27.5 30 L 28.5 32 L 27.5 30 Z " /><path fill="rgb(255,255,255)" stroke="rgb(255,255,255)" stroke-width="1" opacity="0.16470588235294117" d="M 39.5 32 L 38.5 34 L 39.5 32 Z " /><path fill="rgb(255,255,255)" stroke="rgb(255,255,255)" stroke-width="1" opacity="0.16470588235294117" d="M 44.5 32 L 43.5 34 L 44.5 32 Z " /><path fill="rgb(255,255,255)" stroke="rgb(255,255,255)" stroke-width="1" opacity="0.16470588235294117" d="M 30.5 34 L 31.5 36 L 30.5 34 Z " /><path fill="rgb(255,255,255)" stroke="rgb(255,255,255)" stroke-width="1" opacity="0.16470588235294117" d="M 30.5 40 L 31.5 42 L 30.5 40 Z " /><path fill="rgb(255,255,255)" stroke="rgb(255,255,255)" stroke-width="1" opacity="0.16470588235294117" d="M 36.5 47 L 39.5 51 L 36.5 47 Z " /><path fill="rgb(255,255,255)" stroke="rgb(255,255,255)" stroke-width="1" opacity="0.16470588235294117" d="M 57.5 47 L 56.5 49 L 57.5 47 Z " /><path fill="rgb(255,255,255)" stroke="rgb(255,255,255)" stroke-width="1" opacity="0.16470588235294117" d="M 51.5 49 L 50.5 51 L 51.5 49 Z " /><path fill="rgb(255,255,255)" stroke="rgb(255,255,255)" stroke-width="1" opacity="0.16470588235294117" d="M 44.5 50 L 47.5 54 L 44.5 50 Z " /><path fill="rgb(255,255,255)" stroke="rgb(255,255,255)" stroke-width="1" opacity="0.16470588235294117" d="M 22.5 54 L 23.5 56 L 22.5 54 Z " /><path fill="rgb(255,255,255)" stroke="rgb(255,255,255)" stroke-width="1" opacity="0.16470588235294117" d="M 52.5 54 L 51.5 56 L 52.5 54 Z " /><path fill="rgb(255,255,255)" stroke="rgb(255,255,255)" stroke-width="1" opacity="0.16470588235294117" d="M 21.5 59 L 24.5 63 L 21.5 60 L 13 67.5 L 21.5 59 Z " /><path fill="rgb(255,255,255)" stroke="rgb(255,255,255)" stroke-width="1" opacity="0.16470588235294117" d="M 27.5 60 L 30.5 64 L 27.5 60 Z " /><path fill="rgb(255,255,255)" stroke="rgb(255,255,255)" stroke-width="1" opacity="0.16470588235294117" d="M 57.5 63 L 69.5 76 L 57.5 63 Z " /><path fill="rgb(255,255,255)" stroke="rgb(255,255,255)" stroke-width="1" opacity="0.16470588235294117" d="M 30.5 69 L 31.5 71 L 30.5 69 Z " /><path fill="rgb(255,255,255)" stroke="rgb(255,255,255)" stroke-width="1" opacity="0.16470588235294117" d="M 2.5 73 L 0.5 76 L 2.5 73 Z " /><path fill="rgb(255,255,255)" stroke="rgb(255,255,255)" stroke-width="1" opacity="0.16470588235294117" d="M 39.5 73 L 47.5 82 L 39.5 73 Z " /><path fill="rgb(255,255,255)" stroke="rgb(255,255,255)" stroke-width="1" opacity="0.16470588235294117" d="M 29.5 74 L 20.5 84 L 29.5 74 Z " /><path fill="rgb(255,255,255)" stroke="rgb(255,255,255)" stroke-width="1" opacity="0.16470588235294117" d="M 34.5 74 L 37 75.5 L 35.5 75 L 32.5 77 L 34.5 74 Z " /><path fill="rgb(255,255,255)" stroke="rgb(255,255,255)" stroke-width="1" opacity="0.16470588235294117" d="M 63.5 80 L 62.5 82 L 63.5 80 Z " /><path fill="rgb(255,255,255)" stroke="rgb(255,255,255)" stroke-width="1" opacity="0.16470588235294117" d="M 60.5 84 L 59.5 86 L 60.5 84 Z " /><path fill="rgb(255,255,255)" stroke="rgb(255,255,255)" stroke-width="1" opacity="0.16470588235294117" d="M 57.5 88 L 56.5 90 L 57.5 88 Z " /><path fill="rgb(255,255,255)" stroke="rgb(255,255,255)" stroke-width="1" opacity="0.16470588235294117" d="M 50.5 90 L 54.5 95 L 50.5 90 Z " /><path fill="rgb(255,255,255)" stroke="rgb(255,255,255)" stroke-width="1" opacity="0.16470588235294117" d="M 18.5 91 L 15.5 95 L 18.5 91 Z " /><path fill="rgb(255,255,255)" stroke="rgb(255,255,255)" stroke-width="1" opacity="0.16470588235294117" d="M 58.5 93 L 57.5 95 L 58.5 93 Z " /></svg>