<svg width="82" height="92" version="1.1" xmlns="http://www.w3.org/2000/svg" desc="Created with imagetracer.js version 1.2.6" ><path fill="rgb(255,255,255)" stroke="rgb(255,255,255)" stroke-width="1" opacity="1" d="M 22.5 0 L 60.5 0 L 62 1.5 Q 62.2 12.8 69.5 17 Q 73.8 20.7 81 20 L 82 22.5 L 82 34.5 L 81 35.5 L 81 50.5 L 77 63.5 Q 71.8 73.3 63.5 80 Q 54.3 88.3 40.5 92 Q 22.2 85.8 11 72.5 L 2 55.5 L 0 21.5 L 1.5 20 L 9.5 19 L 17 12.5 Q 20.7 8.2 20 1 L 22.5 0 Z M 23 3 Q 22 11 18 16 Q 13 22 3 23 L 3 47 L 6 56 L 16 48 L 13 44 Q 12 36 15 33 L 20 29 L 24 28 L 29 29 L 35 37 Q 36 45 32 48 L 36 50 Q 45 51 50 49 L 47 43 L 48 35 Q 51 30 58 28 L 65 30 L 69 36 L 69 43 L 66 49 Q 72 49 75 55 Q 74 57 77 56 L 79 46 L 79 23 Q 71 22 67 18 Q 61 13 59 5 L 59 3 L 23 3 Z M 22 31 L 20 32 L 15 39 L 17 46 L 21 48 Q 30 50 32 44 L 31 35 Q 29 30 22 31 Z M 57 31 L 54 32 Q 48 34 50 44 L 56 48 L 62 48 L 65 46 L 67 42 L 66 36 Q 64 31 57 31 Z M 16 51 L 11 53 L 8 59 L 8 63 L 12 70 L 28 83 L 29 71 L 34 67 L 32 62 Q 31 55 34 53 L 33 51 L 16 51 Z M 50 51 L 48 53 L 50 57 Q 51 63 48 66 Q 47 68 50 67 L 54 74 L 55 83 L 60 80 Q 69 73 74 63 Q 75 57 72 55 L 67 51 L 50 51 Z M 39 53 L 36 54 L 34 60 L 35 63 L 40 66 L 45 65 L 48 60 L 46 54 Q 44 52 39 53 Z M 39 68 L 35 69 L 31 73 L 31 85 L 41 89 L 51 85 L 51 73 L 50 70 L 44 68 L 39 68 Z " /><path fill="rgb(255,255,255)" stroke="rgb(255,255,255)" stroke-width="1" opacity="1" d="M 34.5 9 L 47.5 9 L 51 11.5 L 52 18.5 L 40.5 29 L 30 18.5 L 30 13.5 L 32.5 10 L 34.5 9 Z M 37 11 L 35 12 Q 32 13 33 19 L 42 26 L 49 19 L 50 16 L 49 14 L 46 11 L 42 13 L 37 11 Z " /><path fill="rgb(0,0,0)" stroke="rgb(0,0,0)" stroke-width="1" opacity="0" d="M 0 0 L 20 0.5 L 18 8.5 L 13.5 15 L 8.5 18 L 0.5 20 L 0 0 Z " /><path fill="rgb(0,0,0)" stroke="rgb(0,0,0)" stroke-width="1" opacity="0" d="M 62.5 0 L 82 0 L 82 19.5 L 80.5 19 Q 71.1 18.9 67 13.5 L 64 8.5 L 62.5 0 Z " /><path fill="rgb(0,0,0)" stroke="rgb(0,0,0)" stroke-width="1" opacity="0" d="M 24.5 4 L 57.5 4 L 58 5.5 Q 60.1 15.4 67.5 20 L 78 24.5 L 78 45.5 L 75.5 54 L 72.5 50 L 68 47.5 Q 71 43.5 70 35.5 L 64.5 29 Q 61 26.5 53.5 28 L 48 32.5 Q 45 35.5 46 42.5 L 49 47.5 L 46.5 49 L 35.5 49 L 33 47.5 Q 37.1 44.6 36 36.5 L 30.5 29 Q 27 26.5 19.5 28 L 13 33.5 L 12 43.5 L 14 47.5 L 8 51 L 6.5 54 L 5 52.5 Q 6.3 47.7 4 46.5 L 4 24.5 L 14.5 20 L 20 14.5 L 24.5 4 Z M 35 8 L 33 9 L 29 14 L 30 21 L 40 30 L 43 30 L 53 19 L 52 12 L 48 8 Q 42 7 41 9 Q 39 7 35 8 Z " /><path fill="rgb(0,0,0)" stroke="rgb(0,0,0)" stroke-width="1" opacity="0" d="M 36.5 12 L 42.5 14 L 45.5 12 L 48 13 L 49 16.5 L 40.5 24 L 33 15.5 L 34 13 L 36.5 12 Z " /><path fill="rgb(0,0,0)" stroke="rgb(0,0,0)" stroke-width="1" opacity="0" d="M 22.5 32 Q 28.9 32.1 31 36.5 L 32 39.5 L 28.5 46 L 20.5 47 Q 16.1 44.9 16 38.5 L 18 34 L 22.5 32 Z " /><path fill="rgb(0,0,0)" stroke="rgb(0,0,0)" stroke-width="1" opacity="0" d="M 56.5 32 L 64 34 L 66 41.5 L 62.5 46 L 55.5 47 L 52 44.5 L 50 39.5 L 54.5 33 L 56.5 32 Z " /><path fill="rgb(0,0,0)" stroke="rgb(0,0,0)" stroke-width="1" opacity="0" d="M 0.5 51 L 5 65.5 L 20.5 83 L 37 91.5 L 0 92 L 0.5 51 Z " /><path fill="rgb(0,0,0)" stroke="rgb(0,0,0)" stroke-width="1" opacity="0" d="M 81.5 51 L 82 92 L 45 91.5 Q 62.8 85.3 73 71.5 Q 79.7 63.7 81.5 51 Z " /><path fill="rgb(0,0,0)" stroke="rgb(0,0,0)" stroke-width="1" opacity="0" d="M 15.5 52 L 32.5 52 L 33 53.5 Q 29.8 55.8 31 62.5 L 33 65.5 L 28 70.5 L 27.5 82 L 15 71.5 L 9 62.5 L 9 58.5 L 13.5 53 L 15.5 52 Z " /><path fill="rgb(0,0,0)" stroke="rgb(0,0,0)" stroke-width="1" opacity="0" d="M 49.5 52 L 66.5 52 L 72 56.5 L 73 62.5 Q 68.8 71.3 61.5 77 L 54.5 82 L 54 77.5 L 55 74.5 L 51.5 67 L 49 65.5 Q 52 62.5 51 55.5 L 49.5 52 Z " /><path fill="rgb(0,0,0)" stroke="rgb(0,0,0)" stroke-width="1" opacity="0" d="M 38.5 54 Q 44.8 52.8 46 56.5 L 47 59.5 L 42.5 65 L 37 64 L 35 58.5 L 38.5 54 Z " /><path fill="rgb(0,0,0)" stroke="rgb(0,0,0)" stroke-width="1" opacity="0" d="M 37.5 69 Q 45.8 67.8 49 71.5 Q 51.7 75.3 50 83.5 L 40.5 88 L 32 83.5 L 32 72.5 L 34.5 70 L 37.5 69 Z " /><path fill="rgb(255,255,255)" stroke="rgb(255,255,255)" stroke-width="1" opacity="0.7450980392156863" d="M 34.5 12 L 33.5 14 L 34.5 12 Z " /><path fill="rgb(255,255,255)" stroke="rgb(255,255,255)" stroke-width="1" opacity="0.7450980392156863" d="M 47.5 12 L 48.5 14 L 47.5 12 Z " /><path fill="rgb(255,255,255)" stroke="rgb(255,255,255)" stroke-width="1" opacity="0.7450980392156863" d="M 57.5 31 L 60 31.5 L 57.5 32 L 57.5 31 Z " /><path fill="rgb(255,255,255)" stroke="rgb(255,255,255)" stroke-width="1" opacity="0.7450980392156863" d="M 69.5 38 L 70 40.5 L 69 40.5 L 69.5 38 Z " /><path fill="rgb(255,255,255)" stroke="rgb(255,255,255)" stroke-width="1" opacity="0.7450980392156863" d="M 0.5 40 L 1 43.5 L 0 43.5 L 0.5 40 Z " /><path fill="rgb(255,255,255)" stroke="rgb(255,255,255)" stroke-width="1" opacity="0.7450980392156863" d="M 81.5 42 L 82 45.5 L 81 45.5 L 81.5 42 Z " /><path fill="rgb(255,255,255)" stroke="rgb(255,255,255)" stroke-width="1" opacity="0.16470588235294117" d="M 16.5 11 L 15.5 13 L 16.5 11 Z " /><path fill="rgb(255,255,255)" stroke="rgb(255,255,255)" stroke-width="1" opacity="0.16470588235294117" d="M 65.5 11 L 66.5 13 L 65.5 11 Z " /><path fill="rgb(255,255,255)" stroke="rgb(255,255,255)" stroke-width="1" opacity="0.16470588235294117" d="M 43.5 12 L 42.5 14 L 43.5 12 Z " /><path fill="rgb(255,255,255)" stroke="rgb(255,255,255)" stroke-width="1" opacity="0.16470588235294117" d="M 12.5 15 L 11.5 17 L 12.5 15 Z " /><path fill="rgb(255,255,255)" stroke="rgb(255,255,255)" stroke-width="1" opacity="0.16470588235294117" d="M 69.5 15 L 70.5 17 L 69.5 15 Z " /><path fill="rgb(255,255,255)" stroke="rgb(255,255,255)" stroke-width="1" opacity="0.16470588235294117" d="M 33.5 16 L 40.5 24 L 47.5 18 L 41.5 25 L 33 17.5 L 33.5 16 Z " /><path fill="rgb(255,255,255)" stroke="rgb(255,255,255)" stroke-width="1" opacity="0.16470588235294117" d="M 30.5 20 L 39.5 30 L 30.5 20 Z " /><path fill="rgb(255,255,255)" stroke="rgb(255,255,255)" stroke-width="1" opacity="0.16470588235294117" d="M 51.5 20 L 42.5 30 L 51.5 20 Z " /><path fill="rgb(255,255,255)" stroke="rgb(255,255,255)" stroke-width="1" opacity="0.16470588235294117" d="M 78.5 28 L 79 37.5 L 78 37.5 L 78.5 28 Z " /><path fill="rgb(255,255,255)" stroke="rgb(255,255,255)" stroke-width="1" opacity="0.16470588235294117" d="M 30.5 29 L 33.5 33 L 30.5 29 Z " /><path fill="rgb(255,255,255)" stroke="rgb(255,255,255)" stroke-width="1" opacity="0.16470588235294117" d="M 51.5 29 L 48.5 33 L 51.5 29 Z " /><path fill="rgb(255,255,255)" stroke="rgb(255,255,255)" stroke-width="1" opacity="0.16470588235294117" d="M 28.5 33 L 30.5 36 L 28.5 33 Z " /><path fill="rgb(255,255,255)" stroke="rgb(255,255,255)" stroke-width="1" opacity="0.16470588235294117" d="M 53.5 33 L 51.5 36 L 53.5 33 Z " /><path fill="rgb(255,255,255)" stroke="rgb(255,255,255)" stroke-width="1" opacity="0.16470588235294117" d="M 77.5 46 L 78 48.5 L 77 48.5 L 77.5 46 Z " /><path fill="rgb(255,255,255)" stroke="rgb(255,255,255)" stroke-width="1" opacity="0.16470588235294117" d="M 14.5 47 L 13.5 49 L 14.5 47 Z " /><path fill="rgb(255,255,255)" stroke="rgb(255,255,255)" stroke-width="1" opacity="0.16470588235294117" d="M 22.5 47 L 25 47.5 L 22.5 48 L 22.5 47 Z " /><path fill="rgb(255,255,255)" stroke="rgb(255,255,255)" stroke-width="1" opacity="0.16470588235294117" d="M 56.5 47 L 60 47.5 L 56.5 48 L 56.5 47 Z " /><path fill="rgb(255,255,255)" stroke="rgb(255,255,255)" stroke-width="1" opacity="0.16470588235294117" d="M 38.5 49 L 43 49.5 L 38.5 50 L 38.5 49 Z " /><path fill="rgb(255,255,255)" stroke="rgb(255,255,255)" stroke-width="1" opacity="0.16470588235294117" d="M 72.5 50 L 74.5 53 L 72.5 50 Z " /><path fill="rgb(255,255,255)" stroke="rgb(255,255,255)" stroke-width="1" opacity="0.16470588235294117" d="M 76.5 52 L 77 53.5 L 75 54.5 L 76.5 52 Z " /><path fill="rgb(255,255,255)" stroke="rgb(255,255,255)" stroke-width="1" opacity="0.16470588235294117" d="M 12.5 53 L 11.5 55 L 12.5 53 Z " /><path fill="rgb(255,255,255)" stroke="rgb(255,255,255)" stroke-width="1" opacity="0.16470588235294117" d="M 40.5 53 L 43 53.5 L 40.5 54 L 40.5 53 Z " /><path fill="rgb(255,255,255)" stroke="rgb(255,255,255)" stroke-width="1" opacity="0.16470588235294117" d="M 37.5 54 L 36.5 56 L 37.5 54 Z " /><path fill="rgb(255,255,255)" stroke="rgb(255,255,255)" stroke-width="1" opacity="0.16470588235294117" d="M 44.5 54 L 45.5 56 L 44.5 54 Z " /><path fill="rgb(255,255,255)" stroke="rgb(255,255,255)" stroke-width="1" opacity="0.16470588235294117" d="M 45.5 62 L 43.5 65 L 45.5 62 Z " /><path fill="rgb(255,255,255)" stroke="rgb(255,255,255)" stroke-width="1" opacity="0.16470588235294117" d="M 51.5 67 L 52.5 69 L 51.5 67 Z " /><path fill="rgb(255,255,255)" stroke="rgb(255,255,255)" stroke-width="1" opacity="0.16470588235294117" d="M 12.5 68 L 14.5 71 L 12.5 68 Z " /><path fill="rgb(255,255,255)" stroke="rgb(255,255,255)" stroke-width="1" opacity="0.16470588235294117" d="M 69.5 68 L 68.5 70 L 69.5 68 Z " /><path fill="rgb(255,255,255)" stroke="rgb(255,255,255)" stroke-width="1" opacity="0.16470588235294117" d="M 9.5 71 L 10.5 73 L 9.5 71 Z " /><path fill="rgb(255,255,255)" stroke="rgb(255,255,255)" stroke-width="1" opacity="0.16470588235294117" d="M 72.5 71 L 71.5 73 L 72.5 71 Z " /><path fill="rgb(255,255,255)" stroke="rgb(255,255,255)" stroke-width="1" opacity="0.16470588235294117" d="M 54.5 74 L 55 76.5 L 54 76.5 L 54.5 74 Z " /><path fill="rgb(255,255,255)" stroke="rgb(255,255,255)" stroke-width="1" opacity="0.16470588235294117" d="M 21.5 77 L 22.5 79 L 21.5 77 Z " /><path fill="rgb(255,255,255)" stroke="rgb(255,255,255)" stroke-width="1" opacity="0.16470588235294117" d="M 60.5 77 L 59.5 79 L 60.5 77 Z " /><path fill="rgb(255,255,255)" stroke="rgb(255,255,255)" stroke-width="1" opacity="0.16470588235294117" d="M 18.5 80 L 20.5 83 L 18.5 80 Z " /><path fill="rgb(255,255,255)" stroke="rgb(255,255,255)" stroke-width="1" opacity="0.16470588235294117" d="M 56.5 80 L 55.5 82 L 56.5 80 Z " /><path fill="rgb(255,255,255)" stroke="rgb(255,255,255)" stroke-width="1" opacity="0.16470588235294117" d="M 63.5 80 L 61.5 83 L 63.5 80 Z " /><path fill="rgb(255,255,255)" stroke="rgb(255,255,255)" stroke-width="1" opacity="0.16470588235294117" d="M 59.5 83 L 58.5 85 L 59.5 83 Z " /><path fill="rgb(255,255,255)" stroke="rgb(255,255,255)" stroke-width="1" opacity="0.16470588235294117" d="M 56.5 85 L 55.5 87 L 56.5 85 Z " /><path fill="rgb(255,255,255)" stroke="rgb(255,255,255)" stroke-width="1" opacity="0.8745098039215686" d="M 33.5 18 L 41.5 25 L 49 18.5 L 40.5 26 L 33.5 18 Z " /><path fill="rgb(255,255,255)" stroke="rgb(255,255,255)" stroke-width="1" opacity="0.8745098039215686" d="M 0.5 29 L 1 39.5 L 0 39.5 L 0.5 29 Z " /><path fill="rgb(255,255,255)" stroke="rgb(255,255,255)" stroke-width="1" opacity="0.8745098039215686" d="M 29.5 33 L 30.5 35 L 29.5 33 Z " /><path fill="rgb(255,255,255)" stroke="rgb(255,255,255)" stroke-width="1" opacity="0.8745098039215686" d="M 52.5 33 L 51.5 35 L 52.5 33 Z " /><path fill="rgb(255,255,255)" stroke="rgb(255,255,255)" stroke-width="1" opacity="0.8745098039215686" d="M 81.5 35 L 82 41.5 L 81 41.5 L 81.5 35 Z " /><path fill="rgb(255,255,255)" stroke="rgb(255,255,255)" stroke-width="1" opacity="0.8745098039215686" d="M 72.5 51 L 73.5 53 L 72.5 51 Z " /><path fill="rgb(255,255,255)" stroke="rgb(255,255,255)" stroke-width="1" opacity="0.8745098039215686" d="M 39.5 68 L 43 68.5 L 39.5 69 L 39.5 68 Z " /><path fill="rgb(255,255,255)" stroke="rgb(255,255,255)" stroke-width="1" opacity="0.8745098039215686" d="M 12.5 69 L 13.5 71 L 12.5 69 Z " /><path fill="rgb(255,255,255)" stroke="rgb(255,255,255)" stroke-width="1" opacity="0.8745098039215686" d="M 69.5 69 L 68.5 71 L 69.5 69 Z " /><path fill="rgb(255,255,255)" stroke="rgb(255,255,255)" stroke-width="1" opacity="0.8745098039215686" d="M 72.5 70 L 71.5 72 L 72.5 70 Z " /><path fill="rgb(255,255,255)" stroke="rgb(255,255,255)" stroke-width="1" opacity="0.9372549019607843" d="M 31.5 20 L 39.5 29 L 31.5 20 Z " /><path fill="rgb(255,255,255)" stroke="rgb(255,255,255)" stroke-width="1" opacity="0.9372549019607843" d="M 50.5 20 L 42.5 29 L 50.5 20 Z " /><path fill="rgb(255,255,255)" stroke="rgb(255,255,255)" stroke-width="1" opacity="0.9372549019607843" d="M 31.5 31 L 32.5 33 L 31.5 31 Z " /><path fill="rgb(255,255,255)" stroke="rgb(255,255,255)" stroke-width="1" opacity="0.9372549019607843" d="M 70.5 53 L 71.5 55 L 70.5 53 Z " /><path fill="rgb(255,255,255)" stroke="rgb(255,255,255)" stroke-width="1" opacity="0.5215686274509804" d="M 62.5 2 L 63 4.5 L 62 4.5 L 62.5 2 Z " /><path fill="rgb(255,255,255)" stroke="rgb(255,255,255)" stroke-width="1" opacity="0.5215686274509804" d="M 24.5 3 L 58 3.5 L 24.5 4 L 24.5 3 Z " /><path fill="rgb(255,255,255)" stroke="rgb(255,255,255)" stroke-width="1" opacity="0.5215686274509804" d="M 31.5 10 L 30.5 12 L 31.5 10 Z " /><path fill="rgb(255,255,255)" stroke="rgb(255,255,255)" stroke-width="1" opacity="0.5215686274509804" d="M 66.5 13 L 67.5 15 L 66.5 13 Z " /><path fill="rgb(255,255,255)" stroke="rgb(255,255,255)" stroke-width="1" opacity="0.5215686274509804" d="M 14.5 14 L 13.5 16 L 14.5 14 Z " /><path fill="rgb(255,255,255)" stroke="rgb(255,255,255)" stroke-width="1" opacity="0.5215686274509804" d="M 29.5 14 L 30 17.5 L 29 17.5 L 29.5 14 Z " /><path fill="rgb(255,255,255)" stroke="rgb(255,255,255)" stroke-width="1" opacity="0.5215686274509804" d="M 52.5 14 L 53 17.5 L 52 17.5 L 52.5 14 Z " /><path fill="rgb(255,255,255)" stroke="rgb(255,255,255)" stroke-width="1" opacity="0.5215686274509804" d="M 18.5 15 L 15.5 19 L 18.5 15 Z " /><path fill="rgb(255,255,255)" stroke="rgb(255,255,255)" stroke-width="1" opacity="0.5215686274509804" d="M 63.5 15 L 66.5 19 L 63.5 15 Z " /><path fill="rgb(255,255,255)" stroke="rgb(255,255,255)" stroke-width="1" opacity="0.5215686274509804" d="M 2.5 19 L 5 19.5 L 2.5 20 L 2.5 19 Z " /><path fill="rgb(255,255,255)" stroke="rgb(255,255,255)" stroke-width="1" opacity="0.5215686274509804" d="M 3.5 24 L 4 42.5 L 3 42.5 L 3.5 24 Z " /><path fill="rgb(255,255,255)" stroke="rgb(255,255,255)" stroke-width="1" opacity="0.5215686274509804" d="M 78.5 24 L 79 27.5 L 78 27.5 L 78.5 24 Z " /><path fill="rgb(255,255,255)" stroke="rgb(255,255,255)" stroke-width="1" opacity="0.5215686274509804" d="M 16.5 30 L 14.5 33 L 16.5 30 Z " /><path fill="rgb(255,255,255)" stroke="rgb(255,255,255)" stroke-width="1" opacity="0.5215686274509804" d="M 65.5 30 L 67.5 33 L 65.5 30 Z " /><path fill="rgb(255,255,255)" stroke="rgb(255,255,255)" stroke-width="1" opacity="0.5215686274509804" d="M 35.5 37 L 36 40.5 L 35 40.5 L 35.5 37 Z " /><path fill="rgb(255,255,255)" stroke="rgb(255,255,255)" stroke-width="1" opacity="0.5215686274509804" d="M 46.5 38 L 47 41.5 L 46 41.5 L 46.5 38 Z " /><path fill="rgb(255,255,255)" stroke="rgb(255,255,255)" stroke-width="1" opacity="0.5215686274509804" d="M 78.5 38 L 79 42.5 L 78 42.5 L 78.5 38 Z " /><path fill="rgb(255,255,255)" stroke="rgb(255,255,255)" stroke-width="1" opacity="0.5215686274509804" d="M 0.5 44 L 1 48.5 L 0 48.5 L 0.5 44 Z " /><path fill="rgb(255,255,255)" stroke="rgb(255,255,255)" stroke-width="1" opacity="0.5215686274509804" d="M 30.5 44 L 29.5 46 L 30.5 44 Z " /><path fill="rgb(255,255,255)" stroke="rgb(255,255,255)" stroke-width="1" opacity="0.5215686274509804" d="M 51.5 44 L 53.5 47 L 51.5 44 Z " /><path fill="rgb(255,255,255)" stroke="rgb(255,255,255)" stroke-width="1" opacity="0.5215686274509804" d="M 33.5 46 L 33.5 49 Q 30.5 47.5 33.5 46 Z " /><path fill="rgb(255,255,255)" stroke="rgb(255,255,255)" stroke-width="1" opacity="0.5215686274509804" d="M 48.5 46 Q 51.5 47.5 48.5 49 L 48.5 46 Z " /><path fill="rgb(255,255,255)" stroke="rgb(255,255,255)" stroke-width="1" opacity="0.5215686274509804" d="M 81.5 46 L 82 48.5 L 81 48.5 L 81.5 46 Z " /><path fill="rgb(255,255,255)" stroke="rgb(255,255,255)" stroke-width="1" opacity="0.5215686274509804" d="M 43.5 49 L 46 49.5 L 43.5 50 L 43.5 49 Z " /><path fill="rgb(255,255,255)" stroke="rgb(255,255,255)" stroke-width="1" opacity="0.5215686274509804" d="M 70.5 49 L 71.5 51 L 70.5 49 Z " /><path fill="rgb(255,255,255)" stroke="rgb(255,255,255)" stroke-width="1" opacity="0.5215686274509804" d="M 16.5 51 L 31 51.5 L 16.5 52 L 16.5 51 Z " /><path fill="rgb(255,255,255)" stroke="rgb(255,255,255)" stroke-width="1" opacity="0.5215686274509804" d="M 51.5 51 L 66 51.5 L 51.5 52 L 51.5 51 Z " /><path fill="rgb(255,255,255)" stroke="rgb(255,255,255)" stroke-width="1" opacity="0.5215686274509804" d="M 68.5 52 L 69.5 54 L 68.5 52 Z " /><path fill="rgb(255,255,255)" stroke="rgb(255,255,255)" stroke-width="1" opacity="0.5215686274509804" d="M 7.5 53 L 6.5 55 L 5 54.5 L 7.5 53 Z " /><path fill="rgb(255,255,255)" stroke="rgb(255,255,255)" stroke-width="1" opacity="0.5215686274509804" d="M 50.5 56 L 51 60.5 L 50 60.5 L 50.5 56 Z " /><path fill="rgb(255,255,255)" stroke="rgb(255,255,255)" stroke-width="1" opacity="0.5215686274509804" d="M 31.5 57 L 32 61.5 L 31 61.5 L 31.5 57 Z " /><path fill="rgb(255,255,255)" stroke="rgb(255,255,255)" stroke-width="1" opacity="0.5215686274509804" d="M 73.5 59 L 74 61.5 L 73 61.5 L 73.5 59 Z " /><path fill="rgb(255,255,255)" stroke="rgb(255,255,255)" stroke-width="1" opacity="0.5215686274509804" d="M 33.5 65 L 29.5 70 L 33.5 65 Z " /><path fill="rgb(255,255,255)" stroke="rgb(255,255,255)" stroke-width="1" opacity="0.5215686274509804" d="M 14.5 71 L 19.5 77 L 14.5 71 Z " /><path fill="rgb(255,255,255)" stroke="rgb(255,255,255)" stroke-width="1" opacity="0.5215686274509804" d="M 67.5 71 L 62.5 77 L 67.5 71 Z " /><path fill="rgb(255,255,255)" stroke="rgb(255,255,255)" stroke-width="1" opacity="0.5215686274509804" d="M 11.5 73 L 17.5 80 L 11.5 73 Z " /><path fill="rgb(255,255,255)" stroke="rgb(255,255,255)" stroke-width="1" opacity="0.5215686274509804" d="M 50.5 73 L 51 83.5 L 50 83.5 L 50.5 73 Z " /><path fill="rgb(255,255,255)" stroke="rgb(255,255,255)" stroke-width="1" opacity="0.5215686274509804" d="M 70.5 73 L 64.5 80 L 70.5 73 Z " /><path fill="rgb(255,255,255)" stroke="rgb(255,255,255)" stroke-width="1" opacity="0.5215686274509804" d="M 31.5 74 L 32 83.5 L 31 83.5 L 31.5 74 Z " /><path fill="rgb(255,255,255)" stroke="rgb(255,255,255)" stroke-width="1" opacity="0.5215686274509804" d="M 23.5 79 L 24.5 81 L 23.5 79 Z " /><path fill="rgb(255,255,255)" stroke="rgb(255,255,255)" stroke-width="1" opacity="0.5215686274509804" d="M 21.5 82 L 22.5 84 L 21.5 82 Z " /></svg>