<svg width="137" height="83" version="1.1" xmlns="http://www.w3.org/2000/svg" desc="Created with imagetracer.js version 1.2.6" ><path fill="rgb(0,0,0)" stroke="rgb(0,0,0)" stroke-width="1" opacity="0" d="M 0 0 L 74 0.5 L 66.5 11 L 53 1 L 57 28 L 63 27 L 61 15.5 L 64.5 18 L 67.5 20 L 71.5 15 L 72 21.5 L 73.5 23 L 80.5 17 Q 80.8 22.7 84.5 25 L 86 25.5 L 82 31.5 L 86.5 35 L 95 22 L 87 20 L 86.5 4 L 77.5 12 L 75 0 L 136.5 0 L 137 0.5 L 137 19.5 L 135.5 21 L 131.5 21 L 122.5 24 L 114.5 28 L 102.5 39 Q 78.5 36.5 69 48.5 L 66 56.5 Q 68.5 58 67 63.5 L 65 69.5 L 70.5 73 L 82 74 Q 81.3 63.1 88.5 59 Q 92 56.5 99.5 58 L 106 62.5 Q 109.8 66.1 109 73 L 137 73 L 137 83 L 100 82.5 L 106 77.5 Q 108.5 74 107 66.5 L 102.5 61 Q 99.5 58 92.5 59 L 85 64.5 Q 82.4 67.4 83 73.5 L 87.5 81 L 91 82.5 L 40.5 83 L 40.5 82 L 46 77.5 Q 48.5 74 47 66.5 L 42.5 61 Q 39.2 58.3 32.5 59 L 25 64.5 Q 22.2 67.2 23 73.5 L 27.5 81 L 31 82.5 L 0 83 L 0 73 L 21.5 73 Q 22.5 73 22 68.5 Q 23.5 62 28.5 59 Q 32 56.5 39.5 58 L 46 62.5 Q 49.8 66.1 49 73 Q 58.4 74.7 62 71 L 65 65.5 L 66 59.5 L 62 52.5 L 62 48.5 L 63 46.5 L 61 39.5 L 48.5 24 L 22.5 19 L 7.5 19 L 6.5 20 L 0 20 L 0 0 Z " /><path fill="rgb(0,0,0)" stroke="rgb(0,0,0)" stroke-width="1" opacity="0" d="M 10.5 27 L 12 27.5 L 12 39 L 3 39 L 3 29.5 L 4.5 28 Q 9.2 29.3 10.5 27 Z " /><path fill="rgb(0,0,0)" stroke="rgb(0,0,0)" stroke-width="1" opacity="0" d="M 19 27 L 35.5 29 L 49 37.5 L 48.5 39 L 19 39 L 19 27 Z " /><path fill="rgb(0,0,0)" stroke="rgb(0,0,0)" stroke-width="1" opacity="0" d="M 133.5 29 L 134 39 L 114 38.5 Q 121.5 31.5 133.5 29 Z " /><path fill="rgb(0,0,0)" stroke="rgb(0,0,0)" stroke-width="1" opacity="0" d="M 57.5 42 L 59 42.5 L 59 52 Q 52.8 52.8 50 48.5 Q 49.5 44.5 52.5 44 L 57.5 42 Z " /><path fill="rgb(0,0,0)" stroke="rgb(0,0,0)" stroke-width="1" opacity="0" d="M 77.5 47 L 80 48.5 Q 81.3 55.8 76.5 57 L 70 58 Q 70.5 51.4 75.5 48 L 77.5 47 Z " /><path fill="rgb(0,0,0)" stroke="rgb(0,0,0)" stroke-width="1" opacity="0" d="M 33.5 67 Q 38 66 39 68.5 L 40 72.5 Q 39.5 76.5 34.5 76 L 31 73.5 Q 30 68 33.5 67 Z " /><path fill="rgb(0,0,0)" stroke="rgb(0,0,0)" stroke-width="1" opacity="0" d="M 93.5 67 Q 98 66 99 68.5 L 100 72.5 Q 99.5 76.5 94.5 76 L 92 75 L 91 69.5 L 93.5 67 Z " /><path fill="rgb(255,255,255)" stroke="rgb(255,255,255)" stroke-width="1" opacity="1" d="M 74.5 1 L 76 13 L 79.5 12 L 87 6 L 87 20.5 L 89.5 21 L 94 22 L 86.5 33 L 83 31.5 L 87 25.5 L 83 22.5 L 81.5 15 L 73.5 22 L 71.5 13 L 67.5 18 L 60.5 13 L 60 16.5 L 62 25.5 L 58 27 L 54 3.5 L 55.5 4 L 66.5 12 L 74.5 1 Z " /><path fill="rgb(255,255,255)" stroke="rgb(255,255,255)" stroke-width="1" opacity="1" d="M 6.5 20 L 24.5 20 L 25.5 21 L 37.5 22 L 45.5 24 L 52 28.5 L 61 41.5 L 62 48.5 L 61 52.5 L 65 58.5 L 65 61.5 Q 63.9 68.9 58.5 72 L 50.5 72 L 50 69.5 Q 48.4 62.6 43.5 59 Q 39.8 55.7 31.5 57 Q 25.4 58.4 23 63.5 L 21 72 L 0 72 L 0 21 L 6.5 20 Z M 12 26 L 2 28 L 2 39 L 4 40 L 12 40 L 13 39 L 13 28 L 12 26 Z M 18 26 L 18 40 L 51 40 L 51 39 L 41 30 Q 31 26 18 26 Z M 58 41 L 51 44 Q 48 45 49 49 Q 51 53 59 53 L 60 52 L 60 43 L 58 41 Z " /><path fill="rgb(255,255,255)" stroke="rgb(255,255,255)" stroke-width="1" opacity="1" d="M 135.5 21 L 137 21.5 L 137 72 L 110.5 72 L 110 69.5 Q 108.9 62.1 103.5 59 Q 99.8 55.7 91.5 57 Q 85.4 58.4 83 63.5 L 81 73 L 69.5 72 L 66 69.5 L 68 58.5 L 67 54.5 L 73.5 45 Q 83.3 37.8 102.5 40 Q 114 25.5 135.5 21 Z M 134 28 Q 121 31 112 39 L 113 40 L 135 40 L 135 29 L 134 28 Z M 78 46 L 76 47 L 69 56 L 71 59 L 79 57 L 81 54 Q 82 49 80 48 Q 81 45 78 46 Z " /><path fill="rgb(255,255,255)" stroke="rgb(255,255,255)" stroke-width="1" opacity="1" d="M 32.5 60 L 38.5 60 L 46 66.5 L 47 71.5 Q 46.1 78.1 41.5 81 L 34.5 83 Q 28 81.5 25 76.5 L 24 68.5 L 28.5 62 L 32.5 60 Z M 34 66 L 31 67 L 30 74 L 35 77 L 39 76 L 41 72 L 40 69 Q 39 65 34 66 Z " /><path fill="rgb(255,255,255)" stroke="rgb(255,255,255)" stroke-width="1" opacity="1" d="M 92.5 60 L 98.5 60 L 106 66.5 L 107 72.5 Q 105.8 78.3 101.5 81 L 94.5 83 Q 88 81.5 85 76.5 L 84 68.5 L 88.5 62 L 92.5 60 Z M 94 66 L 91 67 L 90 70 L 91 75 L 95 77 L 99 76 L 101 73 L 100 69 Q 99 65 94 66 Z " /><path fill="rgb(255,255,255)" stroke="rgb(255,255,255)" stroke-width="1" opacity="0.8235294117647058" d="M 54.5 2 L 55.5 4 L 54.5 2 Z " /><path fill="rgb(255,255,255)" stroke="rgb(255,255,255)" stroke-width="1" opacity="0.8235294117647058" d="M 73.5 2 L 72.5 4 L 73.5 2 Z " /><path fill="rgb(255,255,255)" stroke="rgb(255,255,255)" stroke-width="1" opacity="0.8235294117647058" d="M 71.5 5 L 70.5 7 L 71.5 5 Z " /><path fill="rgb(255,255,255)" stroke="rgb(255,255,255)" stroke-width="1" opacity="0.8235294117647058" d="M 60.5 7 L 61.5 9 L 60.5 7 Z " /><path fill="rgb(255,255,255)" stroke="rgb(255,255,255)" stroke-width="1" opacity="0.8235294117647058" d="M 81.5 9 L 79.5 12 L 81.5 9 Z " /><path fill="rgb(255,255,255)" stroke="rgb(255,255,255)" stroke-width="1" opacity="0.8235294117647058" d="M 71.5 13 L 69.5 16 L 71.5 13 Z " /><path fill="rgb(255,255,255)" stroke="rgb(255,255,255)" stroke-width="1" opacity="0.8235294117647058" d="M 64.5 16 L 65.5 18 L 64.5 16 Z " /><path fill="rgb(255,255,255)" stroke="rgb(255,255,255)" stroke-width="1" opacity="0.8235294117647058" d="M 68.5 17 L 67.5 19 L 68.5 17 Z " /><path fill="rgb(255,255,255)" stroke="rgb(255,255,255)" stroke-width="1" opacity="0.8235294117647058" d="M 76.5 19 L 74.5 22 L 76.5 19 Z " /><path fill="rgb(255,255,255)" stroke="rgb(255,255,255)" stroke-width="1" opacity="0.8235294117647058" d="M 0.5 20 L 6 20.5 L 0.5 21 L 0.5 20 Z " /><path fill="rgb(255,255,255)" stroke="rgb(255,255,255)" stroke-width="1" opacity="0.8235294117647058" d="M 46.5 24 L 49 25.5 L 47.5 25 L 46.5 24 Z " /><path fill="rgb(255,255,255)" stroke="rgb(255,255,255)" stroke-width="1" opacity="0.8235294117647058" d="M 11.5 26 L 13 27.5 L 13 38.5 L 11.5 40 L 3.5 40 L 3.5 39 L 12 39 L 12 27.5 L 11.5 26 Z " /><path fill="rgb(255,255,255)" stroke="rgb(255,255,255)" stroke-width="1" opacity="0.8235294117647058" d="M 22.5 26 L 25 26.5 L 22.5 27 L 22.5 26 Z " /><path fill="rgb(255,255,255)" stroke="rgb(255,255,255)" stroke-width="1" opacity="0.8235294117647058" d="M 86.5 26 L 85.5 28 L 86.5 26 Z " /><path fill="rgb(255,255,255)" stroke="rgb(255,255,255)" stroke-width="1" opacity="0.8235294117647058" d="M 52.5 29 L 53.5 31 L 52.5 29 Z " /><path fill="rgb(255,255,255)" stroke="rgb(255,255,255)" stroke-width="1" opacity="0.8235294117647058" d="M 42.5 31 L 43.5 33 L 42.5 31 Z " /><path fill="rgb(255,255,255)" stroke="rgb(255,255,255)" stroke-width="1" opacity="0.8235294117647058" d="M 111.5 31 L 110.5 33 L 111.5 31 Z " /><path fill="rgb(255,255,255)" stroke="rgb(255,255,255)" stroke-width="1" opacity="0.8235294117647058" d="M 87.5 32 L 86.5 34 L 85 33.5 L 87.5 32 Z " /><path fill="rgb(255,255,255)" stroke="rgb(255,255,255)" stroke-width="1" opacity="0.8235294117647058" d="M 45.5 33 L 51 40 L 18 39.5 L 50 38.5 L 45.5 33 Z " /><path fill="rgb(255,255,255)" stroke="rgb(255,255,255)" stroke-width="1" opacity="0.8235294117647058" d="M 113.5 37 L 113.5 39 L 135 39.5 L 112 40 L 113.5 37 Z " /><path fill="rgb(255,255,255)" stroke="rgb(255,255,255)" stroke-width="1" opacity="0.8235294117647058" d="M 91.5 39 L 103 39.5 L 91.5 40 L 91.5 39 Z " /><path fill="rgb(255,255,255)" stroke="rgb(255,255,255)" stroke-width="1" opacity="0.8235294117647058" d="M 57.5 41 L 60 42.5 L 59.5 52 L 59 42 L 57.5 41 Z " /><path fill="rgb(255,255,255)" stroke="rgb(255,255,255)" stroke-width="1" opacity="0.8235294117647058" d="M 50.5 44 L 49.5 46 L 50.5 44 Z " /><path fill="rgb(255,255,255)" stroke="rgb(255,255,255)" stroke-width="1" opacity="0.8235294117647058" d="M 61.5 49 L 62 52.5 L 61 52.5 L 61.5 49 Z " /><path fill="rgb(255,255,255)" stroke="rgb(255,255,255)" stroke-width="1" opacity="0.8235294117647058" d="M 79.5 55 L 78.5 57 L 79.5 55 Z " /><path fill="rgb(255,255,255)" stroke="rgb(255,255,255)" stroke-width="1" opacity="0.8235294117647058" d="M 67.5 58 L 68 62.5 L 67 62.5 L 67.5 58 Z " /><path fill="rgb(255,255,255)" stroke="rgb(255,255,255)" stroke-width="1" opacity="0.8235294117647058" d="M 70.5 58 L 74 58.5 L 70.5 59 L 70.5 58 Z " /><path fill="rgb(255,255,255)" stroke="rgb(255,255,255)" stroke-width="1" opacity="0.8235294117647058" d="M 41.5 61 L 44.5 65 L 41.5 61 Z " /><path fill="rgb(255,255,255)" stroke="rgb(255,255,255)" stroke-width="1" opacity="0.8235294117647058" d="M 101.5 61 L 104.5 65 L 101.5 61 Z " /><path fill="rgb(255,255,255)" stroke="rgb(255,255,255)" stroke-width="1" opacity="0.8235294117647058" d="M 49.5 69 L 50 72 L 56 72.5 L 50.5 73 Q 48 72 49.5 69 Z " /><path fill="rgb(255,255,255)" stroke="rgb(255,255,255)" stroke-width="1" opacity="0.8235294117647058" d="M 61.5 69 L 60.5 71 L 61.5 69 Z " /><path fill="rgb(255,255,255)" stroke="rgb(255,255,255)" stroke-width="1" opacity="0.8235294117647058" d="M 109.5 69 L 110 72 L 137 72.5 L 110.5 73 Q 108 72 109.5 69 Z " /><path fill="rgb(255,255,255)" stroke="rgb(255,255,255)" stroke-width="1" opacity="0.8235294117647058" d="M 100.5 70 L 101 72.5 L 100 72.5 L 100.5 70 Z " /><path fill="rgb(255,255,255)" stroke="rgb(255,255,255)" stroke-width="1" opacity="0.8235294117647058" d="M 0.5 72 L 21 72.5 L 0.5 73 L 0.5 72 Z " /><path fill="rgb(255,255,255)" stroke="rgb(255,255,255)" stroke-width="1" opacity="0.8235294117647058" d="M 74.5 72 L 77 72.5 L 74.5 73 L 74.5 72 Z " /><path fill="rgb(255,255,255)" stroke="rgb(255,255,255)" stroke-width="1" opacity="0.8235294117647058" d="M 39.5 74 L 38.5 76 L 39.5 74 Z " /><path fill="rgb(255,255,255)" stroke="rgb(255,255,255)" stroke-width="1" opacity="0.8235294117647058" d="M 99.5 74 L 98.5 76 L 99.5 74 Z " /><path fill="rgb(255,255,255)" stroke="rgb(255,255,255)" stroke-width="1" opacity="0.8235294117647058" d="M 94.5 76 L 97 76.5 L 94.5 77 L 94.5 76 Z " /><path fill="rgb(255,255,255)" stroke="rgb(255,255,255)" stroke-width="1" opacity="0.8235294117647058" d="M 26.5 78 L 28.5 81 L 26.5 78 Z " /><path fill="rgb(255,255,255)" stroke="rgb(255,255,255)" stroke-width="1" opacity="0.8235294117647058" d="M 86.5 78 L 88.5 81 L 86.5 78 Z " /><path fill="rgb(255,255,255)" stroke="rgb(255,255,255)" stroke-width="1" opacity="0.3411764705882353" d="M 74.5 0 L 72.5 3 L 74.5 0 Z " /><path fill="rgb(255,255,255)" stroke="rgb(255,255,255)" stroke-width="1" opacity="0.3411764705882353" d="M 53 1 L 60 6.5 L 54 2.5 L 53.5 5 L 53 1 Z " /><path fill="rgb(255,255,255)" stroke="rgb(255,255,255)" stroke-width="1" opacity="0.3411764705882353" d="M 75.5 2 L 76 5.5 L 75 5.5 L 75.5 2 Z " /><path fill="rgb(255,255,255)" stroke="rgb(255,255,255)" stroke-width="1" opacity="0.3411764705882353" d="M 71.5 4 L 70.5 6 L 71.5 4 Z " /><path fill="rgb(255,255,255)" stroke="rgb(255,255,255)" stroke-width="1" opacity="0.3411764705882353" d="M 86.5 4 L 82.5 9 L 86.5 4 Z " /><path fill="rgb(255,255,255)" stroke="rgb(255,255,255)" stroke-width="1" opacity="0.3411764705882353" d="M 54.5 7 L 55 10.5 L 54 10.5 L 54.5 7 Z " /><path fill="rgb(255,255,255)" stroke="rgb(255,255,255)" stroke-width="1" opacity="0.3411764705882353" d="M 61.5 7 L 66.5 11 L 68 10.5 L 65.5 12 L 61.5 7 Z " /><path fill="rgb(255,255,255)" stroke="rgb(255,255,255)" stroke-width="1" opacity="0.3411764705882353" d="M 69.5 7 L 68.5 9 L 69.5 7 Z " /><path fill="rgb(255,255,255)" stroke="rgb(255,255,255)" stroke-width="1" opacity="0.3411764705882353" d="M 76.5 9 L 77.5 12 L 81 9.5 L 76 13 L 76.5 9 Z " /><path fill="rgb(255,255,255)" stroke="rgb(255,255,255)" stroke-width="1" opacity="0.3411764705882353" d="M 55.5 13 L 56 16.5 L 55 16.5 L 55.5 13 Z " /><path fill="rgb(255,255,255)" stroke="rgb(255,255,255)" stroke-width="1" opacity="0.3411764705882353" d="M 60.5 14 L 65 17.5 L 61.5 15 L 60.5 14 Z " /><path fill="rgb(255,255,255)" stroke="rgb(255,255,255)" stroke-width="1" opacity="0.3411764705882353" d="M 71.5 14 L 69.5 17 L 71.5 14 Z " /><path fill="rgb(255,255,255)" stroke="rgb(255,255,255)" stroke-width="1" opacity="0.3411764705882353" d="M 80.5 16 Q 83.5 15.1 82 19.5 L 81 19.5 L 80.5 17 L 75 21.5 L 80.5 16 Z " /><path fill="rgb(255,255,255)" stroke="rgb(255,255,255)" stroke-width="1" opacity="0.3411764705882353" d="M 61.5 17 L 62 20.5 L 61 20.5 L 61.5 17 Z " /><path fill="rgb(255,255,255)" stroke="rgb(255,255,255)" stroke-width="1" opacity="0.3411764705882353" d="M 66.5 18 L 69 18.5 Q 66.9 21.8 66.5 18 Z " /><path fill="rgb(255,255,255)" stroke="rgb(255,255,255)" stroke-width="1" opacity="0.3411764705882353" d="M 72.5 18 L 74 22.5 L 72 21.5 L 72.5 18 Z " /><path fill="rgb(255,255,255)" stroke="rgb(255,255,255)" stroke-width="1" opacity="0.3411764705882353" d="M 7.5 19 L 23 19.5 L 7.5 20 L 7.5 19 Z " /><path fill="rgb(255,255,255)" stroke="rgb(255,255,255)" stroke-width="1" opacity="0.3411764705882353" d="M 56.5 19 L 57 21.5 L 56 21.5 L 56.5 19 Z " /><path fill="rgb(255,255,255)" stroke="rgb(255,255,255)" stroke-width="1" opacity="0.3411764705882353" d="M 27.5 20 L 31 20.5 L 27.5 21 L 27.5 20 Z " /><path fill="rgb(255,255,255)" stroke="rgb(255,255,255)" stroke-width="1" opacity="0.3411764705882353" d="M 34.5 21 L 37 21.5 L 34.5 22 L 34.5 21 Z " /><path fill="rgb(255,255,255)" stroke="rgb(255,255,255)" stroke-width="1" opacity="0.3411764705882353" d="M 82.5 21 L 85 24.5 L 82 22.5 L 82.5 21 Z " /><path fill="rgb(255,255,255)" stroke="rgb(255,255,255)" stroke-width="1" opacity="0.3411764705882353" d="M 131.5 21 L 134 21.5 L 131.5 22 L 131.5 21 Z " /><path fill="rgb(255,255,255)" stroke="rgb(255,255,255)" stroke-width="1" opacity="0.3411764705882353" d="M 39.5 22 L 42 22.5 L 39.5 23 L 39.5 22 Z " /><path fill="rgb(255,255,255)" stroke="rgb(255,255,255)" stroke-width="1" opacity="0.3411764705882353" d="M 62.5 23 L 63 26.5 L 62 26.5 L 62.5 23 Z " /><path fill="rgb(255,255,255)" stroke="rgb(255,255,255)" stroke-width="1" opacity="0.3411764705882353" d="M 94.5 23 L 93.5 25 L 94.5 23 Z " /><path fill="rgb(255,255,255)" stroke="rgb(255,255,255)" stroke-width="1" opacity="0.3411764705882353" d="M 48.5 24 L 53.5 30 L 48.5 24 Z " /><path fill="rgb(255,255,255)" stroke="rgb(255,255,255)" stroke-width="1" opacity="0.3411764705882353" d="M 57.5 25 L 58 27 L 60 27.5 L 57 28 L 57.5 25 Z " /><path fill="rgb(255,255,255)" stroke="rgb(255,255,255)" stroke-width="1" opacity="0.3411764705882353" d="M 86.5 25 L 85.5 27 L 86.5 25 Z " /><path fill="rgb(255,255,255)" stroke="rgb(255,255,255)" stroke-width="1" opacity="0.3411764705882353" d="M 18 26 L 22 26.5 L 19 27 L 18.5 39 L 18 26 Z " /><path fill="rgb(255,255,255)" stroke="rgb(255,255,255)" stroke-width="1" opacity="0.3411764705882353" d="M 92.5 26 L 91 28.5 L 88.5 32 L 90 29.5 L 92.5 26 Z " /><path fill="rgb(255,255,255)" stroke="rgb(255,255,255)" stroke-width="1" opacity="0.3411764705882353" d="M 7.5 27 L 10 27.5 L 7.5 28 L 7.5 27 Z " /><path fill="rgb(255,255,255)" stroke="rgb(255,255,255)" stroke-width="1" opacity="0.3411764705882353" d="M 26.5 27 L 30 27.5 L 26.5 28 L 26.5 27 Z " /><path fill="rgb(255,255,255)" stroke="rgb(255,255,255)" stroke-width="1" opacity="0.3411764705882353" d="M 116.5 27 L 115.5 29 L 112.5 31 L 114.5 28 L 116.5 27 Z " /><path fill="rgb(255,255,255)" stroke="rgb(255,255,255)" stroke-width="1" opacity="0.3411764705882353" d="M 3.5 28 L 3 29.5 L 2.5 39 L 2 29.5 L 3.5 28 Z " /><path fill="rgb(255,255,255)" stroke="rgb(255,255,255)" stroke-width="1" opacity="0.3411764705882353" d="M 84.5 28 L 83.5 30 L 84.5 28 Z " /><path fill="rgb(255,255,255)" stroke="rgb(255,255,255)" stroke-width="1" opacity="0.3411764705882353" d="M 130.5 29 L 133 29.5 L 130.5 30 L 130.5 29 Z " /><path fill="rgb(255,255,255)" stroke="rgb(255,255,255)" stroke-width="1" opacity="0.3411764705882353" d="M 134.5 29 L 135 38.5 L 134 38.5 L 134.5 29 Z " /><path fill="rgb(255,255,255)" stroke="rgb(255,255,255)" stroke-width="1" opacity="0.3411764705882353" d="M 41.5 31 L 42.5 33 L 41.5 31 Z " /><path fill="rgb(255,255,255)" stroke="rgb(255,255,255)" stroke-width="1" opacity="0.3411764705882353" d="M 54.5 31 L 62 42.5 L 61 42.5 L 54.5 31 Z " /><path fill="rgb(255,255,255)" stroke="rgb(255,255,255)" stroke-width="1" opacity="0.3411764705882353" d="M 82.5 31 L 86.5 34 L 88 33.5 L 85.5 35 L 82.5 31 Z " /><path fill="rgb(255,255,255)" stroke="rgb(255,255,255)" stroke-width="1" opacity="0.3411764705882353" d="M 110.5 31 L 103.5 39 L 110.5 31 Z " /><path fill="rgb(255,255,255)" stroke="rgb(255,255,255)" stroke-width="1" opacity="0.3411764705882353" d="M 122.5 32 L 124 32.5 L 119.5 35 L 120.5 33 L 122.5 32 Z " /><path fill="rgb(255,255,255)" stroke="rgb(255,255,255)" stroke-width="1" opacity="0.3411764705882353" d="M 44.5 33 L 46.5 36 L 44.5 33 Z " /><path fill="rgb(255,255,255)" stroke="rgb(255,255,255)" stroke-width="1" opacity="0.3411764705882353" d="M 117.5 35 L 116.5 37 L 113.5 39 L 115.5 36 L 117.5 35 Z " /><path fill="rgb(255,255,255)" stroke="rgb(255,255,255)" stroke-width="1" opacity="0.3411764705882353" d="M 86.5 39 L 91 39.5 L 86.5 40 L 86.5 39 Z " /><path fill="rgb(255,255,255)" stroke="rgb(255,255,255)" stroke-width="1" opacity="0.3411764705882353" d="M 76.5 42 L 78 42.5 L 75.5 44 L 76.5 42 Z " /><path fill="rgb(255,255,255)" stroke="rgb(255,255,255)" stroke-width="1" opacity="0.3411764705882353" d="M 51.5 44 L 50 46.5 L 51.5 50 L 53 50.5 L 51.5 51 Q 48.5 50.5 49 46.5 L 51.5 44 Z " /><path fill="rgb(255,255,255)" stroke="rgb(255,255,255)" stroke-width="1" opacity="0.3411764705882353" d="M 73.5 44 L 69.5 49 L 73.5 44 Z " /><path fill="rgb(255,255,255)" stroke="rgb(255,255,255)" stroke-width="1" opacity="0.3411764705882353" d="M 77.5 46 Q 80.8 44.9 80 47.5 L 78.5 47 L 76.5 48 L 77.5 46 Z " /><path fill="rgb(255,255,255)" stroke="rgb(255,255,255)" stroke-width="1" opacity="0.3411764705882353" d="M 74.5 48 L 73 50.5 L 71.5 53 L 72 51.5 L 74.5 48 Z " /><path fill="rgb(255,255,255)" stroke="rgb(255,255,255)" stroke-width="1" opacity="0.3411764705882353" d="M 80.5 49 L 81 52.5 L 80 52.5 L 80.5 49 Z " /><path fill="rgb(255,255,255)" stroke="rgb(255,255,255)" stroke-width="1" opacity="0.3411764705882353" d="M 56.5 52 L 59 52.5 L 56.5 53 L 56.5 52 Z " /><path fill="rgb(255,255,255)" stroke="rgb(255,255,255)" stroke-width="1" opacity="0.3411764705882353" d="M 62.5 53 L 63.5 55 L 62.5 53 Z " /><path fill="rgb(255,255,255)" stroke="rgb(255,255,255)" stroke-width="1" opacity="0.3411764705882353" d="M 66.5 54 L 67 56.5 L 66 56.5 L 66.5 54 Z " /><path fill="rgb(255,255,255)" stroke="rgb(255,255,255)" stroke-width="1" opacity="0.3411764705882353" d="M 79.5 54 L 77.5 57 L 79.5 54 Z " /><path fill="rgb(255,255,255)" stroke="rgb(255,255,255)" stroke-width="1" opacity="0.3411764705882353" d="M 31.5 57 L 39 57.5 L 31.5 58 L 31.5 57 Z " /><path fill="rgb(255,255,255)" stroke="rgb(255,255,255)" stroke-width="1" opacity="0.3411764705882353" d="M 91.5 57 L 99 57.5 L 91.5 58 L 91.5 57 Z " /><path fill="rgb(255,255,255)" stroke="rgb(255,255,255)" stroke-width="1" opacity="0.3411764705882353" d="M 27.5 59 L 24.5 63 L 27.5 59 Z " /><path fill="rgb(255,255,255)" stroke="rgb(255,255,255)" stroke-width="1" opacity="0.3411764705882353" d="M 32.5 59 L 38 59.5 L 32.5 60 L 32.5 59 Z " /><path fill="rgb(255,255,255)" stroke="rgb(255,255,255)" stroke-width="1" opacity="0.3411764705882353" d="M 87.5 59 L 84.5 63 L 87.5 59 Z " /><path fill="rgb(255,255,255)" stroke="rgb(255,255,255)" stroke-width="1" opacity="0.3411764705882353" d="M 92.5 59 L 99 59.5 L 92.5 60 L 92.5 59 Z " /><path fill="rgb(255,255,255)" stroke="rgb(255,255,255)" stroke-width="1" opacity="0.3411764705882353" d="M 29.5 60 L 31 60.5 L 25.5 65 L 29.5 60 Z " /><path fill="rgb(255,255,255)" stroke="rgb(255,255,255)" stroke-width="1" opacity="0.3411764705882353" d="M 44.5 60 L 45.5 62 L 44.5 60 Z " /><path fill="rgb(255,255,255)" stroke="rgb(255,255,255)" stroke-width="1" opacity="0.3411764705882353" d="M 89.5 60 L 91 60.5 L 85.5 65 L 89.5 60 Z " /><path fill="rgb(255,255,255)" stroke="rgb(255,255,255)" stroke-width="1" opacity="0.3411764705882353" d="M 104.5 60 L 108 64.5 L 106 64.5 L 107 67.5 L 106 67.5 L 102 61.5 L 106 63.5 L 104.5 60 Z " /><path fill="rgb(255,255,255)" stroke="rgb(255,255,255)" stroke-width="1" opacity="0.3411764705882353" d="M 42.5 61 L 44.5 64 L 42.5 61 Z " /><path fill="rgb(255,255,255)" stroke="rgb(255,255,255)" stroke-width="1" opacity="0.3411764705882353" d="M 46.5 63 L 47.5 65 L 46.5 63 Z " /><path fill="rgb(255,255,255)" stroke="rgb(255,255,255)" stroke-width="1" opacity="0.3411764705882353" d="M 45.5 65 L 47 67.5 L 46 67.5 L 45.5 65 Z " /><path fill="rgb(255,255,255)" stroke="rgb(255,255,255)" stroke-width="1" opacity="0.3411764705882353" d="M 22.5 66 Q 24.9 68.1 24 73.5 L 23 73.5 L 22.5 66 Z " /><path fill="rgb(255,255,255)" stroke="rgb(255,255,255)" stroke-width="1" opacity="0.3411764705882353" d="M 33.5 66 L 37 66.5 Q 32.8 66.3 31.5 69 L 33.5 66 Z " /><path fill="rgb(255,255,255)" stroke="rgb(255,255,255)" stroke-width="1" opacity="0.3411764705882353" d="M 93.5 66 L 97 66.5 Q 92.8 66.3 91.5 69 L 93.5 66 Z " /><path fill="rgb(255,255,255)" stroke="rgb(255,255,255)" stroke-width="1" opacity="0.3411764705882353" d="M 38.5 67 L 40 69.5 L 39 69.5 L 38.5 67 Z " /><path fill="rgb(255,255,255)" stroke="rgb(255,255,255)" stroke-width="1" opacity="0.3411764705882353" d="M 63.5 67 L 62.5 69 L 63.5 67 Z " /><path fill="rgb(255,255,255)" stroke="rgb(255,255,255)" stroke-width="1" opacity="0.3411764705882353" d="M 65.5 67 L 66 69.5 L 65 69.5 L 65.5 67 Z " /><path fill="rgb(255,255,255)" stroke="rgb(255,255,255)" stroke-width="1" opacity="0.3411764705882353" d="M 98.5 67 L 100 69.5 L 99 69.5 L 98.5 67 Z " /><path fill="rgb(255,255,255)" stroke="rgb(255,255,255)" stroke-width="1" opacity="0.3411764705882353" d="M 21.5 69 L 22 72.5 L 21 72.5 L 21.5 69 Z " /><path fill="rgb(255,255,255)" stroke="rgb(255,255,255)" stroke-width="1" opacity="0.3411764705882353" d="M 83.5 69 L 84 73.5 L 83 73.5 L 83.5 69 Z " /><path fill="rgb(255,255,255)" stroke="rgb(255,255,255)" stroke-width="1" opacity="0.3411764705882353" d="M 30.5 70 L 31 72.5 L 30 72.5 L 30.5 70 Z " /><path fill="rgb(255,255,255)" stroke="rgb(255,255,255)" stroke-width="1" opacity="0.3411764705882353" d="M 81.5 70 L 82 74 L 78 73.5 L 81 73 L 81.5 70 Z " /><path fill="rgb(255,255,255)" stroke="rgb(255,255,255)" stroke-width="1" opacity="0.3411764705882353" d="M 90.5 70 L 92 74.5 L 91 74.5 L 90.5 70 Z " /><path fill="rgb(255,255,255)" stroke="rgb(255,255,255)" stroke-width="1" opacity="0.3411764705882353" d="M 59.5 71 L 58.5 73 L 56 72.5 L 59.5 71 Z " /><path fill="rgb(255,255,255)" stroke="rgb(255,255,255)" stroke-width="1" opacity="0.3411764705882353" d="M 70.5 72 L 74 72.5 L 70.5 73 L 70.5 72 Z " /><path fill="rgb(255,255,255)" stroke="rgb(255,255,255)" stroke-width="1" opacity="0.3411764705882353" d="M 39.5 73 L 37.5 76 L 39.5 73 Z " /><path fill="rgb(255,255,255)" stroke="rgb(255,255,255)" stroke-width="1" opacity="0.3411764705882353" d="M 99.5 73 L 97.5 76 L 99.5 73 Z " /><path fill="rgb(255,255,255)" stroke="rgb(255,255,255)" stroke-width="1" opacity="0.3411764705882353" d="M 24.5 75 L 28 80.5 L 25 78.5 L 24.5 75 Z " /><path fill="rgb(255,255,255)" stroke="rgb(255,255,255)" stroke-width="1" opacity="0.3411764705882353" d="M 84.5 75 L 86 77.5 L 84 76.5 L 84.5 75 Z " /><path fill="rgb(255,255,255)" stroke="rgb(255,255,255)" stroke-width="1" opacity="0.3411764705882353" d="M 45.5 77 L 41.5 82 L 45.5 77 Z " /><path fill="rgb(255,255,255)" stroke="rgb(255,255,255)" stroke-width="1" opacity="0.3411764705882353" d="M 105.5 77 L 101.5 82 L 105.5 77 Z " /><path fill="rgb(255,255,255)" stroke="rgb(255,255,255)" stroke-width="1" opacity="0.3411764705882353" d="M 86.5 79 L 87.5 81 L 86.5 79 Z " /></svg>