<svg width="87" height="91" version="1.1" xmlns="http://www.w3.org/2000/svg" desc="Created with imagetracer.js version 1.2.6" ><path fill="rgb(0,0,0)" stroke="rgb(0,0,0)" stroke-width="1" opacity="0" d="M 0 0 L 32 0.5 Q 24.1 2.1 21 8.5 Q 17.2 13.2 17 21.5 L 20 30.5 L 49.5 61 L 53.5 62 L 61.5 55 L 70.5 62 L 74.5 62 L 84 53.5 L 86.5 47 L 87 91 L 42 90.5 L 67.5 79 L 72 75.5 L 73 71.5 L 69.5 67 L 62.5 66 L 47.5 72 L 43.5 66 L 29.5 61 L 20.5 61 L 16.5 63 L 14.5 61 L 0 61 L 0 0 Z " /><path fill="rgb(0,0,0)" stroke="rgb(0,0,0)" stroke-width="1" opacity="0" d="M 43.5 0 L 61 0.5 L 51.5 7 Q 49.2 2.2 43.5 1 L 43.5 0 Z " /><path fill="rgb(0,0,0)" stroke="rgb(0,0,0)" stroke-width="1" opacity="0" d="M 73.5 0 L 87 0 L 87 34.5 L 84.5 33 Q 81.9 33.8 83 30.5 Q 87.8 25.3 86 13.5 Q 83 6 76.5 2 Q 72.8 1.7 73.5 0 Z " /><path fill="rgb(0,0,0)" stroke="rgb(0,0,0)" stroke-width="1" opacity="0" d="M 32.5 4 L 41.5 4 L 49 9.5 L 50.5 12 Q 54.3 12.8 55 10.5 L 57.5 7 Q 61.3 2.3 71.5 4 L 78 8.5 Q 82.7 12.8 83 21.5 L 81 27.5 L 78.5 30 Q 76.2 26.8 69.5 28 L 58 34 L 57 40.5 Q 59.7 43.8 59 50.5 L 52.5 58 L 48 54.5 L 27 32.5 Q 21.9 28.1 21 19.5 L 26 8 L 32.5 4 Z " /><path fill="rgb(0,0,0)" stroke="rgb(0,0,0)" stroke-width="1" opacity="0" d="M 71.5 32 L 83 37.5 L 83 45.5 L 78 55 L 71.5 58 Q 61.4 53.1 62 37.5 L 71.5 32 Z M 76 40 L 72 45 L 70 44 Q 66 43 67 47 Q 68 51 73 50 L 79 42 Q 80 38 76 40 Z " /><path fill="rgb(0,0,0)" stroke="rgb(0,0,0)" stroke-width="1" opacity="0" d="M 4 65 L 12 65 L 12 87 L 4 87 L 4 65 Z " /><path fill="rgb(0,0,0)" stroke="rgb(0,0,0)" stroke-width="1" opacity="0" d="M 21.5 65 Q 35.5 65 43 71.5 L 41.5 75 L 39.5 76 L 30.5 74 L 29 78 L 40.5 80 L 60.5 71 L 66.5 70 Q 71 72 67.5 74 L 43.5 86 L 36.5 88 L 31.5 88 L 30.5 87 L 17.5 86 L 16 84.5 L 16 69.5 L 19.5 66 L 21.5 65 Z " /><path fill="rgb(0,0,0)" stroke="rgb(0,0,0)" stroke-width="1" opacity="0" d="M 16 89 L 25 90.5 L 16 91 L 16 89 Z " /><path fill="rgb(255,255,255)" stroke="rgb(255,255,255)" stroke-width="1" opacity="0.3411764705882353" d="M 61.5 0 L 64 0.5 Q 56 2.5 51.5 8 L 46.5 2 L 52.5 7 L 61.5 0 Z " /><path fill="rgb(255,255,255)" stroke="rgb(255,255,255)" stroke-width="1" opacity="0.3411764705882353" d="M 70.5 0 Q 80.1 1.9 84 9.5 L 76.5 3 L 70.5 1 L 70.5 0 Z " /><path fill="rgb(255,255,255)" stroke="rgb(255,255,255)" stroke-width="1" opacity="0.3411764705882353" d="M 29.5 1 L 31 1.5 L 21.5 9 L 27.5 2 L 29.5 1 Z " /><path fill="rgb(255,255,255)" stroke="rgb(255,255,255)" stroke-width="1" opacity="0.3411764705882353" d="M 33.5 3 L 41 3.5 L 33.5 4 L 33.5 3 Z " /><path fill="rgb(255,255,255)" stroke="rgb(255,255,255)" stroke-width="1" opacity="0.3411764705882353" d="M 63.5 3 L 71 3.5 L 63.5 4 L 63.5 3 Z " /><path fill="rgb(255,255,255)" stroke="rgb(255,255,255)" stroke-width="1" opacity="0.3411764705882353" d="M 42.5 4 L 46 6.5 L 43.5 5 L 42.5 4 Z " /><path fill="rgb(255,255,255)" stroke="rgb(255,255,255)" stroke-width="1" opacity="0.3411764705882353" d="M 29.5 5 L 27.5 8 L 29.5 5 Z " /><path fill="rgb(255,255,255)" stroke="rgb(255,255,255)" stroke-width="1" opacity="0.3411764705882353" d="M 59.5 5 L 58.5 7 L 59.5 5 Z " /><path fill="rgb(255,255,255)" stroke="rgb(255,255,255)" stroke-width="1" opacity="0.3411764705882353" d="M 74.5 5 L 75.5 7 L 74.5 5 Z " /><path fill="rgb(255,255,255)" stroke="rgb(255,255,255)" stroke-width="1" opacity="0.3411764705882353" d="M 47.5 7 L 48.5 9 L 47.5 7 Z " /><path fill="rgb(255,255,255)" stroke="rgb(255,255,255)" stroke-width="1" opacity="0.3411764705882353" d="M 56.5 7 L 55.5 9 L 56.5 7 Z " /><path fill="rgb(255,255,255)" stroke="rgb(255,255,255)" stroke-width="1" opacity="0.3411764705882353" d="M 77.5 7 L 81 11.5 L 78 9.5 L 77.5 7 Z " /><path fill="rgb(255,255,255)" stroke="rgb(255,255,255)" stroke-width="1" opacity="0.3411764705882353" d="M 25.5 9 L 24 11.5 L 22.5 15 L 22 13.5 L 25.5 9 Z " /><path fill="rgb(255,255,255)" stroke="rgb(255,255,255)" stroke-width="1" opacity="0.3411764705882353" d="M 49.5 10 L 53.5 11 L 55 10.5 Q 54.3 12.8 50.5 12 L 49.5 10 Z " /><path fill="rgb(255,255,255)" stroke="rgb(255,255,255)" stroke-width="1" opacity="0.3411764705882353" d="M 84.5 11 L 86 15.5 L 85 15.5 L 84.5 11 Z " /><path fill="rgb(255,255,255)" stroke="rgb(255,255,255)" stroke-width="1" opacity="0.3411764705882353" d="M 81.5 13 L 83 18.5 L 82 18.5 L 81.5 13 Z " /><path fill="rgb(255,255,255)" stroke="rgb(255,255,255)" stroke-width="1" opacity="0.3411764705882353" d="M 21.5 16 L 22 18.5 L 21 18.5 L 21.5 16 Z " /><path fill="rgb(255,255,255)" stroke="rgb(255,255,255)" stroke-width="1" opacity="0.3411764705882353" d="M 17.5 19 L 18 21.5 L 17 21.5 L 17.5 19 Z " /><path fill="rgb(255,255,255)" stroke="rgb(255,255,255)" stroke-width="1" opacity="0.3411764705882353" d="M 21.5 21 Q 22.3 28.3 27 31.5 L 23 28.5 Q 20 25.8 21.5 21 Z " /><path fill="rgb(255,255,255)" stroke="rgb(255,255,255)" stroke-width="1" opacity="0.3411764705882353" d="M 82.5 22 L 83 24.5 L 82 24.5 L 82.5 22 Z " /><path fill="rgb(255,255,255)" stroke="rgb(255,255,255)" stroke-width="1" opacity="0.3411764705882353" d="M 85.5 22 L 86 24.5 L 85 24.5 L 85.5 22 Z " /><path fill="rgb(255,255,255)" stroke="rgb(255,255,255)" stroke-width="1" opacity="0.3411764705882353" d="M 18.5 24 Q 20.4 32.6 27 36.5 L 20 30.5 Q 17 28 18.5 24 Z " /><path fill="rgb(255,255,255)" stroke="rgb(255,255,255)" stroke-width="1" opacity="0.3411764705882353" d="M 69.5 28 L 72 28.5 L 66.5 31 L 67.5 29 L 69.5 28 Z " /><path fill="rgb(255,255,255)" stroke="rgb(255,255,255)" stroke-width="1" opacity="0.3411764705882353" d="M 74.5 28 L 77 29.5 L 75.5 29 L 74.5 28 Z " /><path fill="rgb(255,255,255)" stroke="rgb(255,255,255)" stroke-width="1" opacity="0.3411764705882353" d="M 80.5 28 L 78.5 31 L 80.5 28 Z " /><path fill="rgb(255,255,255)" stroke="rgb(255,255,255)" stroke-width="1" opacity="0.3411764705882353" d="M 74.5 32 L 84 37.5 L 83.5 45 L 83 37.5 L 81.5 36 L 74.5 33 L 74.5 32 Z " /><path fill="rgb(255,255,255)" stroke="rgb(255,255,255)" stroke-width="1" opacity="0.3411764705882353" d="M 27.5 33 L 51 57.5 L 47 54.5 L 27.5 33 Z " /><path fill="rgb(255,255,255)" stroke="rgb(255,255,255)" stroke-width="1" opacity="0.3411764705882353" d="M 84.5 33 L 86.5 36 L 84.5 33 Z " /><path fill="rgb(255,255,255)" stroke="rgb(255,255,255)" stroke-width="1" opacity="0.3411764705882353" d="M 62.5 36 L 62 37.5 L 61.5 44 L 61 37.5 L 62.5 36 Z " /><path fill="rgb(255,255,255)" stroke="rgb(255,255,255)" stroke-width="1" opacity="0.3411764705882353" d="M 27.5 38 L 49.5 61 L 27.5 38 Z " /><path fill="rgb(255,255,255)" stroke="rgb(255,255,255)" stroke-width="1" opacity="0.3411764705882353" d="M 75.5 40 L 75 41.5 L 71.5 46 L 67 44.5 L 69.5 44 L 71.5 45 L 75.5 40 Z " /><path fill="rgb(255,255,255)" stroke="rgb(255,255,255)" stroke-width="1" opacity="0.3411764705882353" d="M 58.5 42 L 59 44.5 L 58 44.5 L 58.5 42 Z " /><path fill="rgb(255,255,255)" stroke="rgb(255,255,255)" stroke-width="1" opacity="0.3411764705882353" d="M 77.5 43 L 76.5 45 L 77.5 43 Z " /><path fill="rgb(255,255,255)" stroke="rgb(255,255,255)" stroke-width="1" opacity="0.3411764705882353" d="M 86.5 44 L 87 46.5 L 86 46.5 L 86.5 44 Z " /><path fill="rgb(255,255,255)" stroke="rgb(255,255,255)" stroke-width="1" opacity="0.3411764705882353" d="M 67.5 46 Q 68 49.5 72.5 49 L 76 46.5 Q 75.5 50.5 70.5 50 L 67.5 46 Z " /><path fill="rgb(255,255,255)" stroke="rgb(255,255,255)" stroke-width="1" opacity="0.3411764705882353" d="M 59.5 47 L 60 50.5 L 57 52.5 Q 59.8 51.3 59.5 47 Z " /><path fill="rgb(255,255,255)" stroke="rgb(255,255,255)" stroke-width="1" opacity="0.3411764705882353" d="M 63.5 48 L 71 57.5 L 64 51.5 L 63.5 48 Z " /><path fill="rgb(255,255,255)" stroke="rgb(255,255,255)" stroke-width="1" opacity="0.3411764705882353" d="M 85.5 48 L 86 49.5 Q 83 57 76.5 61 L 83 53.5 L 85.5 48 Z " /><path fill="rgb(255,255,255)" stroke="rgb(255,255,255)" stroke-width="1" opacity="0.3411764705882353" d="M 80.5 51 L 78.5 54 L 80.5 51 Z " /><path fill="rgb(255,255,255)" stroke="rgb(255,255,255)" stroke-width="1" opacity="0.3411764705882353" d="M 56.5 54 L 53.5 58 L 56.5 54 Z " /><path fill="rgb(255,255,255)" stroke="rgb(255,255,255)" stroke-width="1" opacity="0.3411764705882353" d="M 61.5 54 L 62.5 56 L 61.5 55 L 55.5 61 L 51.5 62 L 51.5 61 Q 59.1 60.1 61.5 54 Z " /><path fill="rgb(255,255,255)" stroke="rgb(255,255,255)" stroke-width="1" opacity="0.3411764705882353" d="M 76.5 55 L 78 55.5 L 74.5 58 L 76.5 55 Z " /><path fill="rgb(255,255,255)" stroke="rgb(255,255,255)" stroke-width="1" opacity="0.3411764705882353" d="M 64.5 56 L 67.5 60 L 64.5 56 Z " /><path fill="rgb(255,255,255)" stroke="rgb(255,255,255)" stroke-width="1" opacity="0.3411764705882353" d="M 69.5 60 L 72 61.5 L 70.5 62 L 69.5 60 Z " /><path fill="rgb(255,255,255)" stroke="rgb(255,255,255)" stroke-width="1" opacity="0.3411764705882353" d="M 0.5 61 L 14.5 61 L 16.5 63 L 18.5 62 L 18.5 63 L 15 64 L 14.5 62 L 0.5 62 L 0.5 61 Z " /><path fill="rgb(255,255,255)" stroke="rgb(255,255,255)" stroke-width="1" opacity="0.3411764705882353" d="M 27.5 61 L 30 61.5 L 27.5 62 L 27.5 61 Z " /><path fill="rgb(255,255,255)" stroke="rgb(255,255,255)" stroke-width="1" opacity="0.3411764705882353" d="M 3.5 65 L 4 87 L 12 87 L 12 65.5 L 13 65.5 L 13 86.5 L 11.5 88 L 3 88 L 3.5 65 Z " /><path fill="rgb(255,255,255)" stroke="rgb(255,255,255)" stroke-width="1" opacity="0.3411764705882353" d="M 40.5 65 L 46 68.5 L 45.5 70 L 43.5 67 Q 39.7 66.8 40.5 65 Z " /><path fill="rgb(255,255,255)" stroke="rgb(255,255,255)" stroke-width="1" opacity="0.3411764705882353" d="M 18.5 66 L 16 69.5 L 16 84.5 L 17 85.5 L 15 84.5 L 15 69.5 L 18.5 66 Z " /><path fill="rgb(255,255,255)" stroke="rgb(255,255,255)" stroke-width="1" opacity="0.3411764705882353" d="M 62.5 66 L 68 66.5 L 62.5 67 L 62.5 66 Z " /><path fill="rgb(255,255,255)" stroke="rgb(255,255,255)" stroke-width="1" opacity="0.3411764705882353" d="M 59.5 67 L 61 67.5 L 57.5 69 L 57.5 68 L 59.5 67 Z " /><path fill="rgb(255,255,255)" stroke="rgb(255,255,255)" stroke-width="1" opacity="0.3411764705882353" d="M 69.5 67 L 71.5 70 L 69.5 67 Z " /><path fill="rgb(255,255,255)" stroke="rgb(255,255,255)" stroke-width="1" opacity="0.3411764705882353" d="M 41.5 69 L 42.5 71 L 41.5 69 Z " /><path fill="rgb(255,255,255)" stroke="rgb(255,255,255)" stroke-width="1" opacity="0.3411764705882353" d="M 64.5 69 Q 68.5 68.5 69 71.5 L 66.5 70 Q 63.5 70.5 64.5 69 Z " /><path fill="rgb(255,255,255)" stroke="rgb(255,255,255)" stroke-width="1" opacity="0.3411764705882353" d="M 46.5 71 L 48.5 71 L 50 71.5 L 46 73 L 46.5 71 Z " /><path fill="rgb(255,255,255)" stroke="rgb(255,255,255)" stroke-width="1" opacity="0.3411764705882353" d="M 72.5 71 L 73 73.5 L 72 73.5 L 72.5 71 Z " /><path fill="rgb(255,255,255)" stroke="rgb(255,255,255)" stroke-width="1" opacity="0.3411764705882353" d="M 68.5 73 L 67.5 75 L 54.5 81 L 54.5 80 L 68.5 73 Z " /><path fill="rgb(255,255,255)" stroke="rgb(255,255,255)" stroke-width="1" opacity="0.3411764705882353" d="M 30.5 74 L 32 74.5 L 29.5 76 L 30.5 74 Z " /><path fill="rgb(255,255,255)" stroke="rgb(255,255,255)" stroke-width="1" opacity="0.3411764705882353" d="M 42.5 74 L 41.5 76 L 40 75.5 L 42.5 74 Z " /><path fill="rgb(255,255,255)" stroke="rgb(255,255,255)" stroke-width="1" opacity="0.3411764705882353" d="M 51.5 74 L 53 74.5 L 49.5 76 L 49.5 75 L 51.5 74 Z " /><path fill="rgb(255,255,255)" stroke="rgb(255,255,255)" stroke-width="1" opacity="0.3411764705882353" d="M 35.5 75 L 39 75.5 L 35.5 76 L 35.5 75 Z " /><path fill="rgb(255,255,255)" stroke="rgb(255,255,255)" stroke-width="1" opacity="0.3411764705882353" d="M 71.5 75 L 69.5 78 L 66.5 79 L 66.5 78 L 71.5 75 Z " /><path fill="rgb(255,255,255)" stroke="rgb(255,255,255)" stroke-width="1" opacity="0.3411764705882353" d="M 32.5 78 L 36 78.5 L 32.5 79 L 32.5 78 Z " /><path fill="rgb(255,255,255)" stroke="rgb(255,255,255)" stroke-width="1" opacity="0.3411764705882353" d="M 55.5 83 L 57 83.5 L 43.5 90 L 43.5 89 L 55.5 83 Z " /><path fill="rgb(255,255,255)" stroke="rgb(255,255,255)" stroke-width="1" opacity="0.3411764705882353" d="M 20.5 86 L 24 86.5 L 20.5 87 L 20.5 86 Z " /><path fill="rgb(255,255,255)" stroke="rgb(255,255,255)" stroke-width="1" opacity="0.3411764705882353" d="M 27.5 87 L 31 87.5 L 27.5 88 L 27.5 87 Z " /><path fill="rgb(255,255,255)" stroke="rgb(255,255,255)" stroke-width="1" opacity="0.3411764705882353" d="M 37.5 87 L 40 87.5 L 37.5 88 L 37.5 87 Z " /><path fill="rgb(255,255,255)" stroke="rgb(255,255,255)" stroke-width="1" opacity="0.3411764705882353" d="M 19.5 89 L 23 89.5 L 19.5 90 L 19.5 89 Z " /><path fill="rgb(255,255,255)" stroke="rgb(255,255,255)" stroke-width="1" opacity="0.3411764705882353" d="M 25.5 90 L 29 90.5 L 25.5 91 L 25.5 90 Z " /><path fill="rgb(255,255,255)" stroke="rgb(255,255,255)" stroke-width="1" opacity="0.3411764705882353" d="M 38.5 90 L 42 90.5 L 38.5 91 L 38.5 90 Z " /><path fill="rgb(255,255,255)" stroke="rgb(255,255,255)" stroke-width="1" opacity="0.9647058823529412" d="M 34.5 0 L 43.5 1 L 52.5 8 Q 56.9 -0.1 69.5 0 Q 79.3 2.7 84 10.5 L 86 16.5 L 86 21.5 L 82 33 L 87 36.5 L 86 47.5 Q 82.8 56.3 75.5 61 L 72.5 62 L 61.5 54 Q 59 60.5 50.5 61 L 21 30.5 Q 16.9 26.1 18 16.5 Q 20.4 7.4 27.5 3 L 34.5 0 Z M 34 3 L 30 5 Q 23 9 21 17 Q 20 25 23 29 L 47 55 Q 48 59 54 58 L 60 51 L 58 42 Q 57 36 59 34 L 73 28 L 79 31 L 83 25 L 83 16 L 79 9 L 71 3 L 64 3 L 57 7 L 55 10 Q 54 12 51 11 L 49 9 L 44 4 L 34 3 Z M 73 31 L 61 38 L 61 44 L 64 52 L 73 59 L 78 56 L 83 48 L 84 38 L 73 31 Z " /><path fill="rgb(255,255,255)" stroke="rgb(255,255,255)" stroke-width="1" opacity="0.9647058823529412" d="M 76.5 40 Q 79.1 39.2 78 42.5 L 72.5 49 Q 67.5 49.5 67 45.5 L 69.5 45 L 71.5 46 L 76.5 40 Z " /><path fill="rgb(255,255,255)" stroke="rgb(255,255,255)" stroke-width="1" opacity="0.9647058823529412" d="M 22.5 61 L 30.5 62 Q 33.5 65 39.5 65 L 45 68.5 L 46 73 L 61.5 67 L 68.5 67 Q 73 68 72 74.5 L 69.5 77 L 42.5 90 L 29.5 91 L 22.5 89 L 15 89 L 14.5 91 L 1.5 91 L 0 89.5 L 0 62 L 14.5 62 L 15 64 L 16.5 64 L 22.5 61 Z M 24 64 L 19 66 L 15 70 L 15 85 L 17 86 L 28 88 Q 37 90 43 87 L 69 74 Q 69 70 67 69 L 62 70 L 42 79 L 31 78 Q 28 77 31 75 L 42 76 Q 44 75 43 71 Q 35 65 24 64 Z M 3 65 L 3 88 L 12 88 L 13 87 L 13 65 L 3 65 Z " /></svg>