<svg width="95" height="95" version="1.1" xmlns="http://www.w3.org/2000/svg" desc="Created with imagetracer.js version 1.2.6" ><path fill="rgb(255,255,255)" stroke="rgb(255,255,255)" stroke-width="1" opacity="0.8235294117647058" d="M 17.5 0 L 28 0.5 L 17.5 1 L 17.5 0 Z " /><path fill="rgb(255,255,255)" stroke="rgb(255,255,255)" stroke-width="1" opacity="0.8235294117647058" d="M 13.5 1 L 14 5.5 L 13 5.5 L 13.5 1 Z " /><path fill="rgb(255,255,255)" stroke="rgb(255,255,255)" stroke-width="1" opacity="0.8235294117647058" d="M 15.5 2 L 16 4.5 L 15 4.5 L 15.5 2 Z " /><path fill="rgb(255,255,255)" stroke="rgb(255,255,255)" stroke-width="1" opacity="0.8235294117647058" d="M 24.5 7 L 26 11.5 L 24 10.5 L 24.5 7 Z " /><path fill="rgb(255,255,255)" stroke="rgb(255,255,255)" stroke-width="1" opacity="0.8235294117647058" d="M 82.5 7 L 83 18.5 L 82 18.5 L 82.5 7 Z " /><path fill="rgb(255,255,255)" stroke="rgb(255,255,255)" stroke-width="1" opacity="0.8235294117647058" d="M 84.5 7 L 85 18.5 L 86 19.5 L 84 18.5 L 84.5 7 Z " /><path fill="rgb(255,255,255)" stroke="rgb(255,255,255)" stroke-width="1" opacity="0.8235294117647058" d="M 27.5 12 L 28.5 14 L 27.5 12 Z " /><path fill="rgb(255,255,255)" stroke="rgb(255,255,255)" stroke-width="1" opacity="0.8235294117647058" d="M 25.5 13 L 26.5 15 L 25.5 13 Z " /><path fill="rgb(255,255,255)" stroke="rgb(255,255,255)" stroke-width="1" opacity="0.8235294117647058" d="M 7.5 18 L 17 18.5 L 7.5 19 L 7.5 18 Z " /><path fill="rgb(255,255,255)" stroke="rgb(255,255,255)" stroke-width="1" opacity="0.8235294117647058" d="M 20.5 18 L 28 18.5 L 20.5 19 L 20.5 18 Z " /><path fill="rgb(255,255,255)" stroke="rgb(255,255,255)" stroke-width="1" opacity="0.8235294117647058" d="M 30.5 18 L 39 18.5 L 30.5 19 L 30.5 18 Z " /><path fill="rgb(255,255,255)" stroke="rgb(255,255,255)" stroke-width="1" opacity="0.8235294117647058" d="M 7.5 20 L 40 20.5 L 7.5 21 L 7.5 20 Z " /><path fill="rgb(255,255,255)" stroke="rgb(255,255,255)" stroke-width="1" opacity="0.8235294117647058" d="M 78.5 20 L 82 20.5 L 78.5 21 L 78.5 20 Z " /><path fill="rgb(255,255,255)" stroke="rgb(255,255,255)" stroke-width="1" opacity="0.8235294117647058" d="M 42.5 21 L 43.5 23 L 42.5 21 Z " /><path fill="rgb(255,255,255)" stroke="rgb(255,255,255)" stroke-width="1" opacity="0.8235294117647058" d="M 86.5 24 L 87 37.5 L 85 39.5 L 84.5 93 L 84 39.5 L 86 37.5 L 86.5 24 Z " /><path fill="rgb(255,255,255)" stroke="rgb(255,255,255)" stroke-width="1" opacity="0.8235294117647058" d="M 46.5 25 L 47 61.5 L 46 61.5 L 46.5 25 Z " /><path fill="rgb(255,255,255)" stroke="rgb(255,255,255)" stroke-width="1" opacity="0.8235294117647058" d="M 76.5 36 L 85 36.5 L 76.5 37 L 76.5 36 Z " /><path fill="rgb(255,255,255)" stroke="rgb(255,255,255)" stroke-width="1" opacity="0.8235294117647058" d="M 78.5 38 Q 82.3 37.3 83 39.5 L 83 92.5 Q 83 93.5 78.5 93 L 77 93.5 Q 78.2 91 82 92 L 82 39.5 L 78.5 39 L 78.5 38 Z " /><path fill="rgb(255,255,255)" stroke="rgb(255,255,255)" stroke-width="1" opacity="0.8235294117647058" d="M 26.5 39 L 27.5 41 L 26.5 39 Z " /><path fill="rgb(255,255,255)" stroke="rgb(255,255,255)" stroke-width="1" opacity="0.8235294117647058" d="M 22.5 44 L 21.5 46 L 22.5 44 Z " /><path fill="rgb(255,255,255)" stroke="rgb(255,255,255)" stroke-width="1" opacity="0.8235294117647058" d="M 24.5 44 L 25.5 46 L 24.5 44 Z " /><path fill="rgb(255,255,255)" stroke="rgb(255,255,255)" stroke-width="1" opacity="0.8235294117647058" d="M 25.5 49 L 24.5 51 L 25.5 49 Z " /><path fill="rgb(255,255,255)" stroke="rgb(255,255,255)" stroke-width="1" opacity="0.8235294117647058" d="M 17.5 57 L 16.5 59 L 17.5 57 Z " /><path fill="rgb(255,255,255)" stroke="rgb(255,255,255)" stroke-width="1" opacity="0.8235294117647058" d="M 29.5 57 L 30.5 59 L 29.5 57 Z " /><path fill="rgb(255,255,255)" stroke="rgb(255,255,255)" stroke-width="1" opacity="0.8235294117647058" d="M 20.5 61 L 19.5 63 L 20.5 61 Z " /><path fill="rgb(255,255,255)" stroke="rgb(255,255,255)" stroke-width="1" opacity="0.8235294117647058" d="M 26.5 61 L 27.5 63 L 26.5 61 Z " /><path fill="rgb(255,255,255)" stroke="rgb(255,255,255)" stroke-width="1" opacity="0.8235294117647058" d="M 17.5 63 L 18.5 65 L 17.5 63 Z " /><path fill="rgb(255,255,255)" stroke="rgb(255,255,255)" stroke-width="1" opacity="0.8235294117647058" d="M 25.5 63 L 28 64.5 L 26.5 65 L 25.5 63 Z " /><path fill="rgb(255,255,255)" stroke="rgb(255,255,255)" stroke-width="1" opacity="0.8235294117647058" d="M 38.5 67 L 36.5 70 L 38.5 67 Z " /><path fill="rgb(255,255,255)" stroke="rgb(255,255,255)" stroke-width="1" opacity="0.8235294117647058" d="M 39.5 69 L 38.5 71 L 39.5 69 Z " /><path fill="rgb(255,255,255)" stroke="rgb(255,255,255)" stroke-width="1" opacity="0.8235294117647058" d="M 43.5 69 L 42.5 71 L 43.5 69 Z " /><path fill="rgb(255,255,255)" stroke="rgb(255,255,255)" stroke-width="1" opacity="0.8235294117647058" d="M 3.5 72 L 7.5 77 L 3.5 72 Z " /><path fill="rgb(255,255,255)" stroke="rgb(255,255,255)" stroke-width="1" opacity="0.8235294117647058" d="M 12.5 72 L 34 72.5 L 12.5 73 L 12.5 72 Z " /><path fill="rgb(255,255,255)" stroke="rgb(255,255,255)" stroke-width="1" opacity="0.8235294117647058" d="M 8.5 74 L 11 75.5 L 9.5 76 L 8.5 74 Z " /><path fill="rgb(255,255,255)" stroke="rgb(255,255,255)" stroke-width="1" opacity="0.8235294117647058" d="M 41.5 74 L 40.5 76 L 41.5 74 Z " /><path fill="rgb(255,255,255)" stroke="rgb(255,255,255)" stroke-width="1" opacity="0.8235294117647058" d="M 29.5 76 L 33 76.5 L 29.5 77 L 29.5 76 Z " /><path fill="rgb(255,255,255)" stroke="rgb(255,255,255)" stroke-width="1" opacity="0.8235294117647058" d="M 22.5 85 L 25 85.5 L 22.5 86 L 22.5 85 Z " /><path fill="rgb(255,255,255)" stroke="rgb(255,255,255)" stroke-width="1" opacity="0.8235294117647058" d="M 22.5 92 L 25 92.5 L 22.5 93 L 22.5 92 Z " /><path fill="rgb(255,255,255)" stroke="rgb(255,255,255)" stroke-width="1" opacity="1" d="M 14 0 Q 18.5 2 27.5 1 L 28.5 0 L 91.5 0 L 95 2.5 L 92.5 7 L 84 7 L 84 18.5 L 87 23.5 L 86 24.5 L 86 37.5 L 84 39.5 L 84 93.5 L 82.5 95 Q 77.8 94.8 76 91.5 L 76 39.5 L 74 37.5 L 74 21.5 L 76 18.5 L 76 7 L 24.5 7 L 24 10.5 L 30 15.5 L 30.5 19 L 41.5 19 L 45 21.5 L 46 23.5 L 46 61.5 L 47 65.5 Q 44.9 73.4 38.5 77 L 30 78 Q 31.5 83.4 28.5 85 L 27 85.5 L 27 93.5 Q 26 96 21.5 95 L 20 93.5 L 20 85 L 17 83.5 L 17 78 L 10.5 78 L 2 70.5 L 0 65.5 L 0 26.5 L 3.5 20 L 5.5 19 L 17 19 Q 16.9 14.1 20.5 12 Q 22.8 12.8 22 10.5 L 23 7 L 14 7 L 14 0 Z M 15 2 L 16 5 L 93 5 L 93 2 L 15 2 Z M 78 7 L 78 19 L 83 19 L 83 7 L 78 7 Z M 23 13 L 21 14 L 19 18 L 21 19 L 28 19 L 27 15 Q 26 12 23 13 Z M 8 20 L 3 22 L 2 25 L 2 67 L 4 71 L 10 76 L 29 76 L 30 77 L 39 75 L 45 68 L 45 25 L 44 23 L 40 20 L 8 20 Z M 79 20 L 78 21 L 76 22 L 76 37 L 85 37 L 85 21 L 79 20 Z M 78 38 L 78 93 L 83 93 L 83 40 Q 82 37 78 38 Z M 19 78 L 19 83 L 28 83 L 28 78 L 19 78 Z M 22 85 L 22 93 L 25 93 L 25 85 L 22 85 Z " /><path fill="rgb(255,255,255)" stroke="rgb(255,255,255)" stroke-width="1" opacity="1" d="M 8.5 31 L 38.5 31 L 41 32 L 42 34.5 L 42 64.5 L 37.5 71 L 35.5 72 L 11.5 72 L 6 67.5 L 5 65.5 L 5 34.5 L 6 32 L 8.5 31 Z M 7 33 L 7 66 L 8 68 L 13 71 L 34 71 L 37 70 L 40 66 L 40 35 L 39 33 L 7 33 Z " /><path fill="rgb(255,255,255)" stroke="rgb(255,255,255)" stroke-width="1" opacity="1" d="M 21.5 39 L 25.5 39 L 29 41 Q 31.6 43.3 31 49.5 L 28 55.5 L 32 61.5 L 26.5 64 L 22 61 L 19.5 65 L 15 61.5 L 19 53.5 Q 15.1 51.9 16 45.5 L 19.5 40 L 21.5 39 Z M 22 41 L 18 45 Q 17 52 21 54 L 17 62 L 20 63 L 24 58 L 26 62 Q 28 65 30 61 L 27 57 Q 26 52 29 51 L 29 45 Q 28 40 22 41 Z " /><path fill="rgb(255,255,255)" stroke="rgb(255,255,255)" stroke-width="1" opacity="1" d="M 23.5 44 Q 26.5 44.5 26 48.5 Q 24 53 22 49.5 L 21 46.5 L 23.5 44 Z " /><path fill="rgb(0,0,0)" stroke="rgb(0,0,0)" stroke-width="1" opacity="0" d="M 0 0 L 13 0 L 13 6.5 L 14.5 8 L 22 8 Q 23.5 11.8 20.5 11 Q 16.4 13.3 16 18 L 5.5 18 L 1 21.5 L 0.5 23 L 0 0 Z " /><path fill="rgb(0,0,0)" stroke="rgb(0,0,0)" stroke-width="1" opacity="0" d="M 16.5 3 L 92 3.5 L 16.5 4 L 16.5 3 Z " /><path fill="rgb(0,0,0)" stroke="rgb(0,0,0)" stroke-width="1" opacity="0" d="M 94.5 6 L 95 95 L 85.5 95 L 85 94.5 L 85 39 L 87 38.5 L 87 19 L 85 18.5 L 85 8 Q 91.7 9.4 94.5 6 Z " /><path fill="rgb(0,0,0)" stroke="rgb(0,0,0)" stroke-width="1" opacity="0" d="M 25 8 L 74.5 8 L 75 8.5 L 75 18.5 L 73 21.5 L 73 39 L 75 39.5 L 75 90.5 L 78 94.5 L 27 95 L 28 92.5 L 27 86 L 31 83.5 Q 28.7 76.3 36.5 79 L 42 75.5 L 47 68.5 L 47 23.5 L 43.5 19 L 41.5 18 L 31 18 L 28.5 12 L 25 11 L 25 8 Z " /><path fill="rgb(0,0,0)" stroke="rgb(0,0,0)" stroke-width="1" opacity="0" d="M 79 8 L 82 8.5 L 82 18 L 79 17.5 L 79 8 Z " /><path fill="rgb(0,0,0)" stroke="rgb(0,0,0)" stroke-width="1" opacity="0" d="M 21.5 14 Q 26.3 13.3 27 16.5 L 26.5 18 L 20 18 L 21.5 14 Z " /><path fill="rgb(0,0,0)" stroke="rgb(0,0,0)" stroke-width="1" opacity="0" d="M 7.5 21 L 39.5 21 L 44 24.5 L 44 67.5 L 39.5 73 Q 36 77 27.5 76 L 26.5 75 L 17.5 75 L 13.5 76 Q 7.8 74.8 5 70.5 L 3 66.5 L 3 24.5 L 7.5 21 Z M 9 30 L 7 31 L 4 35 L 4 65 L 7 71 L 12 73 L 36 73 L 38 72 L 43 65 L 43 35 L 42 33 L 39 30 L 9 30 Z " /><path fill="rgb(0,0,0)" stroke="rgb(0,0,0)" stroke-width="1" opacity="0" d="M 78.5 21 Q 83 20 84 22.5 L 84 36 L 76 36 L 76 22.5 L 77.5 22 L 78.5 21 Z " /><path fill="rgb(0,0,0)" stroke="rgb(0,0,0)" stroke-width="1" opacity="0" d="M 8 34 L 39 34 L 39 65.5 L 38 68 L 34.5 70 L 12.5 70 L 9 67.5 L 7 58.5 L 7 40.5 L 8 34 Z M 22 38 L 20 39 L 15 46 Q 14 52 18 55 L 14 62 Q 16 66 21 66 L 24 62 L 26 65 Q 32 66 33 62 L 29 56 L 32 49 L 30 42 Q 28 37 22 38 Z " /><path fill="rgb(0,0,0)" stroke="rgb(0,0,0)" stroke-width="1" opacity="0" d="M 79 39 L 82 39.5 L 82 92 L 79 91.5 L 79 39 Z " /><path fill="rgb(0,0,0)" stroke="rgb(0,0,0)" stroke-width="1" opacity="0" d="M 23.5 41 L 28 44.5 L 28 49.5 Q 25.2 51.2 26 56.5 L 29 60.5 L 27.5 61 L 22 57 L 19.5 61 L 18 60.5 Q 21.7 58.6 22 53.5 L 18 46.5 L 21.5 42 L 23.5 41 Z M 24 43 L 21 44 L 20 47 L 21 50 L 25 52 L 27 49 L 26 44 L 24 43 Z " /><path fill="rgb(0,0,0)" stroke="rgb(0,0,0)" stroke-width="1" opacity="0" d="M 0.5 69 L 6.5 77 Q 9.8 80 16 79 Q 14.8 85 19 86.5 Q 17.2 92.7 20 94.5 L 0 95 L 0.5 69 Z " /><path fill="rgb(0,0,0)" stroke="rgb(0,0,0)" stroke-width="1" opacity="0" d="M 20 79 L 27 79 L 27 83 L 20 83 L 20 79 Z " /><path fill="rgb(0,0,0)" stroke="rgb(0,0,0)" stroke-width="1" opacity="0" d="M 23.5 86 L 24 91.5 L 23 91.5 L 23.5 86 Z " /><path fill="rgb(255,255,255)" stroke="rgb(255,255,255)" stroke-width="1" opacity="0.32941176470588235" d="M 16.5 2 L 91.5 2 L 93 3.5 L 91.5 5 L 16.5 5 L 16.5 4 L 92 3.5 L 16.5 3 L 16.5 2 Z " /><path fill="rgb(255,255,255)" stroke="rgb(255,255,255)" stroke-width="1" opacity="0.32941176470588235" d="M 94.5 5 L 93.5 7 L 94.5 5 Z " /><path fill="rgb(255,255,255)" stroke="rgb(255,255,255)" stroke-width="1" opacity="0.32941176470588235" d="M 13.5 6 L 14.5 7 L 23 7.5 L 14.5 8 L 13.5 6 Z " /><path fill="rgb(255,255,255)" stroke="rgb(255,255,255)" stroke-width="1" opacity="0.32941176470588235" d="M 25.5 7 L 75.5 7 L 76 7.5 L 76 17.5 L 75 17.5 L 75 8.5 L 74.5 8 L 25.5 8 L 25.5 7 Z " /><path fill="rgb(255,255,255)" stroke="rgb(255,255,255)" stroke-width="1" opacity="0.32941176470588235" d="M 78 7 L 82 7.5 L 79 8 L 79 17.5 L 81.5 18 L 81.5 19 L 78 17.5 L 78 7 Z " /><path fill="rgb(255,255,255)" stroke="rgb(255,255,255)" stroke-width="1" opacity="0.32941176470588235" d="M 85.5 7 L 92 7.5 L 85.5 8 L 85.5 7 Z " /><path fill="rgb(255,255,255)" stroke="rgb(255,255,255)" stroke-width="1" opacity="0.32941176470588235" d="M 20.5 11 L 17.5 15 L 20.5 11 Z " /><path fill="rgb(255,255,255)" stroke="rgb(255,255,255)" stroke-width="1" opacity="0.32941176470588235" d="M 28.5 12 L 30 14.5 L 29 14.5 L 28.5 12 Z " /><path fill="rgb(255,255,255)" stroke="rgb(255,255,255)" stroke-width="1" opacity="0.32941176470588235" d="M 22.5 13 Q 27.5 12.5 28 16.5 L 27.5 18 L 24.5 14 Q 21.5 14.5 22.5 13 Z " /><path fill="rgb(255,255,255)" stroke="rgb(255,255,255)" stroke-width="1" opacity="0.32941176470588235" d="M 39.5 18 L 42 18.5 L 39.5 19 L 39.5 18 Z " /><path fill="rgb(255,255,255)" stroke="rgb(255,255,255)" stroke-width="1" opacity="0.32941176470588235" d="M 3.5 19 L 1.5 22 L 3.5 19 Z " /><path fill="rgb(255,255,255)" stroke="rgb(255,255,255)" stroke-width="1" opacity="0.32941176470588235" d="M 43.5 19 L 45.5 22 L 43.5 19 Z " /><path fill="rgb(255,255,255)" stroke="rgb(255,255,255)" stroke-width="1" opacity="0.32941176470588235" d="M 5.5 21 L 7 21.5 L 3.5 24 L 5.5 21 Z " /><path fill="rgb(255,255,255)" stroke="rgb(255,255,255)" stroke-width="1" opacity="0.32941176470588235" d="M 40.5 21 L 44 23.5 L 41.5 22 L 40.5 21 Z " /><path fill="rgb(255,255,255)" stroke="rgb(255,255,255)" stroke-width="1" opacity="0.32941176470588235" d="M 73.5 21 L 74 38.5 L 73 38.5 L 73.5 21 Z " /><path fill="rgb(255,255,255)" stroke="rgb(255,255,255)" stroke-width="1" opacity="0.32941176470588235" d="M 83.5 21 L 85 22.5 L 85 35.5 L 84 35.5 L 84 22.5 L 83.5 21 Z " /><path fill="rgb(255,255,255)" stroke="rgb(255,255,255)" stroke-width="1" opacity="0.32941176470588235" d="M 2.5 25 L 3 64.5 L 2 64.5 L 2.5 25 Z " /><path fill="rgb(255,255,255)" stroke="rgb(255,255,255)" stroke-width="1" opacity="0.32941176470588235" d="M 44.5 25 L 45 65.5 L 44 65.5 L 44.5 25 Z " /><path fill="rgb(255,255,255)" stroke="rgb(255,255,255)" stroke-width="1" opacity="0.32941176470588235" d="M 8.5 30 L 39 30.5 L 8.5 31 L 8.5 30 Z " /><path fill="rgb(255,255,255)" stroke="rgb(255,255,255)" stroke-width="1" opacity="0.32941176470588235" d="M 6.5 31 L 5.5 33 L 6.5 31 Z " /><path fill="rgb(255,255,255)" stroke="rgb(255,255,255)" stroke-width="1" opacity="0.32941176470588235" d="M 40.5 31 L 41.5 33 L 40.5 31 Z " /><path fill="rgb(255,255,255)" stroke="rgb(255,255,255)" stroke-width="1" opacity="0.32941176470588235" d="M 8.5 33 L 38.5 33 L 40 34.5 L 39.5 65 L 39 34 L 8.5 34 Q 7.4 34.1 8 39.5 L 7 39.5 Q 5.8 34.3 8.5 33 Z " /><path fill="rgb(255,255,255)" stroke="rgb(255,255,255)" stroke-width="1" opacity="0.32941176470588235" d="M 4.5 34 L 5 64.5 L 4 64.5 L 4.5 34 Z " /><path fill="rgb(255,255,255)" stroke="rgb(255,255,255)" stroke-width="1" opacity="0.32941176470588235" d="M 42.5 34 L 43 64.5 L 42 64.5 L 42.5 34 Z " /><path fill="rgb(255,255,255)" stroke="rgb(255,255,255)" stroke-width="1" opacity="0.32941176470588235" d="M 21.5 38 L 26 38.5 L 21.5 39 L 21.5 38 Z " /><path fill="rgb(255,255,255)" stroke="rgb(255,255,255)" stroke-width="1" opacity="0.32941176470588235" d="M 19.5 39 L 17.5 42 L 19.5 39 Z " /><path fill="rgb(255,255,255)" stroke="rgb(255,255,255)" stroke-width="1" opacity="0.32941176470588235" d="M 27.5 39 L 29.5 42 L 27.5 39 Z " /><path fill="rgb(255,255,255)" stroke="rgb(255,255,255)" stroke-width="1" opacity="0.32941176470588235" d="M 75.5 39 L 76 90.5 L 75 90.5 L 75.5 39 Z " /><path fill="rgb(255,255,255)" stroke="rgb(255,255,255)" stroke-width="1" opacity="0.32941176470588235" d="M 78.5 39 L 79 91.5 L 78 91.5 L 78.5 39 Z " /><path fill="rgb(255,255,255)" stroke="rgb(255,255,255)" stroke-width="1" opacity="0.32941176470588235" d="M 24.5 41 L 28 43.5 L 25.5 42 L 24.5 41 Z " /><path fill="rgb(255,255,255)" stroke="rgb(255,255,255)" stroke-width="1" opacity="0.32941176470588235" d="M 20.5 42 L 19.5 44 L 20.5 42 Z " /><path fill="rgb(255,255,255)" stroke="rgb(255,255,255)" stroke-width="1" opacity="0.32941176470588235" d="M 15.5 45 L 16 49.5 L 15 49.5 L 15.5 45 Z " /><path fill="rgb(255,255,255)" stroke="rgb(255,255,255)" stroke-width="1" opacity="0.32941176470588235" d="M 28.5 45 L 29 49.5 Q 26.3 51.8 26.5 57 L 26 52.5 Q 28.8 50.3 28.5 45 Z " /><path fill="rgb(255,255,255)" stroke="rgb(255,255,255)" stroke-width="1" opacity="0.32941176470588235" d="M 31.5 45 L 32 48.5 L 31 48.5 L 31.5 45 Z " /><path fill="rgb(255,255,255)" stroke="rgb(255,255,255)" stroke-width="1" opacity="0.32941176470588235" d="M 26.5 46 L 27 48.5 L 26 48.5 L 26.5 46 Z " /><path fill="rgb(255,255,255)" stroke="rgb(255,255,255)" stroke-width="1" opacity="0.32941176470588235" d="M 18.5 48 L 22 55.5 L 18.5 60 L 20 57.5 L 21 53.5 Q 16.7 51.6 18.5 48 Z " /><path fill="rgb(255,255,255)" stroke="rgb(255,255,255)" stroke-width="1" opacity="0.32941176470588235" d="M 21.5 49 L 24.5 51 L 26 50.5 L 23.5 52 L 21.5 49 Z " /><path fill="rgb(255,255,255)" stroke="rgb(255,255,255)" stroke-width="1" opacity="0.32941176470588235" d="M 16.5 51 L 19 55.5 L 16 57.5 L 18 54.5 L 16.5 51 Z " /><path fill="rgb(255,255,255)" stroke="rgb(255,255,255)" stroke-width="1" opacity="0.32941176470588235" d="M 30.5 51 L 29.5 53 L 30.5 51 Z " /><path fill="rgb(255,255,255)" stroke="rgb(255,255,255)" stroke-width="1" opacity="0.32941176470588235" d="M 28.5 54 L 31 57.5 L 28 55.5 L 28.5 54 Z " /><path fill="rgb(255,255,255)" stroke="rgb(255,255,255)" stroke-width="1" opacity="0.32941176470588235" d="M 27.5 58 L 28.5 60 L 27.5 58 Z " /><path fill="rgb(255,255,255)" stroke="rgb(255,255,255)" stroke-width="1" opacity="0.32941176470588235" d="M 7.5 59 L 9 66.5 L 7 65.5 L 7.5 59 Z " /><path fill="rgb(255,255,255)" stroke="rgb(255,255,255)" stroke-width="1" opacity="0.32941176470588235" d="M 15.5 59 L 15 60.5 L 18 64.5 L 14 61.5 L 15.5 59 Z " /><path fill="rgb(255,255,255)" stroke="rgb(255,255,255)" stroke-width="1" opacity="0.32941176470588235" d="M 21.5 59 L 19.5 62 L 18 61.5 L 21.5 59 Z " /><path fill="rgb(255,255,255)" stroke="rgb(255,255,255)" stroke-width="1" opacity="0.32941176470588235" d="M 25.5 59 L 29 61.5 L 27.5 62 L 25.5 59 Z " /><path fill="rgb(255,255,255)" stroke="rgb(255,255,255)" stroke-width="1" opacity="0.32941176470588235" d="M 31.5 59 L 33 61.5 L 30 63.5 L 32 60.5 L 31.5 59 Z " /><path fill="rgb(255,255,255)" stroke="rgb(255,255,255)" stroke-width="1" opacity="0.32941176470588235" d="M 23.5 61 L 26 64.5 L 24 63.5 L 23.5 62 L 21 63.5 L 23.5 61 Z " /><path fill="rgb(255,255,255)" stroke="rgb(255,255,255)" stroke-width="1" opacity="0.32941176470588235" d="M 5.5 66 L 7 68.5 L 5 67.5 L 5.5 66 Z " /><path fill="rgb(255,255,255)" stroke="rgb(255,255,255)" stroke-width="1" opacity="0.32941176470588235" d="M 41.5 67 L 40.5 69 L 41.5 67 Z " /><path fill="rgb(255,255,255)" stroke="rgb(255,255,255)" stroke-width="1" opacity="0.32941176470588235" d="M 36.5 68 L 35.5 70 L 36.5 68 Z " /><path fill="rgb(255,255,255)" stroke="rgb(255,255,255)" stroke-width="1" opacity="0.32941176470588235" d="M 43.5 68 L 42.5 70 L 43.5 68 Z " /><path fill="rgb(255,255,255)" stroke="rgb(255,255,255)" stroke-width="1" opacity="0.32941176470588235" d="M 1.5 70 L 2.5 72 L 1.5 70 Z " /><path fill="rgb(255,255,255)" stroke="rgb(255,255,255)" stroke-width="1" opacity="0.32941176470588235" d="M 7.5 70 L 10 71.5 L 8.5 71 L 7.5 70 Z " /><path fill="rgb(255,255,255)" stroke="rgb(255,255,255)" stroke-width="1" opacity="0.32941176470588235" d="M 14.5 70 L 33 70.5 L 14.5 71 L 14.5 70 Z " /><path fill="rgb(255,255,255)" stroke="rgb(255,255,255)" stroke-width="1" opacity="0.32941176470588235" d="M 45.5 70 L 42.5 74 L 45.5 70 Z " /><path fill="rgb(255,255,255)" stroke="rgb(255,255,255)" stroke-width="1" opacity="0.32941176470588235" d="M 5.5 71 L 7.5 74 L 5.5 71 Z " /><path fill="rgb(255,255,255)" stroke="rgb(255,255,255)" stroke-width="1" opacity="0.32941176470588235" d="M 41.5 71 L 39.5 74 L 37.5 75 L 38.5 73 L 41.5 71 Z " /><path fill="rgb(255,255,255)" stroke="rgb(255,255,255)" stroke-width="1" opacity="0.32941176470588235" d="M 3.5 73 L 6.5 77 L 3.5 73 Z " /><path fill="rgb(255,255,255)" stroke="rgb(255,255,255)" stroke-width="1" opacity="0.32941176470588235" d="M 17.5 75 L 27 75.5 L 17.5 76 L 17.5 75 Z " /><path fill="rgb(255,255,255)" stroke="rgb(255,255,255)" stroke-width="1" opacity="0.32941176470588235" d="M 41.5 75 L 40.5 77 L 38.5 78 L 39.5 76 L 41.5 75 Z " /><path fill="rgb(255,255,255)" stroke="rgb(255,255,255)" stroke-width="1" opacity="0.32941176470588235" d="M 10.5 78 Q 15.8 76.8 17 79.5 Q 16 85.5 20 86.5 Q 18.3 92.7 21 94.5 L 19 93.5 L 19 86.5 Q 14.8 85 16 79 L 10.5 79 L 10.5 78 Z " /><path fill="rgb(255,255,255)" stroke="rgb(255,255,255)" stroke-width="1" opacity="0.32941176470588235" d="M 19 78 L 28 78 L 28 82.5 L 27 82.5 L 27 79 L 20 79 L 19.5 83 L 19 78 Z " /><path fill="rgb(255,255,255)" stroke="rgb(255,255,255)" stroke-width="1" opacity="0.32941176470588235" d="M 30 78 L 37 78.5 L 31 79 Q 32.3 84.5 28.5 86 L 30 83.5 L 30 78 Z " /><path fill="rgb(255,255,255)" stroke="rgb(255,255,255)" stroke-width="1" opacity="0.32941176470588235" d="M 22.5 86 L 23 91.5 L 22 91.5 L 22.5 86 Z " /><path fill="rgb(255,255,255)" stroke="rgb(255,255,255)" stroke-width="1" opacity="0.32941176470588235" d="M 24.5 86 L 25 91.5 L 24 91.5 L 24.5 86 Z " /></svg>