<svg width="108" height="108" version="1.1" xmlns="http://www.w3.org/2000/svg" desc="Created with imagetracer.js version 1.2.6" ><path fill="rgb(0,0,0)" stroke="rgb(0,0,0)" stroke-width="1" opacity="0" d="M 0 0 L 51 0.5 Q 46.4 3.9 45 10.5 L 45 35.5 L 42.5 38 L 0.5 63 L 0 0 Z " /><path fill="rgb(0,0,0)" stroke="rgb(0,0,0)" stroke-width="1" opacity="0" d="M 57.5 0 L 108 0 L 108 62.5 L 105.5 61 L 99 58 L 105 46.5 L 105 37.5 L 100 28 L 90.5 23 L 81.5 23 L 71 29.5 L 66.5 38 L 63 35.5 L 63 10.5 Q 61.4 3.1 57.5 0 Z " /><path fill="rgb(0,0,0)" stroke="rgb(0,0,0)" stroke-width="1" opacity="0" d="M 53.5 4 L 57 6.5 L 59 11.5 L 59 74.5 L 60.5 76 L 63 74.5 L 63.5 63 L 69 65.5 Q 68.3 70.3 71.5 71 Q 77.8 72.3 79 68.5 L 79 67 L 84 67 Q 83.2 72 86.5 74 L 90.5 75 L 94 72.5 L 95.5 69 L 108 71 L 108 108 L 74.5 108 L 75 106.5 Q 76.3 99.3 71.5 98 L 63 92.5 L 63 81.5 L 61.5 80 L 59 81.5 L 59 95.5 L 56.5 99 L 56 87.5 L 54.5 86 L 52 87.5 L 52 97.5 L 50 98 L 49 94.5 L 49 12.5 L 51 6.5 L 53.5 4 Z " /><path fill="rgb(0,0,0)" stroke="rgb(0,0,0)" stroke-width="1" opacity="0" d="M 83.5 27 L 89.5 27 L 99 34.5 Q 101.9 38.1 101 45.5 L 95.5 54 L 89.5 57 L 82.5 57 L 74 51.5 Q 69.8 47.7 71 38.5 L 75 31 L 83.5 27 Z M 86 33 L 84 35 L 86 37 Q 89 38 88 35 L 86 33 Z M 86 39 L 84 41 L 84 52 Q 85 54 87 52 L 88 52 L 88 41 L 86 39 Z " /><path fill="rgb(0,0,0)" stroke="rgb(0,0,0)" stroke-width="1" opacity="0" d="M 44.5 41 L 45 59 L 4.5 67 L 4 65 L 44.5 41 Z " /><path fill="rgb(0,0,0)" stroke="rgb(0,0,0)" stroke-width="1" opacity="0" d="M 63.5 41 L 67 43.5 Q 67.4 53.1 73.5 57 Q 78.5 62.5 90.5 61 L 95.5 60 L 104 65.5 L 103.5 67 L 63 59 L 63.5 41 Z " /><path fill="rgb(0,0,0)" stroke="rgb(0,0,0)" stroke-width="1" opacity="0" d="M 44.5 63 L 45 92.5 L 34 100.5 L 33 106.5 L 33.5 108 L 0 108 L 0 71 Q 7.6 71.9 12.5 69 L 15.5 74 L 19.5 75 L 22 74 L 25.5 67 Q 29.9 65.5 29 68.5 Q 30.3 72.3 36.5 71 Q 39.8 69 39 64 L 44.5 63 Z " /><path fill="rgb(0,0,0)" stroke="rgb(0,0,0)" stroke-width="1" opacity="0" d="M 34.5 65 L 35 67 L 33 66.5 L 34.5 65 Z " /><path fill="rgb(0,0,0)" stroke="rgb(0,0,0)" stroke-width="1" opacity="0" d="M 73.5 65 L 74.5 67 Q 71.7 67.7 73.5 65 Z " /><path fill="rgb(0,0,0)" stroke="rgb(0,0,0)" stroke-width="1" opacity="0" d="M 18 68 Q 21 67 20 70 Q 17 71 18 68 Z " /><path fill="rgb(0,0,0)" stroke="rgb(0,0,0)" stroke-width="1" opacity="0" d="M 88.5 68 L 91 68.5 Q 88.9 71.8 88.5 68 Z " /><path fill="rgb(0,0,0)" stroke="rgb(0,0,0)" stroke-width="1" opacity="0" d="M 44.5 98 L 47 99.5 L 45.5 102 L 38.5 104 L 38 102.5 L 44.5 98 Z " /><path fill="rgb(0,0,0)" stroke="rgb(0,0,0)" stroke-width="1" opacity="0" d="M 62.5 98 L 70 102.5 L 69.5 104 L 61 100.5 L 62.5 98 Z " /><path fill="rgb(0,0,0)" stroke="rgb(0,0,0)" stroke-width="1" opacity="0" d="M 50.5 104 L 58.5 104 L 68 107.5 L 40.5 108 L 40.5 107 L 50.5 104 Z " /><path fill="rgb(255,255,255)" stroke="rgb(255,255,255)" stroke-width="1" opacity="0.8784313725490196" d="M 52.5 3 L 51.5 5 L 52.5 3 Z " /><path fill="rgb(255,255,255)" stroke="rgb(255,255,255)" stroke-width="1" opacity="0.8784313725490196" d="M 55.5 3 L 57.5 6 L 55.5 3 Z " /><path fill="rgb(255,255,255)" stroke="rgb(255,255,255)" stroke-width="1" opacity="0.8784313725490196" d="M 59.5 12 L 60 73.5 L 59 73.5 L 59.5 12 Z " /><path fill="rgb(255,255,255)" stroke="rgb(255,255,255)" stroke-width="1" opacity="0.8784313725490196" d="M 48.5 13 L 49 94.5 L 48 94.5 L 48.5 13 Z " /><path fill="rgb(255,255,255)" stroke="rgb(255,255,255)" stroke-width="1" opacity="0.8784313725490196" d="M 74.5 27 L 72.5 30 L 74.5 27 Z " /><path fill="rgb(255,255,255)" stroke="rgb(255,255,255)" stroke-width="1" opacity="0.8784313725490196" d="M 98.5 28 L 99.5 30 L 98.5 28 Z " /><path fill="rgb(255,255,255)" stroke="rgb(255,255,255)" stroke-width="1" opacity="0.8784313725490196" d="M 95.5 29 L 98.5 33 L 95.5 29 Z " /><path fill="rgb(255,255,255)" stroke="rgb(255,255,255)" stroke-width="1" opacity="0.8784313725490196" d="M 45.5 36 L 44.5 38 L 45.5 36 Z " /><path fill="rgb(255,255,255)" stroke="rgb(255,255,255)" stroke-width="1" opacity="0.8784313725490196" d="M 62.5 36 L 63.5 38 L 62.5 36 Z " /><path fill="rgb(255,255,255)" stroke="rgb(255,255,255)" stroke-width="1" opacity="0.8784313725490196" d="M 40.5 39 L 39.5 41 L 40.5 39 Z " /><path fill="rgb(255,255,255)" stroke="rgb(255,255,255)" stroke-width="1" opacity="0.8784313725490196" d="M 35.5 42 L 34.5 44 L 35.5 42 Z " /><path fill="rgb(255,255,255)" stroke="rgb(255,255,255)" stroke-width="1" opacity="0.8784313725490196" d="M 30.5 45 L 29.5 47 L 30.5 45 Z " /><path fill="rgb(255,255,255)" stroke="rgb(255,255,255)" stroke-width="1" opacity="0.8784313725490196" d="M 72.5 50 L 73.5 52 L 72.5 50 Z " /><path fill="rgb(255,255,255)" stroke="rgb(255,255,255)" stroke-width="1" opacity="0.8784313725490196" d="M 71.5 53 L 74.5 57 L 71.5 53 Z " /><path fill="rgb(255,255,255)" stroke="rgb(255,255,255)" stroke-width="1" opacity="0.8784313725490196" d="M 76.5 54 L 77.5 56 L 76.5 54 Z " /><path fill="rgb(255,255,255)" stroke="rgb(255,255,255)" stroke-width="1" opacity="0.8784313725490196" d="M 95.5 54 L 94.5 56 L 95.5 54 Z " /><path fill="rgb(255,255,255)" stroke="rgb(255,255,255)" stroke-width="1" opacity="0.8784313725490196" d="M 99.5 54 L 98 56.5 L 97.5 58 L 97 56.5 L 99.5 54 Z " /><path fill="rgb(255,255,255)" stroke="rgb(255,255,255)" stroke-width="1" opacity="0.8784313725490196" d="M 18.5 55 L 17.5 57 L 18.5 55 Z " /><path fill="rgb(255,255,255)" stroke="rgb(255,255,255)" stroke-width="1" opacity="0.8784313725490196" d="M 13.5 58 L 12.5 60 L 13.5 58 Z " /><path fill="rgb(255,255,255)" stroke="rgb(255,255,255)" stroke-width="1" opacity="0.8784313725490196" d="M 84.5 60 L 87 60.5 L 84.5 61 L 84.5 60 Z " /><path fill="rgb(255,255,255)" stroke="rgb(255,255,255)" stroke-width="1" opacity="0.8784313725490196" d="M 3.5 61 L 1.5 64 L 3.5 61 Z " /><path fill="rgb(255,255,255)" stroke="rgb(255,255,255)" stroke-width="1" opacity="0.8784313725490196" d="M 8.5 61 L 7.5 63 L 8.5 61 Z " /><path fill="rgb(255,255,255)" stroke="rgb(255,255,255)" stroke-width="1" opacity="0.8784313725490196" d="M 39.5 63 L 41 63.5 L 39 64 L 38.5 66 L 38 64.5 L 39.5 63 Z " /><path fill="rgb(255,255,255)" stroke="rgb(255,255,255)" stroke-width="1" opacity="0.8784313725490196" d="M 67.5 63 L 70 64.5 L 68.5 64 L 67.5 63 Z " /><path fill="rgb(255,255,255)" stroke="rgb(255,255,255)" stroke-width="1" opacity="0.8784313725490196" d="M 87.5 67 L 88 69.5 L 87 69.5 L 87.5 67 Z " /><path fill="rgb(255,255,255)" stroke="rgb(255,255,255)" stroke-width="1" opacity="0.8784313725490196" d="M 0.5 68 L 1 70 L 3 70.5 L 1.5 71 L 0.5 68 Z " /><path fill="rgb(255,255,255)" stroke="rgb(255,255,255)" stroke-width="1" opacity="0.8784313725490196" d="M 37.5 68 L 36.5 70 L 37.5 68 Z " /><path fill="rgb(255,255,255)" stroke="rgb(255,255,255)" stroke-width="1" opacity="0.8784313725490196" d="M 70.5 68 L 71.5 70 L 70.5 68 Z " /><path fill="rgb(255,255,255)" stroke="rgb(255,255,255)" stroke-width="1" opacity="0.8784313725490196" d="M 107.5 69 L 106.5 71 L 105 70.5 L 107.5 69 Z " /><path fill="rgb(255,255,255)" stroke="rgb(255,255,255)" stroke-width="1" opacity="0.8784313725490196" d="M 32.5 70 L 35 70.5 L 32.5 71 L 32.5 70 Z " /><path fill="rgb(255,255,255)" stroke="rgb(255,255,255)" stroke-width="1" opacity="0.8784313725490196" d="M 73.5 70 L 76 70.5 L 73.5 71 L 73.5 70 Z " /><path fill="rgb(255,255,255)" stroke="rgb(255,255,255)" stroke-width="1" opacity="0.8784313725490196" d="M 85.5 70 L 88 73.5 L 85 71.5 L 85.5 70 Z " /><path fill="rgb(255,255,255)" stroke="rgb(255,255,255)" stroke-width="1" opacity="0.8784313725490196" d="M 14.5 71 L 16.5 74 L 14.5 71 Z " /><path fill="rgb(255,255,255)" stroke="rgb(255,255,255)" stroke-width="1" opacity="0.8784313725490196" d="M 93.5 71 L 91.5 74 L 93.5 71 Z " /><path fill="rgb(255,255,255)" stroke="rgb(255,255,255)" stroke-width="1" opacity="0.8784313725490196" d="M 21.5 72 L 20.5 74 L 21.5 72 Z " /><path fill="rgb(255,255,255)" stroke="rgb(255,255,255)" stroke-width="1" opacity="0.8784313725490196" d="M 60.5 81 L 62 81.5 L 60 82 L 59.5 96 L 59 82.5 L 60.5 81 Z " /><path fill="rgb(255,255,255)" stroke="rgb(255,255,255)" stroke-width="1" opacity="0.8784313725490196" d="M 55.5 91 L 57 99.5 L 55 100 L 55.5 91 Z " /><path fill="rgb(255,255,255)" stroke="rgb(255,255,255)" stroke-width="1" opacity="0.8784313725490196" d="M 62.5 96 L 61.5 98 L 62.5 96 Z " /><path fill="rgb(255,255,255)" stroke="rgb(255,255,255)" stroke-width="1" opacity="0.8784313725490196" d="M 49.5 97 L 53 99.5 L 51.5 100 L 49.5 97 Z " /><path fill="rgb(255,255,255)" stroke="rgb(255,255,255)" stroke-width="1" opacity="0.8784313725490196" d="M 40.5 99 L 39.5 101 L 40.5 99 Z " /><path fill="rgb(255,255,255)" stroke="rgb(255,255,255)" stroke-width="1" opacity="0.8784313725490196" d="M 71.5 103 L 72 105 L 70 104.5 L 71.5 103 Z " /><path fill="rgb(255,255,255)" stroke="rgb(255,255,255)" stroke-width="1" opacity="0.403921568627451" d="M 51.5 0 L 48.5 4 L 51.5 0 Z " /><path fill="rgb(255,255,255)" stroke="rgb(255,255,255)" stroke-width="1" opacity="0.403921568627451" d="M 56.5 0 L 62 7.5 L 61 7.5 L 56.5 0 Z " /><path fill="rgb(255,255,255)" stroke="rgb(255,255,255)" stroke-width="1" opacity="0.403921568627451" d="M 53.5 3 L 58 6.5 L 57.5 8 L 54.5 4 L 51 6.5 L 50.5 8 L 50 6.5 L 53.5 3 Z " /><path fill="rgb(255,255,255)" stroke="rgb(255,255,255)" stroke-width="1" opacity="0.403921568627451" d="M 49.5 9 L 50 11.5 L 49 11.5 L 49.5 9 Z " /><path fill="rgb(255,255,255)" stroke="rgb(255,255,255)" stroke-width="1" opacity="0.403921568627451" d="M 45.5 10 L 46 35.5 L 43 37.5 L 45 35.5 L 45.5 10 Z " /><path fill="rgb(255,255,255)" stroke="rgb(255,255,255)" stroke-width="1" opacity="0.403921568627451" d="M 62.5 10 L 63 35.5 L 64.5 37 L 66.5 38 L 68 37.5 Q 68.8 39.8 66.5 39 L 62 35.5 L 62.5 10 Z " /><path fill="rgb(255,255,255)" stroke="rgb(255,255,255)" stroke-width="1" opacity="0.403921568627451" d="M 81.5 23 L 91 23.5 L 81.5 24 L 81.5 23 Z " /><path fill="rgb(255,255,255)" stroke="rgb(255,255,255)" stroke-width="1" opacity="0.403921568627451" d="M 78.5 24 L 80 24.5 L 75.5 27 L 76.5 25 L 78.5 24 Z " /><path fill="rgb(255,255,255)" stroke="rgb(255,255,255)" stroke-width="1" opacity="0.403921568627451" d="M 92.5 24 L 98 27.5 L 95.5 26 Q 91.8 25.8 92.5 24 Z " /><path fill="rgb(255,255,255)" stroke="rgb(255,255,255)" stroke-width="1" opacity="0.403921568627451" d="M 73.5 27 L 72 29.5 L 69.5 34 L 69 32.5 L 73.5 27 Z " /><path fill="rgb(255,255,255)" stroke="rgb(255,255,255)" stroke-width="1" opacity="0.403921568627451" d="M 80.5 27 L 83 27.5 L 75 31 L 71.5 38 L 71 36.5 L 75.5 30 L 80.5 27 Z " /><path fill="rgb(255,255,255)" stroke="rgb(255,255,255)" stroke-width="1" opacity="0.403921568627451" d="M 90.5 27 Q 97.4 28.6 100 34.5 L 99.5 36 L 93.5 29 Q 89.7 28.7 90.5 27 Z " /><path fill="rgb(255,255,255)" stroke="rgb(255,255,255)" stroke-width="1" opacity="0.403921568627451" d="M 100.5 30 L 104 35.5 L 103 35.5 L 100.5 30 Z " /><path fill="rgb(255,255,255)" stroke="rgb(255,255,255)" stroke-width="1" opacity="0.403921568627451" d="M 85.5 33 L 88 34.5 L 87.5 37 L 87 34 Q 84.3 32.9 85 35.5 L 85.5 37 L 84 34.5 L 85.5 33 Z " /><path fill="rgb(255,255,255)" stroke="rgb(255,255,255)" stroke-width="1" opacity="0.403921568627451" d="M 104.5 37 L 105 46.5 L 104 46.5 L 104.5 37 Z " /><path fill="rgb(255,255,255)" stroke="rgb(255,255,255)" stroke-width="1" opacity="0.403921568627451" d="M 39.5 39 L 38.5 41 L 39.5 39 Z " /><path fill="rgb(255,255,255)" stroke="rgb(255,255,255)" stroke-width="1" opacity="0.403921568627451" d="M 85.5 39 L 88 40.5 L 87.5 52 L 87 40 L 85 40.5 L 85 51.5 L 85.5 53 L 84 51.5 L 84 40.5 L 85.5 39 Z " /><path fill="rgb(255,255,255)" stroke="rgb(255,255,255)" stroke-width="1" opacity="0.403921568627451" d="M 45.5 40 L 46 60 L 43 59.5 L 45 59 L 45.5 40 Z " /><path fill="rgb(255,255,255)" stroke="rgb(255,255,255)" stroke-width="1" opacity="0.403921568627451" d="M 62 40 L 65 41.5 L 63 41.5 L 63 58.5 L 64.5 59 L 64.5 60 L 62 58.5 L 62 40 Z " /><path fill="rgb(255,255,255)" stroke="rgb(255,255,255)" stroke-width="1" opacity="0.403921568627451" d="M 70.5 40 L 71 43.5 L 70 43.5 L 70.5 40 Z " /><path fill="rgb(255,255,255)" stroke="rgb(255,255,255)" stroke-width="1" opacity="0.403921568627451" d="M 34.5 42 L 33.5 44 L 31.5 45 L 32.5 43 L 34.5 42 Z " /><path fill="rgb(255,255,255)" stroke="rgb(255,255,255)" stroke-width="1" opacity="0.403921568627451" d="M 41.5 42 L 40.5 44 L 38.5 45 L 39.5 43 L 41.5 42 Z " /><path fill="rgb(255,255,255)" stroke="rgb(255,255,255)" stroke-width="1" opacity="0.403921568627451" d="M 67.5 44 L 68 46.5 L 67 46.5 L 67.5 44 Z " /><path fill="rgb(255,255,255)" stroke="rgb(255,255,255)" stroke-width="1" opacity="0.403921568627451" d="M 29.5 45 L 28.5 47 L 26.5 48 L 27.5 46 L 29.5 45 Z " /><path fill="rgb(255,255,255)" stroke="rgb(255,255,255)" stroke-width="1" opacity="0.403921568627451" d="M 36.5 45 L 35.5 47 L 33.5 48 L 34.5 46 L 36.5 45 Z " /><path fill="rgb(255,255,255)" stroke="rgb(255,255,255)" stroke-width="1" opacity="0.403921568627451" d="M 100.5 46 L 101 47.5 L 98.5 51 L 99 49.5 L 100.5 46 Z " /><path fill="rgb(255,255,255)" stroke="rgb(255,255,255)" stroke-width="1" opacity="0.403921568627451" d="M 24.5 48 L 23.5 50 L 21.5 51 L 22.5 49 L 24.5 48 Z " /><path fill="rgb(255,255,255)" stroke="rgb(255,255,255)" stroke-width="1" opacity="0.403921568627451" d="M 31.5 48 L 30.5 50 L 28.5 51 L 29.5 49 L 31.5 48 Z " /><path fill="rgb(255,255,255)" stroke="rgb(255,255,255)" stroke-width="1" opacity="0.403921568627451" d="M 68.5 48 L 71 52.5 L 69 51.5 L 68.5 48 Z " /><path fill="rgb(255,255,255)" stroke="rgb(255,255,255)" stroke-width="1" opacity="0.403921568627451" d="M 103.5 48 L 104 49.5 L 100.5 54 L 102 51.5 L 103.5 48 Z " /><path fill="rgb(255,255,255)" stroke="rgb(255,255,255)" stroke-width="1" opacity="0.403921568627451" d="M 72.5 49 L 73.5 51 L 72.5 49 Z " /><path fill="rgb(255,255,255)" stroke="rgb(255,255,255)" stroke-width="1" opacity="0.403921568627451" d="M 19.5 51 L 18.5 53 L 16.5 54 L 17.5 52 L 19.5 51 Z " /><path fill="rgb(255,255,255)" stroke="rgb(255,255,255)" stroke-width="1" opacity="0.403921568627451" d="M 26.5 51 L 25.5 53 L 23.5 54 L 24.5 52 L 26.5 51 Z " /><path fill="rgb(255,255,255)" stroke="rgb(255,255,255)" stroke-width="1" opacity="0.403921568627451" d="M 74.5 52 L 75.5 54 L 74.5 52 Z " /><path fill="rgb(255,255,255)" stroke="rgb(255,255,255)" stroke-width="1" opacity="0.403921568627451" d="M 97.5 52 L 96.5 54 L 97.5 52 Z " /><path fill="rgb(255,255,255)" stroke="rgb(255,255,255)" stroke-width="1" opacity="0.403921568627451" d="M 14.5 54 L 13.5 56 L 11.5 57 L 12.5 55 L 14.5 54 Z " /><path fill="rgb(255,255,255)" stroke="rgb(255,255,255)" stroke-width="1" opacity="0.403921568627451" d="M 21.5 54 L 20.5 56 L 18.5 57 L 19.5 55 L 21.5 54 Z " /><path fill="rgb(255,255,255)" stroke="rgb(255,255,255)" stroke-width="1" opacity="0.403921568627451" d="M 71.5 54 L 73.5 57 L 71.5 54 Z " /><path fill="rgb(255,255,255)" stroke="rgb(255,255,255)" stroke-width="1" opacity="0.403921568627451" d="M 77.5 54 L 78.5 56 L 77.5 54 Z " /><path fill="rgb(255,255,255)" stroke="rgb(255,255,255)" stroke-width="1" opacity="0.403921568627451" d="M 94.5 54 L 93.5 56 L 90.5 57 L 90.5 56 L 94.5 54 Z " /><path fill="rgb(255,255,255)" stroke="rgb(255,255,255)" stroke-width="1" opacity="0.403921568627451" d="M 99.5 55 L 99 56.5 L 98.5 58 L 98 56.5 L 99.5 55 Z " /><path fill="rgb(255,255,255)" stroke="rgb(255,255,255)" stroke-width="1" opacity="0.403921568627451" d="M 16.5 57 L 15.5 59 L 13.5 60 L 14.5 58 L 16.5 57 Z " /><path fill="rgb(255,255,255)" stroke="rgb(255,255,255)" stroke-width="1" opacity="0.403921568627451" d="M 75.5 57 L 80 59.5 L 78.5 60 L 75.5 57 Z " /><path fill="rgb(255,255,255)" stroke="rgb(255,255,255)" stroke-width="1" opacity="0.403921568627451" d="M 84.5 57 L 88 57.5 L 84.5 58 L 84.5 57 Z " /><path fill="rgb(255,255,255)" stroke="rgb(255,255,255)" stroke-width="1" opacity="0.403921568627451" d="M 7.5 58 L 6.5 60 L 4.5 61 L 5.5 59 L 7.5 58 Z " /><path fill="rgb(255,255,255)" stroke="rgb(255,255,255)" stroke-width="1" opacity="0.403921568627451" d="M 100.5 58 L 101.5 60 L 100.5 58 Z " /><path fill="rgb(255,255,255)" stroke="rgb(255,255,255)" stroke-width="1" opacity="0.403921568627451" d="M 92.5 59 Q 96.3 58.3 97 60.5 L 95.5 60 Q 91.5 60.8 92.5 59 Z " /><path fill="rgb(255,255,255)" stroke="rgb(255,255,255)" stroke-width="1" opacity="0.403921568627451" d="M 11.5 60 L 10.5 62 L 8.5 63 L 9.5 61 L 11.5 60 Z " /><path fill="rgb(255,255,255)" stroke="rgb(255,255,255)" stroke-width="1" opacity="0.403921568627451" d="M 38.5 60 L 41 60.5 L 38.5 61 L 38.5 60 Z " /><path fill="rgb(255,255,255)" stroke="rgb(255,255,255)" stroke-width="1" opacity="0.403921568627451" d="M 67.5 60 L 70 60.5 L 67.5 61 L 67.5 60 Z " /><path fill="rgb(255,255,255)" stroke="rgb(255,255,255)" stroke-width="1" opacity="0.403921568627451" d="M 81.5 60 L 84 60.5 L 81.5 61 L 81.5 60 Z " /><path fill="rgb(255,255,255)" stroke="rgb(255,255,255)" stroke-width="1" opacity="0.403921568627451" d="M 87.5 60 L 91 60.5 L 87.5 61 L 87.5 60 Z " /><path fill="rgb(255,255,255)" stroke="rgb(255,255,255)" stroke-width="1" opacity="0.403921568627451" d="M 2.5 61 L 1 63.5 L 0.5 65 L 0 63.5 L 2.5 61 Z " /><path fill="rgb(255,255,255)" stroke="rgb(255,255,255)" stroke-width="1" opacity="0.403921568627451" d="M 32.5 61 L 36 61.5 L 32.5 62 L 32.5 61 Z " /><path fill="rgb(255,255,255)" stroke="rgb(255,255,255)" stroke-width="1" opacity="0.403921568627451" d="M 73.5 61 L 76 61.5 L 73.5 62 L 73.5 61 Z " /><path fill="rgb(255,255,255)" stroke="rgb(255,255,255)" stroke-width="1" opacity="0.403921568627451" d="M 105.5 61 L 107.5 64 L 105.5 61 Z " /><path fill="rgb(255,255,255)" stroke="rgb(255,255,255)" stroke-width="1" opacity="0.403921568627451" d="M 27.5 62 L 30 62.5 L 27.5 63 L 27.5 62 Z " /><path fill="rgb(255,255,255)" stroke="rgb(255,255,255)" stroke-width="1" opacity="0.403921568627451" d="M 78.5 62 L 81 62.5 L 78.5 63 L 78.5 62 Z " /><path fill="rgb(255,255,255)" stroke="rgb(255,255,255)" stroke-width="1" opacity="0.403921568627451" d="M 100.5 62 L 101.5 64 L 100.5 62 Z " /><path fill="rgb(255,255,255)" stroke="rgb(255,255,255)" stroke-width="1" opacity="0.403921568627451" d="M 6.5 63 L 5.5 65 Q 3.3 64.3 4 66.5 L 3 66.5 L 4.5 64 L 6.5 63 Z " /><path fill="rgb(255,255,255)" stroke="rgb(255,255,255)" stroke-width="1" opacity="0.403921568627451" d="M 21.5 63 L 25 63.5 L 21.5 64 L 21.5 63 Z " /><path fill="rgb(255,255,255)" stroke="rgb(255,255,255)" stroke-width="1" opacity="0.403921568627451" d="M 41.5 63 L 44 63.5 L 41.5 64 L 41.5 63 Z " /><path fill="rgb(255,255,255)" stroke="rgb(255,255,255)" stroke-width="1" opacity="0.403921568627451" d="M 45.5 63 L 46 92.5 L 43 94.5 L 45 92.5 L 45.5 63 Z " /><path fill="rgb(255,255,255)" stroke="rgb(255,255,255)" stroke-width="1" opacity="0.403921568627451" d="M 62.5 63 L 63 74.5 L 60.5 76 L 59.5 74 L 62 75 L 62.5 63 Z " /><path fill="rgb(255,255,255)" stroke="rgb(255,255,255)" stroke-width="1" opacity="0.403921568627451" d="M 64.5 63 L 67 63.5 L 64.5 64 L 64.5 63 Z " /><path fill="rgb(255,255,255)" stroke="rgb(255,255,255)" stroke-width="1" opacity="0.403921568627451" d="M 83.5 63 L 86 63.5 L 83.5 64 L 83.5 63 Z " /><path fill="rgb(255,255,255)" stroke="rgb(255,255,255)" stroke-width="1" opacity="0.403921568627451" d="M 16.5 64 L 20 64.5 L 16.5 65 L 16.5 64 Z " /><path fill="rgb(255,255,255)" stroke="rgb(255,255,255)" stroke-width="1" opacity="0.403921568627451" d="M 68.5 64 L 71.5 70 L 73 70.5 L 71.5 71 L 69 68.5 L 68.5 64 Z " /><path fill="rgb(255,255,255)" stroke="rgb(255,255,255)" stroke-width="1" opacity="0.403921568627451" d="M 73.5 64 Q 78 66 74.5 68 L 73 67.5 L 75 66.5 L 72 65.5 L 73.5 64 Z " /><path fill="rgb(255,255,255)" stroke="rgb(255,255,255)" stroke-width="1" opacity="0.403921568627451" d="M 89.5 64 L 92 64.5 L 89.5 65 L 89.5 64 Z " /><path fill="rgb(255,255,255)" stroke="rgb(255,255,255)" stroke-width="1" opacity="0.403921568627451" d="M 103.5 64 L 105 66.5 L 104 66.5 L 103.5 64 Z " /><path fill="rgb(255,255,255)" stroke="rgb(255,255,255)" stroke-width="1" opacity="0.403921568627451" d="M 11.5 65 L 14 65.5 L 11.5 66 L 11.5 65 Z " /><path fill="rgb(255,255,255)" stroke="rgb(255,255,255)" stroke-width="1" opacity="0.403921568627451" d="M 33.5 65 L 33.5 68 Q 30.5 66.5 33.5 65 Z " /><path fill="rgb(255,255,255)" stroke="rgb(255,255,255)" stroke-width="1" opacity="0.403921568627451" d="M 94.5 65 L 97 65.5 L 94.5 66 L 94.5 65 Z " /><path fill="rgb(255,255,255)" stroke="rgb(255,255,255)" stroke-width="1" opacity="0.403921568627451" d="M 5.5 66 L 9 66.5 L 5.5 67 L 5.5 66 Z " /><path fill="rgb(255,255,255)" stroke="rgb(255,255,255)" stroke-width="1" opacity="0.403921568627451" d="M 25.5 66 L 29 66.5 L 24.5 68 L 25.5 66 Z " /><path fill="rgb(255,255,255)" stroke="rgb(255,255,255)" stroke-width="1" opacity="0.403921568627451" d="M 79.5 66 L 83 66.5 L 79.5 67 L 79.5 66 Z " /><path fill="rgb(255,255,255)" stroke="rgb(255,255,255)" stroke-width="1" opacity="0.403921568627451" d="M 99.5 66 L 103 66.5 L 99.5 67 L 99.5 66 Z " /><path fill="rgb(255,255,255)" stroke="rgb(255,255,255)" stroke-width="1" opacity="0.403921568627451" d="M 19.5 67 L 20.5 69 L 19.5 67 Z " /><path fill="rgb(255,255,255)" stroke="rgb(255,255,255)" stroke-width="1" opacity="0.403921568627451" d="M 84.5 67 L 85 70.5 L 84 70.5 L 84.5 67 Z " /><path fill="rgb(255,255,255)" stroke="rgb(255,255,255)" stroke-width="1" opacity="0.403921568627451" d="M 17.5 68 L 18 70 L 20 70.5 L 18.5 71 L 17.5 68 Z " /><path fill="rgb(255,255,255)" stroke="rgb(255,255,255)" stroke-width="1" opacity="0.403921568627451" d="M 29.5 68 L 31.5 71 L 29.5 68 Z " /><path fill="rgb(255,255,255)" stroke="rgb(255,255,255)" stroke-width="1" opacity="0.403921568627451" d="M 78.5 68 L 76.5 71 L 78.5 68 Z " /><path fill="rgb(255,255,255)" stroke="rgb(255,255,255)" stroke-width="1" opacity="0.403921568627451" d="M 8.5 69 L 12 69.5 L 8.5 70 L 8.5 69 Z " /><path fill="rgb(255,255,255)" stroke="rgb(255,255,255)" stroke-width="1" opacity="0.403921568627451" d="M 37.5 69 L 36.5 71 L 35 70.5 L 37.5 69 Z " /><path fill="rgb(255,255,255)" stroke="rgb(255,255,255)" stroke-width="1" opacity="0.403921568627451" d="M 88.5 69 L 91 69.5 Q 91.7 72.5 88 71 L 88.5 69 Z " /><path fill="rgb(255,255,255)" stroke="rgb(255,255,255)" stroke-width="1" opacity="0.403921568627451" d="M 96.5 69 L 100 69.5 L 96.5 70 L 96.5 69 Z " /><path fill="rgb(255,255,255)" stroke="rgb(255,255,255)" stroke-width="1" opacity="0.403921568627451" d="M 3.5 70 L 7 70.5 L 3.5 71 L 3.5 70 Z " /><path fill="rgb(255,255,255)" stroke="rgb(255,255,255)" stroke-width="1" opacity="0.403921568627451" d="M 102.5 70 L 105 70.5 L 102.5 71 L 102.5 70 Z " /><path fill="rgb(255,255,255)" stroke="rgb(255,255,255)" stroke-width="1" opacity="0.403921568627451" d="M 14.5 72 L 15.5 74 L 14.5 72 Z " /><path fill="rgb(255,255,255)" stroke="rgb(255,255,255)" stroke-width="1" opacity="0.403921568627451" d="M 85.5 72 L 86.5 74 L 85.5 72 Z " /><path fill="rgb(255,255,255)" stroke="rgb(255,255,255)" stroke-width="1" opacity="0.403921568627451" d="M 93.5 72 L 92.5 74 L 93.5 72 Z " /><path fill="rgb(255,255,255)" stroke="rgb(255,255,255)" stroke-width="1" opacity="0.403921568627451" d="M 17.5 74 L 20 74.5 L 17.5 75 L 17.5 74 Z " /><path fill="rgb(255,255,255)" stroke="rgb(255,255,255)" stroke-width="1" opacity="0.403921568627451" d="M 88.5 74 L 91 74.5 L 88.5 75 L 88.5 74 Z " /><path fill="rgb(255,255,255)" stroke="rgb(255,255,255)" stroke-width="1" opacity="0.403921568627451" d="M 60.5 80 L 63 81.5 L 63 92.5 L 64.5 94 L 70 97.5 L 68.5 97 L 62 92.5 L 62 81.5 L 60.5 81 L 59 81.5 L 60.5 80 Z " /><path fill="rgb(255,255,255)" stroke="rgb(255,255,255)" stroke-width="1" opacity="0.403921568627451" d="M 53.5 86 L 56 87.5 L 55.5 91 L 55 87 L 53 87.5 L 53 98.5 L 51.5 99 L 52 97.5 L 52 87.5 L 53.5 86 Z " /><path fill="rgb(255,255,255)" stroke="rgb(255,255,255)" stroke-width="1" opacity="0.403921568627451" d="M 41.5 95 L 40.5 97 L 38.5 98 L 39.5 96 L 41.5 95 Z " /><path fill="rgb(255,255,255)" stroke="rgb(255,255,255)" stroke-width="1" opacity="0.403921568627451" d="M 58.5 96 L 59 97.5 L 57 98.5 L 58.5 96 Z " /><path fill="rgb(255,255,255)" stroke="rgb(255,255,255)" stroke-width="1" opacity="0.403921568627451" d="M 44.5 97 L 48 99.5 Q 49.1 102.8 46.5 102 L 47 100.5 L 45.5 98 L 43.5 99 L 44.5 97 Z " /><path fill="rgb(255,255,255)" stroke="rgb(255,255,255)" stroke-width="1" opacity="0.403921568627451" d="M 62.5 97 L 65 98.5 L 63.5 98 L 61 99.5 L 62 101.5 L 60 102 Q 59.3 98.2 62.5 97 Z " /><path fill="rgb(255,255,255)" stroke="rgb(255,255,255)" stroke-width="1" opacity="0.403921568627451" d="M 36.5 98 L 34.5 101 L 36.5 98 Z " /><path fill="rgb(255,255,255)" stroke="rgb(255,255,255)" stroke-width="1" opacity="0.403921568627451" d="M 71.5 98 Q 76.2 99.2 75 106.5 L 74 106.5 L 74 101.5 L 71.5 98 Z " /><path fill="rgb(255,255,255)" stroke="rgb(255,255,255)" stroke-width="1" opacity="0.403921568627451" d="M 41.5 99 L 40.5 101 L 41.5 99 Z " /><path fill="rgb(255,255,255)" stroke="rgb(255,255,255)" stroke-width="1" opacity="0.403921568627451" d="M 66.5 99 L 71 102.5 L 70.5 104 L 68.5 101 L 66.5 99 Z " /><path fill="rgb(255,255,255)" stroke="rgb(255,255,255)" stroke-width="1" opacity="0.403921568627451" d="M 38.5 101 L 38 102.5 L 37.5 104 L 37 102.5 L 38.5 101 Z " /><path fill="rgb(255,255,255)" stroke="rgb(255,255,255)" stroke-width="1" opacity="0.403921568627451" d="M 33.5 102 L 35 107.5 L 33 106.5 L 33.5 102 Z " /><path fill="rgb(255,255,255)" stroke="rgb(255,255,255)" stroke-width="1" opacity="0.403921568627451" d="M 42.5 102 L 45 102.5 L 42.5 103 L 42.5 102 Z " /><path fill="rgb(255,255,255)" stroke="rgb(255,255,255)" stroke-width="1" opacity="0.403921568627451" d="M 63.5 102 L 66 102.5 L 63.5 103 L 63.5 102 Z " /><path fill="rgb(255,255,255)" stroke="rgb(255,255,255)" stroke-width="1" opacity="0.403921568627451" d="M 51.5 103 L 56 103.5 L 51.5 104 L 51.5 103 Z " /><path fill="rgb(255,255,255)" stroke="rgb(255,255,255)" stroke-width="1" opacity="0.403921568627451" d="M 47.5 104 L 50 104.5 L 47.5 105 L 47.5 104 Z " /><path fill="rgb(255,255,255)" stroke="rgb(255,255,255)" stroke-width="1" opacity="0.403921568627451" d="M 37.5 107 L 40 107.5 L 37.5 108 L 37.5 107 Z " /><path fill="rgb(255,255,255)" stroke="rgb(255,255,255)" stroke-width="1" opacity="0.403921568627451" d="M 68.5 107 L 71 107.5 L 68.5 108 L 68.5 107 Z " /><path fill="rgb(255,255,255)" stroke="rgb(255,255,255)" stroke-width="1" opacity="1" d="M 54.5 0 L 59 3.5 L 62 10.5 L 62 36.5 L 63.5 38 L 68 39 Q 69.5 31.2 75.5 27 Q 80.3 22.8 90.5 24 Q 97.3 26.3 101 31.5 Q 105.5 36 104 46.5 L 97 58 L 107 63.5 L 108 68.5 Q 107 71 102.5 70 L 94 68 Q 94.8 72.7 90.5 74 Q 86.5 74.5 86 71.5 L 85 66 Q 79.6 64.5 78 67.5 L 76.5 70 Q 71 71 70 67.5 Q 70.8 63.8 68.5 63 Q 63.8 64.3 62.5 62 L 62 75 L 60 74.5 L 60 12.5 L 58 5.5 L 55.5 3 Q 51.8 2.3 51 4.5 L 48 13.5 L 48 94.5 L 51.5 100 L 53 99.5 L 53 88.5 L 55 88 L 55 99.5 L 56.5 100 L 60 95.5 L 60 82 L 62 82.5 L 62 93.5 L 63.5 94 L 74 101.5 Q 75.3 106.8 72.5 108 L 57.5 103 L 49.5 103 L 35.5 108 Q 33 107 34 102.5 L 36.5 99 L 46 92.5 L 46 62.5 L 44.5 62 L 38 64.5 Q 38.8 69.3 35.5 70 Q 31 71 30 68.5 L 28.5 66 Q 23.1 64.1 24 67.5 L 19.5 74 Q 14.5 74.5 14 70.5 Q 15.1 67.2 12.5 68 Q 7.9 70.8 1 70 L 0 66.5 L 4.5 61 L 46 36.5 L 46 10.5 L 51.5 1 L 54.5 0 Z M 84 26 L 77 29 L 70 39 Q 69 47 72 51 Q 75 56 83 58 Q 91 59 95 56 Q 101 53 102 45 L 102 40 L 99 33 Q 95 26 84 26 Z M 45 40 L 6 63 Q 2 64 3 68 L 46 60 L 46 41 L 45 40 Z M 62 40 L 62 60 L 104 68 Q 106 69 105 66 L 96 59 L 91 60 Q 81 61 77 58 Q 69 54 68 44 L 62 40 Z M 35 64 L 34 65 Q 31 64 32 68 L 36 67 Q 37 63 35 64 Z M 72 64 L 72 67 L 75 68 L 76 65 L 72 64 Z M 17 67 L 17 71 L 21 70 Q 22 65 17 67 Z M 87 67 L 87 70 L 91 71 L 92 69 L 87 67 Z M 63 96 L 59 102 L 72 105 L 71 101 L 63 96 Z M 45 97 L 41 99 Q 36 100 37 105 L 49 102 L 47 99 Q 48 96 45 97 Z " /><path fill="rgb(255,255,255)" stroke="rgb(255,255,255)" stroke-width="1" opacity="1" d="M 85 40 L 87 40.5 L 87 51 L 85 50.5 L 85 40 Z " /></svg>