<svg width="93" height="100" version="1.1" xmlns="http://www.w3.org/2000/svg" desc="Created with imagetracer.js version 1.2.6" ><path fill="rgb(0,0,0)" stroke="rgb(0,0,0)" stroke-width="1" opacity="0" d="M 73 0 L 93 0 L 93 32.5 L 92 32.5 L 86.5 26 L 77.5 22 L 73 22 L 73 0 Z " /><path fill="rgb(0,0,0)" stroke="rgb(0,0,0)" stroke-width="1" opacity="0" d="M 3 3 L 68.5 3 L 69 3.5 L 69 22 Q 56.3 22.6 51 31.5 L 50 37.5 L 54.5 43 Q 60.3 48.3 69 49 L 69 85 L 58 85 L 58 97 L 40.5 97 L 40 100 L 32 100 L 31.5 97 L 3 97 L 3 11.5 L 0 11 L 0 9 L 3 9 L 3 3 Z M 27 15 L 27 36 L 44 36 L 44 33 L 31 33 L 31 28 L 43 28 L 43 24 L 31 24 L 31 19 L 44 19 L 44 15 L 27 15 Z M 19 46 L 19 61 Q 25 63 23 57 L 29 57 L 29 53 L 23 53 L 23 50 L 30 50 L 30 46 L 19 46 Z M 41 46 L 41 61 Q 47 63 45 57 L 51 57 L 54 53 L 53 49 L 51 46 L 41 46 Z M 50 69 L 50 83 L 54 83 Q 52 77 57 79 Q 59 73 54 75 L 54 73 L 59 73 L 59 71 L 58 69 L 50 69 Z M 14 70 L 14 73 L 18 74 L 18 83 L 21 83 L 21 73 L 25 73 L 25 70 L 14 70 Z M 35 70 L 35 83 L 38 83 L 38 71 L 35 70 Z " /><path fill="rgb(0,0,0)" stroke="rgb(0,0,0)" stroke-width="1" opacity="0" d="M 71.5 25 L 75.5 26 L 80 30.5 L 81 38.5 L 76.5 44 L 68.5 45 L 63 40.5 L 62 32.5 L 67.5 26 L 71.5 25 Z M 69 28 L 67 29 Q 63 31 64 39 Q 66 44 75 43 Q 81 41 79 33 Q 75 34 74 32 Q 76 25 69 28 Z " /><path fill="rgb(0,0,0)" stroke="rgb(0,0,0)" stroke-width="1" opacity="0" d="M 57.5 30 L 59 30.5 L 58 31.5 L 58 39.5 L 58.5 41 L 54 36.5 L 54 34.5 L 57.5 30 Z " /><path fill="rgb(0,0,0)" stroke="rgb(0,0,0)" stroke-width="1" opacity="0" d="M 84.5 30 L 88 32.5 L 89 35.5 L 84.5 41 L 84 39.5 Q 86.8 37.7 85 31.5 L 84.5 30 Z " /><path fill="rgb(0,0,0)" stroke="rgb(0,0,0)" stroke-width="1" opacity="0" d="M 69.5 32 L 74 39 Q 69.4 40.3 68 37.5 Q 67 33 69.5 32 Z " /><path fill="rgb(0,0,0)" stroke="rgb(0,0,0)" stroke-width="1" opacity="0" d="M 92.5 38 L 93 100 L 62 99.5 L 73 87.5 L 73 49 Q 83.9 48.5 90 41.5 L 92.5 38 Z " /><path fill="rgb(0,0,0)" stroke="rgb(0,0,0)" stroke-width="1" opacity="0" d="M 45 50 Q 48.8 49 50 51.5 L 50 53 L 45 53 L 45 50 Z " /><path fill="rgb(0,0,0)" stroke="rgb(0,0,0)" stroke-width="1" opacity="0" d="M 62 89 L 65 89.5 L 62 91.5 L 62 89 Z " /><path fill="rgb(255,255,255)" stroke="rgb(255,255,255)" stroke-width="1" opacity="0.9372549019607843" d="M 66.5 89 L 62.5 94 L 66.5 89 Z " /><path fill="rgb(255,255,255)" stroke="rgb(255,255,255)" stroke-width="1" opacity="1" d="M 0 0 L 72.5 0 L 73 0.5 L 73 22.5 Q 73 23.5 77.5 23 Q 86 25.5 91 31.5 L 93 35.5 L 85.5 44 Q 80.5 47.8 73 48 L 73 84.5 L 72 87.5 L 60.5 99 L 57.5 100 L 42.5 100 L 41.5 98 L 59 98 L 59 86 L 70 86 L 70 48 Q 57.7 47 52 38.5 L 51 33.5 L 56.5 27 L 65.5 23 L 70 23 L 70 3.5 L 69.5 3 L 2 3 L 2 8 L 0 8 L 0 0 Z M 68 25 L 66 26 L 61 33 L 62 41 L 69 46 L 77 45 L 82 39 L 81 30 Q 78 23 68 25 Z M 59 28 L 53 34 L 53 37 L 60 42 L 59 39 Q 58 31 61 29 L 59 28 Z M 84 28 L 84 32 Q 86 38 83 40 L 84 43 L 90 37 L 90 34 L 84 28 Z M 61 88 L 61 94 L 67 90 L 67 88 L 61 88 Z " /><path fill="rgb(255,255,255)" stroke="rgb(255,255,255)" stroke-width="1" opacity="1" d="M 0 12 L 2 12.5 L 2 97 L 31.5 97 L 32 99 L 0 99 L 0 12 Z " /><path fill="rgb(255,255,255)" stroke="rgb(255,255,255)" stroke-width="1" opacity="1" d="M 28 16 L 42.5 16 L 43 18 L 30 18 L 30 25 L 41.5 25 L 42 27 L 30 27 L 30 32.5 L 31.5 34 L 43 34 L 42.5 36 L 28 36 L 28 16 Z " /><path fill="rgb(255,255,255)" stroke="rgb(255,255,255)" stroke-width="1" opacity="1" d="M 71.5 28 Q 74 29.2 73 33 L 78 34 Q 79.3 39.5 75.5 41 L 69.5 42 L 66 39.5 L 65 32.5 L 71.5 28 Z M 68 31 L 67 38 Q 68 41 74 40 L 76 36 L 71 34 Q 72 29 68 31 Z " /><path fill="rgb(255,255,255)" stroke="rgb(255,255,255)" stroke-width="1" opacity="1" d="M 20 47 L 28.5 47 L 29 49 L 22 49 L 22 54 L 28 54 L 28 56 L 22 56 Q 23.7 61.2 20 60 L 20 47 Z " /><path fill="rgb(255,255,255)" stroke="rgb(255,255,255)" stroke-width="1" opacity="1" d="M 42 47 L 50.5 47 L 52 48.5 L 53 52.5 L 52 55 L 44 56 Q 45.7 61.2 42 60 L 42 47 Z M 44 49 Q 41 57 50 54 L 51 52 Q 50 48 44 49 Z " /><path fill="rgb(255,255,255)" stroke="rgb(255,255,255)" stroke-width="1" opacity="1" d="M 15 70 L 23.5 70 L 24 72 L 21 72 L 21 81.5 L 19 82 L 19 73.5 L 17.5 72 Q 13.8 73 15 70 Z " /><path fill="rgb(255,255,255)" stroke="rgb(255,255,255)" stroke-width="1" opacity="1" d="M 35 70 L 37 70.5 L 37 82 L 35 81.5 L 35 70 Z " /><path fill="rgb(255,255,255)" stroke="rgb(255,255,255)" stroke-width="1" opacity="1" d="M 51 70 L 57.5 70 L 58 72 Q 50.9 69.6 53 76 Q 57.1 74.7 56 78 L 53 78 Q 54.7 83.2 51 82 L 51 70 Z " /><path fill="rgb(255,255,255)" stroke="rgb(255,255,255)" stroke-width="1" opacity="0.34509803921568627" d="M 69.5 3 L 70 21.5 L 69 21.5 L 69.5 3 Z " /><path fill="rgb(255,255,255)" stroke="rgb(255,255,255)" stroke-width="1" opacity="0.34509803921568627" d="M 0.5 11 L 3 11.5 L 0.5 12 L 0.5 11 Z " /><path fill="rgb(255,255,255)" stroke="rgb(255,255,255)" stroke-width="1" opacity="0.34509803921568627" d="M 27 15 L 44 15.5 L 28 16 L 27.5 36 L 27 15 Z " /><path fill="rgb(255,255,255)" stroke="rgb(255,255,255)" stroke-width="1" opacity="0.34509803921568627" d="M 31.5 18 L 44 18.5 L 31.5 19 L 31.5 18 Z " /><path fill="rgb(255,255,255)" stroke="rgb(255,255,255)" stroke-width="1" opacity="0.34509803921568627" d="M 42.5 24 L 43 28 L 31 27.5 L 42 27 L 42.5 24 Z " /><path fill="rgb(255,255,255)" stroke="rgb(255,255,255)" stroke-width="1" opacity="0.34509803921568627" d="M 59.5 24 L 61 24.5 L 51.5 32 L 57.5 25 L 59.5 24 Z " /><path fill="rgb(255,255,255)" stroke="rgb(255,255,255)" stroke-width="1" opacity="0.34509803921568627" d="M 82.5 24 L 85 25.5 L 83.5 25 L 82.5 24 Z " /><path fill="rgb(255,255,255)" stroke="rgb(255,255,255)" stroke-width="1" opacity="0.34509803921568627" d="M 68.5 25 L 71 25.5 L 68.5 26 L 68.5 25 Z " /><path fill="rgb(255,255,255)" stroke="rgb(255,255,255)" stroke-width="1" opacity="0.34509803921568627" d="M 72.5 25 L 75 25.5 L 72.5 26 L 72.5 25 Z " /><path fill="rgb(255,255,255)" stroke="rgb(255,255,255)" stroke-width="1" opacity="0.34509803921568627" d="M 66.5 26 L 63 30.5 L 62.5 32 L 62 30.5 L 66.5 26 Z " /><path fill="rgb(255,255,255)" stroke="rgb(255,255,255)" stroke-width="1" opacity="0.34509803921568627" d="M 76.5 26 L 81 31.5 L 80 31.5 L 76.5 26 Z " /><path fill="rgb(255,255,255)" stroke="rgb(255,255,255)" stroke-width="1" opacity="0.34509803921568627" d="M 86.5 26 L 91.5 32 L 86.5 26 Z " /><path fill="rgb(255,255,255)" stroke="rgb(255,255,255)" stroke-width="1" opacity="0.34509803921568627" d="M 59.5 28 L 60 30 L 58 29.5 L 59.5 28 Z " /><path fill="rgb(255,255,255)" stroke="rgb(255,255,255)" stroke-width="1" opacity="0.34509803921568627" d="M 66.5 29 L 65.5 31 L 66.5 29 Z " /><path fill="rgb(255,255,255)" stroke="rgb(255,255,255)" stroke-width="1" opacity="0.34509803921568627" d="M 56.5 30 L 55.5 32 L 56.5 30 Z " /><path fill="rgb(255,255,255)" stroke="rgb(255,255,255)" stroke-width="1" opacity="0.34509803921568627" d="M 73.5 30 L 75 32.5 L 73 31.5 L 73.5 30 Z " /><path fill="rgb(255,255,255)" stroke="rgb(255,255,255)" stroke-width="1" opacity="0.34509803921568627" d="M 86.5 30 L 87.5 32 L 86.5 30 Z " /><path fill="rgb(255,255,255)" stroke="rgb(255,255,255)" stroke-width="1" opacity="0.34509803921568627" d="M 58.5 31 L 59 33.5 L 58 33.5 L 58.5 31 Z " /><path fill="rgb(255,255,255)" stroke="rgb(255,255,255)" stroke-width="1" opacity="0.34509803921568627" d="M 69.5 31 L 73.5 36 Q 75.8 35.3 75 37.5 L 70 33.5 L 69.5 32 L 68 32.5 L 69.5 31 Z " /><path fill="rgb(255,255,255)" stroke="rgb(255,255,255)" stroke-width="1" opacity="0.34509803921568627" d="M 84.5 31 L 85 33.5 L 84 33.5 L 84.5 31 Z " /><path fill="rgb(255,255,255)" stroke="rgb(255,255,255)" stroke-width="1" opacity="0.34509803921568627" d="M 54.5 33 L 54 34.5 L 53.5 36 L 53 34.5 L 54.5 33 Z " /><path fill="rgb(255,255,255)" stroke="rgb(255,255,255)" stroke-width="1" opacity="0.34509803921568627" d="M 61.5 33 L 62 37.5 L 61 37.5 L 61.5 33 Z " /><path fill="rgb(255,255,255)" stroke="rgb(255,255,255)" stroke-width="1" opacity="0.34509803921568627" d="M 81.5 33 L 82 37.5 L 81 37.5 L 81.5 33 Z " /><path fill="rgb(255,255,255)" stroke="rgb(255,255,255)" stroke-width="1" opacity="0.34509803921568627" d="M 88.5 33 L 90 35.5 L 88 36.5 L 89 34.5 L 88.5 33 Z " /><path fill="rgb(255,255,255)" stroke="rgb(255,255,255)" stroke-width="1" opacity="0.34509803921568627" d="M 67.5 34 L 68 36.5 L 67 36.5 L 67.5 34 Z " /><path fill="rgb(255,255,255)" stroke="rgb(255,255,255)" stroke-width="1" opacity="0.34509803921568627" d="M 84.5 36 L 85 38.5 L 84 38.5 L 84.5 36 Z " /><path fill="rgb(255,255,255)" stroke="rgb(255,255,255)" stroke-width="1" opacity="0.34509803921568627" d="M 50.5 37 L 51.5 39 L 50.5 37 Z " /><path fill="rgb(255,255,255)" stroke="rgb(255,255,255)" stroke-width="1" opacity="0.34509803921568627" d="M 54.5 37 L 58 39.5 L 58.5 37 L 59 39.5 L 57.5 41 L 54.5 37 Z " /><path fill="rgb(255,255,255)" stroke="rgb(255,255,255)" stroke-width="1" opacity="0.34509803921568627" d="M 64.5 37 L 68 41.5 L 64 38.5 L 64.5 37 Z " /><path fill="rgb(255,255,255)" stroke="rgb(255,255,255)" stroke-width="1" opacity="0.34509803921568627" d="M 78.5 37 L 79 38.5 L 74.5 43 L 72.5 43 L 72.5 42 Q 77.5 42.5 78 38.5 L 78.5 37 Z " /><path fill="rgb(255,255,255)" stroke="rgb(255,255,255)" stroke-width="1" opacity="0.34509803921568627" d="M 92.5 37 L 90.5 40 L 92.5 37 Z " /><path fill="rgb(255,255,255)" stroke="rgb(255,255,255)" stroke-width="1" opacity="0.34509803921568627" d="M 70.5 39 L 73 39.5 L 70.5 40 L 70.5 39 Z " /><path fill="rgb(255,255,255)" stroke="rgb(255,255,255)" stroke-width="1" opacity="0.34509803921568627" d="M 52.5 40 L 54.5 43 L 52.5 40 Z " /><path fill="rgb(255,255,255)" stroke="rgb(255,255,255)" stroke-width="1" opacity="0.34509803921568627" d="M 85.5 40 L 84.5 42 L 83 41.5 L 85.5 40 Z " /><path fill="rgb(255,255,255)" stroke="rgb(255,255,255)" stroke-width="1" opacity="0.34509803921568627" d="M 63.5 41 L 65.5 44 L 63.5 41 Z " /><path fill="rgb(255,255,255)" stroke="rgb(255,255,255)" stroke-width="1" opacity="0.34509803921568627" d="M 79.5 41 L 77.5 44 L 79.5 41 Z " /><path fill="rgb(255,255,255)" stroke="rgb(255,255,255)" stroke-width="1" opacity="0.34509803921568627" d="M 89.5 41 L 88.5 43 L 89.5 41 Z " /><path fill="rgb(255,255,255)" stroke="rgb(255,255,255)" stroke-width="1" opacity="0.34509803921568627" d="M 56.5 43 L 57.5 45 L 56.5 43 Z " /><path fill="rgb(255,255,255)" stroke="rgb(255,255,255)" stroke-width="1" opacity="0.34509803921568627" d="M 86.5 43 L 85.5 45 L 86.5 43 Z " /><path fill="rgb(255,255,255)" stroke="rgb(255,255,255)" stroke-width="1" opacity="0.34509803921568627" d="M 70.5 45 L 73 45.5 L 70.5 46 L 70.5 45 Z " /><path fill="rgb(255,255,255)" stroke="rgb(255,255,255)" stroke-width="1" opacity="0.34509803921568627" d="M 19 46 L 30 46.5 L 20 47 L 19.5 61 L 19 46 Z " /><path fill="rgb(255,255,255)" stroke="rgb(255,255,255)" stroke-width="1" opacity="0.34509803921568627" d="M 41.5 46 L 42 60.5 L 41 60.5 L 41.5 46 Z " /><path fill="rgb(255,255,255)" stroke="rgb(255,255,255)" stroke-width="1" opacity="0.34509803921568627" d="M 48.5 46 Q 52.5 45.5 53 48.5 L 50.5 47 Q 47.5 47.5 48.5 46 Z " /><path fill="rgb(255,255,255)" stroke="rgb(255,255,255)" stroke-width="1" opacity="0.34509803921568627" d="M 67.5 48 L 70 49.5 L 69.5 85 L 69 49 L 67.5 48 Z " /><path fill="rgb(255,255,255)" stroke="rgb(255,255,255)" stroke-width="1" opacity="0.34509803921568627" d="M 73.5 48 L 76 48.5 L 73.5 49 L 73.5 48 Z " /><path fill="rgb(255,255,255)" stroke="rgb(255,255,255)" stroke-width="1" opacity="0.34509803921568627" d="M 23.5 49 L 30 49.5 L 23.5 50 L 23.5 49 Z " /><path fill="rgb(255,255,255)" stroke="rgb(255,255,255)" stroke-width="1" opacity="0.34509803921568627" d="M 45.5 49 L 48 49.5 L 45.5 50 L 45.5 49 Z " /><path fill="rgb(255,255,255)" stroke="rgb(255,255,255)" stroke-width="1" opacity="0.34509803921568627" d="M 53.5 50 L 54 52.5 L 53 52.5 L 53.5 50 Z " /><path fill="rgb(255,255,255)" stroke="rgb(255,255,255)" stroke-width="1" opacity="0.34509803921568627" d="M 23.5 53 Q 31.3 50.6 29 57 L 23 56.5 L 28 56 Q 29.4 52.3 23.5 54 L 23.5 53 Z " /><path fill="rgb(255,255,255)" stroke="rgb(255,255,255)" stroke-width="1" opacity="0.34509803921568627" d="M 45.5 53 L 49 53.5 L 45.5 54 L 45.5 53 Z " /><path fill="rgb(255,255,255)" stroke="rgb(255,255,255)" stroke-width="1" opacity="0.34509803921568627" d="M 52.5 54 L 50.5 57 L 49 56.5 L 52.5 54 Z " /><path fill="rgb(255,255,255)" stroke="rgb(255,255,255)" stroke-width="1" opacity="0.34509803921568627" d="M 44.5 57 L 45 60.5 L 44 60.5 L 44.5 57 Z " /><path fill="rgb(255,255,255)" stroke="rgb(255,255,255)" stroke-width="1" opacity="0.34509803921568627" d="M 50 69 L 57.5 69 L 59 70.5 L 58.5 73 L 58 70 L 51 70 L 51 82.5 L 50 82.5 L 50 69 Z " /><path fill="rgb(255,255,255)" stroke="rgb(255,255,255)" stroke-width="1" opacity="0.34509803921568627" d="M 14.5 70 L 15 72.5 L 14 72.5 L 14.5 70 Z " /><path fill="rgb(255,255,255)" stroke="rgb(255,255,255)" stroke-width="1" opacity="0.34509803921568627" d="M 24.5 70 L 25 72.5 L 24 72.5 L 24.5 70 Z " /><path fill="rgb(255,255,255)" stroke="rgb(255,255,255)" stroke-width="1" opacity="0.34509803921568627" d="M 54.5 75 L 57 75.5 L 54.5 76 L 54.5 75 Z " /><path fill="rgb(255,255,255)" stroke="rgb(255,255,255)" stroke-width="1" opacity="0.34509803921568627" d="M 62.5 88 L 67 88.5 L 61 93.5 Q 60 89 62.5 88 Z M 62 89 L 62 92 L 65 90 L 62 89 Z " /><path fill="rgb(255,255,255)" stroke="rgb(255,255,255)" stroke-width="1" opacity="0.34509803921568627" d="M 71.5 89 L 61.5 100 L 60 99.5 L 71.5 89 Z " /><path fill="rgb(255,255,255)" stroke="rgb(255,255,255)" stroke-width="1" opacity="0.34509803921568627" d="M 40.5 97 L 41 99.5 L 40 99.5 L 40.5 97 Z " /><path fill="rgb(255,255,255)" stroke="rgb(255,255,255)" stroke-width="1" opacity="0.8431372549019608" d="M 2.5 3 L 3 7.5 L 0.5 9 L 0.5 8 L 2 8 L 2.5 3 Z " /><path fill="rgb(255,255,255)" stroke="rgb(255,255,255)" stroke-width="1" opacity="0.8431372549019608" d="M 2.5 12 L 3 96.5 L 2 96.5 L 2.5 12 Z " /><path fill="rgb(255,255,255)" stroke="rgb(255,255,255)" stroke-width="1" opacity="0.8431372549019608" d="M 30.5 18 L 31 24 L 42 24.5 L 31.5 25 Q 28.4 23.4 30.5 18 Z " /><path fill="rgb(255,255,255)" stroke="rgb(255,255,255)" stroke-width="1" opacity="0.8431372549019608" d="M 73.5 22 L 76 22.5 L 73.5 23 L 73.5 22 Z " /><path fill="rgb(255,255,255)" stroke="rgb(255,255,255)" stroke-width="1" opacity="0.8431372549019608" d="M 65.5 26 L 63.5 29 L 65.5 26 Z " /><path fill="rgb(255,255,255)" stroke="rgb(255,255,255)" stroke-width="1" opacity="0.8431372549019608" d="M 77.5 26 L 79.5 29 L 77.5 26 Z " /><path fill="rgb(255,255,255)" stroke="rgb(255,255,255)" stroke-width="1" opacity="0.8431372549019608" d="M 30.5 27 L 31 33 L 42.5 33 L 44 34.5 L 43.5 36 L 43 34 L 31.5 34 L 30 32.5 L 30.5 27 Z " /><path fill="rgb(255,255,255)" stroke="rgb(255,255,255)" stroke-width="1" opacity="0.8431372549019608" d="M 67.5 29 L 65.5 32 L 67.5 29 Z " /><path fill="rgb(255,255,255)" stroke="rgb(255,255,255)" stroke-width="1" opacity="0.8431372549019608" d="M 54.5 32 L 53.5 34 L 54.5 32 Z " /><path fill="rgb(255,255,255)" stroke="rgb(255,255,255)" stroke-width="1" opacity="0.8431372549019608" d="M 75.5 33 L 79 34.5 L 78.5 37 L 78 34 Q 74.7 34.8 75.5 33 Z " /><path fill="rgb(255,255,255)" stroke="rgb(255,255,255)" stroke-width="1" opacity="0.8431372549019608" d="M 58.5 34 L 59 36.5 L 58 36.5 L 58.5 34 Z " /><path fill="rgb(255,255,255)" stroke="rgb(255,255,255)" stroke-width="1" opacity="0.8431372549019608" d="M 64.5 34 L 65 36.5 L 64 36.5 L 64.5 34 Z " /><path fill="rgb(255,255,255)" stroke="rgb(255,255,255)" stroke-width="1" opacity="0.8431372549019608" d="M 75.5 36 L 76 37.5 L 73 39.5 L 75.5 36 Z " /><path fill="rgb(255,255,255)" stroke="rgb(255,255,255)" stroke-width="1" opacity="0.8431372549019608" d="M 89.5 36 L 86.5 40 L 89.5 36 Z " /><path fill="rgb(255,255,255)" stroke="rgb(255,255,255)" stroke-width="1" opacity="0.8431372549019608" d="M 52.5 39 L 55.5 43 L 52.5 39 Z " /><path fill="rgb(255,255,255)" stroke="rgb(255,255,255)" stroke-width="1" opacity="0.8431372549019608" d="M 59.5 40 L 58.5 42 L 59.5 40 Z " /><path fill="rgb(255,255,255)" stroke="rgb(255,255,255)" stroke-width="1" opacity="0.8431372549019608" d="M 89.5 40 L 87.5 43 L 89.5 40 Z " /><path fill="rgb(255,255,255)" stroke="rgb(255,255,255)" stroke-width="1" opacity="0.8431372549019608" d="M 42.5 46 L 48 46.5 L 42.5 47 L 42.5 46 Z " /><path fill="rgb(255,255,255)" stroke="rgb(255,255,255)" stroke-width="1" opacity="0.8431372549019608" d="M 22.5 49 L 23 53.5 L 22 53.5 L 22.5 49 Z " /><path fill="rgb(255,255,255)" stroke="rgb(255,255,255)" stroke-width="1" opacity="0.8431372549019608" d="M 44.5 49 L 45 53.5 L 44 53.5 L 44.5 49 Z " /><path fill="rgb(255,255,255)" stroke="rgb(255,255,255)" stroke-width="1" opacity="0.8431372549019608" d="M 50.5 51 L 51 52.5 L 49 53.5 L 50.5 51 Z " /><path fill="rgb(255,255,255)" stroke="rgb(255,255,255)" stroke-width="1" opacity="0.8431372549019608" d="M 22.5 56 L 23 58.5 L 22 58.5 L 22.5 56 Z " /><path fill="rgb(255,255,255)" stroke="rgb(255,255,255)" stroke-width="1" opacity="0.8431372549019608" d="M 44.5 56 L 49 56.5 L 44.5 57 L 44.5 56 Z " /><path fill="rgb(255,255,255)" stroke="rgb(255,255,255)" stroke-width="1" opacity="0.8431372549019608" d="M 37.5 70 L 38 83 L 35 82.5 L 37 82 L 37.5 70 Z " /><path fill="rgb(255,255,255)" stroke="rgb(255,255,255)" stroke-width="1" opacity="0.8431372549019608" d="M 15.5 72 L 19 73.5 L 19 81.5 L 20.5 82 L 20.5 83 L 18 83 L 18 73.5 L 15.5 73 L 15.5 72 Z " /><path fill="rgb(255,255,255)" stroke="rgb(255,255,255)" stroke-width="1" opacity="0.8431372549019608" d="M 21.5 72 L 24 72.5 L 21.5 73 L 21.5 72 Z " /><path fill="rgb(255,255,255)" stroke="rgb(255,255,255)" stroke-width="1" opacity="0.8431372549019608" d="M 54.5 72 L 58 72.5 L 54 73 L 53.5 76 L 53 73.5 L 54.5 72 Z " /><path fill="rgb(255,255,255)" stroke="rgb(255,255,255)" stroke-width="1" opacity="0.8431372549019608" d="M 56.5 76 L 57 77.5 L 54 79 L 52.5 83 L 51 82.5 L 53 82 L 54.5 78 Q 57 78.7 56.5 76 Z " /><path fill="rgb(255,255,255)" stroke="rgb(255,255,255)" stroke-width="1" opacity="0.8431372549019608" d="M 59.5 85 L 70 85.5 L 59 86 L 59 96.5 L 57.5 98 L 41 97.5 L 58 97 L 58 86.5 L 59.5 85 Z " /><path fill="rgb(255,255,255)" stroke="rgb(255,255,255)" stroke-width="1" opacity="0.8431372549019608" d="M 71.5 88 L 61.5 99 L 71.5 88 Z " /><path fill="rgb(255,255,255)" stroke="rgb(255,255,255)" stroke-width="1" opacity="0.8431372549019608" d="M 0.5 99 L 32 99.5 L 0.5 100 L 0.5 99 Z " /></svg>