<svg width="47" height="53" viewBox="0 0 47 53" fill="none" xmlns="http://www.w3.org/2000/svg">
<path d="M46.4912 23.2456C46.4912 36.0838 35.3333 46.4912 23.2456 53C8.36842 44.6316 0 36.0838 0 23.2456C0 10.4074 10.4074 0 23.2456 0C36.0838 0 46.4912 10.4074 46.4912 23.2456Z" fill="#E8623D"/>
<path d="M30.1425 22.5112C28.1644 24.0649 26.7011 24.0649 24.8788 22.5112C24.1539 23.1987 23.3139 23.673 22.2774 23.6662C21.2545 23.6662 20.4077 23.2606 19.6625 22.5112C17.9147 24.0511 16.1533 24.0924 14.4936 22.6212C13.789 22.9581 13.1726 23.3912 12.4951 23.563C10.4831 24.0786 8.45756 22.5594 8.30175 20.4626C8.27465 20.112 8.40336 19.679 8.6066 19.3834C9.94116 17.4241 11.3231 15.4993 12.678 13.5538C12.949 13.1688 13.281 13.0176 13.7416 13.0176C19.4186 13.0245 25.1024 13.0245 30.7793 13.0176C31.24 13.0176 31.572 13.1894 31.8362 13.5675C33.191 15.513 34.5798 17.4379 35.9076 19.3971C36.1311 19.7271 36.2328 20.2358 36.1786 20.6345C35.9821 22.0025 35.2098 22.9718 33.9227 23.4462C32.6559 23.9136 31.4907 23.6593 30.4542 22.7931C30.3593 22.7106 30.2645 22.6212 30.1425 22.5181V22.5112Z" fill="white"/>
<path d="M34.492 25.1639C34.492 25.7276 34.492 26.2776 34.492 26.8344C34.492 29.2336 34.492 31.6397 34.492 34.0388C34.492 35.4 33.8146 36.0806 32.4733 36.0874C32.0058 36.0874 31.5316 36.0874 31.0032 36.0874V27.2469H25.7733V36.0874C25.5227 36.0874 25.3262 36.0874 25.1365 36.0874C20.8077 36.0874 16.472 36.0874 12.1432 36.0874C10.6596 36.0874 10.016 35.4344 10.016 33.9289C10.016 31.1928 10.016 28.4636 10.016 25.7276V25.2464C10.8831 25.2808 11.7232 25.3083 12.5632 25.3357C12.6174 25.3357 12.6783 25.3357 12.7258 25.322C13.8436 24.7858 14.9275 24.9164 16.0859 25.2945C17.1698 25.6451 18.2808 25.3632 19.3241 24.8889C19.507 24.8064 19.7915 24.8133 19.9744 24.8958C21.4919 25.5764 22.9958 25.5832 24.5201 24.9027C24.7165 24.8133 25.0214 24.8064 25.2178 24.9027C26.7421 25.5764 28.246 25.5901 29.7635 24.9027C29.9396 24.827 30.2038 24.7858 30.3664 24.8614C31.64 25.4801 32.9407 25.6039 34.2956 25.1845C34.343 25.1708 34.404 25.1708 34.492 25.1639ZM20.469 32.5058V27.2537H13.5455V32.5058H20.469Z" fill="white"/>
</svg>
